<svg width="693" height="68" viewBox="0 0 693 68" fill="none" xmlns="http://www.w3.org/2000/svg">
<path d="M0.643794 66.667L28.8216 0.978098H36.1994L64.466 66.667H57.266L47.7549 44.5337H17.1771L7.57713 66.667H0.643794ZM19.666 38.5781H45.1771L32.5549 8.44476L19.666 38.5781ZM65.9091 66.667L86.798 18.0448H94.1757L115.065 66.667H108.131L90.5313 25.5114L72.8424 66.667H65.9091ZM121.151 66.667V18.0448H127.729V57.3337L157.329 18.0448H163.907V66.667H157.329V27.3781L127.729 66.667H121.151ZM175.144 66.667V18.0448H181.722V38.9337H210.878V18.0448H217.456V66.667H210.878V44.8892H181.722V66.667H175.144ZM226.75 42.4892C226.75 38.8151 227.402 35.4374 228.706 32.3559C230.009 29.2151 231.787 26.5188 234.039 24.267C236.35 21.9559 239.076 20.1485 242.217 18.8448C245.357 17.5411 248.735 16.8892 252.35 16.8892C256.617 16.8892 260.261 17.6596 263.283 19.2003C266.365 20.7411 269.12 23.23 271.55 26.667V18.0448H278.128V66.667H271.55V58.1337C268.943 61.63 266.217 64.1188 263.372 65.6003C260.528 67.0818 257.032 67.8225 252.883 67.8225C249.15 67.8225 245.683 67.2003 242.483 65.9559C239.283 64.6522 236.498 62.8744 234.128 60.6225C231.817 58.3707 230.009 55.704 228.706 52.6225C227.402 49.4818 226.75 46.104 226.75 42.4892ZM233.417 42.2225C233.417 44.9485 233.92 47.4966 234.928 49.867C235.935 52.2374 237.298 54.3114 239.017 56.0892C240.795 57.867 242.839 59.2596 245.15 60.267C247.52 61.2744 250.069 61.7781 252.795 61.7781C255.461 61.7781 257.92 61.2744 260.172 60.267C262.483 59.2596 264.469 57.8966 266.128 56.1781C267.846 54.4003 269.18 52.3263 270.128 49.9559C271.076 47.5855 271.55 45.0077 271.55 42.2225C271.55 39.4374 271.046 36.8892 270.039 34.5781C269.091 32.2077 267.757 30.1633 266.039 28.4448C264.32 26.7262 262.276 25.3929 259.906 24.4448C257.595 23.4374 255.046 22.9337 252.261 22.9337C249.654 22.9337 247.195 23.4374 244.883 24.4448C242.632 25.4522 240.646 26.8448 238.928 28.6225C237.209 30.3411 235.846 32.3855 234.839 34.7559C233.891 37.067 233.417 39.5559 233.417 42.2225ZM315.102 66.667V0.978098H347.191V6.93365H321.68V66.667H315.102ZM394.065 50.667H400.91C400.021 53.2151 398.776 55.5559 397.176 57.6892C395.576 59.7633 393.739 61.5707 391.665 63.1114C389.651 64.5929 387.399 65.7485 384.91 66.5781C382.48 67.4077 379.932 67.8225 377.265 67.8225C373.651 67.8225 370.273 67.1707 367.132 65.867C364.051 64.504 361.354 62.667 359.043 60.3559C356.732 58.0448 354.895 55.3485 353.532 52.267C352.228 49.1263 351.576 45.7485 351.576 42.1337C351.576 38.5781 352.228 35.2892 353.532 32.267C354.836 29.1855 356.613 26.5188 358.865 24.267C361.117 21.9559 363.784 20.1485 366.865 18.8448C369.947 17.5411 373.236 16.8892 376.732 16.8892C380.228 16.8892 383.517 17.5707 386.599 18.9337C389.739 20.2374 392.465 22.0151 394.776 24.267C397.147 26.5188 399.013 29.1559 400.376 32.1781C401.739 35.2003 402.421 38.4003 402.421 41.7781C402.421 42.2522 402.391 42.7262 402.332 43.2003C402.273 43.6151 402.184 44.0596 402.065 44.5337H358.154C358.273 46.9633 358.865 49.2151 359.932 51.2892C360.999 53.3633 362.362 55.2003 364.021 56.8003C365.739 58.3411 367.725 59.5559 369.976 60.4448C372.228 61.3337 374.599 61.7781 377.088 61.7781C380.821 61.7781 384.228 60.7707 387.31 58.7559C390.451 56.6818 392.702 53.9855 394.065 50.667ZM358.332 38.5781H395.576C394.451 33.7188 392.199 29.8966 388.821 27.1114C385.502 24.3262 381.473 22.9337 376.732 22.9337C374.421 22.9337 372.228 23.3188 370.154 24.0892C368.139 24.8003 366.332 25.867 364.732 27.2892C363.132 28.6522 361.769 30.3114 360.643 32.267C359.576 34.1633 358.806 36.267 358.332 38.5781ZM411.256 66.667V18.0448H417.833V38.9337H446.989V18.0448H453.567V66.667H446.989V44.8892H417.833V66.667H411.256ZM464.728 66.667V18.0448H471.306V60.7114H491.483V18.0448H498.061V60.7114H518.239V18.0448H524.817V66.667H464.728ZM535.995 66.667V18.0448H542.573V57.3337L572.173 18.0448H578.751V66.667H572.173V27.3781L542.573 66.667H535.995ZM589.988 66.667V18.0448H596.566V38.9337H625.722V18.0448H632.299V66.667H625.722V44.8892H596.566V66.667H589.988ZM641.594 42.4892C641.594 38.8151 642.246 35.4374 643.549 32.3559C644.853 29.2151 646.631 26.5188 648.883 24.267C651.194 21.9559 653.92 20.1485 657.06 18.8448C660.201 17.5411 663.579 16.8892 667.194 16.8892C671.46 16.8892 675.105 17.6596 678.127 19.2003C681.209 20.7411 683.964 23.23 686.394 26.667V18.0448H692.972V66.667H686.394V58.1337C683.786 61.63 681.06 64.1188 678.216 65.6003C675.372 67.0818 671.875 67.8225 667.727 67.8225C663.994 67.8225 660.527 67.2003 657.327 65.9559C654.127 64.6522 651.342 62.8744 648.972 60.6225C646.66 58.3707 644.853 55.704 643.549 52.6225C642.246 49.4818 641.594 46.104 641.594 42.4892ZM648.26 42.2225C648.26 44.9485 648.764 47.4966 649.772 49.867C650.779 52.2374 652.142 54.3114 653.86 56.0892C655.638 57.867 657.683 59.2596 659.994 60.267C662.364 61.2744 664.912 61.7781 667.638 61.7781C670.305 61.7781 672.764 61.2744 675.016 60.267C677.327 59.2596 679.312 57.8966 680.972 56.1781C682.69 54.4003 684.023 52.3263 684.972 49.9559C685.92 47.5855 686.394 45.0077 686.394 42.2225C686.394 39.4374 685.89 36.8892 684.883 34.5781C683.935 32.2077 682.601 30.1633 680.883 28.4448C679.164 26.7262 677.12 25.3929 674.749 24.4448C672.438 23.4374 669.89 22.9337 667.105 22.9337C664.498 22.9337 662.038 23.4374 659.727 24.4448C657.475 25.4522 655.49 26.8448 653.772 28.6225C652.053 30.3411 650.69 32.3855 649.683 34.7559C648.735 37.067 648.26 39.5559 648.26 42.2225Z" fill="white"/>
</svg>
