<svg width="357" height="112" viewBox="0 0 357 112" fill="none" xmlns="http://www.w3.org/2000/svg">
<rect y="25.7793" width="351.371" height="85.6856" rx="42.8428" transform="rotate(-4.20744 0 25.7793)" fill="#32E97B"/>
<path d="M42.4892 78.6475L40.699 54.3132L61.6523 52.7717L63.4425 77.106L60.1505 77.3482L58.5796 55.9945L44.2103 57.0516L45.7812 78.4053L42.4892 78.6475ZM69.6619 85.2362L67.2434 52.3604L70.5354 52.1182L70.8431 56.3C71.7655 54.6518 72.998 53.3683 74.5406 52.4498C76.1129 51.529 77.9518 50.9912 80.0576 50.8363C81.8667 50.7032 83.5812 50.905 85.2011 51.4419C86.8209 51.9787 88.2369 52.784 89.449 53.8578C90.6886 54.8997 91.6924 56.1826 92.4605 57.7064C93.2264 59.2006 93.6759 60.8523 93.809 62.6614C93.9421 64.4706 93.7243 66.1713 93.1557 67.7637C92.6166 69.3539 91.8113 70.7699 90.7398 72.0117C89.666 73.2237 88.3672 74.2138 86.8433 74.982C85.3195 75.7501 83.653 76.2007 81.8439 76.3338C79.7975 76.4843 77.944 76.2181 76.2836 75.5352C74.6232 74.8522 73.2013 73.7641 72.018 72.2708L72.954 84.994L69.6619 85.2362ZM81.5768 73.3119C82.9411 73.2116 84.1841 72.8816 85.3058 72.322C86.4551 71.7305 87.4281 70.9731 88.2249 70.0497C89.0217 69.1264 89.6148 68.0689 90.0042 66.8774C90.4212 65.654 90.5794 64.3601 90.4791 62.9959C90.3743 61.5723 90.0262 60.2859 89.4348 59.1367C88.8708 57.9556 88.1271 56.9667 87.2038 56.1699C86.2783 55.3434 85.2049 54.7365 83.9837 54.3493C82.7603 53.9324 81.4368 53.7763 80.0132 53.881C78.6786 53.9792 77.4515 54.3229 76.3319 54.9122C75.2124 55.5015 74.2553 56.2726 73.4606 57.2256C72.6638 58.149 72.057 59.2223 71.6401 60.4457C71.2528 61.667 71.1094 62.9597 71.2097 64.324C71.3101 65.6882 71.6412 66.9461 72.203 68.0975C72.7944 69.2467 73.5529 70.2346 74.4785 71.061C75.4315 71.8556 76.5048 72.4625 77.6986 72.8816C78.9198 73.2688 80.2126 73.4123 81.5768 73.3119ZM99.3576 74.4639L97.5674 50.1296L100.859 49.8874L102.306 69.5506L115.674 48.7976L118.966 48.5554L120.756 72.8897L117.464 73.1319L116.017 53.4687L102.65 74.2217L99.3576 74.4639ZM123.8 72.6658L132.464 47.5624L136.156 47.2908L148.401 70.856L144.931 71.1112L134.607 51.1618L127.27 72.4105L123.8 72.6658ZM147.578 58.7059C147.442 56.8671 147.628 55.1389 148.135 53.5212C148.672 51.9013 149.478 50.4853 150.551 49.2733C151.625 48.0612 152.925 47.0859 154.451 46.3474C155.975 45.5793 157.671 45.1265 159.54 44.9891C161.319 44.8582 162.989 45.0633 164.55 45.6045C166.14 46.1436 167.526 46.951 168.709 48.027C169.918 49.071 170.893 50.3561 171.631 51.8822C172.397 53.3764 172.848 55.0429 172.983 56.8817C173.118 58.7205 172.931 60.4339 172.422 62.0219C171.912 63.6099 171.15 65.0078 170.136 66.2155C169.122 67.4232 167.867 68.4101 166.373 69.176C164.906 69.9101 163.283 70.3426 161.504 70.4735C159.635 70.611 157.877 70.4272 156.23 69.9222C154.61 69.3853 153.18 68.596 151.941 67.5541C150.699 66.4825 149.695 65.1996 148.929 63.7054C148.161 62.1815 147.711 60.515 147.578 58.7059ZM161.192 67.4549C162.527 67.3568 163.74 67.029 164.832 66.4715C165.924 65.9141 166.84 65.1907 167.58 64.3014C168.317 63.3824 168.865 62.3134 169.223 61.0943C169.61 59.8731 169.752 58.5655 169.65 57.1716C169.545 55.748 169.211 54.4457 168.647 53.2646C168.112 52.0814 167.383 51.0914 166.46 50.2946C165.566 49.4956 164.524 48.9014 163.332 48.5119C162.138 48.0928 160.859 47.9335 159.495 48.0338C158.161 48.132 156.948 48.4747 155.858 49.0617C154.766 49.6192 153.838 50.3733 153.073 51.3241C152.306 52.2453 151.73 53.3313 151.344 54.5822C150.957 55.8034 150.815 57.111 150.917 58.5049C151.02 59.8989 151.352 61.1715 151.914 62.3229C152.474 63.4447 153.215 64.4039 154.138 65.2008C155.062 65.9976 156.12 66.6055 157.314 67.0246C158.535 67.4119 159.828 67.5553 161.192 67.4549ZM175.976 68.8274L185.466 55.5608L174.186 44.4931L178.323 44.1887L188.744 54.5145L187.932 43.4818L191.224 43.2396L192.036 54.2724L200.834 42.5327L204.971 42.2284L195.431 54.8277L206.761 66.5626L202.624 66.867L192.157 55.9184L193.015 67.5739L189.723 67.8161L188.865 56.1606L180.113 68.523L175.976 68.8274ZM229.534 56.8364L232.96 56.5844C232.609 57.8924 232.072 59.1097 231.35 60.2363C230.625 61.3332 229.772 62.3054 228.791 63.1529C227.837 63.9685 226.753 64.6297 225.538 65.1366C224.352 65.6413 223.092 65.9427 221.758 66.0409C219.949 66.1739 218.234 65.9721 216.614 65.4352C215.022 64.8666 213.605 64.0464 212.363 62.9749C211.121 61.9033 210.103 60.6215 209.307 59.1295C208.539 57.6056 208.088 55.9391 207.955 54.13C207.824 52.3505 208.029 50.6805 208.571 49.1199C209.11 47.5297 209.901 46.1297 210.945 44.9198C211.987 43.6802 213.255 42.6775 214.749 41.9115C216.244 41.1456 217.866 40.6983 219.616 40.5695C221.365 40.4408 223.036 40.6608 224.629 41.2295C226.249 41.7663 227.678 42.5557 228.918 43.5976C230.187 44.6373 231.219 45.8884 232.012 47.3507C232.805 48.8131 233.264 50.3895 233.389 52.08C233.406 52.3173 233.409 52.5557 233.396 52.7951C233.382 53.0049 233.354 53.2306 233.312 53.4722L211.336 55.0889C211.484 56.3006 211.864 57.4057 212.474 58.4045C213.084 59.4032 213.834 60.2725 214.723 61.0121C215.64 61.72 216.678 62.2549 217.838 62.6168C218.998 62.9788 220.201 63.1139 221.446 63.0223C223.315 62.8848 224.983 62.2552 226.451 61.1334C227.946 59.9797 228.974 58.5474 229.534 56.8364ZM211.205 52.1018L229.845 50.7305C229.103 48.34 227.835 46.51 226.042 45.2404C224.279 43.9687 222.211 43.4201 219.838 43.5946C218.681 43.6797 217.598 43.9532 216.589 44.4152C215.606 44.8452 214.741 45.4456 213.993 46.2163C213.242 46.9574 212.621 47.838 212.13 48.8581C211.666 49.8465 211.357 50.9277 211.205 52.1018ZM238.726 64.2111L236.936 39.8768L240.228 39.6346L240.997 50.089L255.589 49.0156L254.82 38.5611L258.112 38.319L259.902 62.6533L256.61 62.8954L255.808 51.9962L241.217 53.0696L242.019 63.9689L238.726 64.2111ZM265.488 62.2423L263.698 37.908L266.99 37.6659L268.436 57.329L281.804 36.576L285.096 36.3339L286.886 60.6682L283.594 60.9103L282.148 41.2472L268.78 62.0002L265.488 62.2423ZM312.252 50.7512L315.677 50.4992C315.326 51.8072 314.79 53.0245 314.067 54.1511C313.343 55.248 312.49 56.2202 311.509 57.0677C310.555 57.8833 309.471 58.5445 308.255 59.0514C307.07 59.556 305.81 59.8575 304.475 59.9557C302.666 60.0887 300.952 59.8869 299.332 59.35C297.739 58.7814 296.322 57.9612 295.081 56.8897C293.839 55.8181 292.82 54.5363 292.025 53.0443C291.257 51.5204 290.806 49.8539 290.673 48.0448C290.542 46.2653 290.747 44.5953 291.288 43.0347C291.827 41.4445 292.619 40.0445 293.663 38.8346C294.705 37.595 295.973 36.5922 297.467 35.8263C298.961 35.0604 300.583 34.6131 302.333 34.4843C304.083 34.3556 305.754 34.5756 307.346 35.1443C308.966 35.6811 310.396 36.4705 311.636 37.5124C312.905 38.5521 313.936 39.8032 314.73 41.2655C315.523 42.7279 315.982 44.3043 316.106 45.9948C316.124 46.2321 316.126 46.4705 316.114 46.7099C316.1 46.9197 316.072 47.1454 316.03 47.387L294.053 49.0037C294.202 50.2153 294.582 51.3205 295.192 52.3193C295.802 53.318 296.552 54.1872 297.441 54.9269C298.358 55.6348 299.396 56.1696 300.556 56.5316C301.716 56.8936 302.918 57.0287 304.164 56.9371C306.032 56.7996 307.701 56.17 309.169 55.0482C310.664 53.8945 311.692 52.4622 312.252 50.7512ZM293.923 46.0166L312.563 44.6453C311.821 42.2548 310.553 40.4248 308.76 39.1552C306.996 37.8835 304.928 37.3349 302.556 37.5094C301.399 37.5945 300.316 37.868 299.306 38.33C298.324 38.76 297.459 39.3604 296.71 40.1311C295.96 40.8722 295.339 41.7528 294.847 42.7729C294.383 43.7612 294.075 44.8425 293.923 46.0166Z" fill="black"/>
</svg>
