<svg width="86" height="86" viewBox="0 0 86 86" fill="none" xmlns="http://www.w3.org/2000/svg">
<path d="M85.6148 43.2322C85.6148 66.6794 66.6071 85.6871 43.1599 85.6871C19.7128 85.6871 0.705078 66.6794 0.705078 43.2322C0.705078 19.785 19.7128 0.777344 43.1599 0.777344C66.6071 0.777344 85.6148 19.785 85.6148 43.2322Z" fill="white"/>
<path d="M26.5391 55.6997C25.5451 56.6937 25.5451 58.3053 26.5391 59.2992C27.5331 60.2932 29.1446 60.2932 30.1386 59.2992L26.5391 55.6997ZM59.9725 28.4111C59.9725 27.0054 58.8329 25.8659 57.4272 25.8659H34.5201C33.1145 25.8659 31.9749 27.0054 31.9749 28.4111C31.9749 29.8168 33.1145 30.9564 34.5201 30.9564H54.882V51.3182C54.882 52.7239 56.0215 53.8634 57.4272 53.8634C58.8329 53.8634 59.9725 52.7239 59.9725 51.3182V28.4111ZM30.1386 59.2992L59.227 30.2109L55.6275 26.6114L26.5391 55.6997L30.1386 59.2992Z" fill="black"/>
</svg>
