<svg width="117" height="117" viewBox="0 0 117 117" fill="none" xmlns="http://www.w3.org/2000/svg">
<path d="M116.761 58.3806C116.761 90.6232 90.6232 116.761 58.3806 116.761C26.1379 116.761 0 90.6232 0 58.3806C0 26.1379 26.1379 0 58.3806 0C90.6232 0 116.761 26.1379 116.761 58.3806Z" fill="white"/>
<path d="M35.5251 75.5251C34.1583 76.892 34.1583 79.108 35.5251 80.4749C36.892 81.8417 39.108 81.8417 40.4749 80.4749L35.5251 75.5251ZM81.5 38C81.5 36.067 79.933 34.5 78 34.5H46.5C44.567 34.5 43 36.067 43 38C43 39.933 44.567 41.5 46.5 41.5H74.5V69.5C74.5 71.433 76.067 73 78 73C79.933 73 81.5 71.433 81.5 69.5V38ZM40.4749 80.4749L80.4749 40.4749L75.5251 35.5251L35.5251 75.5251L40.4749 80.4749Z" fill="black"/>
</svg>
