<svg width="135" height="135" viewBox="0 0 135 135" fill="none" xmlns="http://www.w3.org/2000/svg">
<path d="M57.5527 9.79699C89.3381 4.38632 119.492 25.7673 124.902 57.5528C130.313 89.3383 108.932 119.492 77.1464 124.902C45.361 130.313 15.2075 108.932 9.79687 77.1465C4.3862 45.3611 25.7672 15.2077 57.5527 9.79699Z" fill="white"/>
<path d="M88.0864 87.004C89.6632 88.1221 91.8479 87.7502 92.966 86.1734C94.084 84.5965 93.7122 82.4119 92.1353 81.2938L88.0864 87.004ZM43.3783 47.9782C41.4728 48.3026 40.1909 50.1103 40.5153 52.0159L45.8013 83.0692C46.1257 84.9748 47.9335 86.2566 49.839 85.9322C51.7446 85.6079 53.0265 83.8001 52.7021 81.8945L48.0034 54.2916L75.6063 49.5929C77.5119 49.2685 78.7937 47.4608 78.4693 45.5552C78.145 43.6496 76.3372 42.3678 74.4316 42.6922L43.3783 47.9782ZM92.1353 81.2938L45.9901 48.5735L41.9412 54.2836L88.0864 87.004L92.1353 81.2938Z" fill="black"/>
</svg>
