<svg width="284" height="99" viewBox="0 0 284 99" fill="none" xmlns="http://www.w3.org/2000/svg">
<rect y="26.6006" width="278.25" height="72.625" rx="36.3125" transform="rotate(-5.48575 0 26.6006)" fill="#F8EB66"/>
<path d="M40.9522 70.1976L39.1956 51.9067L33.7084 52.4337L33.4632 49.8806L47.1813 48.5632L47.4265 51.1163L42.0155 51.6359L43.7721 69.9268L40.9522 70.1976ZM52.033 69.1334L50.0312 48.2895L58.3764 47.488C60.6374 47.2709 62.4493 47.584 63.8122 48.4273C65.1751 49.2707 65.9395 50.5561 66.1054 52.2836C66.1859 53.1219 65.9973 53.9605 65.5394 54.7992C65.0816 55.638 64.4632 56.2742 63.6845 56.7079C65.0264 57.0662 66.0552 57.634 66.7708 58.4113C67.5118 59.1862 67.9385 60.158 68.0507 61.3265C68.1385 62.2411 68.0285 63.0977 67.7206 63.8964C67.4103 64.6697 66.9391 65.3688 66.3068 65.9935C65.6746 66.6183 64.9031 67.1282 63.9925 67.5234C63.0818 67.9185 62.0676 68.1697 60.9498 68.2771L52.033 69.1334ZM53.6781 56.6306L58.7462 56.1439C60.3467 55.9902 61.5404 55.6063 62.3275 54.9923C63.14 54.3759 63.4975 53.5596 63.3999 52.5434C63.3072 51.5781 62.8185 50.8943 61.9338 50.4922C61.0721 50.0621 59.8156 49.9264 58.1643 50.085L53.0963 50.5717L53.6781 56.6306ZM54.6077 66.3095L59.9806 65.7935C61.7843 65.6203 63.1268 65.1837 64.0082 64.4837C64.9126 63.7559 65.3074 62.795 65.1927 61.601C65.0805 60.4324 64.5276 59.6138 63.534 59.1452C62.5633 58.6488 61.1507 58.4896 59.2963 58.6677L53.9233 59.1837L54.6077 66.3095ZM70.6263 56.8489C70.4751 55.2738 70.6015 53.7875 71.0057 52.3898C71.4353 50.9898 72.0991 49.7595 72.9972 48.699C73.8952 47.6385 74.9918 46.7768 76.287 46.114C77.5797 45.4258 79.0263 45.0049 80.6268 44.8512C82.151 44.7048 83.5878 44.8488 84.937 45.2833C86.3117 45.7153 87.5166 46.3816 88.5517 47.282C89.6098 48.1547 90.4702 49.2386 91.133 50.5338C91.8187 51.8011 92.2372 53.2223 92.3885 54.7973C92.5398 56.3724 92.4121 57.846 92.0055 59.2183C91.5988 60.5905 90.9719 61.8044 90.1247 62.8601C89.2774 63.9157 88.2202 64.7864 86.9528 65.4721C85.7085 66.13 84.3242 66.5322 82.7999 66.6786C81.1995 66.8323 79.6877 66.7082 78.2647 66.3065C76.8646 65.8769 75.6228 65.227 74.5394 64.3568C73.4535 63.4612 72.5676 62.3798 71.8819 61.1124C71.1937 59.8197 70.7752 58.3985 70.6263 56.8489ZM82.4749 64.0947C83.618 63.9849 84.6528 63.6804 85.5791 63.1812C86.5054 62.6821 87.2774 62.0439 87.895 61.2667C88.5101 60.4641 88.9594 59.5364 89.2429 58.4837C89.5518 57.4285 89.6489 56.3039 89.5342 55.1099C89.4171 53.8905 89.1053 52.7796 88.5988 51.777C88.1177 50.7721 87.4734 49.9366 86.666 49.2706C85.8839 48.6022 84.978 48.1124 83.9482 47.8011C82.916 47.4644 81.8156 47.3521 80.647 47.4643C79.5038 47.5741 78.4703 47.8913 77.5464 48.4159C76.6201 48.9151 75.8379 49.5799 75.1997 50.4103C74.5592 51.2153 74.0857 52.1581 73.7793 53.2387C73.4704 54.2939 73.3733 55.4185 73.488 56.6125C73.6026 57.8065 73.912 58.892 74.416 59.8692C74.9176 60.8209 75.5722 61.6297 76.3797 62.2957C77.1871 62.9616 78.107 63.463 79.1392 63.7997C80.1944 64.1086 81.3063 64.2069 82.4749 64.0947ZM98.0981 72.0932L95.3936 43.9329L98.2135 43.6621L98.5575 47.2441C99.3173 45.8123 100.35 44.6876 101.656 43.8699C102.987 43.0498 104.555 42.5532 106.359 42.3799C107.908 42.2311 109.383 42.3715 110.783 42.8011C112.183 43.2307 113.414 43.8945 114.474 44.7925C115.558 45.6627 116.443 46.7442 117.132 48.0369C117.817 49.3042 118.235 50.7127 118.383 52.2624C118.532 53.812 118.378 55.2754 117.921 56.6525C117.489 58.0272 116.825 59.2575 115.929 60.3434C115.031 61.4039 113.936 62.2782 112.643 62.9664C111.35 63.6546 109.929 64.0731 108.379 64.222C106.627 64.3903 105.031 64.1974 103.594 63.6432C102.156 63.0891 100.915 62.1827 99.8713 60.9241L100.918 71.8224L98.0981 72.0932ZM108.092 61.6344C109.261 61.5222 110.321 61.2153 111.273 60.7136C112.248 60.1842 113.068 59.5157 113.734 58.7083C114.4 57.9008 114.888 56.9822 115.2 55.9524C115.534 54.8947 115.645 53.7816 115.533 52.6131C115.416 51.3937 115.092 50.2966 114.563 49.3219C114.057 48.3194 113.4 47.4852 112.592 46.8192C111.782 46.1278 110.85 45.6277 109.794 45.3189C108.737 44.9846 107.598 44.876 106.379 44.9931C105.236 45.1029 104.189 45.4213 103.24 45.9483C102.291 46.4753 101.485 47.1553 100.821 47.9881C100.155 48.7956 99.6549 49.7282 99.3206 50.7858C99.0118 51.841 98.9135 52.9529 99.0257 54.1215C99.1379 55.29 99.446 56.3629 99.9501 57.34C100.48 58.3147 101.149 59.1477 101.959 59.8391C102.792 60.5026 103.725 61.0027 104.757 61.3394C105.812 61.6483 106.924 61.7466 108.092 61.6344ZM135.678 61.1003L134.88 52.7932C133.826 53.0227 132.756 53.228 131.671 53.4091C130.609 53.5624 129.506 53.6939 128.363 53.8037C126.356 53.9964 124.725 53.5634 123.469 52.5046C122.214 51.4458 121.487 49.8876 121.29 47.8299L120.682 41.5043L123.502 41.2335L124.11 47.559C124.185 48.3466 124.338 48.9985 124.567 49.5149C124.793 50.0059 125.137 50.3831 125.598 50.6465C126.085 50.9074 126.703 51.066 127.451 51.1223C128.226 51.1761 129.197 51.1469 130.366 51.0347C131.052 50.9688 131.697 50.8812 132.302 50.7718C132.907 50.6625 133.686 50.4979 134.639 50.2782L133.676 40.2563L136.496 39.9855L138.498 60.8295L135.678 61.1003ZM160.072 51.8352L163.006 51.5535C162.73 52.6824 162.293 53.7371 161.695 54.7175C161.094 55.6725 160.381 56.523 159.555 57.2689C158.752 57.9869 157.835 58.575 156.802 59.0331C155.794 59.4888 154.719 59.7716 153.576 59.8814C152.026 60.0302 150.552 59.8898 149.151 59.4602C147.774 59.0028 146.543 58.3263 145.457 57.4307C144.371 56.5351 143.472 55.4548 142.761 54.1899C142.073 52.8972 141.655 51.476 141.506 49.9264C141.359 48.4021 141.503 46.9654 141.938 45.6161C142.37 44.2414 143.022 43.0251 143.895 41.967C144.765 40.8835 145.834 39.9989 147.101 39.3132C148.369 38.6274 149.752 38.2126 151.25 38.0686C152.749 37.9247 154.187 38.0814 155.564 38.5388C156.964 38.9684 158.206 39.6183 159.29 40.4885C160.399 41.3563 161.307 42.4099 162.016 43.6494C162.725 44.8889 163.149 46.2326 163.288 47.6807C163.307 47.8839 163.314 48.0883 163.308 48.294C163.3 48.4743 163.28 48.6685 163.249 48.8766L144.424 50.6844C144.575 51.7211 144.922 52.6621 145.465 53.5073C146.007 54.3525 146.667 55.0839 147.444 55.7015C148.245 56.2913 149.146 56.7303 150.148 57.0187C151.15 57.307 152.184 57.3999 153.251 57.2975C154.851 57.1438 156.271 56.5716 157.509 55.581C158.77 54.5626 159.624 53.314 160.072 51.8352ZM144.255 48.124L160.222 46.5906C159.539 44.5539 158.416 43.008 156.854 41.9531C155.316 40.8957 153.532 40.4646 151.499 40.6598C150.509 40.755 149.584 41.0104 148.727 41.426C147.893 41.8138 147.162 42.3455 146.534 43.0211C145.905 43.6712 145.389 44.4387 144.986 45.3233C144.607 46.1802 144.364 47.1137 144.255 48.124ZM185.077 50.1644L188.278 49.857C187.276 52.2351 186.002 54.0496 184.455 55.3006C182.907 56.5261 180.989 57.2487 178.703 57.4682C177.102 57.6219 175.577 57.4864 174.126 57.0617C172.7 56.6346 171.432 55.9745 170.321 55.0813C169.209 54.1881 168.298 53.1091 167.587 51.8442C166.873 50.5539 166.442 49.1339 166.293 47.5843C166.147 46.0601 166.302 44.6094 166.76 43.2323C167.217 41.8551 167.895 40.6363 168.793 39.5758C169.714 38.4875 170.821 37.5992 172.114 36.911C173.432 36.2204 174.866 35.8007 176.415 35.6518C178.778 35.425 180.945 35.8321 182.916 36.8734C184.888 37.9147 186.394 39.4494 187.435 41.4774L184.272 41.7811C183.328 40.4874 182.199 39.5446 180.886 38.9529C179.595 38.3333 178.176 38.0979 176.626 38.2467C175.457 38.3589 174.386 38.6798 173.411 39.2092C172.462 39.7363 171.655 40.4162 170.992 41.2491C170.326 42.0565 169.826 42.9891 169.492 44.0467C169.157 45.1044 169.046 46.2175 169.158 47.386C169.271 48.5546 169.592 49.6263 170.121 50.6009C170.648 51.5502 171.329 52.3693 172.164 53.0582C172.997 53.7218 173.943 54.2207 175 54.5549C176.058 54.8892 177.171 55.0002 178.34 54.888C179.838 54.7441 181.092 54.316 182.1 53.6039C183.134 52.8893 184.127 51.7428 185.077 50.1644ZM196.316 55.2768L194.559 36.9859L189.072 37.5129L188.827 34.9598L202.545 33.6424L202.79 36.1955L197.379 36.7151L199.136 55.006L196.316 55.2768ZM207.397 54.2126L205.395 33.3687L213.74 32.5672C216.001 32.3501 217.813 32.6632 219.176 33.5065C220.539 34.3499 221.303 35.6353 221.469 37.3628C221.549 38.2011 221.361 39.0397 220.903 39.8784C220.445 40.7172 219.827 41.3534 219.048 41.7871C220.39 42.1454 221.419 42.7132 222.134 43.4905C222.875 44.2654 223.302 45.2372 223.414 46.4057C223.502 47.3203 223.392 48.1769 223.084 48.9756C222.774 49.7489 222.303 50.448 221.67 51.0727C221.038 51.6975 220.267 52.2074 219.356 52.6025C218.445 52.9977 217.431 53.2489 216.313 53.3562L207.397 54.2126ZM209.042 41.7098L214.11 41.2231C215.71 41.0694 216.904 40.6855 217.691 40.0715C218.504 39.4551 218.861 38.6388 218.763 37.6226C218.671 36.6573 218.182 35.9735 217.297 35.5714C216.436 35.1413 215.179 35.0056 213.528 35.1642L208.46 35.6509L209.042 41.7098ZM209.971 51.3887L215.344 50.8727C217.148 50.6995 218.49 50.2629 219.372 49.5629C220.276 48.8351 220.671 47.8742 220.556 46.6802C220.444 45.5116 219.891 44.693 218.897 44.2244C217.927 43.728 216.514 43.5688 214.66 43.7469L209.287 44.2629L209.971 51.3887ZM225.99 41.9281C225.839 40.353 225.965 38.8667 226.369 37.469C226.799 36.069 227.463 34.8387 228.361 33.7782C229.259 32.7177 230.355 31.856 231.65 31.1932C232.943 30.505 234.39 30.0841 235.99 29.9304C237.514 29.784 238.951 29.928 240.301 30.3625C241.675 30.7945 242.88 31.4608 243.915 32.3612C244.973 33.2339 245.834 34.3178 246.496 35.613C247.182 36.8803 247.601 38.3015 247.752 39.8765C247.903 41.4516 247.776 42.9252 247.369 44.2975C246.962 45.6697 246.335 46.8836 245.488 47.9392C244.641 48.9949 243.584 49.8656 242.316 50.5513C241.072 51.2092 239.688 51.6114 238.163 51.7578C236.563 51.9115 235.051 51.7874 233.628 51.3857C232.228 50.9561 230.986 50.3062 229.903 49.436C228.817 48.5404 227.931 47.459 227.245 46.1916C226.557 44.8989 226.139 43.4777 225.99 41.9281ZM237.838 49.1739C238.982 49.0641 240.016 48.7596 240.943 48.2604C241.869 47.7613 242.641 47.1231 243.258 46.3459C243.874 45.5433 244.323 44.6156 244.606 43.5629C244.915 42.5077 245.012 41.3831 244.898 40.1891C244.781 38.9697 244.469 37.8588 243.962 36.8562C243.481 35.8513 242.837 35.0158 242.029 34.3498C241.247 33.6814 240.341 33.1916 239.312 32.8803C238.279 32.5436 237.179 32.4313 236.01 32.5435C234.867 32.6533 233.834 32.9705 232.91 33.4951C231.984 33.9943 231.201 34.6591 230.563 35.4895C229.923 36.2945 229.449 37.2373 229.143 38.3179C228.834 39.3731 228.737 40.4977 228.851 41.6917C228.966 42.8857 229.275 43.9712 229.78 44.9484C230.281 45.9001 230.936 46.7089 231.743 47.3749C232.551 48.0408 233.47 48.5422 234.503 48.8789C235.558 49.1878 236.67 49.2861 237.838 49.1739Z" fill="black"/>
</svg>
