<svg width="316" height="109" viewBox="0 0 316 109" fill="none" xmlns="http://www.w3.org/2000/svg">
<rect y="36.8369" width="309.25" height="72.625" rx="36.3125" transform="rotate(-6.8411 0 36.8369)" fill="#A1BBEF"/>
<path d="M38.3232 79.8912L35.8198 59.0244L39.3546 58.6003L41.2515 74.4119L50.9473 57.2095L54.5201 56.7809L57.0235 77.6477L53.4887 78.0717L51.5872 62.2221L41.896 79.4625L38.3232 79.8912ZM77.5159 68.7118L81.5448 68.2285C80.7065 70.6681 79.5069 72.5599 77.946 73.9038C76.385 75.2477 74.439 76.0596 72.1078 76.3392C70.5114 76.5307 68.9956 76.4298 67.5604 76.0365C66.1252 75.6432 64.8289 75.0148 63.6715 74.1512C62.5363 73.2592 61.5983 72.1894 60.8574 70.9417C60.1135 69.6686 59.6488 68.2593 59.4634 66.7136C59.281 65.1932 59.4021 63.7393 59.8269 62.3517C60.2485 60.9388 60.8957 59.6917 61.7684 58.6102C62.6634 57.5004 63.749 56.5862 65.0251 55.8676C66.3265 55.146 67.7501 54.6925 69.2958 54.507C71.703 54.2182 73.906 54.5837 75.9047 55.6034C77.9034 56.6231 79.4531 58.185 80.5537 60.2892L76.5628 60.768C75.7044 59.6115 74.6924 58.7819 73.5268 58.2791C72.3612 57.7764 71.0689 57.6101 69.6499 57.7803C68.5857 57.908 67.6218 58.2293 66.7582 58.7441C65.8916 59.2337 65.1572 59.8615 64.5552 60.6278C63.9784 61.391 63.5563 62.2642 63.2886 63.2473C63.018 64.2051 62.948 65.2288 63.0788 66.3184C63.2095 67.408 63.5211 68.3987 64.0137 69.2907C64.5285 70.1543 65.1706 70.8997 65.9399 71.5272C66.7061 72.1292 67.5697 72.5783 68.5305 72.8743C69.5137 73.1419 70.5374 73.2118 71.6016 73.0842C72.9699 72.92 74.1021 72.5014 74.9981 71.8285C75.8941 71.1555 76.7333 70.1166 77.5159 68.7118ZM85.9083 74.1823L83.4049 53.3156L101.801 51.1086L104.305 71.9753L100.732 72.404L98.6159 54.7679L87.3653 56.1177L89.4811 73.7537L85.9083 74.1823ZM106.724 61.1209C106.535 59.5498 106.639 58.0594 107.035 56.6495C107.432 55.2397 108.066 53.994 108.939 52.9126C109.834 51.8028 110.921 50.9012 112.2 50.208C113.502 49.4864 114.95 49.0298 116.547 48.8383C118.067 48.6559 119.52 48.7644 120.904 49.1638C122.289 49.5632 123.522 50.1992 124.603 51.0719C125.685 51.9446 126.585 53.019 127.303 54.2951C128.019 55.5459 128.471 56.9568 128.659 58.5278C128.845 60.0735 128.738 61.5386 128.338 62.9231C127.964 64.3046 127.355 65.5472 126.511 66.6509C125.663 67.7293 124.614 68.6263 123.363 69.3418C122.113 70.0574 120.714 70.5079 119.169 70.6933C117.598 70.8818 116.095 70.7794 114.659 70.3861C113.25 69.9897 111.98 69.3709 110.851 68.5296C109.744 67.6599 108.82 66.6012 108.08 65.3535C107.361 64.0774 106.909 62.6665 106.724 61.1209ZM118.739 67.4291C119.778 67.3045 120.718 66.9989 121.559 66.5124C122.4 66.0259 123.098 65.4153 123.652 64.6805C124.229 63.9173 124.639 63.0456 124.881 62.0655C125.149 61.0824 125.217 60.046 125.086 58.9564C124.953 57.8415 124.639 56.8381 124.147 55.9461C123.677 55.0258 123.058 54.2646 122.292 53.6625C121.551 53.0574 120.702 52.6195 119.744 52.3489C118.786 52.0782 117.775 52.0067 116.711 52.1344C115.672 52.259 114.733 52.5773 113.895 53.0891C113.054 53.5756 112.345 54.2004 111.768 54.9636C111.217 55.7238 110.809 56.6081 110.544 57.6166C110.277 58.5997 110.207 59.6234 110.334 60.6877C110.465 61.7772 110.777 62.768 111.269 63.66C111.759 64.5266 112.374 65.2624 113.115 65.8676C113.881 66.4696 114.745 66.9187 115.706 67.2147C116.663 67.4853 117.674 67.5568 118.739 67.4291ZM130.363 68.8491L136.753 46.9153L140.174 46.5049L151.572 66.3047L147.771 66.7607L139.002 51.1952L134.164 68.3931L130.363 68.8491ZM154.02 66.011L151.516 45.1442L155.089 44.7156L156.129 53.3816L167.531 52.0136L166.492 43.3476L170.026 42.9235L172.53 63.7903L168.995 64.2144L167.919 55.2443L156.516 56.6123L157.592 65.5824L154.02 66.011ZM177.107 63.2412L174.604 42.3744L178.138 41.9504L180.035 57.762L189.731 40.5596L193.304 40.131L195.807 60.9977L192.272 61.4218L190.371 45.5722L180.68 62.8126L177.107 63.2412ZM203.915 60.0251L201.799 42.389L196.516 43.0229L196.128 39.7921L210.191 38.105L210.579 41.3357L205.372 41.9604L207.487 59.5964L203.915 60.0251ZM231.298 49.9927L235.061 49.5412C234.834 50.648 234.431 51.6859 233.853 52.6549C233.298 53.5954 232.615 54.4356 231.804 55.1755C231.018 55.9124 230.115 56.522 229.093 57.0044C228.068 57.4615 226.986 57.7584 225.846 57.8952C224.275 58.0837 222.784 57.9798 221.374 57.5834C219.961 57.1618 218.689 56.5176 217.557 55.651C216.45 54.7813 215.526 53.7226 214.785 52.4749C214.041 51.2018 213.577 49.7925 213.391 48.2468C213.209 46.7264 213.317 45.274 213.717 43.8895C214.141 42.5019 214.776 41.2563 215.62 40.1525C216.49 39.0458 217.55 38.1346 218.801 37.4191C220.077 36.7005 221.463 36.2515 222.958 36.0722C224.478 35.8898 225.932 36.0109 227.319 36.4356C228.729 36.832 229.988 37.465 231.094 38.3347C232.198 39.179 233.108 40.2265 233.823 41.4773C234.564 42.725 235.026 44.109 235.208 45.6294C235.239 45.8828 235.255 46.125 235.257 46.3561C235.256 46.5619 235.245 46.7945 235.225 47.0539L217.285 49.2062C217.47 50.1093 217.811 50.9166 218.308 51.6282C218.83 52.3367 219.443 52.9443 220.146 53.4511C220.872 53.9295 221.685 54.2818 222.586 54.5078C223.484 54.7085 224.414 54.7511 225.377 54.6356C226.771 54.4684 227.984 53.9759 229.017 53.1579C230.075 52.337 230.835 51.2819 231.298 49.9927ZM216.906 46.0515L231.388 44.3142C230.735 42.5161 229.702 41.1878 228.288 40.3293C226.896 39.4424 225.263 39.1114 223.388 39.3363C222.475 39.4458 221.643 39.687 220.891 40.06C220.136 40.4076 219.474 40.8855 218.904 41.4936C218.357 42.0733 217.912 42.7564 217.569 43.543C217.224 44.3041 217.003 45.1403 216.906 46.0515ZM236.743 56.0867L243.133 34.1529L246.554 33.7425L257.951 53.5423L254.151 53.9983L245.382 38.4327L240.543 55.6307L236.743 56.0867ZM260.399 53.2486L257.896 32.3818L261.431 31.9577L263.328 47.7693L273.023 30.5669L276.596 30.1383L279.1 51.0051L275.565 51.4292L273.663 35.5795L263.972 52.8199L260.399 53.2486Z" fill="black"/>
</svg>
