<svg width="181" height="85" viewBox="0 0 181 85" fill="none" xmlns="http://www.w3.org/2000/svg">
<rect x="8.09473" y="0.0732422" width="173.444" height="65.2222" rx="32.6111" transform="rotate(6.63795 8.09473 0.0732422)" fill="#F8EB66"/>
<path d="M32.1358 45.77L34.3071 27.1126L44.5484 28.3045L44.1433 31.7858L37.7213 31.0385L35.9552 46.2145L32.1358 45.77ZM44.1082 53.5695L47.015 28.5915L50.5978 29.0084L50.3027 31.5434C51.1591 30.661 52.1682 30.0362 53.33 29.669C54.4944 29.2792 55.7752 29.1656 57.1722 29.3282C58.5242 29.4855 59.746 29.8789 60.8375 30.5084C61.9515 31.1405 62.8742 31.9445 63.6057 32.9203C64.3623 33.8762 64.9077 34.9788 65.2419 36.2281C65.5788 37.4549 65.6659 38.7668 65.5033 40.1639C65.3407 41.5609 64.9421 42.8277 64.3074 43.9643C63.6952 45.1035 62.9098 46.0627 61.9513 46.8418C61.0153 47.6236 59.9326 48.1941 58.7032 48.5535C57.4963 48.9155 56.2169 49.0178 54.8649 48.8605C53.5805 48.711 52.4562 48.3632 51.4921 47.8171C50.5305 47.2484 49.6741 46.4636 48.9227 45.4626L47.9275 54.0139L44.1082 53.5695ZM54.9022 45.302C55.7584 45.4017 56.5655 45.3357 57.3232 45.1042C58.1035 44.8753 58.7843 44.5206 59.3655 44.0401C59.9718 43.5397 60.4773 42.9248 60.8819 42.1954C61.2866 41.466 61.5387 40.6731 61.6383 39.8169C61.7459 38.893 61.6865 38.0297 61.4602 37.2268C61.2564 36.4266 60.9056 35.7121 60.4078 35.0832C59.9326 34.4569 59.3415 33.9428 58.6347 33.5408C57.9278 33.1388 57.1349 32.8866 56.2562 32.7844C55.3999 32.6847 54.5916 32.7619 53.8312 33.016C53.0734 33.2476 52.3913 33.6135 51.785 34.1139C51.1786 34.6143 50.6718 35.2405 50.2646 35.9924C49.86 36.7219 49.6065 37.526 49.5043 38.4048C49.4046 39.261 49.4679 40.0906 49.6942 40.8934C49.9206 41.6962 50.2713 42.4108 50.7466 43.0371C51.247 43.6434 51.8506 44.1476 52.5575 44.5496C53.2644 44.9516 54.0459 45.2024 54.9022 45.302ZM68.5773 56.4171L72.8203 49.1001L67.8675 31.0182L72.1939 31.5217L75.4115 45.0853L82.0296 32.6663L86.356 33.1698L72.7009 56.8969L68.5773 56.4171ZM86.2681 52.0697L88.4394 33.4123L105.238 35.3672L103.067 54.0246L99.2472 53.5801L101.013 38.4041L91.8536 37.3381L90.0875 52.5142L86.2681 52.0697ZM106.931 54.4743L109.102 35.8169L125.901 37.7718L123.729 56.4292L119.91 55.9848L121.676 40.8087L112.516 39.7427L110.75 54.9188L106.931 54.4743ZM127.86 47.5234C128.025 46.1038 128.414 44.8245 129.026 43.6853C129.641 42.5236 130.426 41.5644 131.382 40.8078C132.341 40.0286 133.435 39.4594 134.664 39.1C135.916 38.7433 137.229 38.6449 138.604 38.8048C140.046 38.9727 141.244 39.3747 142.198 40.011C143.176 40.6273 144.017 41.5473 144.72 42.771L145.042 39.9994L148.625 40.4164L146.454 59.0738L142.871 58.6569L143.186 55.9529C142.131 56.972 141.067 57.6705 139.996 58.0482C138.949 58.406 137.727 58.5036 136.33 58.341C134.933 58.1785 133.676 57.7924 132.56 57.1828C131.446 56.5507 130.51 55.7567 129.754 54.8008C129 53.8224 128.454 52.7198 128.118 51.493C127.783 50.2437 127.698 48.9205 127.86 47.5234ZM131.709 48.0056C131.607 48.8844 131.658 49.7239 131.862 50.5242C132.09 51.3045 132.443 52.0077 132.918 52.634C133.418 53.2404 134.022 53.7445 134.729 54.1465C135.461 54.5286 136.266 54.7708 137.145 54.8731C138.024 54.9753 138.841 54.922 139.596 54.713C140.376 54.484 141.068 54.1306 141.672 53.6528C142.278 53.1524 142.773 52.5362 143.155 51.8041C143.537 51.0721 143.78 50.2554 143.885 49.3541C143.99 48.4528 143.929 47.6007 143.703 46.7978C143.502 45.9751 143.151 45.2605 142.651 44.6542C142.175 44.0279 141.573 43.5125 140.844 43.1079C140.137 42.7059 139.333 42.4524 138.431 42.3475C137.575 42.2479 136.767 42.3251 136.006 42.5792C135.249 42.8107 134.567 43.1767 133.96 43.6771C133.354 44.1775 132.847 44.8037 132.44 45.5556C132.058 46.2876 131.814 47.1043 131.709 48.0056Z" fill="black"/>
</svg>
