<svg width="287" height="110" viewBox="0 0 287 110" fill="none" xmlns="http://www.w3.org/2000/svg">
<rect x="11.0459" y="0.333008" width="279.444" height="65.2222" rx="32.6111" transform="rotate(9.12301 11.0459 0.333008)" fill="#E1B4F9"/>
<path d="M33.2842 47.0609L36.2354 28.6832L38.7216 29.0825L37.4537 36.9778L48.4736 38.7475L49.7415 30.8521L52.2277 31.2513L49.2765 49.6291L46.7903 49.2298L48.1121 40.9985L37.0922 39.2289L35.7704 47.4602L33.2842 47.0609ZM54.257 41.0548C54.48 39.6661 54.9314 38.4289 55.6112 37.3434C56.2946 36.2354 57.1302 35.3242 58.118 34.6097C59.1319 33.8765 60.2719 33.3588 61.5381 33.0566C62.8043 32.7545 64.1206 32.7132 65.4869 32.9326C67.0996 33.1915 68.4303 33.7039 69.4791 34.4697C70.5503 35.2391 71.4407 36.3471 72.1504 37.7936L72.6738 34.5347L75.16 34.934L72.2088 53.3117L69.7226 52.9124L70.2405 49.6871C69.0428 50.8503 67.8614 51.6256 66.6964 52.0129C65.5313 52.4002 64.1649 52.468 62.597 52.2162C61.1859 51.9896 59.9134 51.544 58.7794 50.8794C57.649 50.1924 56.7042 49.3514 55.945 48.3564C55.2081 47.365 54.6868 46.2474 54.3811 45.0036C54.079 43.7373 54.0376 42.4211 54.257 41.0548ZM56.793 41.3586C56.6276 42.3889 56.6633 43.3826 56.9002 44.3397C57.1371 45.2968 57.5264 46.1634 58.068 46.9397C58.632 47.7196 59.3202 48.37 60.1326 48.891C60.9674 49.4157 61.9 49.7607 62.9303 49.9262C63.9382 50.0881 64.8983 50.0469 65.8106 49.8028C66.7453 49.5624 67.5783 49.1677 68.3098 48.6189C69.0672 48.0512 69.6971 47.3482 70.1993 46.5098C70.7016 45.6714 71.0372 44.7259 71.2063 43.6732C71.3753 42.6205 71.3396 41.6268 71.0991 40.6921C70.8846 39.7386 70.5048 38.8849 69.9595 38.1311C69.4143 37.3772 68.7225 36.7492 67.8841 36.2469C67.0717 35.7259 66.1391 35.3808 65.0864 35.2118C64.1009 35.0535 63.1408 35.0946 62.2061 35.3351C61.2939 35.5792 60.459 35.9851 59.7015 36.5527C58.9477 37.098 58.3084 37.788 57.7838 38.6228C57.2851 39.4387 56.9549 40.3507 56.793 41.3586ZM87.2811 55.7321L88.4573 48.4079C87.4986 48.3688 86.5323 48.3055 85.5584 48.2181C84.6104 48.1118 83.6325 47.9777 82.6246 47.8159C80.8551 47.5317 79.5492 46.7936 78.7067 45.6014C77.8642 44.4092 77.5887 42.906 77.88 41.0917L78.7756 35.5146L81.2618 35.9138L80.3662 41.491C80.2547 42.1853 80.2396 42.7803 80.3209 43.2758C80.4057 43.749 80.6169 44.1505 80.9546 44.4804C81.3146 44.8139 81.8103 45.0888 82.4419 45.3051C83.0959 45.525 83.938 45.7177 84.9683 45.8832C85.5731 45.9803 86.1478 46.0496 86.6926 46.0911C87.2373 46.1327 87.9443 46.1658 88.8134 46.1905L90.2323 37.3544L92.7185 37.7536L89.7673 56.1314L87.2811 55.7321ZM94.0153 56.8135L96.9665 38.4358L99.4527 38.835L97.068 53.685L110.641 40.6316L113.127 41.0309L110.176 59.4086L107.689 59.0094L110.074 44.1594L96.5015 57.2128L94.0153 56.8135ZM114.423 60.0907L117.374 41.713L119.86 42.1122L118.593 50.0076L129.612 51.7772L130.88 43.8819L133.367 44.2811L130.415 62.6589L127.929 62.2596L129.251 54.0283L118.231 52.2586L116.909 60.49L114.423 60.0907ZM135.396 54.0845C135.619 52.6958 136.07 51.4587 136.75 50.3731C137.434 49.2652 138.269 48.3539 139.257 47.6395C140.271 46.9062 141.411 46.3885 142.677 46.0864C143.943 45.7843 145.259 45.7429 146.626 45.9623C148.238 46.2213 149.569 46.7337 150.618 47.4995C151.689 48.2689 152.58 49.3768 153.289 50.8234L153.813 47.5645L156.299 47.9637L153.348 66.3415L150.861 65.9422L151.379 62.7169C150.182 63.8801 149 64.6554 147.835 65.0427C146.67 65.43 145.304 65.4978 143.736 65.246C142.325 65.0194 141.052 64.5738 139.918 63.9092C138.788 63.2222 137.843 62.3812 137.084 61.3862C136.347 60.3948 135.826 59.2772 135.52 58.0333C135.218 56.7671 135.177 55.4508 135.396 54.0845ZM137.932 54.3884C137.766 55.4187 137.802 56.4124 138.039 57.3695C138.276 58.3265 138.665 59.1932 139.207 59.9695C139.771 60.7493 140.459 61.3998 141.272 61.9208C142.106 62.4455 143.039 62.7905 144.069 62.956C145.077 63.1178 146.037 63.0767 146.949 62.8326C147.884 62.5921 148.717 62.1975 149.449 61.6486C150.206 61.081 150.836 60.378 151.338 59.5396C151.84 58.7012 152.176 57.7557 152.345 56.7029C152.514 55.6502 152.478 54.6565 152.238 53.7219C152.023 52.7684 151.644 51.9147 151.098 51.1609C150.553 50.407 149.861 49.7789 149.023 49.2767C148.211 48.7557 147.278 48.4106 146.225 48.2416C145.24 48.0833 144.28 48.1244 143.345 48.3649C142.433 48.609 141.598 49.0149 140.84 49.5825C140.087 50.1277 139.447 50.8177 138.923 51.6525C138.424 52.4685 138.094 53.3805 137.932 54.3884ZM173.466 67.8145C174.496 67.98 175.477 67.9537 176.408 67.7356C177.343 67.4951 178.176 67.1004 178.907 66.5516C179.639 66.0027 180.244 65.3073 180.724 64.4654C181.23 63.6046 181.569 62.6366 181.742 61.5615C181.918 60.464 181.901 59.4273 181.69 58.4514C181.479 57.4756 181.103 56.5995 180.561 55.8232C180.02 55.047 179.331 54.3965 178.497 53.8719C177.684 53.3508 176.763 53.0076 175.732 52.8421C174.68 52.6731 173.675 52.707 172.718 52.9439C171.764 53.1584 170.909 53.5495 170.151 54.1171C169.398 54.6624 168.756 55.3636 168.228 56.2207C167.726 57.0591 167.389 58.0159 167.216 59.091C167.04 60.1885 167.057 61.2252 167.268 62.2011C167.501 63.1805 167.889 64.0584 168.43 64.8347C168.994 65.6145 169.694 66.2668 170.529 66.7914C171.389 67.2972 172.368 67.6383 173.466 67.8145ZM157.568 67.0192L160.519 48.6415L163.005 49.0407L161.738 56.9361L164.929 57.4486C165.262 56.2383 165.79 55.163 166.516 54.2226C167.241 53.2822 168.1 52.5125 169.092 51.9137C170.088 51.2924 171.18 50.8589 172.368 50.6132C173.579 50.3711 174.823 50.3525 176.099 50.5575C177.51 50.7841 178.77 51.2391 179.878 51.9225C181.008 52.6095 181.929 53.4581 182.64 54.4683C183.373 55.4821 183.889 56.6333 184.187 57.922C184.49 59.1882 184.527 60.5269 184.301 61.938C184.078 63.3267 183.625 64.575 182.941 65.683C182.28 66.7945 181.454 67.7187 180.463 68.4556C179.475 69.1701 178.348 69.6783 177.081 69.9805C175.838 70.2862 174.533 70.3294 173.166 70.1099C171.822 69.8941 170.602 69.4799 169.506 68.8673C168.41 68.2547 167.475 67.4957 166.701 66.5903C165.953 65.6661 165.386 64.6215 164.998 63.4564C164.637 62.2726 164.494 61.0203 164.568 59.6997L161.376 59.1871L160.054 67.4185L157.568 67.0192ZM186.375 71.6452L189.326 53.2675L191.813 53.6667L189.223 69.7934L196.849 71.0182L199.439 54.8914L201.925 55.2907L199.336 71.4174L206.962 72.6421L209.552 56.5154L212.038 56.9147L209.448 73.0414L212.439 73.5216L211.397 80.0059L209.684 79.7307L209.457 75.3518L186.375 71.6452ZM214.493 76.1606L217.444 57.7828L219.931 58.1821L217.546 73.0321L231.119 59.9787L233.605 60.378L230.654 78.7557L228.167 78.3565L230.552 63.5064L216.979 76.5598L214.493 76.1606ZM241.882 54.849L244.369 55.2482C244.218 56.1889 244.317 56.9287 244.667 57.4674C245.04 58.0097 245.662 58.3509 246.536 58.4912C247.41 58.6315 248.097 58.5006 248.598 58.0986C249.121 57.7002 249.459 57.0306 249.61 56.0899L252.096 56.4891C251.619 57.883 250.885 58.8794 249.893 59.4783C248.923 60.0808 247.721 60.2669 246.288 60.0367C244.854 59.8065 243.76 59.2517 243.005 58.3723C242.273 57.4964 241.899 56.322 241.882 54.849ZM234.901 79.4378L237.852 61.06L240.338 61.4593L237.954 76.3093L251.526 63.2559L254.013 63.6552L251.061 82.0329L248.575 81.6337L250.96 66.7836L237.387 79.837L234.901 79.4378Z" fill="black"/>
</svg>
