<svg width="272" height="102" viewBox="0 0 272 102" fill="none" xmlns="http://www.w3.org/2000/svg">
<rect x="5.43945" width="266.336" height="84.6679" rx="42.334" transform="rotate(3.68353 5.43945 0)" fill="#F8EB66"/>
<path d="M39.9827 58.1736L42.0995 25.2934L47.1272 25.6171L46.4025 36.8738C47.6433 35.6431 48.9344 34.788 50.2758 34.3085C51.6192 33.7993 53.1807 33.602 54.9604 33.7165C56.7401 33.8311 58.3653 34.2634 59.8361 35.0133C61.3365 35.7652 62.613 36.7558 63.6657 37.9852C64.7184 39.2146 65.5056 40.6353 66.0272 42.2475C66.5786 43.8616 66.7951 45.5882 66.6767 47.4272C66.5564 49.2959 66.1332 51.0111 65.4072 52.5727C64.6812 54.1344 63.7322 55.4583 62.5602 56.5444C61.4198 57.6028 60.0723 58.4096 58.5175 58.9648C56.9627 59.5199 55.2955 59.7402 53.5158 59.6257C51.6174 59.5035 49.9774 59.0702 48.5956 58.326C47.2435 57.5837 46.02 56.4625 44.9252 54.9623L44.6989 58.4773L39.9827 58.1736ZM53.0573 54.9497C54.2141 55.0242 55.2953 54.8853 56.3009 54.5331C57.3065 54.1808 58.1733 53.6707 58.9013 53.0027C59.6609 52.307 60.266 51.4673 60.7166 50.4836C61.1987 49.4722 61.4789 48.3584 61.5571 47.1423C61.6354 45.9262 61.4994 44.8005 61.1491 43.7652C60.8303 42.7022 60.3388 41.7771 59.6747 40.9897C59.0106 40.2023 58.1866 39.5833 57.203 39.1328C56.2212 38.6526 55.1371 38.3743 53.9506 38.298C52.8234 38.2254 51.7571 38.3652 50.7515 38.7175C49.7756 39.0716 48.9069 39.6114 48.1453 40.3368C47.3857 41.0325 46.7658 41.8713 46.2856 42.853C45.8351 43.8367 45.5707 44.9366 45.4924 46.1527C45.416 47.3392 45.553 48.4501 45.9033 49.4853C46.2537 50.5206 46.7609 51.4319 47.425 52.2192C48.1188 53.0085 48.9418 53.6423 49.8939 54.1206C50.846 54.5989 51.9005 54.8753 53.0573 54.9497ZM88.737 53.7619L94.2096 54.1142C93.7179 55.274 93.054 56.3333 92.2179 57.2921C91.3837 58.2213 90.4246 59.0084 89.3406 59.6535C88.2566 60.2985 87.0783 60.7886 85.8058 61.1236C84.5648 61.431 83.2621 61.5407 81.8977 61.4529C80.0586 61.3345 78.3444 60.8965 76.755 60.1389C75.1953 59.3832 73.8594 58.3888 72.7474 57.1556C71.6354 55.9224 70.788 54.5126 70.205 52.9263C69.6537 51.3122 69.4363 49.6004 69.5527 47.7911C69.6692 45.9817 70.1044 44.312 70.8581 42.7819C71.6119 41.2518 72.6044 39.9456 73.8357 38.8633C75.067 37.781 76.4897 36.9641 78.1038 36.4127C79.7198 35.8317 81.4325 35.5995 83.2418 35.716C85.0512 35.8324 86.7051 36.2814 88.2036 37.063C89.7337 37.8167 91.0251 38.8083 92.0778 40.0377C93.1601 41.269 93.976 42.7065 94.5254 44.3502C95.0749 45.994 95.2914 47.7206 95.1749 49.5299C95.1481 49.9452 95.1104 50.3002 95.0616 50.5949C95.0148 50.8599 94.9354 51.1676 94.8235 51.5178L74.7573 50.226C74.8483 51.1254 75.0914 51.975 75.4867 52.7748C75.8839 53.545 76.4064 54.219 77.0543 54.7969C77.7021 55.3747 78.4466 55.8396 79.2877 56.1916C80.1584 56.5455 81.0832 56.754 82.0621 56.817C83.5155 56.9106 84.7804 56.6942 85.8568 56.1678C86.9628 55.6433 87.9229 54.8413 88.737 53.7619ZM74.9576 45.7265L90.3076 46.7147C89.983 44.8173 89.1857 43.3214 87.9159 42.227C86.6479 41.1029 85.0054 40.4759 82.9884 40.3461C82.0096 40.2831 81.0963 40.3583 80.2486 40.5718C79.4009 40.7853 78.6345 41.1231 77.9495 41.5854C77.2645 42.0476 76.6608 42.6342 76.1384 43.3452C75.6477 44.0285 75.2541 44.8222 74.9576 45.7265ZM97.6121 63.4921L103.174 63.8501C104.067 65.2479 105.03 66.2482 106.063 66.8508C107.095 67.4832 108.426 67.8518 110.058 67.9569C112.52 68.1154 114.432 67.5534 115.796 66.2711C117.187 65.0203 117.966 63.0898 118.134 60.4796L118.206 59.3673C116.979 60.8371 115.676 61.885 114.295 62.511C112.946 63.1092 111.322 63.3472 109.424 63.225C107.674 63.1123 106.064 62.681 104.593 61.931C103.122 61.1811 101.874 60.2072 100.849 59.0094C99.8561 57.7838 99.0986 56.365 98.5769 54.7528C98.0571 53.111 97.8573 51.3557 97.9776 49.487C98.096 47.6479 98.5015 45.9763 99.194 44.4721C99.9162 42.9698 100.862 41.6904 102.032 40.6339C103.204 39.5477 104.553 38.7261 106.078 38.169C107.603 37.6119 109.256 37.3907 111.035 37.5053C112.904 37.6256 114.513 38.0717 115.864 38.8437C117.216 39.586 118.366 40.6876 119.314 42.1485L119.541 38.6336L124.39 38.9458L123.104 58.9231C122.797 63.6987 121.514 67.2051 119.255 69.4425C117.024 71.7114 113.817 72.7113 109.635 72.442C106.58 72.2454 104.015 71.3654 101.942 69.8023C99.8661 68.2687 98.4229 66.1654 97.6121 63.4921ZM110.256 58.6321C111.413 58.7066 112.478 58.5815 113.452 58.257C114.428 57.9029 115.281 57.377 116.011 56.6794C116.771 55.9836 117.361 55.143 117.782 54.1574C118.232 53.1737 118.498 52.059 118.578 50.8132C118.654 49.6267 118.532 48.5168 118.211 47.4835C117.891 46.4502 117.397 45.5546 116.731 44.7969C116.065 44.0392 115.255 43.436 114.301 42.9874C113.349 42.5091 112.28 42.2318 111.093 42.1554C109.996 42.0848 108.974 42.2275 108.028 42.5835C107.083 42.9099 106.246 43.422 105.516 44.1196C104.816 44.8191 104.241 45.6607 103.79 46.6444C103.369 47.63 103.12 48.716 103.044 49.9025C102.964 51.1483 103.069 52.2869 103.36 53.3183C103.683 54.322 104.161 55.2166 104.796 56.002C105.432 56.7578 106.212 57.3739 107.134 57.8503C108.059 58.297 109.099 58.5576 110.256 58.6321ZM127.882 63.8325L129.463 39.2724L134.491 39.5961L132.91 64.1561L127.882 63.8325ZM129.641 36.5139L129.999 30.9523L135.027 31.2759L134.668 36.8375L129.641 36.5139ZM137.962 64.4814L139.544 39.9214L144.304 40.2279L144.135 42.8529C145.276 41.7945 146.426 41.0495 147.585 40.6178C148.745 40.1861 150.066 40.018 151.549 40.1135C154.872 40.3274 157.27 41.4795 158.743 43.57C160.219 45.6308 160.825 48.7079 160.562 52.8012L159.719 65.8821L154.692 65.5584L155.482 53.2784C155.668 50.4012 155.342 48.2804 154.507 46.9161C153.701 45.5537 152.319 44.8095 150.362 44.6835C148.315 44.5517 146.743 45.1356 145.647 46.4351C144.582 47.7069 143.958 49.7665 143.775 52.6141L142.99 64.8051L137.962 64.4814ZM164.728 66.2045L166.309 41.6445L171.07 41.951L170.901 44.576C172.041 43.5176 173.191 42.7726 174.351 42.3409C175.51 41.9092 176.832 41.7411 178.315 41.8366C181.637 42.0505 184.035 43.2026 185.509 45.2931C186.984 47.3539 187.59 50.431 187.327 54.5243L186.485 67.6052L181.457 67.2815L182.248 55.0015C182.433 52.1243 182.108 50.0035 181.272 48.6392C180.466 47.2768 179.085 46.5326 177.127 46.4066C175.08 46.2748 173.509 46.8587 172.412 48.1582C171.348 49.43 170.724 51.4896 170.54 54.3372L169.755 66.5282L164.728 66.2045ZM210.397 61.5942L215.87 61.9465C215.378 63.1062 214.714 64.1655 213.878 65.1244C213.044 66.0536 212.085 66.8407 211.001 67.4858C209.917 68.1308 208.738 68.6209 207.466 68.9559C206.225 69.2632 204.922 69.373 203.558 69.2851C201.719 69.1667 200.004 68.7287 198.415 67.9712C196.855 67.2155 195.519 66.221 194.407 64.9878C193.295 63.7546 192.448 62.3449 191.865 60.7585C191.314 59.1445 191.096 57.4327 191.213 55.6233C191.329 53.814 191.764 52.1442 192.518 50.6142C193.272 49.0841 194.264 47.7779 195.496 46.6956C196.727 45.6132 198.15 44.7964 199.764 44.245C201.38 43.664 203.092 43.4317 204.902 43.5482C206.711 43.6647 208.365 44.1137 209.864 44.8952C211.394 45.649 212.685 46.6406 213.738 47.87C214.82 49.1012 215.636 50.5388 216.185 52.1825C216.735 53.8263 216.951 55.5528 216.835 57.3622C216.808 57.7775 216.77 58.1325 216.722 58.4272C216.675 58.6922 216.595 58.9999 216.484 59.3501L196.417 58.0582C196.508 58.9576 196.751 59.8073 197.147 60.6071C197.544 61.3773 198.066 62.0513 198.714 62.6292C199.362 63.207 200.107 63.6719 200.948 64.0239C201.818 64.3778 202.743 64.5863 203.722 64.6493C205.176 64.7429 206.44 64.5264 207.517 64C208.623 63.4755 209.583 62.6736 210.397 61.5942ZM196.618 53.5587L211.968 54.5469C211.643 52.6496 210.846 51.1537 209.576 50.0593C208.308 48.9352 206.665 48.3082 204.648 48.1783C203.67 48.1153 202.756 48.1906 201.909 48.4041C201.061 48.6175 200.295 48.9554 199.61 49.4177C198.924 49.8799 198.321 50.4665 197.798 51.1775C197.308 51.8607 196.914 52.6545 196.618 53.5587ZM219.909 69.757L221.49 45.197L226.207 45.5006L226.029 48.2592C226.453 47.6907 226.871 47.2113 227.283 46.8209C227.697 46.4008 228.15 46.0873 228.639 45.8806C229.131 45.6442 229.677 45.4858 230.278 45.4053C230.879 45.3249 231.581 45.2956 232.384 45.3175L232.069 50.2117C230.105 50.1746 228.6 50.6585 227.552 51.6633C226.536 52.6404 225.962 54.1523 225.831 56.1989L224.937 70.0807L219.909 69.757Z" fill="black"/>
</svg>
