<svg width="274" height="59" viewBox="0 0 274 59" fill="none" xmlns="http://www.w3.org/2000/svg">
<rect x="0.149414" y="0.296875" width="273.414" height="58.7072" rx="29.3536" fill="#F8EB66"/>
<path d="M39.4955 33.2457H43.4486C42.6457 35.1399 41.5338 36.5812 40.1132 37.5694C38.6925 38.5577 36.9939 39.0519 35.0173 39.0519C33.7408 39.0519 32.5466 38.8254 31.4347 38.3724C30.3229 37.8989 29.3552 37.2606 28.5316 36.4576C27.7081 35.6546 27.0595 34.7075 26.586 33.6163C26.1124 32.5251 25.8756 31.3618 25.8756 30.1264C25.8756 28.8704 26.1021 27.7071 26.5551 26.6365C27.0286 25.5453 27.6669 24.5982 28.4699 23.7952C29.2935 22.9922 30.2509 22.3642 31.3421 21.9112C32.4333 21.4377 33.6172 21.2009 34.8938 21.2009C36.9115 21.2009 38.6719 21.7259 40.1749 22.776C41.678 23.826 42.7692 25.2776 43.4486 27.1306H39.4955C39.0013 26.2247 38.3734 25.5453 37.6116 25.0923C36.8497 24.6393 35.9438 24.4128 34.8938 24.4128C34.0908 24.4128 33.3496 24.557 32.6701 24.8452C32.0112 25.1335 31.4347 25.535 30.9406 26.0497C30.467 26.5438 30.0861 27.1409 29.7979 27.841C29.5302 28.541 29.3964 29.3028 29.3964 30.1264C29.3964 30.9294 29.5302 31.6809 29.7979 32.3809C30.0861 33.081 30.4773 33.6884 30.9715 34.2031C31.4862 34.6972 32.0833 35.0987 32.7628 35.4076C33.4422 35.6958 34.1834 35.8399 34.9864 35.8399C35.9541 35.8399 36.788 35.6443 37.488 35.2531C38.1881 34.8414 38.8572 34.1722 39.4955 33.2457ZM46.1305 38.6504V15.8271H49.6204V38.6504H46.1305ZM52.3864 30.1882C52.3864 28.891 52.6026 27.6968 53.035 26.6056C53.4674 25.4938 54.0748 24.5467 54.8572 23.7643C55.6396 22.9613 56.5661 22.3333 57.6367 21.8804C58.728 21.4274 59.9016 21.2009 61.1575 21.2009C62.4752 21.2009 63.5973 21.4377 64.5239 21.9112C65.471 22.3642 66.3254 23.1054 67.0872 24.1349V21.6024H70.3609V38.6504H67.0872V36.1797C66.2431 37.2091 65.3577 37.9504 64.4312 38.4033C63.5253 38.8357 62.434 39.0519 61.1575 39.0519C59.881 39.0519 58.7074 38.8357 57.6367 38.4033C56.5661 37.9504 55.6396 37.3327 54.8572 36.5503C54.0748 35.7473 53.4674 34.8105 53.035 33.7398C52.6026 32.6486 52.3864 31.4647 52.3864 30.1882ZM55.9072 30.219C55.9072 31.022 56.041 31.7735 56.3087 32.4736C56.597 33.153 56.9882 33.7501 57.4823 34.2649C57.997 34.759 58.5941 35.1502 59.2736 35.4385C59.9736 35.7061 60.7251 35.8399 61.5281 35.8399C62.3311 35.8399 63.062 35.7061 63.7209 35.4385C64.4003 35.1502 64.9871 34.759 65.4813 34.2649C65.9754 33.7501 66.3563 33.1427 66.624 32.4427C66.8916 31.7427 67.0255 30.9809 67.0255 30.1573C67.0255 29.3337 66.8813 28.5719 66.5931 27.8719C66.3254 27.1512 65.9342 26.5438 65.4195 26.0497C64.9254 25.535 64.3283 25.1335 63.6282 24.8452C62.9488 24.557 62.1973 24.4128 61.3737 24.4128C60.5913 24.4128 59.8707 24.5673 59.2118 24.8761C58.5529 25.1644 57.9764 25.5659 57.4823 26.0806C56.9882 26.5953 56.597 27.213 56.3087 27.9336C56.041 28.6337 55.9072 29.3955 55.9072 30.219ZM72.6116 33.3692H76.1324C76.2765 34.2134 76.5545 34.8414 76.9663 35.2531C77.3986 35.6443 77.9752 35.8399 78.6958 35.8399C79.334 35.8399 79.8591 35.6443 80.2709 35.2531C80.6827 34.8619 80.8885 34.3575 80.8885 33.7398C80.8885 33.3898 80.8062 33.081 80.6415 32.8133C80.4768 32.5456 80.2503 32.3192 79.962 32.1339C79.6738 31.9486 79.3443 31.7838 78.9737 31.6397C78.6237 31.4956 78.2531 31.3515 77.8619 31.2073C77.0177 30.9191 76.2971 30.6102 75.7 30.2808C75.1235 29.9514 74.65 29.5911 74.2794 29.1999C73.9088 28.8087 73.6411 28.3763 73.4764 27.9027C73.3117 27.4086 73.2293 26.863 73.2293 26.2659C73.2293 25.5453 73.3631 24.8761 73.6308 24.2584C73.8985 23.6407 74.2691 23.1054 74.7426 22.6525C75.2368 22.1995 75.8133 21.8495 76.4721 21.6024C77.131 21.3347 77.8413 21.2009 78.6031 21.2009C79.3649 21.2009 80.065 21.3244 80.7032 21.5715C81.3415 21.8186 81.8974 22.1583 82.371 22.5907C82.8445 23.0231 83.2151 23.5481 83.4828 24.1658C83.7505 24.7629 83.9049 25.4217 83.9461 26.1424H80.4871C80.4047 25.5864 80.1988 25.1644 79.8694 24.8761C79.5605 24.5673 79.1385 24.4128 78.6031 24.4128C78.0678 24.4128 77.6251 24.5776 77.2751 24.907C76.9251 25.2364 76.7501 25.6379 76.7501 26.1115C76.7501 26.4409 76.8427 26.7291 77.028 26.9762C77.2339 27.2233 77.4913 27.4395 77.8001 27.6248C78.109 27.8101 78.4487 27.9748 78.8193 28.1189C79.1899 28.2631 79.5605 28.3969 79.9311 28.5204C81.5165 29.0352 82.6592 29.6837 83.3593 30.4661C84.0593 31.2279 84.4093 32.2059 84.4093 33.4001C84.4093 34.2237 84.2549 34.9752 83.9461 35.6546C83.6578 36.3341 83.2563 36.9312 82.7416 37.4459C82.2269 37.9401 81.6092 38.3313 80.8885 38.6195C80.1885 38.9078 79.4267 39.0519 78.6031 39.0519C76.853 39.0519 75.4427 38.5577 74.372 37.5694C73.322 36.5606 72.7352 35.1605 72.6116 33.3692ZM85.6107 33.3692H89.1314C89.2756 34.2134 89.5535 34.8414 89.9653 35.2531C90.3977 35.6443 90.9742 35.8399 91.6948 35.8399C92.3331 35.8399 92.8581 35.6443 93.2699 35.2531C93.6817 34.8619 93.8876 34.3575 93.8876 33.7398C93.8876 33.3898 93.8052 33.081 93.6405 32.8133C93.4758 32.5456 93.2493 32.3192 92.9611 32.1339C92.6728 31.9486 92.3434 31.7838 91.9728 31.6397C91.6228 31.4956 91.2522 31.3515 90.861 31.2073C90.0168 30.9191 89.2962 30.6102 88.6991 30.2808C88.1226 29.9514 87.649 29.5911 87.2784 29.1999C86.9078 28.8087 86.6401 28.3763 86.4754 27.9027C86.3107 27.4086 86.2283 26.863 86.2283 26.2659C86.2283 25.5453 86.3622 24.8761 86.6298 24.2584C86.8975 23.6407 87.2681 23.1054 87.7417 22.6525C88.2358 22.1995 88.8123 21.8495 89.4712 21.6024C90.13 21.3347 90.8404 21.2009 91.6022 21.2009C92.364 21.2009 93.064 21.3244 93.7023 21.5715C94.3406 21.8186 94.8965 22.1583 95.37 22.5907C95.8436 23.0231 96.2142 23.5481 96.4818 24.1658C96.7495 24.7629 96.9039 25.4217 96.9451 26.1424H93.4861C93.4037 25.5864 93.1978 25.1644 92.8684 24.8761C92.5596 24.5673 92.1375 24.4128 91.6022 24.4128C91.0668 24.4128 90.6242 24.5776 90.2742 24.907C89.9241 25.2364 89.7491 25.6379 89.7491 26.1115C89.7491 26.4409 89.8418 26.7291 90.0271 26.9762C90.233 27.2233 90.4903 27.4395 90.7992 27.6248C91.108 27.8101 91.4477 27.9748 91.8184 28.1189C92.189 28.2631 92.5596 28.3969 92.9302 28.5204C94.5156 29.0352 95.6583 29.6837 96.3583 30.4661C97.0584 31.2279 97.4084 32.2059 97.4084 33.4001C97.4084 34.2237 97.2539 34.9752 96.9451 35.6546C96.6569 36.3341 96.2554 36.9312 95.7406 37.4459C95.2259 37.9401 94.6082 38.3313 93.8876 38.6195C93.1875 38.9078 92.4257 39.0519 91.6022 39.0519C89.8521 39.0519 88.4417 38.5577 87.3711 37.5694C86.321 36.5606 85.7342 35.1605 85.6107 33.3692ZM99.876 38.6504V21.6024H103.366V38.6504H99.876ZM99.876 19.6876V15.8271H103.366V19.6876H99.876ZM119.752 33.2457H123.705C122.902 35.1399 121.79 36.5812 120.369 37.5694C118.949 38.5577 117.25 39.0519 115.274 39.0519C113.997 39.0519 112.803 38.8254 111.691 38.3724C110.579 37.8989 109.612 37.2606 108.788 36.4576C107.964 35.6546 107.316 34.7075 106.842 33.6163C106.369 32.5251 106.132 31.3618 106.132 30.1264C106.132 28.8704 106.358 27.7071 106.811 26.6365C107.285 25.5453 107.923 24.5982 108.726 23.7952C109.55 22.9922 110.507 22.3642 111.598 21.9112C112.69 21.4377 113.874 21.2009 115.15 21.2009C117.168 21.2009 118.928 21.7259 120.431 22.776C121.934 23.826 123.025 25.2776 123.705 27.1306H119.752C119.258 26.2247 118.63 25.5453 117.868 25.0923C117.106 24.6393 116.2 24.4128 115.15 24.4128C114.347 24.4128 113.606 24.557 112.926 24.8452C112.268 25.1335 111.691 25.535 111.197 26.0497C110.723 26.5438 110.342 27.1409 110.054 27.841C109.787 28.541 109.653 29.3028 109.653 30.1264C109.653 30.9294 109.787 31.6809 110.054 32.3809C110.342 33.081 110.734 33.6884 111.228 34.2031C111.743 34.6972 112.34 35.0987 113.019 35.4076C113.698 35.6958 114.44 35.8399 115.243 35.8399C116.21 35.8399 117.044 35.6443 117.744 35.2531C118.444 34.8414 119.113 34.1722 119.752 33.2457ZM125.646 30.1882C125.646 28.891 125.862 27.6968 126.294 26.6056C126.726 25.4938 127.334 24.5467 128.116 23.7643C128.899 22.9613 129.825 22.3333 130.896 21.8804C131.987 21.4274 133.161 21.2009 134.417 21.2009C135.734 21.2009 136.856 21.4377 137.783 21.9112C138.73 22.3642 139.585 23.1054 140.346 24.1349V21.6024H143.62V38.6504H140.346V36.1797C139.502 37.2091 138.617 37.9504 137.69 38.4033C136.784 38.8357 135.693 39.0519 134.417 39.0519C133.14 39.0519 131.966 38.8357 130.896 38.4033C129.825 37.9504 128.899 37.3327 128.116 36.5503C127.334 35.7473 126.726 34.8105 126.294 33.7398C125.862 32.6486 125.646 31.4647 125.646 30.1882ZM129.166 30.219C129.166 31.022 129.3 31.7735 129.568 32.4736C129.856 33.153 130.247 33.7501 130.741 34.2649C131.256 34.759 131.853 35.1502 132.533 35.4385C133.233 35.7061 133.984 35.8399 134.787 35.8399C135.59 35.8399 136.321 35.7061 136.98 35.4385C137.659 35.1502 138.246 34.759 138.74 34.2649C139.235 33.7501 139.615 33.1427 139.883 32.4427C140.151 31.7427 140.285 30.9809 140.285 30.1573C140.285 29.3337 140.14 28.5719 139.852 27.8719C139.585 27.1512 139.193 26.5438 138.679 26.0497C138.184 25.535 137.587 25.1335 136.887 24.8452C136.208 24.557 135.456 24.4128 134.633 24.4128C133.85 24.4128 133.13 24.5673 132.471 24.8761C131.812 25.1644 131.236 25.5659 130.741 26.0806C130.247 26.5953 129.856 27.213 129.568 27.9336C129.3 28.6337 129.166 29.3955 129.166 30.219ZM147.137 38.6504V15.8271H150.627V38.6504H147.137ZM162.76 38.6504V21.6024H166.034V23.3319C166.651 22.5701 167.3 22.0245 167.979 21.6951C168.679 21.3656 169.544 21.2009 170.574 21.2009C171.809 21.2009 172.828 21.4274 173.631 21.8804C174.455 22.3127 175.175 23.0437 175.793 24.0731C176.493 23.0642 177.286 22.3333 178.171 21.8804C179.056 21.4274 180.127 21.2009 181.383 21.2009C183.627 21.2009 185.326 21.8392 186.479 23.1157C187.653 24.3923 188.239 26.2556 188.239 28.7057V38.6504H184.719V29.1381C184.719 27.5527 184.42 26.3688 183.823 25.5864C183.226 24.804 182.32 24.4128 181.105 24.4128C179.808 24.4128 178.84 24.8555 178.202 25.7409C177.564 26.6262 177.245 27.9645 177.245 29.7558V38.6504H173.755V29.1072C173.755 27.5218 173.446 26.3482 172.828 25.5864C172.21 24.804 171.274 24.4128 170.018 24.4128C168.721 24.4128 167.763 24.8452 167.145 25.71C166.548 26.5747 166.25 27.9233 166.25 29.7558V38.6504H162.76ZM203.45 38.6504V36.6738C202.75 37.5386 202.009 38.1562 201.227 38.5269C200.465 38.8769 199.518 39.0519 198.385 39.0519C196.141 39.0519 194.453 38.3621 193.32 36.9827C192.209 35.5826 191.653 33.5133 191.653 30.775V21.6024H195.143V30.219C195.143 32.175 195.451 33.606 196.069 34.5119C196.687 35.3973 197.655 35.8399 198.972 35.8399C200.455 35.8399 201.536 35.3664 202.215 34.4193C202.915 33.4722 203.265 31.9588 203.265 29.8793V21.6024H206.755V38.6504H203.45ZM208.996 33.3692H212.517C212.661 34.2134 212.939 34.8414 213.351 35.2531C213.783 35.6443 214.36 35.8399 215.08 35.8399C215.718 35.8399 216.243 35.6443 216.655 35.2531C217.067 34.8619 217.273 34.3575 217.273 33.7398C217.273 33.3898 217.191 33.081 217.026 32.8133C216.861 32.5456 216.635 32.3192 216.346 32.1339C216.058 31.9486 215.729 31.7838 215.358 31.6397C215.008 31.4956 214.638 31.3515 214.246 31.2073C213.402 30.9191 212.682 30.6102 212.084 30.2808C211.508 29.9514 211.034 29.5911 210.664 29.1999C210.293 28.8087 210.026 28.3763 209.861 27.9027C209.696 27.4086 209.614 26.863 209.614 26.2659C209.614 25.5453 209.748 24.8761 210.015 24.2584C210.283 23.6407 210.653 23.1054 211.127 22.6525C211.621 22.1995 212.198 21.8495 212.857 21.6024C213.515 21.3347 214.226 21.2009 214.988 21.2009C215.749 21.2009 216.449 21.3244 217.088 21.5715C217.726 21.8186 218.282 22.1583 218.755 22.5907C219.229 23.0231 219.6 23.5481 219.867 24.1658C220.135 24.7629 220.289 25.4217 220.33 26.1424H216.871C216.789 25.5864 216.583 25.1644 216.254 24.8761C215.945 24.5673 215.523 24.4128 214.988 24.4128C214.452 24.4128 214.01 24.5776 213.66 24.907C213.31 25.2364 213.134 25.6379 213.134 26.1115C213.134 26.4409 213.227 26.7291 213.412 26.9762C213.618 27.2233 213.876 27.4395 214.185 27.6248C214.493 27.8101 214.833 27.9748 215.204 28.1189C215.574 28.2631 215.945 28.3969 216.316 28.5204C217.901 29.0352 219.044 29.6837 219.744 30.4661C220.444 31.2279 220.794 32.2059 220.794 33.4001C220.794 34.2237 220.639 34.9752 220.33 35.6546C220.042 36.3341 219.641 36.9312 219.126 37.4459C218.611 37.9401 217.994 38.3313 217.273 38.6195C216.573 38.9078 215.811 39.0519 214.988 39.0519C213.237 39.0519 211.827 38.5577 210.756 37.5694C209.706 36.5606 209.12 35.1605 208.996 33.3692ZM223.261 38.6504V21.6024H226.751V38.6504H223.261ZM223.261 19.6876V15.8271H226.751V19.6876H223.261ZM243.137 33.2457H247.09C246.287 35.1399 245.175 36.5812 243.755 37.5694C242.334 38.5577 240.636 39.0519 238.659 39.0519C237.382 39.0519 236.188 38.8254 235.076 38.3724C233.965 37.8989 232.997 37.2606 232.173 36.4576C231.35 35.6546 230.701 34.7075 230.228 33.6163C229.754 32.5251 229.517 31.3618 229.517 30.1264C229.517 28.8704 229.744 27.7071 230.197 26.6365C230.67 25.5453 231.309 24.5982 232.112 23.7952C232.935 22.9922 233.893 22.3642 234.984 21.9112C236.075 21.4377 237.259 21.2009 238.535 21.2009C240.553 21.2009 242.314 21.7259 243.817 22.776C245.32 23.826 246.411 25.2776 247.09 27.1306H243.137C242.643 26.2247 242.015 25.5453 241.253 25.0923C240.491 24.6393 239.585 24.4128 238.535 24.4128C237.732 24.4128 236.991 24.557 236.312 24.8452C235.653 25.1335 235.076 25.535 234.582 26.0497C234.109 26.5438 233.728 27.1409 233.44 27.841C233.172 28.541 233.038 29.3028 233.038 30.1264C233.038 30.9294 233.172 31.6809 233.44 32.3809C233.728 33.081 234.119 33.6884 234.613 34.2031C235.128 34.6972 235.725 35.0987 236.404 35.4076C237.084 35.6958 237.825 35.8399 238.628 35.8399C239.596 35.8399 240.43 35.6443 241.13 35.2531C241.83 34.8414 242.499 34.1722 243.137 33.2457Z" fill="black"/>
</svg>
