<svg width="279" height="82" viewBox="0 0 279 82" fill="none" xmlns="http://www.w3.org/2000/svg">
<rect x="5.79688" y="0.22168" width="273.414" height="58.7072" rx="29.3536" transform="rotate(4.7585 5.79688 0.22168)" fill="#F8EB66"/>
<path d="M42.2746 36.3207L46.2141 36.6487C45.2568 38.4698 44.0292 39.8138 42.5315 40.6808C41.0337 41.5479 39.3 41.8994 37.3302 41.7354C36.0581 41.6295 34.8868 41.3048 33.8164 40.7611C32.7477 40.197 31.8362 39.4806 31.0821 38.6121C30.328 37.7435 29.7602 36.7459 29.3788 35.6191C28.9974 34.4924 28.858 33.3134 28.9605 32.0823C29.0646 30.8307 29.3868 29.6902 29.9271 28.6608C30.4895 27.6127 31.2042 26.7218 32.071 25.9881C32.9583 25.2563 33.9645 24.7099 35.0896 24.349C36.2163 23.9676 37.4158 23.8298 38.6879 23.9357C40.6987 24.1031 42.4095 24.7724 43.8202 25.9435C45.231 27.1146 46.198 28.6517 46.7214 30.5547L42.7819 30.2268C42.3646 29.283 41.7952 28.5538 41.0735 28.0392C40.3519 27.5246 39.4679 27.2237 38.4215 27.1366C37.6213 27.07 36.8706 27.1521 36.1696 27.383C35.4891 27.6156 34.8813 27.9679 34.3462 28.4399C33.8332 28.893 33.4041 29.4565 33.0588 30.1302C32.734 30.8056 32.5374 31.5537 32.4691 32.3744C32.4025 33.1746 32.4735 33.9347 32.6822 34.6545C32.9114 35.376 33.2508 36.0138 33.7006 36.5677C34.1725 37.1029 34.7343 37.5525 35.3857 37.9166C36.0389 38.2603 36.7657 38.4654 37.5659 38.532C38.5302 38.6123 39.3775 38.4865 40.1075 38.1547C40.8393 37.8024 41.5617 37.1911 42.2746 36.3207ZM48.4384 42.2572L50.3317 19.5126L53.8096 19.8021L51.9163 42.5467L48.4384 42.2572ZM55.3748 34.3431C55.4824 33.0505 55.7969 31.8783 56.3183 30.8267C56.8414 29.7546 57.5253 28.8611 58.3699 28.1464C59.2162 27.411 60.1916 26.8621 61.2961 26.4995C62.4212 26.1386 63.6095 26.0103 64.8611 26.1145C66.1743 26.2238 67.2729 26.5528 68.157 27.1016C69.0632 27.6316 69.8533 28.4411 70.5271 29.5302L70.7371 27.0065L73.9996 27.2781L72.5853 44.2673L69.3229 43.9957L69.5279 41.5335C68.6012 42.4894 67.6574 43.1546 66.6965 43.5292C65.7579 43.8849 64.6524 44.0098 63.3803 43.9039C62.1082 43.798 60.9565 43.4852 59.9255 42.9655C58.8961 42.4253 58.024 41.7329 57.3092 40.8883C56.5961 40.0232 56.0685 39.0392 55.7265 37.9364C55.3861 36.813 55.2689 35.6153 55.3748 34.3431ZM58.8808 34.666C58.8142 35.4662 58.8853 36.2262 59.0939 36.9461C59.3248 37.6471 59.6651 38.2746 60.1149 38.8285C60.5868 39.3636 61.1494 39.803 61.8026 40.1467C62.478 40.4715 63.2159 40.6672 64.0161 40.7338C64.8163 40.8004 65.5558 40.7277 66.2346 40.5156C66.9356 40.2847 67.5528 39.9435 68.0863 39.4921C68.6214 39.0201 69.0514 38.4464 69.3762 37.771C69.701 37.0956 69.8976 36.3475 69.9659 35.5268C70.0342 34.706 69.9538 33.9349 69.7246 33.2133C69.5176 32.473 69.1782 31.8352 68.7062 31.3001C68.2565 30.7462 67.6948 30.2965 67.021 29.9512C66.3678 29.6076 65.6309 29.4016 64.8101 29.3333C64.0304 29.2684 63.2995 29.3625 62.6173 29.6156C61.9368 29.8482 61.329 30.2005 60.7938 30.6724C60.2587 31.1444 59.8176 31.7275 59.4705 32.4217C59.1457 33.0972 58.9492 33.8452 58.8808 34.666ZM75.2664 39.191L78.775 39.4831C78.8486 40.3363 79.0735 40.9852 79.4497 41.4297C79.8481 41.8554 80.4064 42.0982 81.1246 42.158C81.7606 42.2109 82.3001 42.0595 82.7429 41.7038C83.1857 41.3482 83.4328 40.8625 83.484 40.247C83.513 39.8982 83.4566 39.5836 83.3146 39.3032C83.1727 39.0228 82.9658 38.7783 82.6939 38.5697C82.422 38.3611 82.1074 38.1696 81.75 37.9953C81.4132 37.8226 81.0558 37.6482 80.6779 37.4721C79.8605 37.1149 79.168 36.7473 78.6003 36.3695C78.0531 35.9934 77.6111 35.595 77.2742 35.1744C76.9373 34.7538 76.7065 34.3007 76.5816 33.8151C76.4584 33.309 76.4216 32.7585 76.4712 32.1634C76.5309 31.4453 76.7198 30.7895 77.0378 30.1962C77.3558 29.6028 77.7695 29.1001 78.279 28.688C78.809 28.2776 79.4126 27.9766 80.0897 27.785C80.7685 27.5729 81.4875 27.4985 82.2466 27.5617C83.0058 27.6249 83.6932 27.8061 84.3088 28.1052C84.9243 28.4044 85.4502 28.7891 85.8862 29.2592C86.3223 29.7294 86.648 30.2834 86.8635 30.9211C87.0808 31.5384 87.18 32.2078 87.1612 32.9293L83.7142 32.6424C83.6782 32.0816 83.508 31.6438 83.2036 31.3293C82.9215 30.9959 82.5137 30.807 81.9802 30.7626C81.4467 30.7181 80.9919 30.8456 80.6158 31.1448C80.2396 31.4441 80.0319 31.8297 79.9926 32.3016C79.9653 32.6299 80.0337 32.9248 80.1979 33.1864C80.3826 33.4497 80.6211 33.6865 80.9135 33.8968C81.2059 34.1071 81.5308 34.2994 81.8882 34.4738C82.2456 34.6482 82.6038 34.8123 82.9629 34.9661C84.5001 35.6106 85.5851 36.3517 86.2178 37.1895C86.8522 38.0068 87.1199 39.0104 87.0208 40.2005C86.9525 41.0212 86.7363 41.7573 86.3721 42.4088C86.0285 43.062 85.5789 43.6238 85.0232 44.094C84.4693 44.5438 83.8213 44.8824 83.0792 45.1098C82.3577 45.339 81.5865 45.4195 80.7658 45.3511C79.0217 45.206 77.6572 44.5965 76.6722 43.5228C75.7095 42.4303 75.2409 40.9864 75.2664 39.191ZM88.2206 40.2694L91.7292 40.5614C91.8028 41.4147 92.0277 42.0635 92.4039 42.5081C92.8024 42.9338 93.3607 43.1765 94.0788 43.2363C94.7149 43.2892 95.2543 43.1379 95.6971 42.7822C96.14 42.4265 96.387 41.9409 96.4382 41.3253C96.4673 40.9765 96.4108 40.6619 96.2689 40.3815C96.1269 40.1011 95.92 39.8566 95.6481 39.648C95.3763 39.4395 95.0616 39.248 94.7042 39.0736C94.3674 38.9009 94.01 38.7266 93.6321 38.5505C92.8148 38.1932 92.1223 37.8256 91.5546 37.4478C91.0074 37.0717 90.5653 36.6733 90.2285 36.2527C89.8916 35.8322 89.6607 35.3791 89.5358 34.8935C89.4127 34.3874 89.3759 33.8368 89.4254 33.2418C89.4852 32.5236 89.6741 31.8679 89.992 31.2745C90.31 30.6812 90.7238 30.1785 91.2333 29.7663C91.7633 29.3559 92.3668 29.0549 93.0439 28.8634C93.7227 28.6513 94.4417 28.5768 95.2009 28.64C95.9601 28.7032 96.6474 28.8844 97.263 29.1836C97.8786 29.4828 98.4044 29.8674 98.8405 30.3376C99.2765 30.8078 99.6023 31.3617 99.8178 31.9995C100.035 32.6167 100.134 33.2861 100.115 34.0077L96.6684 33.7207C96.6324 33.1599 96.4623 32.7222 96.1579 32.4076C95.8757 32.0742 95.4679 31.8853 94.9344 31.8409C94.4009 31.7965 93.9461 31.9239 93.57 32.2232C93.1939 32.5224 92.9861 32.908 92.9469 33.38C92.9195 33.7082 92.988 34.0032 93.1521 34.2648C93.3368 34.5281 93.5754 34.7649 93.8678 34.9752C94.1602 35.1854 94.4851 35.3778 94.8424 35.5522C95.1998 35.7265 95.558 35.8906 95.9171 36.0445C97.4543 36.689 98.5393 37.4301 99.172 38.2679C99.8065 39.0851 100.074 40.0888 99.9751 41.2788C99.9067 42.0996 99.6905 42.8357 99.3264 43.4872C98.9828 44.1404 98.5331 44.7021 97.9775 45.1724C97.4235 45.6221 96.7755 45.9607 96.0334 46.1882C95.3119 46.4174 94.5408 46.4978 93.72 46.4295C91.976 46.2843 90.6114 45.6749 89.6265 44.6012C88.6637 43.5087 88.1951 42.0647 88.2206 40.2694ZM101.999 46.7157L103.413 29.7265L106.891 30.016L105.476 47.0052L101.999 46.7157ZM103.572 27.8183L103.892 23.9711L107.37 24.2606L107.05 28.1078L103.572 27.8183ZM122.254 42.9785L126.194 43.3064C125.236 45.1275 124.009 46.4715 122.511 47.3386C121.013 48.2056 119.28 48.5571 117.31 48.3932C116.038 48.2873 114.866 47.9625 113.796 47.4189C112.727 46.8547 111.816 46.1384 111.062 45.2698C110.308 44.4013 109.74 43.4036 109.358 42.2769C108.977 41.1501 108.838 39.9712 108.94 38.7401C109.044 37.4885 109.367 36.348 109.907 35.3186C110.469 34.2704 111.184 33.3795 112.051 32.6459C112.938 31.914 113.944 31.3676 115.069 31.0067C116.196 30.6253 117.395 30.4876 118.668 30.5935C120.678 30.7609 122.389 31.4301 123.8 32.6012C125.211 33.7724 126.178 35.3094 126.701 37.2125L122.762 36.8845C122.344 35.9407 121.775 35.2115 121.053 34.6969C120.332 34.1823 119.448 33.8815 118.401 33.7943C117.601 33.7277 116.85 33.8099 116.149 34.0408C115.469 34.2734 114.861 34.6257 114.326 35.0976C113.813 35.5508 113.384 36.1142 113.038 36.7879C112.714 37.4633 112.517 38.2114 112.449 39.0322C112.382 39.8324 112.453 40.5924 112.662 41.3122C112.891 42.0338 113.23 42.6715 113.68 43.2255C114.152 43.7606 114.714 44.2102 115.365 44.5744C116.019 44.918 116.745 45.1231 117.546 45.1897C118.51 45.27 119.357 45.1443 120.087 44.8125C120.819 44.4602 121.541 43.8489 122.254 42.9785ZM128.381 40.4204C128.489 39.1278 128.803 37.9556 129.325 36.904C129.848 35.8319 130.532 34.9384 131.376 34.2236C132.223 33.4883 133.198 32.9394 134.303 32.5768C135.428 32.2159 136.616 32.0876 137.868 32.1918C139.181 32.3011 140.28 32.6301 141.164 33.1789C142.07 33.7089 142.86 34.5184 143.534 35.6075L143.744 33.0838L147.006 33.3553L145.592 50.3446L142.33 50.073L142.534 47.6108C141.608 48.5667 140.664 49.2319 139.703 49.6064C138.764 49.9622 137.659 50.0871 136.387 49.9812C135.115 49.8753 133.963 49.5625 132.932 49.0428C131.903 48.5026 131.031 47.8102 130.316 46.9656C129.603 46.1004 129.075 45.1165 128.733 44.0136C128.393 42.8903 128.275 41.6926 128.381 40.4204ZM131.887 40.7433C131.821 41.5435 131.892 42.3035 132.101 43.0233C132.331 43.7244 132.672 44.3518 133.121 44.9058C133.593 45.4409 134.156 45.8803 134.809 46.2239C135.485 46.5488 136.222 46.7445 137.023 46.8111C137.823 46.8777 138.562 46.805 139.241 46.5929C139.942 46.362 140.559 46.0208 141.093 45.5694C141.628 45.0974 142.058 44.5237 142.383 43.8483C142.708 43.1729 142.904 42.4248 142.973 41.604C143.041 40.7833 142.96 40.0122 142.731 39.2906C142.524 38.5503 142.185 37.9125 141.713 37.3774C141.263 36.8234 140.701 36.3738 140.028 36.0285C139.374 35.6848 138.637 35.4789 137.817 35.4106C137.037 35.3457 136.306 35.4398 135.624 35.6929C134.943 35.9255 134.336 36.2778 133.8 36.7497C133.265 37.2217 132.824 37.8048 132.477 38.499C132.152 39.1745 131.956 39.9225 131.887 40.7433ZM149.097 50.6363L150.99 27.8917L154.468 28.1812L152.575 50.9258L149.097 50.6363ZM164.666 51.9323L166.08 34.9431L169.343 35.2147L169.199 36.9382C169.878 36.2303 170.569 35.7404 171.274 35.4684C171.999 35.1982 172.874 35.1058 173.9 35.1912C175.131 35.2937 176.128 35.6039 176.891 36.1219C177.676 36.6211 178.333 37.4093 178.863 38.4865C179.645 37.5392 180.495 36.8765 181.415 36.4986C182.335 36.1206 183.421 35.9837 184.672 36.0879C186.909 36.2741 188.549 37.0511 189.592 38.4188C190.655 39.7883 191.086 41.6939 190.882 44.1356L190.057 54.046L186.549 53.7539L187.338 44.2744C187.469 42.6945 187.27 41.49 186.74 40.6607C186.21 39.8315 185.339 39.3665 184.129 39.2657C182.836 39.1581 181.835 39.519 181.126 40.3483C180.416 41.1777 179.987 42.4849 179.838 44.27L179.101 53.1339L175.623 52.8444L176.414 43.3341C176.546 41.7542 176.335 40.5591 175.783 39.7486C175.232 38.9177 174.331 38.4501 173.08 38.3459C171.787 38.2383 170.797 38.5898 170.11 39.4003C169.443 40.2126 169.034 41.5318 168.882 43.3579L168.144 52.2219L164.666 51.9323ZM205.216 55.3079L205.38 53.3381C204.611 54.1418 203.821 54.6959 203.01 55.0003C202.222 55.2859 201.264 55.3817 200.135 55.2878C197.899 55.1016 196.273 54.2742 195.259 52.8055C194.268 51.318 193.885 49.2098 194.112 46.4809L194.873 37.3399L198.351 37.6294L197.636 46.2164C197.474 48.1656 197.663 49.6173 198.204 50.5713C198.746 51.5049 199.673 52.0263 200.986 52.1356C202.464 52.2586 203.58 51.8763 204.336 50.9889C205.112 50.1031 205.586 48.624 205.759 46.5517L206.446 38.3033L209.923 38.5928L208.509 55.582L205.216 55.3079ZM211.181 50.5049L214.689 50.797C214.763 51.6502 214.988 52.2991 215.364 52.7436C215.762 53.1693 216.321 53.4121 217.039 53.4719C217.675 53.5248 218.214 53.3734 218.657 53.0178C219.1 52.6621 219.347 52.1764 219.398 51.5609C219.427 51.2121 219.371 50.8975 219.229 50.6171C219.087 50.3367 218.88 50.0922 218.608 49.8836C218.336 49.675 218.022 49.4835 217.664 49.3092C217.327 49.1365 216.97 48.9621 216.592 48.786C215.775 48.4288 215.082 48.0612 214.515 47.6834C213.967 47.3073 213.525 46.9089 213.189 46.4883C212.852 46.0677 212.621 45.6146 212.496 45.129C212.373 44.6229 212.336 44.0724 212.385 43.4773C212.445 42.7592 212.634 42.1034 212.952 41.5101C213.27 40.9167 213.684 40.414 214.193 40.0019C214.723 39.5915 215.327 39.2905 216.004 39.0989C216.683 38.8868 217.402 38.8124 218.161 38.8756C218.92 38.9388 219.608 39.12 220.223 39.4191C220.839 39.7183 221.364 40.103 221.801 40.5732C222.237 41.0433 222.562 41.5973 222.778 42.235C222.995 42.8523 223.094 43.5217 223.076 44.2432L219.628 43.9563C219.593 43.3955 219.422 42.9578 219.118 42.6432C218.836 42.3098 218.428 42.1209 217.895 42.0765C217.361 42.0321 216.906 42.1595 216.53 42.4587C216.154 42.758 215.946 43.1436 215.907 43.6155C215.88 43.9438 215.948 44.2388 216.112 44.5003C216.297 44.7636 216.535 45.0004 216.828 45.2107C217.12 45.421 217.445 45.6133 217.803 45.7877C218.16 45.9621 218.518 46.1262 218.877 46.2801C220.414 46.9245 221.499 47.6657 222.132 48.5034C222.767 49.3207 223.034 50.3243 222.935 51.5144C222.867 52.3351 222.651 53.0713 222.286 53.7227C221.943 54.3759 221.493 54.9377 220.938 55.4079C220.384 55.8577 219.736 56.1963 218.994 56.4237C218.272 56.6529 217.501 56.7334 216.68 56.665C214.936 56.5199 213.572 55.9104 212.587 54.8367C211.624 53.7442 211.155 52.3003 211.181 50.5049ZM224.959 56.9513L226.373 39.9621L229.851 40.2516L228.437 57.2408L224.959 56.9513ZM226.532 38.0539L226.852 34.2067L230.33 34.4962L230.01 38.3434L226.532 38.0539ZM245.214 53.214L249.154 53.542C248.197 55.3631 246.969 56.7071 245.471 57.5741C243.973 58.4412 242.24 58.7927 240.27 58.6287C238.998 58.5228 237.827 58.1981 236.756 57.6544C235.687 57.0903 234.776 56.3739 234.022 55.5054C233.268 54.6369 232.7 53.6392 232.319 52.5124C231.937 51.3857 231.798 50.2068 231.9 48.9757C232.004 47.724 232.327 46.5835 232.867 45.5541C233.429 44.506 234.144 43.6151 235.011 42.8815C235.898 42.1496 236.904 41.6032 238.029 41.2423C239.156 40.8609 240.356 40.7231 241.628 40.829C243.638 40.9964 245.349 41.6657 246.76 42.8368C248.171 44.0079 249.138 45.545 249.661 47.448L245.722 47.1201C245.304 46.1763 244.735 45.4471 244.013 44.9325C243.292 44.4179 242.408 44.117 241.361 44.0299C240.561 43.9633 239.81 44.0454 239.109 44.2763C238.429 44.5089 237.821 44.8612 237.286 45.3332C236.773 45.7863 236.344 46.3498 235.999 47.0235C235.674 47.6989 235.477 48.447 235.409 49.2677C235.342 50.0679 235.413 50.828 235.622 51.5478C235.851 52.2693 236.191 52.9071 236.64 53.461C237.112 53.9962 237.674 54.4458 238.325 54.81C238.979 55.1536 239.705 55.3587 240.506 55.4253C241.47 55.5056 242.317 55.3798 243.047 55.0481C243.779 54.6958 244.501 54.0844 245.214 53.214Z" fill="black"/>
</svg>
