<svg width="327" height="144" viewBox="0 0 327 144" fill="none" xmlns="http://www.w3.org/2000/svg">
<rect x="0.22168" y="59.7324" width="315.381" height="85.6904" rx="42.8452" transform="rotate(-10.7722 0.22168 59.7324)" fill="#A1BBEF"/>
<path d="M48.4816 107.398L43.9205 83.4246L47.1637 82.8075L49.1983 93.5013L58.1204 80.7229L62.3278 79.9225L52.5727 93.8129L66.8889 103.896L62.6377 104.705L49.5735 95.4735L51.7248 106.781L48.4816 107.398ZM66.6847 91.5368C66.34 89.7253 66.3272 87.9869 66.6461 86.3216C66.9943 84.6507 67.6325 83.1518 68.5608 81.8247C69.489 80.4976 70.6691 79.38 72.1009 78.4718C73.5271 77.5344 75.1606 76.8906 77.0014 76.5403C78.7544 76.2068 80.4372 76.2197 82.0496 76.579C83.6912 76.9327 85.1609 77.5765 86.4588 78.5103C87.7803 79.4093 88.8952 80.5748 89.8034 82.0066C90.7352 83.4036 91.3735 85.0079 91.7181 86.8194C92.0628 88.6309 92.0729 90.3547 91.7483 91.9908C91.4238 93.6268 90.8267 95.1028 89.9568 96.4188C89.087 97.7348 87.9536 98.8587 86.5565 99.7905C85.1832 100.688 83.6199 101.303 81.8669 101.636C80.0261 101.987 78.2585 102.005 76.564 101.692C74.8932 101.343 73.3824 100.723 72.0317 99.8292C70.6754 98.9065 69.5313 97.7466 68.5994 96.3496C67.662 94.9233 67.0238 93.3191 66.6847 91.5368ZM81.2122 98.6729C82.527 98.4227 83.6951 97.9583 84.7164 97.2796C85.7378 96.6009 86.565 95.7774 87.1983 94.8092C87.826 93.8118 88.2478 92.687 88.4637 91.4349C88.7088 90.1773 88.7007 88.8618 88.4395 87.4886C88.1726 86.0861 87.6915 84.8304 86.9961 83.7214C86.3299 82.6069 85.4926 81.7065 84.4841 81.0204C83.5047 80.3288 82.4009 79.8576 81.1724 79.6069C79.9384 79.327 78.6494 79.3149 77.3054 79.5706C75.9906 79.8208 74.8253 80.2998 73.8095 81.0077C72.7882 81.6865 71.9519 82.5419 71.3005 83.5741C70.6436 84.5771 70.1954 85.722 69.9558 87.0089C69.7107 88.2665 69.7188 89.582 69.98 90.9552C70.2413 92.3285 70.7169 93.555 71.4067 94.6347C72.091 95.6853 72.9374 96.5536 73.9459 97.2397C74.9544 97.9258 76.0757 98.4088 77.3097 98.6888C78.5674 98.9339 79.8682 98.9286 81.2122 98.6729ZM98.6 97.8625L94.0389 73.8892L99.079 72.9303L111.152 90.7968L115.821 69.7451L120.861 68.7862L125.422 92.7594L122.179 93.3765L118.293 72.9532L113.413 95.0441L110.609 95.5778L97.9575 76.8222L101.843 97.2454L98.6 97.8625ZM133.641 88.153L139.864 86.969C141.793 86.6021 143.172 85.9763 144.003 85.0916C144.834 84.207 145.113 83.0488 144.841 81.6171C144.568 80.1854 143.883 79.2107 142.786 78.6929C141.688 78.1751 140.175 78.0997 138.247 78.4666L132.023 79.6506L133.641 88.153ZM130.956 91.7064L126.395 67.7332L129.639 67.1161L131.465 76.7142L138.521 75.3717C139.748 75.1383 140.892 75.1023 141.952 75.264C143.041 75.42 144.012 75.7499 144.865 76.2538C145.712 76.7284 146.412 77.3824 146.964 78.2159C147.54 79.0146 147.928 79.9399 148.128 80.9917C148.328 82.0436 148.31 83.0613 148.073 84.0449C147.86 84.9937 147.449 85.859 146.841 86.6407C146.227 87.3933 145.442 88.0421 144.487 88.5873C143.56 89.1269 142.483 89.5135 141.256 89.7469L130.956 91.7064ZM173.209 81.3515C174.553 81.0958 175.751 80.6258 176.801 79.9415C177.846 79.228 178.697 78.3698 179.354 77.3668C180.011 76.3638 180.447 75.2363 180.663 73.9842C180.903 72.6973 180.889 71.3527 180.622 69.9502C180.35 68.5185 179.866 67.2482 179.171 66.1392C178.475 65.0302 177.62 64.1181 176.606 63.4027C175.592 62.6874 174.454 62.1926 173.19 61.9182C171.956 61.6383 170.667 61.6262 169.323 61.8819C167.95 62.1432 166.726 62.6333 165.652 63.3524C164.572 64.0423 163.692 64.906 163.012 65.9438C162.326 66.9523 161.848 68.1028 161.579 69.3952C161.334 70.6529 161.345 71.9829 161.612 73.3854C161.884 74.8171 162.368 76.0874 163.064 77.1964C163.788 78.2998 164.658 79.2092 165.672 79.9245C166.715 80.6343 167.868 81.1264 169.131 81.4007C170.418 81.6403 171.778 81.6239 173.209 81.3515ZM153.255 87.464L148.694 63.4907L151.937 62.8737L153.897 73.173L158.06 72.3808C157.93 70.7405 158.102 69.1788 158.577 67.6958C159.051 66.2129 159.767 64.8809 160.723 63.6999C161.673 62.4897 162.826 61.468 164.182 60.6349C165.566 59.7963 167.091 59.2186 168.756 58.9017C170.597 58.5515 172.353 58.5505 174.024 58.8986C175.724 59.2412 177.237 59.8767 178.564 60.8049C179.921 61.7276 181.07 62.9167 182.013 64.3722C182.951 65.7985 183.595 67.4319 183.945 69.2727C184.289 71.0842 184.288 72.8254 183.94 74.4962C183.621 76.1615 183.014 77.6695 182.121 79.0202C181.222 80.3417 180.059 81.4712 178.633 82.4086C177.236 83.3405 175.646 83.976 173.864 84.315C172.111 84.6486 170.422 84.6823 168.797 84.4162C167.172 84.1502 165.681 83.6316 164.323 82.8605C162.989 82.0547 161.823 81.02 160.826 79.7566C159.852 78.4583 159.117 76.9785 158.619 75.3172L154.455 76.1094L156.498 86.847L153.255 87.464ZM190.833 80.3145L186.272 56.3412L189.515 55.7242L191.475 66.0235L205.85 63.2885L203.89 52.9892L207.134 52.3722L211.695 76.3455L208.452 76.9625L206.409 66.2249L192.033 68.9599L194.076 79.6975L190.833 80.3145ZM217.198 75.2985L212.637 51.3252L215.88 50.7082L219.565 70.0796L230.474 47.9315L233.717 47.3145L238.278 71.2877L235.035 71.9048L231.35 52.5333L220.441 74.6814L217.198 75.2985ZM247.895 69.4581L243.893 48.4213L237.581 49.622L237.023 46.6856L252.8 43.6838L253.359 46.6202L247.136 47.8042L251.138 68.8411L247.895 69.4581ZM260.639 67.0334L256.078 43.0602L259.321 42.4431L263.007 61.8146L273.916 39.6665L277.159 39.0494L281.72 63.0227L278.477 63.6397L274.791 44.2683L263.882 66.4164L260.639 67.0334Z" fill="black"/>
</svg>
