<svg width="324" height="120" viewBox="0 0 324 120" fill="none" xmlns="http://www.w3.org/2000/svg">
<rect x="10.041" y="0.22168" width="315.381" height="85.6904" rx="42.8452" transform="rotate(6.25537 10.041 0.22168)" fill="#A1BBEF"/>
<path d="M42.2276 59.9296L44.8866 35.6716L48.1683 36.0313L46.9822 46.8521L59.2551 37.2466L63.5125 37.7132L50.1175 48.1382L60.8535 61.9712L56.5518 61.4997L46.7635 48.8477L45.5093 60.2893L42.2276 59.9296ZM64.2774 50.0942C64.4783 48.2612 64.9751 46.5953 65.7677 45.0964C66.5899 43.6007 67.639 42.3544 68.9152 41.3573C70.1914 40.3602 71.647 39.6371 73.282 39.188C74.9202 38.7093 76.6706 38.5721 78.5332 38.7763C80.3071 38.9707 81.9123 39.4758 83.3488 40.2915C84.8149 41.1104 86.0317 42.1564 86.9992 43.4293C87.9995 44.6759 88.7243 46.1167 89.1734 47.7517C89.6553 49.3604 89.7958 51.0812 89.5948 52.9142C89.3939 54.7473 88.8988 56.3984 88.1094 57.8678C87.32 59.3371 86.3168 60.5735 85.0998 61.5771C83.8827 62.5806 82.4698 63.3234 80.8612 63.8053C79.2853 64.2609 77.6104 64.3915 75.8365 64.197C73.974 63.9928 72.2784 63.4928 70.75 62.697C69.2543 61.8748 67.9916 60.8388 66.9617 59.5889C65.935 58.3095 65.1808 56.8655 64.6989 55.2568C64.2202 53.6186 64.0797 51.8977 64.2774 50.0942ZM76.0784 61.1717C77.4088 61.3175 78.6617 61.2155 79.837 60.8656C81.0123 60.5157 82.0445 59.9706 82.9335 59.2303C83.8257 58.4604 84.5584 57.5084 85.1315 56.3745C85.7341 55.2437 86.1116 53.9836 86.2639 52.594C86.4195 51.1749 86.3272 49.8333 85.987 48.5693C85.6764 47.3086 85.1394 46.2025 84.376 45.2511C83.6422 44.303 82.7246 43.5292 81.6235 42.9298C80.5255 42.3008 79.2966 41.9118 77.9366 41.7627C76.6062 41.6169 75.3517 41.7337 74.1731 42.1132C72.9978 42.463 71.9476 43.0361 71.0226 43.8323C70.1008 44.5989 69.3369 45.5624 68.731 46.7227C68.1284 47.8535 67.7509 49.1136 67.5986 50.5032C67.4462 51.8927 67.5418 53.2047 67.8852 54.4392C68.2319 55.6441 68.7869 56.7222 69.5503 57.6735C70.3137 58.6249 71.2444 59.4151 72.3423 60.0441C73.473 60.6467 74.7184 61.0226 76.0784 61.1717ZM92.9412 65.4885L95.6002 41.2305L100.7 41.7895L107.012 62.4082L117.641 43.6464L122.741 44.2054L120.082 68.4634L116.8 68.1037L119.065 47.4378L107.931 67.1315L105.092 66.8204L98.4882 45.1823L96.2229 65.8482L92.9412 65.4885ZM129.289 66.4657L135.587 67.156C137.538 67.3699 139.04 67.1755 140.094 66.5729C141.147 65.9703 141.753 64.9446 141.912 63.4959C142.071 62.0473 141.701 60.9147 140.804 60.0982C139.906 59.2817 138.481 58.7665 136.53 58.5526L130.232 57.8623L129.289 66.4657ZM125.682 69.0773L128.341 44.8193L131.623 45.179L130.558 54.8911L137.698 55.6737C138.94 55.8098 140.044 56.1103 141.01 56.5753C142.006 57.0435 142.838 57.6433 143.506 58.3748C144.177 59.0766 144.654 59.9069 144.938 60.8655C145.255 61.7979 145.355 62.7962 145.238 63.8605C145.122 64.9249 144.806 65.8926 144.292 66.7637C143.81 67.6086 143.164 68.3157 142.354 68.8851C141.546 69.4249 140.606 69.8155 139.532 70.0569C138.488 70.3015 137.345 70.3557 136.104 70.2196L125.682 69.0773ZM169.115 71.5492C170.475 71.6982 171.757 71.5995 172.962 71.2528C174.17 70.8766 175.235 70.3052 176.157 69.5385C177.079 68.7719 177.826 67.8216 178.399 66.6876C179.005 65.5273 179.386 64.2376 179.542 62.8184C179.7 61.3698 179.61 60.0134 179.27 58.7494C178.929 57.4854 178.379 56.3629 177.619 55.382C176.859 54.4011 175.915 53.5945 174.788 52.9623C173.69 52.3333 172.461 51.9442 171.101 51.7952C169.711 51.6428 168.398 51.7532 167.16 52.1262C165.925 52.4696 164.831 53.0378 163.876 53.8307C162.925 54.5941 162.131 55.5544 161.496 56.7114C160.893 57.8422 160.514 59.1171 160.359 60.5362C160.2 61.9849 160.291 63.3412 160.631 64.6053C161 65.8725 161.565 66.9966 162.326 67.9775C163.115 68.9617 164.074 69.7699 165.201 70.4021C166.362 71.008 167.666 71.3904 169.115 71.5492ZM148.246 71.5505L150.904 47.2925L154.186 47.6522L153.044 58.0739L157.257 58.5357C157.612 56.929 158.234 55.4862 159.123 54.2073C160.011 52.9283 161.085 51.8642 162.345 51.0149C163.608 50.1361 165.01 49.4968 166.549 49.0971C168.119 48.7007 169.746 48.5948 171.431 48.7795C173.294 48.9837 174.973 49.4969 176.469 50.3191C177.994 51.1445 179.255 52.1953 180.252 53.4715C181.279 54.7509 182.03 56.2245 182.505 57.8923C182.984 59.5305 183.121 61.2809 182.917 63.1435C182.716 64.9766 182.204 66.6409 181.382 68.1365C180.59 69.6354 179.568 70.8998 178.319 71.9297C177.072 72.93 175.63 73.6695 173.991 74.1482C172.383 74.6301 170.677 74.7722 168.873 74.5745C167.099 74.3801 165.474 73.9177 163.999 73.1875C162.523 72.4572 161.249 71.5247 160.176 70.3899C159.137 69.2287 158.325 67.8981 157.741 66.3979C157.191 64.8715 156.921 63.2411 156.931 61.5069L152.718 61.0451L151.527 71.9102L148.246 71.5505ZM186.27 75.7185L188.929 51.4605L192.211 51.8202L191.068 62.2418L205.614 63.8362L206.757 53.4146L210.038 53.7743L207.379 78.0323L204.098 77.6726L205.288 66.8075L190.743 65.2131L189.552 76.0782L186.27 75.7185ZM212.948 78.6427L215.607 54.3847L218.888 54.7444L216.74 74.3459L233.656 56.3631L236.938 56.7228L234.279 80.9808L230.997 80.6211L233.146 61.0196L216.229 79.0024L212.948 78.6427ZM244.009 82.0475L246.343 60.7607L239.957 60.0607L240.282 57.0895L256.247 58.8394L255.922 61.8107L249.624 61.1204L247.291 82.4072L244.009 82.0475ZM256.905 83.461L259.564 59.203L262.846 59.5627L260.697 79.1642L277.614 61.1814L280.895 61.5411L278.236 85.7991L274.955 85.4394L277.103 65.8379L260.187 83.8207L256.905 83.461Z" fill="black"/>
</svg>
