<svg width="238" height="91" viewBox="0 0 238 91" fill="none" xmlns="http://www.w3.org/2000/svg">
<rect x="5.65234" width="232.25" height="72.625" rx="36.3125" transform="rotate(4.46382 5.65234 0)" fill="#F8EB66"/>
<path d="M52.9803 44.969L56.1862 45.2192C54.7882 47.3884 53.2195 48.9554 51.4803 49.9204C49.743 50.8599 47.7294 51.2403 45.4395 51.0615C43.8366 50.9364 42.3573 50.5393 41.0016 49.8703C39.6714 49.2033 38.5361 48.3339 37.5958 47.2622C36.6556 46.1904 35.9445 44.9702 35.4625 43.6014C34.9826 42.2072 34.8032 40.7341 34.9244 39.1821C35.0436 37.6555 35.4474 36.2535 36.1359 34.9761C36.8244 33.6987 37.7025 32.6154 38.7703 31.726C39.8655 30.8131 41.1092 30.1295 42.5014 29.675C43.919 29.2225 45.4039 29.0568 46.9559 29.178C49.3222 29.3627 51.3863 30.1382 53.1483 31.5045C54.9103 32.8708 56.1287 34.6426 56.8035 36.8199L53.6358 36.5726C52.9289 35.1351 51.9799 34.0115 50.7888 33.2018C49.6251 32.3686 48.2672 31.8914 46.7152 31.7702C45.5448 31.6789 44.4338 31.8097 43.3823 32.1628C42.3562 32.5179 41.4445 33.0483 40.647 33.754C39.8516 34.4342 39.1979 35.2663 38.6859 36.2503C38.1739 37.2343 37.8722 38.3115 37.7808 39.4819C37.6895 40.6523 37.8203 41.7632 38.1734 42.8147C38.5285 43.8408 39.0579 44.7652 39.7616 45.5881C40.4673 46.3856 41.3121 47.0403 42.2961 47.5523C43.2801 48.0643 44.3572 48.366 45.5276 48.4573C47.0288 48.5745 48.3375 48.3695 49.4538 47.8423C50.5956 47.3171 51.7711 46.3593 52.9803 44.969ZM59.617 51.6691L61.2467 30.7928L64.0709 31.0133L63.8385 33.9901C64.1621 33.4522 64.5179 32.9936 64.9059 32.6143C65.3213 32.2116 65.7689 31.8882 66.2487 31.644C66.754 31.4019 67.3179 31.2283 67.9405 31.1234C68.5631 31.0184 69.258 30.9702 70.0252 30.9789L69.8078 33.765C67.8073 33.8136 66.2692 34.3335 65.1935 35.3246C64.1452 36.2923 63.5446 37.7558 63.3916 39.7149L62.4412 51.8896L59.617 51.6691ZM89.0741 47.0571L92.0128 47.2865C91.5457 48.3508 90.933 49.3141 90.1745 50.1765C89.418 51.0133 88.5687 51.7278 87.6265 52.3198C86.7118 52.8884 85.7062 53.309 84.6098 53.5818C83.5388 53.8566 82.4308 53.9493 81.2858 53.8599C79.7338 53.7387 78.3054 53.3456 77.0006 52.6806C75.7232 51.9921 74.6271 51.113 73.7123 50.0432C72.7974 48.9735 72.0991 47.7542 71.6171 46.3855C71.1627 44.9933 70.996 43.5212 71.1172 41.9691C71.2363 40.4425 71.6265 39.0522 72.2875 37.7983C72.9506 36.519 73.8032 35.4336 74.8456 34.5422C75.8899 33.6254 77.0954 32.9388 78.4622 32.4823C79.8289 32.0258 81.2629 31.8562 82.7641 31.9734C84.2652 32.0906 85.6545 32.4934 86.9319 33.1819C88.2367 33.8469 89.3475 34.7016 90.2643 35.7459C91.2065 36.7922 91.9196 37.987 92.4035 39.3303C92.8874 40.6736 93.0728 42.0704 92.9595 43.5207C92.9437 43.7242 92.915 43.9268 92.8737 44.1283C92.8344 44.3045 92.7813 44.4923 92.7145 44.6919L73.8609 43.22C73.8304 44.2672 74.0093 45.2539 74.3978 46.1802C74.7863 47.1065 75.3099 47.9409 75.9687 48.6835C76.6549 49.4026 77.4665 49.9907 78.4036 50.4479C79.3406 50.905 80.3435 51.1753 81.4121 51.2587C83.015 51.3838 84.5118 51.0655 85.9024 50.3037C87.3204 49.5185 88.3776 48.4363 89.0741 47.0571ZM74.1369 40.6689L90.1281 41.9173C89.8075 39.7932 88.9688 38.0766 87.6119 36.7676C86.2804 35.4605 84.5969 34.7275 82.5615 34.5686C81.5692 34.4912 80.6148 34.583 79.6985 34.8443C78.8096 35.0821 77.9978 35.4795 77.2632 36.0365C76.5305 36.5681 75.8897 37.2348 75.3407 38.0367C74.8192 38.8151 74.4179 39.6925 74.1369 40.6689ZM95.9275 44.0596C96.0506 42.4821 96.4437 41.0536 97.1068 39.7743C97.7718 38.4695 98.6255 37.3714 99.6678 36.48C100.738 35.5652 101.969 34.8805 103.361 34.4261C104.753 33.9716 106.225 33.8049 107.777 33.9261C109.609 34.0691 111.148 34.522 112.394 35.2848C113.665 36.0496 114.765 37.2106 115.693 38.7678L115.982 35.0658L118.806 35.2862L117.177 56.1626L114.352 55.9421L114.638 52.2782C113.402 53.692 112.148 54.6693 110.877 55.21C109.606 55.7508 108.08 55.9516 106.299 55.8126C104.696 55.6874 103.228 55.3041 101.896 54.6625C100.566 53.9955 99.4297 53.1388 98.4874 52.0925C97.5706 51.0482 96.8839 49.8427 96.4275 48.4759C95.973 47.0837 95.8063 45.6116 95.9275 44.0596ZM98.7988 44.1685C98.7074 45.3389 98.8383 46.4499 99.1914 47.5014C99.5445 48.5529 100.06 49.4891 100.738 50.31C101.442 51.1329 102.273 51.7993 103.232 52.3093C104.216 52.8213 105.293 53.123 106.463 53.2144C107.608 53.3037 108.681 53.1699 109.682 52.8128C110.708 52.4578 111.606 51.9391 112.376 51.2569C113.173 50.5512 113.815 49.7053 114.302 48.7194C114.788 47.7334 115.078 46.6425 115.172 45.4467C115.265 44.2508 115.134 43.1399 114.779 42.1138C114.451 41.0643 113.947 40.1418 113.267 39.3464C112.587 38.5509 111.754 37.9099 110.768 37.4234C109.809 36.9134 108.732 36.6117 107.536 36.5183C106.417 36.4309 105.344 36.5648 104.318 36.9198C103.317 37.2769 102.418 37.8083 101.621 38.514C100.825 39.1942 100.172 40.0263 99.6597 41.0103C99.1752 41.9708 98.8882 43.0236 98.7988 44.1685ZM124.528 56.7365L125.958 38.4172L121.454 38.0656L121.654 35.5086L126.158 35.8601L126.73 28.5324L129.554 28.7529L128.982 36.0806L133.676 36.4471L133.476 39.0041L128.782 38.6377L127.352 56.9569L124.528 56.7365ZM134.904 57.5465L136.533 36.6701L139.358 36.8906L137.728 57.7669L134.904 57.5465ZM136.73 34.1512L137.105 29.3424L139.93 29.5629L139.554 34.3717L136.73 34.1512ZM149.223 58.6643L142.075 37.1027L144.937 37.3262L150.894 55.4542L159.745 38.4822L162.608 38.7057L152.2 58.8967L149.223 58.6643ZM163.677 59.7927L165.306 38.9163L168.131 39.1368L166.501 60.0131L163.677 59.7927ZM165.503 36.3974L165.878 31.5886L168.703 31.8091L168.327 36.6179L165.503 36.3974ZM173.874 60.5888L175.304 42.2695L170.801 41.9179L171 39.3609L175.504 39.7124L176.076 32.3847L178.9 32.6052L178.328 39.9329L183.022 40.2994L182.823 42.8564L178.128 42.49L176.698 60.8092L173.874 60.5888ZM186.311 68.932L190.334 61.1825L183.819 40.3615L186.91 40.6029L192.214 57.7583L200.573 41.6695L203.588 41.9049L189.326 69.1674L186.311 68.932Z" fill="black"/>
</svg>
