<svg width="190" height="90" viewBox="0 0 190 90" fill="none" xmlns="http://www.w3.org/2000/svg">
<rect x="6.68066" width="183.25" height="72.625" rx="36.3125" transform="rotate(5.27808 6.68066 0)" fill="#E1B4F9"/>
<path d="M33.0279 54.7916L33.7075 47.4347L36.414 47.6847L45.9186 30.1095L49.1206 30.4053L55.2447 49.4243L57.9512 49.6743L57.2715 57.0313L55.3274 56.8517L54.7419 51.9536L36.4448 50.2633L34.9719 54.9712L33.0279 54.7916ZM39.3872 47.9594L52.2714 49.1496L47.2238 33.4594L39.3872 47.9594ZM77.0664 47.096L80.0015 47.3672C79.5194 48.4247 78.893 49.3792 78.1223 50.2307C77.354 51.0567 76.4946 51.759 75.5442 52.3376C74.6214 52.8931 73.61 53.2994 72.5098 53.5566C71.435 53.8161 70.3258 53.8931 69.1822 53.7874C67.6321 53.6442 66.2094 53.2308 64.9142 52.5473C63.6467 51.8408 62.5632 50.9462 61.6637 49.8635C60.7641 48.7809 60.0832 47.5518 59.6207 46.1764C59.1861 44.7778 59.0404 43.3035 59.1836 41.7533C59.3244 40.2286 59.7343 38.844 60.4131 37.5996C61.0942 36.3298 61.9623 35.2567 63.0171 34.3802C64.0744 33.4783 65.2896 32.8089 66.6627 32.3719C68.0358 31.9349 69.472 31.7856 70.9713 31.9241C72.4707 32.0626 73.8541 32.4852 75.1215 33.1918C76.4168 33.8753 77.5153 34.7456 78.4172 35.8029C79.3445 36.8624 80.0405 38.0673 80.5053 39.4173C80.97 40.7673 81.1355 42.1666 81.0017 43.6151C80.9829 43.8184 80.9514 44.0206 80.9072 44.2215C80.8654 44.3971 80.8097 44.5841 80.7401 44.7827L61.9093 43.0431C61.8639 44.0897 62.0288 45.0789 62.404 46.0106C62.7793 46.9423 63.291 47.7841 63.9392 48.536C64.6151 49.2648 65.4183 49.8644 66.3488 50.3348C67.2792 50.8052 68.2781 51.0897 69.3455 51.1883C70.9465 51.3362 72.4476 51.0392 73.8489 50.2972C75.2779 49.5322 76.3504 48.4651 77.0664 47.096ZM62.2215 40.4962L78.1933 41.9717C77.903 39.8433 77.0887 38.1149 75.7505 36.7867C74.4378 35.4609 72.7649 34.704 70.7319 34.5162C69.7408 34.4247 68.7853 34.503 67.8653 34.7512C66.9731 34.9763 66.1558 35.3621 65.4133 35.9086C64.6731 36.4298 64.0229 37.0873 63.4626 37.8813C62.93 38.6523 62.5163 39.5239 62.2215 40.4962ZM83.8043 54.6384L85.7306 33.7874L90.1143 34.1924L95.8315 51.7898L104.676 35.5376L109.059 35.9425L107.133 56.7936L104.312 56.533L105.953 38.7696L96.6885 55.8287L94.2489 55.6033L88.2662 37.1356L86.6251 54.899L83.8043 54.6384ZM111.947 57.2383L113.873 36.3872L116.694 36.6478L115.835 45.9488L126.224 37.5282L129.883 37.8662L118.543 47.0064L127.957 58.7173L124.259 58.3757L115.676 47.6642L114.768 57.4989L111.947 57.2383ZM130.717 48.5155C130.863 46.9399 131.276 45.5172 131.957 44.2474C132.641 42.9521 133.51 41.8663 134.565 40.9898C135.647 40.0903 136.888 39.4232 138.286 38.9885C139.685 38.5539 141.159 38.4082 142.709 38.5514C144.539 38.7204 146.071 39.1952 147.306 39.9756C148.567 40.7584 149.65 41.9349 150.556 43.5051L150.897 39.8076L153.718 40.0682L151.792 60.9192L148.971 60.6586L149.309 56.9992C148.052 58.3953 146.785 59.3546 145.506 59.8772C144.228 60.3999 142.699 60.579 140.92 60.4147C139.319 60.2668 137.857 59.8626 136.534 59.2022C135.214 58.5163 134.09 57.6436 133.162 56.584C132.261 55.5268 131.591 54.3116 131.154 52.9385C130.719 51.54 130.574 50.0656 130.717 48.5155ZM133.586 48.6652C133.478 49.8342 133.593 50.9469 133.932 52.0033C134.27 53.0597 134.772 54.0032 135.439 54.8336C136.131 55.6664 136.952 56.3446 137.903 56.8682C138.88 57.3941 139.953 57.7111 141.122 57.8191C142.265 57.9247 143.34 57.8061 144.345 57.4633C145.376 57.1229 146.282 56.617 147.061 55.9458C147.869 55.2515 148.523 54.4149 149.023 53.4359C149.524 52.457 149.829 51.3703 149.939 50.1759C150.05 48.9815 149.935 47.8688 149.594 46.8378C149.282 45.7838 148.791 44.8542 148.122 44.0492C147.453 43.2441 146.629 42.5913 145.65 42.0908C144.699 41.5672 143.626 41.2503 142.432 41.1399C141.314 41.0367 140.239 41.1552 139.208 41.4957C138.202 41.8385 137.296 42.357 136.489 43.0513C135.684 43.7202 135.018 44.543 134.492 45.5196C133.994 46.4731 133.692 47.5216 133.586 48.6652Z" fill="black"/>
</svg>
