<svg width="704" height="254" viewBox="0 0 704 254" fill="none" xmlns="http://www.w3.org/2000/svg">
<rect x="2.22201" y="1.33333" width="699.556" height="72" rx="29.7778" stroke="white" stroke-width="2.66667"/>
<path d="M323.791 41.213H325.981C325.697 42.0284 325.299 42.7775 324.787 43.4601C324.275 44.1238 323.687 44.7022 323.023 45.1952C322.378 45.6693 321.658 46.0391 320.861 46.3046C320.084 46.57 319.268 46.7028 318.415 46.7028C317.258 46.7028 316.177 46.4942 315.172 46.077C314.186 45.6409 313.324 45.053 312.584 44.3135C311.844 43.5739 311.257 42.7111 310.82 41.725C310.403 40.72 310.195 39.6391 310.195 38.4823C310.195 37.3446 310.403 36.2921 310.82 35.325C311.238 34.3389 311.807 33.4856 312.527 32.765C313.248 32.0255 314.101 31.4471 315.087 31.0299C316.073 30.6127 317.126 30.4041 318.244 30.4041C319.363 30.4041 320.416 30.6222 321.402 31.0583C322.407 31.4755 323.279 32.0444 324.019 32.765C324.777 33.4856 325.375 34.3295 325.811 35.2966C326.247 36.2637 326.465 37.2877 326.465 38.3686C326.465 38.5203 326.455 38.672 326.436 38.8237C326.417 38.9564 326.389 39.0986 326.351 39.2503H312.3C312.337 40.0278 312.527 40.7484 312.868 41.4121C313.21 42.0758 313.646 42.6637 314.177 43.1757C314.727 43.6687 315.362 44.0575 316.083 44.3419C316.803 44.6263 317.562 44.7686 318.358 44.7686C319.553 44.7686 320.643 44.4462 321.629 43.8015C322.634 43.1377 323.355 42.2749 323.791 41.213ZM312.356 37.3446H324.275C323.914 35.7896 323.194 34.5665 322.113 33.6752C321.051 32.784 319.761 32.3383 318.244 32.3383C317.505 32.3383 316.803 32.4616 316.14 32.7081C315.495 32.9357 314.916 33.277 314.404 33.7321C313.892 34.1683 313.456 34.6992 313.096 35.325C312.755 35.9318 312.508 36.605 312.356 37.3446ZM328.382 39.7055V37.9135H336.09V39.7055H328.382ZM338.736 46.333V30.7739H340.841V32.5659C341.467 31.7695 342.102 31.21 342.747 30.8877C343.411 30.5653 344.236 30.4041 345.222 30.4041C346.416 30.4041 347.412 30.6412 348.208 31.1152C349.005 31.5703 349.707 32.3289 350.313 33.3908C350.958 32.3478 351.707 31.5893 352.56 31.1152C353.433 30.6412 354.476 30.4041 355.689 30.4041C357.643 30.4041 359.15 30.992 360.212 32.1677C361.293 33.3244 361.833 34.9647 361.833 37.0886V46.333H359.728V37.3161C359.728 35.6853 359.378 34.4527 358.676 33.6183C357.974 32.765 356.95 32.3383 355.604 32.3383C354.22 32.3383 353.158 32.765 352.418 33.6183C351.698 34.4717 351.337 35.7043 351.337 37.3161V46.333H349.232V37.2592C349.232 35.6853 348.863 34.4717 348.123 33.6183C347.403 32.765 346.369 32.3383 345.023 32.3383C343.695 32.3383 342.662 32.7745 341.922 33.6468C341.202 34.5001 340.841 35.7043 340.841 37.2592V46.333H338.736ZM364.834 38.5961C364.834 37.4204 365.042 36.3395 365.459 35.3535C365.877 34.3484 366.445 33.4856 367.166 32.765C367.906 32.0255 368.778 31.4471 369.783 31.0299C370.788 30.6127 371.869 30.4041 373.026 30.4041C374.391 30.4041 375.557 30.6506 376.524 31.1437C377.51 31.6367 378.392 32.4332 379.17 33.533V30.7739H381.274V46.333H379.17V43.6023C378.335 44.7212 377.463 45.5176 376.553 45.9917C375.642 46.4657 374.524 46.7028 373.196 46.7028C372.002 46.7028 370.892 46.5037 369.868 46.1055C368.844 45.6883 367.953 45.1194 367.194 44.3988C366.455 43.6782 365.877 42.8249 365.459 41.8388C365.042 40.8337 364.834 39.7529 364.834 38.5961ZM366.967 38.5108C366.967 39.3831 367.128 40.1985 367.45 40.957C367.773 41.7155 368.209 42.3792 368.759 42.9481C369.328 43.517 369.982 43.9626 370.722 44.285C371.48 44.6074 372.295 44.7686 373.168 44.7686C374.021 44.7686 374.808 44.6074 375.529 44.285C376.268 43.9626 376.903 43.5265 377.434 42.9766C377.984 42.4077 378.411 41.744 378.714 40.9855C379.018 40.2269 379.17 39.402 379.17 38.5108C379.17 37.6195 379.008 36.8041 378.686 36.0646C378.383 35.306 377.956 34.6518 377.406 34.1019C376.856 33.552 376.202 33.1253 375.443 32.8219C374.704 32.4995 373.888 32.3383 372.997 32.3383C372.163 32.3383 371.376 32.4995 370.636 32.8219C369.916 33.1443 369.28 33.5899 368.73 34.1588C368.181 34.7087 367.744 35.3629 367.422 36.1215C367.119 36.861 366.967 37.6575 366.967 38.5108ZM384.848 46.333V30.7739H386.952V46.333H384.848ZM384.848 28.8966V25.3126H386.952V28.8966H384.848ZM390.542 46.333V25.3126H392.647V46.333H390.542Z" fill="white"/>
<rect x="2.22201" y="91.0003" width="699.556" height="72" rx="29.7778" stroke="white" stroke-width="2.66667"/>
<path d="M260.792 136V120.441H262.897V127.125H272.227V120.441H274.332V136H272.227V129.031H262.897V136H260.792ZM277.306 128.235C277.306 127.059 277.505 125.969 277.903 124.964C278.32 123.959 278.899 123.096 279.638 122.375C280.378 121.655 281.25 121.095 282.255 120.697C283.26 120.28 284.36 120.071 285.555 120.071C286.692 120.071 287.745 120.28 288.712 120.697C289.698 121.114 290.542 121.692 291.244 122.432C291.964 123.153 292.524 124.015 292.922 125.02C293.339 126.007 293.548 127.087 293.548 128.263C293.548 129.439 293.348 130.52 292.95 131.506C292.552 132.492 292.002 133.345 291.3 134.066C290.599 134.786 289.755 135.355 288.769 135.772C287.802 136.171 286.749 136.37 285.612 136.37C284.417 136.37 283.308 136.171 282.284 135.772C281.279 135.355 280.406 134.786 279.667 134.066C278.927 133.326 278.349 132.463 277.932 131.477C277.514 130.472 277.306 129.391 277.306 128.235ZM285.555 134.436C286.408 134.436 287.195 134.284 287.916 133.98C288.636 133.677 289.252 133.26 289.764 132.729C290.276 132.179 290.675 131.525 290.959 130.766C291.263 130.008 291.414 129.183 291.414 128.292C291.414 127.381 291.263 126.537 290.959 125.76C290.675 124.983 290.257 124.319 289.708 123.769C289.177 123.219 288.541 122.792 287.802 122.489C287.062 122.167 286.256 122.005 285.384 122.005C284.531 122.005 283.744 122.167 283.023 122.489C282.303 122.792 281.677 123.228 281.146 123.797C280.615 124.347 280.198 125.011 279.894 125.788C279.591 126.547 279.439 127.372 279.439 128.263C279.439 129.154 279.591 129.979 279.894 130.738C280.198 131.477 280.624 132.122 281.174 132.672C281.724 133.222 282.369 133.658 283.108 133.98C283.867 134.284 284.682 134.436 285.555 134.436ZM296.542 136V120.441H299.813L305.246 133.07L310.679 120.441H313.95V136H311.845V122.745L306.156 136H304.336L298.647 122.745V136H296.542ZM330.541 130.88H332.731C332.447 131.695 332.049 132.444 331.537 133.127C331.025 133.791 330.437 134.369 329.773 134.862C329.128 135.336 328.408 135.706 327.611 135.972C326.834 136.237 326.018 136.37 325.165 136.37C324.008 136.37 322.927 136.161 321.922 135.744C320.936 135.308 320.074 134.72 319.334 133.98C318.594 133.241 318.007 132.378 317.57 131.392C317.153 130.387 316.945 129.306 316.945 128.149C316.945 127.012 317.153 125.959 317.57 124.992C317.988 124.006 318.557 123.153 319.277 122.432C319.998 121.692 320.851 121.114 321.837 120.697C322.823 120.28 323.876 120.071 324.994 120.071C326.113 120.071 327.166 120.289 328.152 120.725C329.157 121.143 330.029 121.711 330.769 122.432C331.527 123.153 332.125 123.996 332.561 124.964C332.997 125.931 333.215 126.955 333.215 128.036C333.215 128.187 333.205 128.339 333.186 128.491C333.167 128.623 333.139 128.766 333.101 128.917H319.05C319.087 129.695 319.277 130.415 319.618 131.079C319.96 131.743 320.396 132.331 320.927 132.843C321.477 133.336 322.112 133.724 322.833 134.009C323.553 134.293 324.312 134.436 325.108 134.436C326.303 134.436 327.393 134.113 328.379 133.468C329.384 132.805 330.105 131.942 330.541 130.88ZM319.106 127.012H331.025C330.664 125.457 329.944 124.233 328.863 123.342C327.801 122.451 326.511 122.005 324.994 122.005C324.255 122.005 323.553 122.129 322.89 122.375C322.245 122.603 321.666 122.944 321.154 123.399C320.642 123.835 320.206 124.366 319.846 124.992C319.505 125.599 319.258 126.272 319.106 127.012ZM336.042 141.461V120.441H338.147V123.115C338.811 122.11 339.654 121.351 340.678 120.839C341.721 120.327 342.916 120.071 344.262 120.071C345.419 120.071 346.5 120.28 347.505 120.697C348.51 121.114 349.373 121.692 350.094 122.432C350.833 123.153 351.411 124.015 351.829 125.02C352.246 126.007 352.454 127.078 352.454 128.235C352.454 129.391 352.236 130.463 351.8 131.449C351.383 132.435 350.805 133.298 350.065 134.037C349.326 134.758 348.453 135.327 347.448 135.744C346.443 136.161 345.362 136.37 344.206 136.37C342.897 136.37 341.731 136.114 340.707 135.602C339.683 135.09 338.83 134.331 338.147 133.326V141.461H336.042ZM344.177 134.436C345.049 134.436 345.855 134.284 346.595 133.98C347.353 133.658 348.008 133.222 348.558 132.672C349.107 132.122 349.534 131.477 349.838 130.738C350.16 129.979 350.321 129.164 350.321 128.292C350.321 127.381 350.16 126.547 349.838 125.788C349.534 125.011 349.107 124.347 348.558 123.797C348.008 123.228 347.353 122.792 346.595 122.489C345.836 122.167 345.002 122.005 344.092 122.005C343.238 122.005 342.442 122.167 341.702 122.489C340.963 122.811 340.318 123.257 339.768 123.826C339.218 124.376 338.782 125.03 338.46 125.788C338.156 126.547 338.005 127.362 338.005 128.235C338.005 129.107 338.156 129.922 338.46 130.681C338.782 131.439 339.218 132.103 339.768 132.672C340.337 133.222 340.991 133.658 341.731 133.98C342.489 134.284 343.305 134.436 344.177 134.436ZM363.32 136V120.441H365.425V127.381L372.536 120.441H375.266L367.501 127.979L375.266 136H372.507L365.425 128.661V136H363.32ZM376.611 128.263C376.611 127.087 376.82 126.007 377.237 125.02C377.654 124.015 378.223 123.153 378.944 122.432C379.683 121.692 380.556 121.114 381.561 120.697C382.566 120.28 383.647 120.071 384.803 120.071C386.169 120.071 387.335 120.318 388.302 120.811C389.288 121.304 390.17 122.1 390.947 123.2V120.441H393.052V136H390.947V133.269C390.113 134.388 389.241 135.185 388.33 135.659C387.42 136.133 386.301 136.37 384.974 136.37C383.779 136.37 382.67 136.171 381.646 135.772C380.622 135.355 379.731 134.786 378.972 134.066C378.233 133.345 377.654 132.492 377.237 131.506C376.82 130.501 376.611 129.42 376.611 128.263ZM378.745 128.178C378.745 129.05 378.906 129.865 379.228 130.624C379.551 131.383 379.987 132.046 380.537 132.615C381.106 133.184 381.76 133.63 382.499 133.952C383.258 134.274 384.073 134.436 384.946 134.436C385.799 134.436 386.586 134.274 387.306 133.952C388.046 133.63 388.681 133.193 389.212 132.644C389.762 132.075 390.189 131.411 390.492 130.652C390.796 129.894 390.947 129.069 390.947 128.178C390.947 127.287 390.786 126.471 390.464 125.732C390.16 124.973 389.734 124.319 389.184 123.769C388.634 123.219 387.98 122.792 387.221 122.489C386.482 122.167 385.666 122.005 384.775 122.005C383.941 122.005 383.154 122.167 382.414 122.489C381.693 122.811 381.058 123.257 380.508 123.826C379.958 124.376 379.522 125.03 379.2 125.788C378.896 126.528 378.745 127.324 378.745 128.178ZM396.625 141.461V120.441H398.73V123.115C399.394 122.11 400.238 121.351 401.262 120.839C402.305 120.327 403.499 120.071 404.846 120.071C406.003 120.071 407.083 120.28 408.088 120.697C409.093 121.114 409.956 121.692 410.677 122.432C411.416 123.153 411.995 124.015 412.412 125.02C412.829 126.007 413.038 127.078 413.038 128.235C413.038 129.391 412.82 130.463 412.384 131.449C411.966 132.435 411.388 133.298 410.648 134.037C409.909 134.758 409.037 135.327 408.032 135.744C407.027 136.161 405.946 136.37 404.789 136.37C403.48 136.37 402.314 136.114 401.29 135.602C400.266 135.09 399.413 134.331 398.73 133.326V141.461H396.625ZM404.76 134.436C405.633 134.436 406.439 134.284 407.178 133.98C407.937 133.658 408.591 133.222 409.141 132.672C409.691 132.122 410.117 131.477 410.421 130.738C410.743 129.979 410.904 129.164 410.904 128.292C410.904 127.381 410.743 126.547 410.421 125.788C410.117 125.011 409.691 124.347 409.141 123.797C408.591 123.228 407.937 122.792 407.178 122.489C406.42 122.167 405.585 122.005 404.675 122.005C403.822 122.005 403.025 122.167 402.286 122.489C401.546 122.811 400.901 123.257 400.352 123.826C399.802 124.376 399.365 125.03 399.043 125.788C398.74 126.547 398.588 127.362 398.588 128.235C398.588 129.107 398.74 129.922 399.043 130.681C399.365 131.439 399.802 132.103 400.352 132.672C400.92 133.222 401.575 133.658 402.314 133.98C403.073 134.284 403.888 134.436 404.76 134.436ZM418.66 136V122.347H414.564V120.441H424.804V122.347H420.764V136H418.66ZM429.036 134.094H432.79C434.042 134.094 434.981 133.867 435.606 133.412C436.232 132.956 436.545 132.264 436.545 131.335C436.545 130.406 436.232 129.714 435.606 129.259C434.981 128.804 434.042 128.576 432.79 128.576H429.036V134.094ZM426.931 136V120.441H429.036V126.67H433.331C434.127 126.67 434.848 126.784 435.493 127.012C436.156 127.239 436.725 127.561 437.199 127.979C437.673 128.377 438.034 128.87 438.28 129.458C438.546 130.027 438.678 130.652 438.678 131.335C438.678 132.018 438.546 132.653 438.28 133.241C438.034 133.81 437.673 134.303 437.199 134.72C436.725 135.118 436.156 135.431 435.493 135.659C434.848 135.886 434.127 136 433.331 136H426.931ZM440.556 136V120.441H442.661V136H440.556Z" fill="white"/>
<rect x="2.22201" y="180.666" width="188.444" height="72" rx="29.7778" stroke="white" stroke-width="2.66667"/>
<path d="M65.882 219.095H67.9585C68.0722 220.707 68.5368 221.949 69.3522 222.822C70.1677 223.694 71.258 224.13 72.6234 224.13C73.2681 224.13 73.8654 224.016 74.4154 223.789C74.9842 223.542 75.4678 223.21 75.866 222.793C76.2832 222.357 76.6056 221.854 76.8331 221.286C77.0607 220.698 77.1745 220.072 77.1745 219.408C77.1745 217.853 76.7004 216.668 75.7522 215.853C74.8231 215.037 73.4672 214.63 71.6847 214.63H71.1727V212.752H72.9647C73.7611 212.752 74.4248 212.439 74.9558 211.814C75.5057 211.188 75.7807 210.41 75.7807 209.481C75.7807 208.514 75.4868 207.727 74.8989 207.12C74.3111 206.494 73.5431 206.182 72.5949 206.182C71.5709 206.182 70.7745 206.504 70.2056 207.149C69.6557 207.774 69.3712 208.685 69.3522 209.879H67.2758C67.3327 208.154 67.8352 206.788 68.7834 205.783C69.7315 204.778 71.002 204.276 72.5949 204.276C73.3724 204.276 74.0835 204.409 74.7282 204.674C75.392 204.921 75.9514 205.281 76.4065 205.755C76.8805 206.229 77.2408 206.798 77.4874 207.462C77.7528 208.106 77.8856 208.817 77.8856 209.595C77.8856 210.467 77.7054 211.235 77.3451 211.899C77.0038 212.544 76.4634 213.122 75.7238 213.634C76.8995 214.222 77.7813 214.99 78.3691 215.938C78.976 216.886 79.2794 218.005 79.2794 219.294C79.2794 220.243 79.1087 221.124 78.7674 221.94C78.426 222.755 77.9614 223.466 77.3736 224.073C76.7857 224.68 76.0841 225.163 75.2687 225.524C74.4722 225.865 73.6189 226.036 72.7087 226.036C71.7037 226.036 70.7934 225.875 69.978 225.552C69.1626 225.23 68.4515 224.765 67.8447 224.158C67.2568 223.552 66.7922 222.822 66.4509 221.968C66.1096 221.115 65.92 220.157 65.882 219.095ZM81.4329 219.067H83.4809C83.5757 219.825 83.7654 220.518 84.0498 221.143C84.3532 221.75 84.723 222.281 85.1591 222.736C85.6142 223.172 86.1262 223.514 86.6951 223.76C87.283 224.007 87.9088 224.13 88.5725 224.13C89.2741 224.13 89.9283 223.988 90.5351 223.703C91.1609 223.419 91.7014 223.04 92.1565 222.566C92.6116 222.073 92.9624 221.494 93.2089 220.83C93.4744 220.167 93.6071 219.446 93.6071 218.669C93.6071 217.891 93.4744 217.18 93.2089 216.535C92.9624 215.872 92.6116 215.303 92.1565 214.829C91.7203 214.336 91.1894 213.956 90.5636 213.691C89.9568 213.406 89.2931 213.264 88.5725 213.264C87.7381 213.264 86.9606 213.463 86.24 213.862C85.5384 214.241 84.8652 214.829 84.2205 215.625L82.5991 214.999L84.4765 204.646H93.9485V206.551H86.1547L85.1307 212.354C85.7565 211.994 86.3538 211.738 86.9227 211.586C87.4916 211.434 88.0984 211.358 88.7431 211.358C89.7292 211.358 90.6394 211.548 91.4738 211.927C92.3271 212.307 93.0667 212.828 93.6925 213.492C94.3182 214.137 94.8113 214.905 95.1716 215.796C95.5319 216.687 95.712 217.645 95.712 218.669C95.712 219.712 95.5319 220.679 95.1716 221.57C94.8113 222.461 94.3088 223.239 93.664 223.902C93.0382 224.566 92.2892 225.088 91.4169 225.467C90.5636 225.846 89.6439 226.036 88.6578 226.036C87.6907 226.036 86.7994 225.875 85.984 225.552C85.1686 225.23 84.448 224.775 83.8222 224.187C83.1965 223.58 82.675 222.85 82.2578 221.997C81.8596 221.124 81.5846 220.148 81.4329 219.067ZM97.2967 218.014V212.041C97.2967 210.79 97.4484 209.68 97.7518 208.713C98.0552 207.746 98.5008 206.94 99.0887 206.295C99.6955 205.632 100.435 205.129 101.307 204.788C102.18 204.446 103.185 204.276 104.322 204.276C105.46 204.276 106.465 204.446 107.338 204.788C108.21 205.129 108.94 205.632 109.528 206.295C110.135 206.959 110.59 207.774 110.893 208.742C111.216 209.69 111.377 210.79 111.377 212.041V218.014C111.377 220.688 110.798 222.698 109.642 224.045C108.504 225.372 106.788 226.036 104.493 226.036C102.123 226.036 100.331 225.363 99.1171 224.016C97.9035 222.651 97.2967 220.65 97.2967 218.014ZM99.3731 217.673C99.3731 219.873 99.7808 221.504 100.596 222.566C101.431 223.609 102.701 224.13 104.408 224.13C106.114 224.13 107.357 223.618 108.134 222.594C108.912 221.551 109.3 219.911 109.3 217.673V212.525C109.3 210.382 108.893 208.789 108.077 207.746C107.262 206.703 106.02 206.182 104.351 206.182C102.663 206.182 101.412 206.703 100.596 207.746C99.7808 208.789 99.3731 210.382 99.3731 212.525V217.673ZM117.256 215.255H120.186C121.893 215.255 123.107 214.933 123.827 214.288C124.567 213.625 124.936 212.525 124.936 210.989C124.936 210.154 124.842 209.453 124.652 208.884C124.481 208.315 124.178 207.86 123.742 207.518C123.325 207.177 122.765 206.931 122.064 206.779C121.362 206.627 120.49 206.551 119.447 206.551H117.256V215.255ZM115.152 225.666V220.83H113.246V218.925H115.152V217.161H113.246V215.255H115.152V204.646H120.129C122.386 204.646 124.102 205.195 125.278 206.295C126.472 207.376 127.07 208.95 127.07 211.017C127.07 213.141 126.529 214.696 125.448 215.682C124.387 216.668 122.708 217.161 120.414 217.161H117.256V218.925H122.917V220.83H117.256V225.666H115.152Z" fill="white"/>
<rect x="206.667" y="180.666" width="188.444" height="72" rx="29.7778" stroke="white" stroke-width="2.66667"/>
<path d="M270.327 219.095H272.404C272.518 220.707 272.982 221.949 273.798 222.822C274.613 223.694 275.703 224.13 277.069 224.13C277.713 224.13 278.311 224.016 278.861 223.789C279.43 223.542 279.913 223.21 280.311 222.793C280.729 222.357 281.051 221.854 281.278 221.286C281.506 220.698 281.62 220.072 281.62 219.408C281.62 217.853 281.146 216.668 280.198 215.853C279.268 215.037 277.913 214.63 276.13 214.63H275.618V212.752H277.41C278.206 212.752 278.87 212.439 279.401 211.814C279.951 211.188 280.226 210.41 280.226 209.481C280.226 208.514 279.932 207.727 279.344 207.12C278.756 206.494 277.988 206.182 277.04 206.182C276.016 206.182 275.22 206.504 274.651 207.149C274.101 207.774 273.817 208.685 273.798 209.879H271.721C271.778 208.154 272.281 206.788 273.229 205.783C274.177 204.778 275.447 204.276 277.04 204.276C277.818 204.276 278.529 204.409 279.174 204.674C279.837 204.921 280.397 205.281 280.852 205.755C281.326 206.229 281.686 206.798 281.933 207.462C282.198 208.106 282.331 208.817 282.331 209.595C282.331 210.467 282.151 211.235 281.79 211.899C281.449 212.544 280.909 213.122 280.169 213.634C281.345 214.222 282.227 214.99 282.814 215.938C283.421 216.886 283.725 218.005 283.725 219.294C283.725 220.243 283.554 221.124 283.213 221.94C282.871 222.755 282.407 223.466 281.819 224.073C281.231 224.68 280.529 225.163 279.714 225.524C278.918 225.865 278.064 226.036 277.154 226.036C276.149 226.036 275.239 225.875 274.423 225.552C273.608 225.23 272.897 224.765 272.29 224.158C271.702 223.552 271.238 222.822 270.896 221.968C270.555 221.115 270.365 220.157 270.327 219.095ZM285.878 219.067H287.926C288.021 219.825 288.211 220.518 288.495 221.143C288.799 221.75 289.168 222.281 289.604 222.736C290.06 223.172 290.572 223.514 291.14 223.76C291.728 224.007 292.354 224.13 293.018 224.13C293.719 224.13 294.374 223.988 294.98 223.703C295.606 223.419 296.147 223.04 296.602 222.566C297.057 222.073 297.408 221.494 297.654 220.83C297.92 220.167 298.052 219.446 298.052 218.669C298.052 217.891 297.92 217.18 297.654 216.535C297.408 215.872 297.057 215.303 296.602 214.829C296.166 214.336 295.635 213.956 295.009 213.691C294.402 213.406 293.738 213.264 293.018 213.264C292.183 213.264 291.406 213.463 290.685 213.862C289.984 214.241 289.311 214.829 288.666 215.625L287.044 214.999L288.922 204.646H298.394V206.551H290.6L289.576 212.354C290.202 211.994 290.799 211.738 291.368 211.586C291.937 211.434 292.544 211.358 293.188 211.358C294.175 211.358 295.085 211.548 295.919 211.927C296.772 212.307 297.512 212.828 298.138 213.492C298.764 214.137 299.257 214.905 299.617 215.796C299.977 216.687 300.157 217.645 300.157 218.669C300.157 219.712 299.977 220.679 299.617 221.57C299.257 222.461 298.754 223.239 298.109 223.902C297.484 224.566 296.735 225.088 295.862 225.467C295.009 225.846 294.089 226.036 293.103 226.036C292.136 226.036 291.245 225.875 290.429 225.552C289.614 225.23 288.893 224.775 288.268 224.187C287.642 223.58 287.12 222.85 286.703 221.997C286.305 221.124 286.03 220.148 285.878 219.067ZM301.742 218.014V212.041C301.742 210.79 301.894 209.68 302.197 208.713C302.501 207.746 302.946 206.94 303.534 206.295C304.141 205.632 304.88 205.129 305.753 204.788C306.625 204.446 307.63 204.276 308.768 204.276C309.906 204.276 310.911 204.446 311.783 204.788C312.655 205.129 313.385 205.632 313.973 206.295C314.58 206.959 315.035 207.774 315.338 208.742C315.661 209.69 315.822 210.79 315.822 212.041V218.014C315.822 220.688 315.244 222.698 314.087 224.045C312.949 225.372 311.233 226.036 308.938 226.036C306.568 226.036 304.776 225.363 303.562 224.016C302.349 222.651 301.742 220.65 301.742 218.014ZM303.818 217.673C303.818 219.873 304.226 221.504 305.042 222.566C305.876 223.609 307.146 224.13 308.853 224.13C310.56 224.13 311.802 223.618 312.579 222.594C313.357 221.551 313.746 219.911 313.746 217.673V212.525C313.746 210.382 313.338 208.789 312.522 207.746C311.707 206.703 310.465 206.182 308.796 206.182C307.109 206.182 305.857 206.703 305.042 207.746C304.226 208.789 303.818 210.382 303.818 212.525V217.673ZM321.702 215.255H324.632C326.338 215.255 327.552 214.933 328.272 214.288C329.012 213.625 329.382 212.525 329.382 210.989C329.382 210.154 329.287 209.453 329.097 208.884C328.927 208.315 328.623 207.86 328.187 207.518C327.77 207.177 327.211 206.931 326.509 206.779C325.807 206.627 324.935 206.551 323.892 206.551H321.702V215.255ZM319.597 225.666V220.83H317.691V218.925H319.597V217.161H317.691V215.255H319.597V204.646H324.575C326.831 204.646 328.547 205.195 329.723 206.295C330.918 207.376 331.515 208.95 331.515 211.017C331.515 213.141 330.975 214.696 329.894 215.682C328.832 216.668 327.154 217.161 324.859 217.161H321.702V218.925H327.362V220.83H321.702V225.666H319.597Z" fill="white"/>
<rect x="411.111" y="180.666" width="290.667" height="72" rx="29.7778" stroke="white" stroke-width="2.66667"/>
<path d="M456.427 229.25V223.76H458.446L464.278 210.107H466.667L472.498 223.76H474.518V229.25H473.067L472.299 225.666H458.646L457.878 229.25H456.427ZM460.665 223.76H470.279L465.472 212.496L460.665 223.76ZM476.791 231.127V210.107H478.896V212.781C479.56 211.776 480.403 211.017 481.427 210.505C482.47 209.993 483.665 209.737 485.011 209.737C486.168 209.737 487.249 209.946 488.254 210.363C489.259 210.78 490.122 211.358 490.842 212.098C491.582 212.819 492.16 213.681 492.578 214.686C492.995 215.673 493.203 216.744 493.203 217.901C493.203 219.057 492.985 220.129 492.549 221.115C492.132 222.101 491.554 222.964 490.814 223.703C490.074 224.424 489.202 224.993 488.197 225.41C487.192 225.827 486.111 226.036 484.954 226.036C483.646 226.036 482.48 225.78 481.456 225.268C480.432 224.756 479.578 223.997 478.896 222.992V231.127H476.791ZM484.926 224.102C485.798 224.102 486.604 223.95 487.344 223.646C488.102 223.324 488.757 222.888 489.306 222.338C489.856 221.788 490.283 221.143 490.586 220.404C490.909 219.645 491.07 218.83 491.07 217.958C491.07 217.047 490.909 216.213 490.586 215.454C490.283 214.677 489.856 214.013 489.306 213.463C488.757 212.894 488.102 212.458 487.344 212.155C486.585 211.833 485.751 211.671 484.841 211.671C483.987 211.671 483.191 211.833 482.451 212.155C481.712 212.477 481.067 212.923 480.517 213.492C479.967 214.042 479.531 214.696 479.209 215.454C478.905 216.213 478.754 217.028 478.754 217.901C478.754 218.773 478.905 219.588 479.209 220.347C479.531 221.105 479.967 221.769 480.517 222.338C481.086 222.888 481.74 223.324 482.48 223.646C483.238 223.95 484.054 224.102 484.926 224.102ZM498.142 231.127L500.674 225.154L494.644 210.107H496.948L501.869 222.509L507.131 210.107H509.378L500.39 231.127H498.142ZM511.43 225.666V210.107H519.394V212.013H513.535V225.666H511.43ZM520.944 217.929C520.944 216.753 521.152 215.673 521.569 214.686C521.987 213.681 522.555 212.819 523.276 212.098C524.016 211.358 524.888 210.78 525.893 210.363C526.898 209.946 527.979 209.737 529.136 209.737C530.501 209.737 531.667 209.984 532.634 210.477C533.62 210.97 534.502 211.766 535.28 212.866V210.107H537.384V225.666H535.28V222.935C534.445 224.054 533.573 224.851 532.663 225.325C531.752 225.799 530.634 226.036 529.306 226.036C528.112 226.036 527.002 225.837 525.978 225.438C524.954 225.021 524.063 224.452 523.304 223.732C522.565 223.011 521.987 222.158 521.569 221.172C521.152 220.167 520.944 219.086 520.944 217.929ZM523.077 217.844C523.077 218.716 523.238 219.531 523.56 220.29C523.883 221.049 524.319 221.712 524.869 222.281C525.438 222.85 526.092 223.296 526.832 223.618C527.59 223.94 528.406 224.102 529.278 224.102C530.131 224.102 530.918 223.94 531.639 223.618C532.378 223.296 533.014 222.859 533.544 222.31C534.094 221.741 534.521 221.077 534.824 220.318C535.128 219.56 535.28 218.735 535.28 217.844C535.28 216.953 535.118 216.137 534.796 215.398C534.493 214.639 534.066 213.985 533.516 213.435C532.966 212.885 532.312 212.458 531.553 212.155C530.814 211.833 529.998 211.671 529.107 211.671C528.273 211.671 527.486 211.833 526.746 212.155C526.026 212.477 525.39 212.923 524.84 213.492C524.291 214.042 523.854 214.696 523.532 215.454C523.229 216.194 523.077 216.99 523.077 217.844ZM549.633 217.474V212.013H546.021C544.769 212.013 543.83 212.24 543.205 212.695C542.579 213.15 542.266 213.833 542.266 214.743C542.266 215.654 542.579 216.336 543.205 216.791C543.83 217.246 544.769 217.474 546.021 217.474H549.633ZM539.422 225.666L543.916 219.209C542.74 218.944 541.811 218.413 541.128 217.616C540.465 216.82 540.133 215.862 540.133 214.743C540.133 214.061 540.256 213.435 540.502 212.866C540.768 212.297 541.138 211.814 541.612 211.415C542.086 210.998 542.645 210.676 543.29 210.448C543.954 210.221 544.684 210.107 545.48 210.107H551.738V225.666H549.633V219.38H546.191L541.811 225.666H539.422ZM576.32 221.086H578.71C577.8 222.774 576.728 224.026 575.496 224.841C574.263 225.638 572.793 226.036 571.087 226.036C569.892 226.036 568.773 225.827 567.73 225.41C566.706 224.993 565.815 224.414 565.056 223.675C564.298 222.935 563.701 222.073 563.264 221.086C562.828 220.081 562.61 219.001 562.61 217.844C562.61 216.706 562.828 215.644 563.264 214.658C563.701 213.672 564.288 212.819 565.028 212.098C565.787 211.358 566.668 210.78 567.673 210.363C568.697 209.946 569.788 209.737 570.944 209.737C572.708 209.737 574.282 210.192 575.666 211.102C577.051 212.013 578.056 213.255 578.681 214.829H576.32C575.714 213.805 574.946 213.027 574.016 212.496C573.106 211.946 572.073 211.671 570.916 211.671C570.044 211.671 569.228 211.833 568.47 212.155C567.73 212.477 567.086 212.923 566.536 213.492C565.986 214.042 565.55 214.696 565.227 215.454C564.905 216.213 564.744 217.028 564.744 217.901C564.744 218.773 564.905 219.588 565.227 220.347C565.55 221.086 565.995 221.741 566.564 222.31C567.133 222.859 567.797 223.296 568.555 223.618C569.314 223.94 570.129 224.102 571.001 224.102C572.12 224.102 573.078 223.874 573.874 223.419C574.69 222.964 575.505 222.186 576.32 221.086ZM583.587 231.127L586.118 225.154L580.088 210.107H582.392L587.313 222.509L592.575 210.107H594.822L585.834 231.127H583.587ZM596.874 225.666V210.107H600.145L605.578 222.736L611.011 210.107H614.282V225.666H612.177V212.411L606.488 225.666H604.668L598.979 212.411V225.666H596.874ZM617.874 225.666V210.107H621.145L626.578 222.736L632.011 210.107H635.282V225.666H633.177V212.411L627.488 225.666H625.668L619.979 212.411V225.666H617.874ZM638.277 217.929C638.277 216.753 638.486 215.673 638.903 214.686C639.32 213.681 639.889 212.819 640.609 212.098C641.349 211.358 642.221 210.78 643.226 210.363C644.231 209.946 645.312 209.737 646.469 209.737C647.834 209.737 649 209.984 649.968 210.477C650.954 210.97 651.835 211.766 652.613 212.866V210.107H654.718V225.666H652.613V222.935C651.779 224.054 650.906 224.851 649.996 225.325C649.086 225.799 647.967 226.036 646.64 226.036C645.445 226.036 644.336 225.837 643.312 225.438C642.288 225.021 641.396 224.452 640.638 223.732C639.898 223.011 639.32 222.158 638.903 221.172C638.486 220.167 638.277 219.086 638.277 217.929ZM640.41 217.844C640.41 218.716 640.571 219.531 640.894 220.29C641.216 221.049 641.652 221.712 642.202 222.281C642.771 222.85 643.425 223.296 644.165 223.618C644.923 223.94 645.739 224.102 646.611 224.102C647.464 224.102 648.251 223.94 648.972 223.618C649.712 223.296 650.347 222.859 650.878 222.31C651.428 221.741 651.854 221.077 652.158 220.318C652.461 219.56 652.613 218.735 652.613 217.844C652.613 216.953 652.452 216.137 652.129 215.398C651.826 214.639 651.399 213.985 650.849 213.435C650.299 212.885 649.645 212.458 648.887 212.155C648.147 211.833 647.332 211.671 646.44 211.671C645.606 211.671 644.819 211.833 644.08 212.155C643.359 212.477 642.724 212.923 642.174 213.492C641.624 214.042 641.188 214.696 640.865 215.454C640.562 216.194 640.41 216.99 640.41 217.844Z" fill="white"/>
</svg>
