<svg width="207" height="91" viewBox="0 0 207 91" fill="none" xmlns="http://www.w3.org/2000/svg">
<rect x="6.68079" width="200.25" height="72.625" rx="36.3125" transform="rotate(5.27808 6.68079 0)" fill="#E1B4F9"/>
<path d="M33.028 54.7916L33.7076 47.4347L36.4141 47.6847L45.9188 30.1095L49.1208 30.4053L55.2448 49.4243L57.9513 49.6743L57.2716 57.0313L55.3276 56.8517L54.7421 51.9536L36.445 50.2633L34.972 54.9712L33.028 54.7916ZM39.3874 47.9594L52.2716 49.1496L47.224 33.4594L39.3874 47.9594ZM59.1731 41.8677C59.3187 40.2921 59.7205 38.8555 60.3786 37.558C61.0621 36.2627 61.944 35.1781 63.0243 34.3039C64.1046 33.4298 65.3429 32.7881 66.739 32.3789C68.1375 31.9443 69.6373 31.8009 71.2383 31.9488C72.763 32.0896 74.1476 32.4995 75.392 33.1783C76.6618 33.8594 77.7211 34.739 78.5698 35.8169C79.4463 36.8718 80.0891 38.0974 80.4984 39.4935C80.9354 40.8666 81.0811 42.341 80.9355 43.9166C80.79 45.4922 80.3893 46.916 79.7336 48.1882C79.0778 49.4603 78.2352 50.5358 77.2058 51.4146C76.1763 52.2935 74.975 52.9514 73.6019 53.3884C72.2565 53.8023 70.8215 53.9388 69.2967 53.798C67.6957 53.6501 66.2337 53.2459 64.9108 52.5855C63.6155 51.902 62.517 51.0316 61.6151 49.9744C60.7156 48.8917 60.0473 47.6638 59.6103 46.2907C59.1757 44.8922 59.0299 43.4179 59.1731 41.8677ZM69.4599 51.1988C70.6035 51.3045 71.6769 51.1986 72.6802 50.8812C73.6834 50.5638 74.561 50.0811 75.3128 49.4329C76.0671 48.7593 76.6817 47.9319 77.1568 46.9506C77.6573 45.9716 77.9627 44.885 78.0731 43.6906C78.1858 42.4708 78.0869 41.3211 77.7766 40.2416C77.4917 39.1645 77.0147 38.2234 76.3459 37.4184C75.7024 36.6157 74.9039 35.9652 73.9504 35.4671C72.9992 34.9435 71.9391 34.6277 70.7701 34.5197C69.6265 34.4141 68.552 34.5327 67.5464 34.8755C66.5431 35.1929 65.6505 35.6999 64.8685 36.3965C64.0889 37.0678 63.4477 37.9056 62.9448 38.9099C62.4443 39.8889 62.1389 40.9755 62.0285 42.1699C61.9182 43.3643 62.0194 44.4885 62.3321 45.5426C62.6471 46.5713 63.1391 47.4881 63.808 48.2932C64.4768 49.0982 65.2869 49.7625 66.2381 50.2861C67.217 50.7866 68.291 51.0909 69.4599 51.1988ZM83.9906 54.6556L85.9168 33.8046L88.7376 34.0652L87.9101 43.0231L100.413 44.1782L101.241 35.2202L104.061 35.4808L102.135 56.3319L99.3144 56.0713L100.177 46.7321L87.6742 45.5771L86.8114 54.9162L83.9906 54.6556ZM107.079 46.3317C107.224 44.7561 107.638 43.3334 108.319 42.0636C109.002 40.7684 109.872 39.6826 110.927 38.8061C112.009 37.9066 113.25 37.2395 114.648 36.8048C116.047 36.3702 117.521 36.2244 119.071 36.3677C120.901 36.5367 122.433 37.0114 123.668 37.7919C124.929 38.5747 126.012 39.7512 126.918 41.3214L127.259 37.6238L130.08 37.8844L128.154 58.7355L125.333 58.4749L125.671 54.8155C124.414 56.2115 123.147 57.1709 121.868 57.6935C120.59 58.2161 119.061 58.3953 117.282 58.2309C115.681 58.083 114.219 57.6789 112.896 57.0184C111.576 56.3326 110.452 55.4599 109.524 54.4003C108.622 53.343 107.953 52.1279 107.516 50.7548C107.081 49.3562 106.936 47.8819 107.079 46.3317ZM109.948 46.4815C109.84 47.6505 109.955 48.7632 110.294 49.8196C110.632 50.876 111.134 51.8194 111.8 52.6499C112.492 53.4827 113.314 54.1609 114.265 54.6845C115.242 55.2104 116.315 55.5273 117.484 55.6353C118.627 55.741 119.702 55.6224 120.707 55.2796C121.738 54.9391 122.644 54.4333 123.423 53.7621C124.231 53.0678 124.885 52.2311 125.385 51.2522C125.886 50.2733 126.191 49.1866 126.301 47.9922C126.412 46.7978 126.297 45.6851 125.956 44.6541C125.644 43.6 125.153 42.6705 124.484 41.8654C123.815 41.0604 122.991 40.4076 122.012 39.9071C121.061 39.3835 119.988 39.0666 118.794 38.9562C117.676 38.8529 116.601 38.9715 115.57 39.312C114.564 39.6548 113.658 40.1733 112.851 40.8676C112.045 41.5365 111.38 42.3592 110.854 43.3358C110.356 44.2894 110.054 45.3379 109.948 46.4815ZM136.487 59.5053L138.178 41.2083L132.688 40.7012L132.924 38.1472L146.647 39.4149L146.411 41.9689L140.998 41.4688L139.308 59.7659L136.487 59.5053ZM150.629 58.236L155.66 58.7008C157.337 58.8557 158.624 58.667 159.519 58.1346C160.413 57.6021 160.918 56.7133 161.034 55.4681C161.149 54.2229 160.815 53.2566 160.033 52.5692C159.25 51.8818 158.021 51.4607 156.343 51.3057L151.312 50.8409L150.629 58.236ZM147.572 60.5293L149.498 39.6783L152.319 39.9389L151.548 48.2869L157.304 48.8187C158.371 48.9173 159.323 49.159 160.158 49.5437C161.02 49.9308 161.742 50.4333 162.326 51.0511C162.912 51.6434 163.334 52.3488 163.591 53.1671C163.877 53.9623 163.977 54.8174 163.892 55.7322C163.808 56.6471 163.551 57.482 163.123 58.2369C162.722 58.9687 162.178 59.5849 161.491 60.0852C160.807 60.5602 160.005 60.9091 159.088 61.1319C158.196 61.357 157.216 61.4203 156.149 61.3217L147.572 60.5293ZM165.831 62.2161L167.757 41.3651L170.578 41.6257L168.652 62.4767L165.831 62.2161Z" fill="black"/>
</svg>
