<svg width="704" height="75" viewBox="0 0 704 75" fill="none" xmlns="http://www.w3.org/2000/svg">
<rect x="0.888672" width="702.222" height="74.6667" rx="31.1111" fill="#A1BBEF"/>
<path d="M204.207 46.333V30.717H217.974V46.333H215.3V33.1348H206.88V46.333H204.207ZM220.719 38.5392C220.719 37.3635 220.928 36.2732 221.345 35.2681C221.762 34.2631 222.34 33.4003 223.08 32.6797C223.839 31.9401 224.72 31.3712 225.725 30.973C226.749 30.5558 227.859 30.3472 229.053 30.3472C230.191 30.3472 231.253 30.5558 232.239 30.973C233.225 31.3902 234.079 31.9686 234.799 32.7081C235.52 33.4477 236.089 34.32 236.506 35.325C236.923 36.3111 237.132 37.392 237.132 38.5677C237.132 39.7244 236.923 40.7958 236.506 41.7819C236.108 42.768 235.548 43.6308 234.828 44.3703C234.107 45.0909 233.254 45.6598 232.268 46.077C231.281 46.4942 230.21 46.7028 229.053 46.7028C227.878 46.7028 226.778 46.4942 225.754 46.077C224.749 45.6598 223.867 45.0909 223.108 44.3703C222.369 43.6308 221.781 42.768 221.345 41.7819C220.928 40.7769 220.719 39.696 220.719 38.5392ZM229.025 44.2566C229.802 44.2566 230.523 44.1143 231.187 43.8299C231.85 43.5455 232.419 43.1567 232.893 42.6637C233.386 42.1517 233.766 41.5449 234.031 40.8432C234.316 40.1416 234.458 39.3831 234.458 38.5677C234.458 37.7333 234.316 36.9653 234.031 36.2637C233.766 35.5431 233.377 34.9268 232.865 34.4148C232.372 33.9028 231.784 33.5046 231.101 33.2201C230.419 32.9357 229.679 32.7935 228.883 32.7935C228.105 32.7935 227.385 32.9452 226.721 33.2486C226.057 33.533 225.479 33.9312 224.986 34.4432C224.512 34.9552 224.132 35.5715 223.848 36.2921C223.564 36.9937 223.421 37.7428 223.421 38.5392C223.421 39.3546 223.564 40.1132 223.848 40.8148C224.132 41.4975 224.521 42.0948 225.014 42.6068C225.526 43.1188 226.124 43.5265 226.806 43.8299C227.489 44.1143 228.228 44.2566 229.025 44.2566ZM237.788 49.9739V43.9152H239.921L245.582 30.717H248.255L253.916 43.9152H256.049V49.9739H254.2L253.404 46.333H240.433L239.665 49.9739H237.788ZM242.709 43.9152H251.128L246.918 34.045L242.709 43.9152ZM256.899 49.9739V43.9152H259.032L264.693 30.717H267.366L273.027 43.9152H275.16V49.9739H273.311L272.515 46.333H259.544L258.776 49.9739H256.899ZM261.82 43.9152H270.239L266.03 34.045L261.82 43.9152ZM288.831 41.3552H291.647C291.381 42.1517 290.992 42.8817 290.48 43.5455C289.987 44.1902 289.409 44.7496 288.745 45.2237C288.101 45.6977 287.38 46.0675 286.584 46.333C285.787 46.5795 284.962 46.7028 284.109 46.7028C282.933 46.7028 281.843 46.4942 280.838 46.077C279.833 45.6409 278.951 45.053 278.192 44.3135C277.453 43.5739 276.865 42.7111 276.429 41.725C275.993 40.72 275.775 39.6391 275.775 38.4823C275.775 37.3446 275.983 36.2826 276.4 35.2966C276.837 34.3105 277.415 33.4477 278.136 32.7081C278.875 31.9686 279.738 31.3902 280.724 30.973C281.729 30.5558 282.791 30.3472 283.91 30.3472C285.048 30.3472 286.109 30.5653 287.096 31.0015C288.101 31.4186 288.973 31.997 289.712 32.7366C290.452 33.4572 291.03 34.3105 291.448 35.2966C291.884 36.2826 292.102 37.3446 292.102 38.4823C292.102 38.672 292.092 38.8521 292.073 39.0228C292.054 39.1745 292.026 39.3452 291.988 39.5348H278.562C278.619 40.2175 278.799 40.8432 279.103 41.4121C279.425 41.981 279.823 42.4835 280.297 42.9197C280.79 43.3369 281.359 43.6687 282.004 43.9152C282.649 44.1428 283.331 44.2566 284.052 44.2566C285.095 44.2566 286.034 44.0006 286.868 43.4886C287.721 42.9766 288.376 42.2655 288.831 41.3552ZM278.562 37.1739H289.4C289.077 35.7896 288.432 34.7182 287.465 33.9597C286.517 33.1822 285.341 32.7935 283.938 32.7935C283.256 32.7935 282.62 32.8977 282.032 33.1063C281.445 33.296 280.914 33.5899 280.44 33.9881C279.984 34.3674 279.596 34.832 279.273 35.3819C278.951 35.9129 278.714 36.5102 278.562 37.1739ZM294.762 51.7375V30.717H297.322V33.1063C297.967 32.1961 298.782 31.5135 299.768 31.0583C300.755 30.5843 301.873 30.3472 303.125 30.3472C304.282 30.3472 305.353 30.5558 306.339 30.973C307.325 31.3712 308.179 31.9401 308.899 32.6797C309.62 33.4003 310.179 34.2631 310.577 35.2681C310.995 36.2542 311.203 37.3351 311.203 38.5108C311.203 39.6865 310.995 40.7769 310.577 41.7819C310.16 42.768 309.582 43.6308 308.842 44.3703C308.122 45.0909 307.268 45.6598 306.282 46.077C305.296 46.4942 304.225 46.7028 303.068 46.7028C301.873 46.7028 300.811 46.4847 299.882 46.0486C298.953 45.6124 298.138 44.9487 297.436 44.0575V51.7375H294.762ZM302.926 44.2566C303.703 44.2566 304.433 44.1143 305.116 43.8299C305.799 43.5265 306.387 43.1283 306.88 42.6352C307.392 42.1232 307.79 41.5259 308.074 40.8432C308.359 40.1416 308.501 39.3831 308.501 38.5677C308.501 37.7333 308.359 36.9653 308.074 36.2637C307.79 35.5431 307.392 34.9268 306.88 34.4148C306.387 33.9028 305.789 33.5046 305.088 33.2201C304.405 32.9357 303.646 32.7935 302.812 32.7935C302.035 32.7935 301.304 32.9452 300.622 33.2486C299.958 33.533 299.37 33.9407 298.858 34.4717C298.365 34.9837 297.976 35.5905 297.692 36.2921C297.408 36.9937 297.265 37.7428 297.265 38.5392C297.265 39.3546 297.408 40.1132 297.692 40.8148C297.976 41.4975 298.375 42.1043 298.887 42.6352C299.399 43.1472 299.996 43.5455 300.679 43.8299C301.361 44.1143 302.11 44.2566 302.926 44.2566ZM312.364 46.333L318.792 38.3686L312.478 30.717H315.72L321.466 37.8566V30.717H324.111V37.8566L329.857 30.717H333.1L326.785 38.3686L333.214 46.333H329.914L324.111 38.909V46.333H321.466V38.909L315.663 46.333H312.364ZM334.386 38.5677C334.386 37.373 334.594 36.2826 335.012 35.2966C335.429 34.2915 335.998 33.4287 336.718 32.7081C337.439 31.9686 338.292 31.3902 339.278 30.973C340.283 30.5558 341.364 30.3472 342.521 30.3472C343.829 30.3472 344.939 30.5748 345.849 31.0299C346.778 31.485 347.612 32.2246 348.352 33.2486V30.717H350.912V46.333H348.352V43.8299C347.537 44.8729 346.693 45.6124 345.82 46.0486C344.948 46.4847 343.877 46.7028 342.606 46.7028C341.431 46.7028 340.34 46.5037 339.335 46.1055C338.33 45.6883 337.458 45.1194 336.718 44.3988C335.998 43.6782 335.429 42.8249 335.012 41.8388C334.594 40.8337 334.386 39.7434 334.386 38.5677ZM337.088 38.5392C337.088 39.3546 337.23 40.1132 337.515 40.8148C337.818 41.4975 338.216 42.0948 338.709 42.6068C339.221 43.1188 339.819 43.5265 340.501 43.8299C341.203 44.1143 341.961 44.2566 342.777 44.2566C343.573 44.2566 344.303 44.1143 344.967 43.8299C345.65 43.5265 346.238 43.1188 346.731 42.6068C347.224 42.0948 347.603 41.4975 347.868 40.8148C348.153 40.1132 348.295 39.3452 348.295 38.5108C348.295 37.6764 348.153 36.9179 347.868 36.2352C347.584 35.5336 347.186 34.9268 346.674 34.4148C346.181 33.9028 345.583 33.5046 344.882 33.2201C344.199 32.9357 343.45 32.7935 342.635 32.7935C341.857 32.7935 341.127 32.9452 340.444 33.2486C339.781 33.533 339.193 33.9407 338.681 34.4717C338.188 34.9837 337.799 35.5905 337.515 36.2921C337.23 36.9748 337.088 37.7238 337.088 38.5392ZM356.963 46.333V33.1348H353.009V30.717H363.534V33.1348H359.637V46.333H356.963ZM368.325 43.9152H371.966C372.99 43.9152 373.767 43.7161 374.298 43.3179C374.848 42.9007 375.123 42.2939 375.123 41.4975C375.123 40.701 374.848 40.1037 374.298 39.7055C373.767 39.2883 372.99 39.0797 371.966 39.0797H368.325V43.9152ZM365.651 46.333V30.717H368.325V36.6619H372.421C373.217 36.6619 373.938 36.7852 374.583 37.0317C375.246 37.2592 375.815 37.5911 376.289 38.0272C376.782 38.4444 377.152 38.9564 377.399 39.5632C377.664 40.1511 377.797 40.7958 377.797 41.4975C377.797 42.1991 377.664 42.8533 377.399 43.4601C377.152 44.048 376.782 44.56 376.289 44.9961C375.815 45.4133 375.246 45.7452 374.583 45.9917C373.938 46.2192 373.217 46.333 372.421 46.333H365.651ZM400.555 41.5543H403.57C402.736 43.28 401.683 44.5695 400.413 45.4228C399.142 46.2761 397.635 46.7028 395.89 46.7028C394.695 46.7028 393.586 46.4942 392.562 46.077C391.538 45.6598 390.637 45.0815 389.86 44.3419C389.101 43.5834 388.504 42.7111 388.068 41.725C387.632 40.72 387.414 39.6391 387.414 38.4823C387.414 37.3446 387.632 36.2826 388.068 35.2966C388.504 34.2915 389.092 33.4287 389.831 32.7081C390.59 31.9686 391.472 31.3902 392.477 30.973C393.501 30.5558 394.591 30.3472 395.748 30.3472C397.549 30.3472 399.142 30.8118 400.526 31.741C401.911 32.6702 402.916 33.9597 403.542 35.6095H400.555C400.024 34.6803 399.351 33.9786 398.535 33.5046C397.72 33.0305 396.781 32.7935 395.719 32.7935C394.923 32.7935 394.183 32.9452 393.501 33.2486C392.818 33.533 392.221 33.9312 391.709 34.4432C391.216 34.9552 390.827 35.562 390.542 36.2637C390.258 36.9463 390.116 37.6954 390.116 38.5108C390.116 39.3262 390.258 40.0847 390.542 40.7863C390.846 41.469 391.254 42.0758 391.766 42.6068C392.278 43.1188 392.875 43.5265 393.558 43.8299C394.259 44.1143 395.008 44.2566 395.805 44.2566C396.829 44.2566 397.701 44.048 398.422 43.6308C399.142 43.2136 399.853 42.5215 400.555 41.5543ZM403.808 46.333L410.464 30.717H413.024L419.68 46.333H416.836L411.744 34.0735L406.653 46.333H403.808ZM424.186 43.9152H427.656C428.68 43.9152 429.458 43.7161 429.989 43.3179C430.52 42.9007 430.785 42.2939 430.785 41.4975C430.785 40.701 430.52 40.1037 429.989 39.7055C429.458 39.2883 428.68 39.0797 427.656 39.0797H424.186V43.9152ZM421.512 46.333V30.717H424.186V36.6619H428.083C428.879 36.6619 429.6 36.7852 430.245 37.0317C430.908 37.2592 431.477 37.5911 431.951 38.0272C432.444 38.4444 432.824 38.9564 433.089 39.5632C433.355 40.1511 433.487 40.7958 433.487 41.4975C433.487 42.1991 433.355 42.8533 433.089 43.4601C432.824 44.048 432.444 44.56 431.951 44.9961C431.477 45.4133 430.908 45.7452 430.245 45.9917C429.6 46.2192 428.879 46.333 428.083 46.333H421.512ZM435.194 46.333V30.717H437.868V46.333H435.194ZM441.29 46.333V30.717H443.964V43.9152H449.795V30.717H452.469V43.9152H458.328V30.717H460.974V46.333H441.29ZM464.373 46.333V30.717H467.019V42.5499L475.694 30.717H478.368V46.333H475.723V34.4717L467.047 46.333H464.373ZM481.79 46.333V30.717H485.402L490.608 41.8103L495.813 30.717H499.454V46.333H496.78V34.0166L491.603 45.2521H489.641L484.464 34.0166V46.333H481.79Z" fill="black"/>
</svg>
