<svg width="423" height="132" viewBox="0 0 423 132" fill="none" xmlns="http://www.w3.org/2000/svg">
<path d="M0.600217 33.0557L14.7336 0.211217H18.378L32.5113 33.0557H28.9558L16.5558 3.94455L4.15577 33.0557H0.600217ZM34.8773 20.9668C34.8773 19.1297 35.2032 17.4408 35.8551 15.9001C36.5069 14.3297 37.3958 12.9816 38.5217 11.8557C39.6773 10.7001 41.0403 9.7964 42.6106 9.14455C44.181 8.4927 45.8699 8.16677 47.6773 8.16677C49.8106 8.16677 51.6329 8.55196 53.144 9.32233C54.6847 10.0927 56.0625 11.3371 57.2773 13.0557V8.74455H60.5662V33.0557H57.2773V28.789C55.9736 30.5371 54.6106 31.7816 53.1884 32.5223C51.7662 33.2631 50.018 33.6334 47.944 33.6334C46.0773 33.6334 44.344 33.3223 42.744 32.7001C41.144 32.0483 39.7514 31.1594 38.5662 30.0334C37.4106 28.9075 36.5069 27.5742 35.8551 26.0334C35.2032 24.4631 34.8773 22.7742 34.8773 20.9668ZM38.2106 20.8334C38.2106 22.1964 38.4625 23.4705 38.9662 24.6557C39.4699 25.8408 40.1514 26.8779 41.0106 27.7668C41.8995 28.6557 42.9217 29.352 44.0773 29.8557C45.2625 30.3594 46.5366 30.6112 47.8995 30.6112C49.2329 30.6112 50.4625 30.3594 51.5884 29.8557C52.744 29.352 53.7366 28.6705 54.5662 27.8112C55.4255 26.9223 56.0921 25.8853 56.5662 24.7001C57.0403 23.5149 57.2773 22.226 57.2773 20.8334C57.2773 19.4408 57.0255 18.1668 56.5217 17.0112C56.0477 15.826 55.381 14.8038 54.5217 13.9446C53.6625 13.0853 52.6403 12.4186 51.4551 11.9446C50.2995 11.4408 49.0255 11.189 47.6329 11.189C46.3292 11.189 45.0995 11.4408 43.944 11.9446C42.818 12.4483 41.8255 13.1446 40.9662 14.0334C40.1069 14.8927 39.4255 15.9149 38.9217 17.1001C38.4477 18.2557 38.2106 19.5001 38.2106 20.8334ZM64.9492 26.0334H68.2825C68.3714 27.3668 68.9492 28.4631 70.0158 29.3223C71.0825 30.1816 72.401 30.6112 73.9714 30.6112C74.7714 30.6112 75.527 30.4927 76.2381 30.2557C76.9492 30.0186 77.5566 29.6927 78.0603 29.2779C78.5936 28.8631 79.0084 28.389 79.3047 27.8557C79.601 27.2927 79.7492 26.6853 79.7492 26.0334C79.7492 24.6408 79.0677 23.5594 77.7047 22.789C76.3714 21.989 74.4899 21.589 72.0603 21.589V18.8779C74.1344 18.8779 75.7195 18.5371 76.8158 17.8557C77.9121 17.1742 78.4603 16.1816 78.4603 14.8779C78.4603 13.8705 78.0158 13.0112 77.127 12.3001C76.2677 11.589 75.201 11.2334 73.927 11.2334C72.7121 11.2334 71.6899 11.5742 70.8603 12.2557C70.0307 12.9371 69.5714 13.8112 69.4825 14.8779H66.1492C66.2084 13.9297 66.4455 13.0408 66.8603 12.2112C67.2751 11.3816 67.8233 10.6705 68.5047 10.0779C69.2158 9.48529 70.0307 9.02603 70.9492 8.70011C71.8973 8.34455 72.9047 8.16677 73.9714 8.16677C75.0677 8.16677 76.0899 8.34455 77.0381 8.70011C77.9862 9.02603 78.8158 9.50011 79.527 10.1223C80.2381 10.7149 80.7862 11.426 81.1714 12.2557C81.5862 13.0557 81.7936 13.9297 81.7936 14.8779C81.7936 16.0927 81.4973 17.1297 80.9047 17.989C80.3121 18.8186 79.4381 19.4408 78.2825 19.8557V19.989C79.8529 20.4334 81.0381 21.1742 81.8381 22.2112C82.6677 23.2186 83.0825 24.4927 83.0825 26.0334C83.0825 27.1001 82.8455 28.0927 82.3714 29.0112C81.8973 29.9297 81.2455 30.7297 80.4158 31.4112C79.6158 32.0927 78.6677 32.6408 77.5714 33.0557C76.4751 33.4408 75.2899 33.6334 74.0158 33.6334C72.7714 33.6334 71.601 33.4408 70.5047 33.0557C69.4381 32.6705 68.4899 32.1371 67.6603 31.4557C66.8603 30.7742 66.2233 29.9742 65.7492 29.0557C65.2751 28.1075 65.0084 27.1001 64.9492 26.0334ZM86.57 20.9668C86.57 19.1297 86.8959 17.4408 87.5478 15.9001C88.1996 14.3297 89.0885 12.9816 90.2145 11.8557C91.37 10.7001 92.733 9.7964 94.3033 9.14455C95.8737 8.4927 97.5626 8.16677 99.37 8.16677C101.503 8.16677 103.326 8.55196 104.837 9.32233C106.377 10.0927 107.755 11.3371 108.97 13.0557V8.74455H112.259V33.0557H108.97V28.789C107.666 30.5371 106.303 31.7816 104.881 32.5223C103.459 33.2631 101.711 33.6334 99.6367 33.6334C97.77 33.6334 96.0367 33.3223 94.4367 32.7001C92.8367 32.0483 91.4441 31.1594 90.2589 30.0334C89.1033 28.9075 88.1996 27.5742 87.5478 26.0334C86.8959 24.4631 86.57 22.7742 86.57 20.9668ZM89.9033 20.8334C89.9033 22.1964 90.1552 23.4705 90.6589 24.6557C91.1626 25.8408 91.8441 26.8779 92.7033 27.7668C93.5922 28.6557 94.6145 29.352 95.77 29.8557C96.9552 30.3594 98.2293 30.6112 99.5922 30.6112C100.926 30.6112 102.155 30.3594 103.281 29.8557C104.437 29.352 105.429 28.6705 106.259 27.8112C107.118 26.9223 107.785 25.8853 108.259 24.7001C108.733 23.5149 108.97 22.226 108.97 20.8334C108.97 19.4408 108.718 18.1668 108.214 17.0112C107.74 15.826 107.074 14.8038 106.214 13.9446C105.355 13.0853 104.333 12.4186 103.148 11.9446C101.992 11.4408 100.718 11.189 99.3256 11.189C98.0219 11.189 96.7922 11.4408 95.6367 11.9446C94.5108 12.4483 93.5182 13.1446 92.6589 14.0334C91.7996 14.8927 91.1182 15.9149 90.6145 17.1001C90.1404 18.2557 89.9033 19.5001 89.9033 20.8334ZM117.842 41.589V8.74455H121.131V12.9223C122.168 11.352 123.486 10.1668 125.086 9.36677C126.716 8.56677 128.583 8.16677 130.686 8.16677C132.494 8.16677 134.183 8.4927 135.753 9.14455C137.323 9.7964 138.672 10.7001 139.797 11.8557C140.953 12.9816 141.857 14.3297 142.509 15.9001C143.16 17.4408 143.486 19.1149 143.486 20.9223C143.486 22.7297 143.146 24.4038 142.464 25.9446C141.812 27.4853 140.909 28.8334 139.753 29.989C138.597 31.1149 137.234 32.0038 135.664 32.6557C134.094 33.3075 132.405 33.6334 130.597 33.6334C128.553 33.6334 126.731 33.2334 125.131 32.4334C123.531 31.6334 122.197 30.4483 121.131 28.8779V41.589H117.842ZM130.553 30.6112C131.916 30.6112 133.175 30.3742 134.331 29.9001C135.516 29.3964 136.538 28.7149 137.397 27.8557C138.257 26.9964 138.923 25.989 139.397 24.8334C139.901 23.6483 140.153 22.3742 140.153 21.0112C140.153 19.589 139.901 18.2853 139.397 17.1001C138.923 15.8853 138.257 14.8483 137.397 13.989C136.538 13.1001 135.516 12.4186 134.331 11.9446C133.146 11.4408 131.842 11.189 130.42 11.189C129.086 11.189 127.842 11.4408 126.686 11.9446C125.531 12.4483 124.523 13.1446 123.664 14.0334C122.805 14.8927 122.123 15.9149 121.62 17.1001C121.146 18.2853 120.909 19.5594 120.909 20.9223C120.909 22.2853 121.146 23.5594 121.62 24.7446C122.123 25.9297 122.805 26.9668 123.664 27.8557C124.553 28.7149 125.575 29.3964 126.731 29.9001C127.916 30.3742 129.19 30.6112 130.553 30.6112ZM168.448 25.0557H171.87C171.426 26.3297 170.804 27.5001 170.004 28.5668C169.204 29.6038 168.285 30.5075 167.248 31.2779C166.241 32.0186 165.115 32.5964 163.87 33.0112C162.656 33.426 161.381 33.6334 160.048 33.6334C158.241 33.6334 156.552 33.3075 154.981 32.6557C153.441 31.9742 152.093 31.0557 150.937 29.9001C149.781 28.7446 148.863 27.3964 148.181 25.8557C147.53 24.2853 147.204 22.5964 147.204 20.789C147.204 19.0112 147.53 17.3668 148.181 15.8557C148.833 14.3149 149.722 12.9816 150.848 11.8557C151.974 10.7001 153.307 9.7964 154.848 9.14455C156.389 8.4927 158.033 8.16677 159.781 8.16677C161.53 8.16677 163.174 8.50751 164.715 9.189C166.285 9.84085 167.648 10.7297 168.804 11.8557C169.989 12.9816 170.922 14.3001 171.604 15.8112C172.285 17.3223 172.626 18.9223 172.626 20.6112C172.626 20.8483 172.611 21.0853 172.581 21.3223C172.552 21.5297 172.507 21.752 172.448 21.989H150.493C150.552 23.2038 150.848 24.3297 151.381 25.3668C151.915 26.4038 152.596 27.3223 153.426 28.1223C154.285 28.8927 155.278 29.5001 156.404 29.9446C157.53 30.389 158.715 30.6112 159.959 30.6112C161.826 30.6112 163.53 30.1075 165.07 29.1001C166.641 28.0631 167.767 26.7149 168.448 25.0557ZM150.581 19.0112H169.204C168.641 16.5816 167.515 14.6705 165.826 13.2779C164.167 11.8853 162.152 11.189 159.781 11.189C158.626 11.189 157.53 11.3816 156.493 11.7668C155.485 12.1223 154.581 12.6557 153.781 13.3668C152.981 14.0483 152.3 14.8779 151.737 15.8557C151.204 16.8038 150.819 17.8557 150.581 19.0112ZM177.043 33.0557V8.74455H180.332V19.189H194.91V8.74455H198.199V33.0557H194.91V22.1668H180.332V33.0557H177.043ZM203.779 33.0557V8.74455H207.068V19.589L218.179 8.74455H222.446L210.313 20.5223L222.446 33.0557H218.135L207.068 21.589V33.0557H203.779ZM224.547 20.9223C224.547 19.0853 224.859 17.3816 225.481 15.8112C226.133 14.2408 227.036 12.8927 228.192 11.7668C229.347 10.6408 230.71 9.76677 232.281 9.14455C233.851 8.4927 235.57 8.16677 237.436 8.16677C239.214 8.16677 240.859 8.4927 242.37 9.14455C243.91 9.7964 245.229 10.7001 246.325 11.8557C247.451 12.9816 248.325 14.3297 248.947 15.9001C249.599 17.4408 249.925 19.1297 249.925 20.9668C249.925 22.8038 249.614 24.4927 248.992 26.0334C248.37 27.5742 247.51 28.9075 246.414 30.0334C245.318 31.1594 243.999 32.0483 242.459 32.7001C240.947 33.3223 239.303 33.6334 237.525 33.6334C235.659 33.6334 233.925 33.3223 232.325 32.7001C230.755 32.0483 229.392 31.1594 228.236 30.0334C227.081 28.8779 226.177 27.5297 225.525 25.989C224.873 24.4186 224.547 22.7297 224.547 20.9223ZM237.436 30.6112C238.77 30.6112 239.999 30.3742 241.125 29.9001C242.251 29.426 243.214 28.7742 244.014 27.9446C244.814 27.0853 245.436 26.0631 245.881 24.8779C246.355 23.6927 246.592 22.4038 246.592 21.0112C246.592 19.589 246.355 18.2705 245.881 17.0557C245.436 15.8408 244.784 14.8038 243.925 13.9446C243.096 13.0853 242.103 12.4186 240.947 11.9446C239.792 11.4408 238.533 11.189 237.17 11.189C235.836 11.189 234.607 11.4408 233.481 11.9446C232.355 12.4186 231.377 13.1001 230.547 13.989C229.718 14.8483 229.066 15.8853 228.592 17.1001C228.118 18.2853 227.881 19.5742 227.881 20.9668C227.881 22.3594 228.118 23.6483 228.592 24.8334C229.066 25.989 229.733 26.9964 230.592 27.8557C231.451 28.7149 232.459 29.3964 233.614 29.9001C234.799 30.3742 236.073 30.6112 237.436 30.6112ZM267.508 33.0557V0.211217H270.797V15.2779L285.775 0.211217H290.13L273.908 16.4779L290.13 33.0557H285.686L270.797 17.7668V33.0557H267.508ZM313.678 25.9001H317.411C315.989 28.5371 314.315 30.4927 312.389 31.7668C310.463 33.0112 308.167 33.6334 305.5 33.6334C303.634 33.6334 301.885 33.3075 300.256 32.6557C298.656 32.0038 297.263 31.1001 296.078 29.9446C294.893 28.789 293.96 27.4408 293.278 25.9001C292.597 24.3297 292.256 22.6408 292.256 20.8334C292.256 19.0557 292.597 17.3964 293.278 15.8557C293.96 14.3149 294.878 12.9816 296.034 11.8557C297.219 10.7001 298.597 9.7964 300.167 9.14455C301.767 8.4927 303.471 8.16677 305.278 8.16677C308.034 8.16677 310.493 8.87788 312.656 10.3001C314.819 11.7223 316.389 13.6631 317.367 16.1223H313.678C312.73 14.5223 311.53 13.3075 310.078 12.4779C308.656 11.6186 307.041 11.189 305.234 11.189C303.871 11.189 302.597 11.4408 301.411 11.9446C300.256 12.4483 299.248 13.1446 298.389 14.0334C297.53 14.8927 296.848 15.9149 296.345 17.1001C295.841 18.2853 295.589 19.5594 295.589 20.9223C295.589 22.2853 295.841 23.5594 296.345 24.7446C296.848 25.9001 297.545 26.9223 298.434 27.8112C299.322 28.6705 300.36 29.352 301.545 29.8557C302.73 30.3594 304.004 30.6112 305.367 30.6112C307.115 30.6112 308.611 30.2557 309.856 29.5446C311.13 28.8334 312.404 27.6186 313.678 25.9001ZM342.276 25.0557H345.698C345.254 26.3297 344.632 27.5001 343.832 28.5668C343.032 29.6038 342.113 30.5075 341.076 31.2779C340.069 32.0186 338.943 32.5964 337.698 33.0112C336.484 33.426 335.21 33.6334 333.876 33.6334C332.069 33.6334 330.38 33.3075 328.81 32.6557C327.269 31.9742 325.921 31.0557 324.765 29.9001C323.61 28.7446 322.691 27.3964 322.01 25.8557C321.358 24.2853 321.032 22.5964 321.032 20.789C321.032 19.0112 321.358 17.3668 322.01 15.8557C322.661 14.3149 323.55 12.9816 324.676 11.8557C325.802 10.7001 327.136 9.7964 328.676 9.14455C330.217 8.4927 331.861 8.16677 333.61 8.16677C335.358 8.16677 337.002 8.50751 338.543 9.189C340.113 9.84085 341.476 10.7297 342.632 11.8557C343.817 12.9816 344.75 14.3001 345.432 15.8112C346.113 17.3223 346.454 18.9223 346.454 20.6112C346.454 20.8483 346.439 21.0853 346.41 21.3223C346.38 21.5297 346.336 21.752 346.276 21.989H324.321C324.38 23.2038 324.676 24.3297 325.21 25.3668C325.743 26.4038 326.424 27.3223 327.254 28.1223C328.113 28.8927 329.106 29.5001 330.232 29.9446C331.358 30.389 332.543 30.6112 333.787 30.6112C335.654 30.6112 337.358 30.1075 338.898 29.1001C340.469 28.0631 341.595 26.7149 342.276 25.0557ZM324.41 19.0112H343.032C342.469 16.5816 341.343 14.6705 339.654 13.2779C337.995 11.8853 335.98 11.189 333.61 11.189C332.454 11.189 331.358 11.3816 330.321 11.7668C329.313 12.1223 328.41 12.6557 327.61 13.3668C326.81 14.0483 326.128 14.8779 325.565 15.8557C325.032 16.8038 324.647 17.8557 324.41 19.0112ZM350.871 33.0557V8.74455H354.16V19.189H368.738V8.74455H372.027V33.0557H368.738V22.1668H354.16V33.0557H350.871ZM377.608 33.0557V8.74455H380.896V28.389L395.696 8.74455H398.985V33.0557H395.696V13.4112L380.896 33.0557H377.608ZM418.16 20.2557V11.7223H412.515C410.56 11.7223 409.093 12.0779 408.115 12.789C407.137 13.5001 406.648 14.5668 406.648 15.989C406.648 17.4112 407.137 18.4779 408.115 19.189C409.093 19.9001 410.56 20.2557 412.515 20.2557H418.16ZM402.204 33.0557L409.226 22.9668C407.389 22.552 405.937 21.7223 404.871 20.4779C403.834 19.2334 403.315 17.7371 403.315 15.989C403.315 14.9223 403.508 13.9446 403.893 13.0557C404.308 12.1668 404.886 11.4112 405.626 10.789C406.367 10.1371 407.241 9.63344 408.248 9.27788C409.286 8.92233 410.426 8.74455 411.671 8.74455H421.448V33.0557H418.16V23.2334H412.782L405.937 33.0557H402.204ZM30.6891 73.4334H34.3336C33.5039 74.9446 32.5706 76.2779 31.5336 77.4334C30.4965 78.589 29.341 79.552 28.0669 80.3223C26.8224 81.0927 25.4595 81.6705 23.978 82.0557C22.5261 82.4408 20.9706 82.6334 19.3113 82.6334C16.8521 82.6334 14.5706 82.2038 12.4669 81.3446C10.3632 80.4853 8.54096 79.3001 7.00022 77.789C5.45948 76.2779 4.24466 74.5001 3.35577 72.4557C2.49651 70.3816 2.06688 68.1446 2.06688 65.7446C2.06688 63.2853 2.49651 61.0186 3.35577 58.9446C4.21503 56.8408 5.40022 55.0334 6.91133 53.5223C8.42244 51.9816 10.215 50.7816 12.2891 49.9223C14.3928 49.0631 16.6595 48.6334 19.0891 48.6334C20.778 48.6334 22.3928 48.8408 23.9336 49.2557C25.5039 49.6705 26.941 50.2779 28.2447 51.0779C29.5484 51.8779 30.7039 52.8408 31.7113 53.9668C32.7484 55.0631 33.578 56.3223 34.2002 57.7445H30.5113C29.2076 55.7001 27.6224 54.1742 25.7558 53.1668C23.9187 52.1594 21.741 51.6557 19.2224 51.6557C17.2669 51.6557 15.4447 52.0112 13.7558 52.7223C12.0669 53.4334 10.6002 54.4112 9.35577 55.6557C8.14096 56.9001 7.178 58.3816 6.46688 60.1001C5.75577 61.789 5.40022 63.626 5.40022 65.6112C5.40022 67.5371 5.75577 69.3594 6.46688 71.0779C7.20763 72.7668 8.20022 74.2483 9.44466 75.5223C10.7187 76.7668 12.1854 77.7594 13.8447 78.5001C15.5336 79.2408 17.341 79.6112 19.2669 79.6112C21.6076 79.6112 23.6817 79.1223 25.4891 78.1446C27.3261 77.1668 29.0595 75.5964 30.6891 73.4334ZM43.1992 82.0557V60.7223H36.7992V57.7445H52.7992V60.7223H46.4881V82.0557H43.1992ZM59.1898 90.589L63.1454 81.2557L53.7231 57.7445H57.3231L65.012 77.1223L73.2342 57.7445H76.7454L62.7009 90.589H59.1898ZM74.1742 87.6557V79.0779H77.3297L86.4408 57.7445H90.1742L99.2853 79.0779H102.441V87.6557H100.174L98.9742 82.0557H77.6408L76.4408 87.6557H74.1742ZM80.7964 79.0779H95.8186L88.3075 61.4779L80.7964 79.0779ZM124.264 74.0557H127.686C127.242 75.3297 126.62 76.5001 125.82 77.5668C125.02 78.6038 124.101 79.5075 123.064 80.2779C122.057 81.0186 120.931 81.5964 119.686 82.0112C118.472 82.426 117.197 82.6334 115.864 82.6334C114.057 82.6334 112.368 82.3075 110.797 81.6557C109.257 80.9742 107.909 80.0557 106.753 78.9001C105.597 77.7446 104.679 76.3964 103.997 74.8557C103.346 73.2853 103.02 71.5964 103.02 69.789C103.02 68.0112 103.346 66.3668 103.997 64.8557C104.649 63.3149 105.538 61.9816 106.664 60.8557C107.79 59.7001 109.123 58.7964 110.664 58.1445C112.205 57.4927 113.849 57.1668 115.597 57.1668C117.346 57.1668 118.99 57.5075 120.531 58.189C122.101 58.8408 123.464 59.7297 124.62 60.8557C125.805 61.9816 126.738 63.3001 127.42 64.8112C128.101 66.3223 128.442 67.9223 128.442 69.6112C128.442 69.8483 128.427 70.0853 128.397 70.3223C128.368 70.5297 128.323 70.752 128.264 70.989H106.309C106.368 72.2038 106.664 73.3297 107.197 74.3668C107.731 75.4038 108.412 76.3223 109.242 77.1223C110.101 77.8927 111.094 78.5001 112.22 78.9446C113.346 79.389 114.531 79.6112 115.775 79.6112C117.642 79.6112 119.346 79.1075 120.886 78.1001C122.457 77.0631 123.583 75.7149 124.264 74.0557ZM106.397 68.0112H125.02C124.457 65.5816 123.331 63.6705 121.642 62.2779C119.983 60.8853 117.968 60.189 115.597 60.189C114.442 60.189 113.346 60.3816 112.309 60.7668C111.301 61.1223 110.397 61.6557 109.597 62.3668C108.797 63.0483 108.116 63.8779 107.553 64.8557C107.02 65.8038 106.634 66.8557 106.397 68.0112ZM132.859 82.0557V57.7445H136.148V68.189H150.726V57.7445H154.015V82.0557H150.726V71.1668H136.148V82.0557H132.859ZM163.729 82.0557V60.7223H157.329V57.7445H173.329V60.7223H167.018V82.0557H163.729ZM176.653 82.0557V57.7445H179.942V68.589L191.053 57.7445H195.319L183.186 69.5223L195.319 82.0557H191.008L179.942 70.589V82.0557H176.653ZM197.421 69.9668C197.421 68.1297 197.747 66.4408 198.398 64.9001C199.05 63.3297 199.939 61.9816 201.065 60.8557C202.221 59.7001 203.584 58.7964 205.154 58.1445C206.724 57.4927 208.413 57.1668 210.221 57.1668C212.354 57.1668 214.176 57.552 215.687 58.3223C217.228 59.0927 218.606 60.3371 219.821 62.0557V57.7445H223.11V82.0557H219.821V77.789C218.517 79.5371 217.154 80.7816 215.732 81.5223C214.31 82.2631 212.561 82.6334 210.487 82.6334C208.621 82.6334 206.887 82.3223 205.287 81.7001C203.687 81.0483 202.295 80.1594 201.11 79.0334C199.954 77.9075 199.05 76.5742 198.398 75.0334C197.747 73.4631 197.421 71.7742 197.421 69.9668ZM200.754 69.8334C200.754 71.1964 201.006 72.4705 201.51 73.6557C202.013 74.8408 202.695 75.8779 203.554 76.7668C204.443 77.6557 205.465 78.352 206.621 78.8557C207.806 79.3594 209.08 79.6112 210.443 79.6112C211.776 79.6112 213.006 79.3594 214.132 78.8557C215.287 78.352 216.28 77.6705 217.11 76.8112C217.969 75.9223 218.636 74.8853 219.11 73.7001C219.584 72.5149 219.821 71.226 219.821 69.8334C219.821 68.4408 219.569 67.1668 219.065 66.0112C218.591 64.826 217.924 63.8038 217.065 62.9446C216.206 62.0853 215.184 61.4186 213.998 60.9446C212.843 60.4408 211.569 60.189 210.176 60.189C208.873 60.189 207.643 60.4408 206.487 60.9446C205.361 61.4483 204.369 62.1446 203.51 63.0334C202.65 63.8927 201.969 64.9149 201.465 66.1001C200.991 67.2557 200.754 68.5001 200.754 69.8334ZM244.886 79.0779H249.419C250.989 79.0779 252.293 79.0186 253.33 78.9001C254.367 78.7816 255.241 78.6038 255.952 78.3668C257.108 77.9816 257.997 77.2705 258.619 76.2334C259.241 75.1668 259.552 73.8631 259.552 72.3223C259.552 71.0483 259.315 69.9371 258.841 68.989C258.397 68.0408 257.76 67.3446 256.93 66.9001C256.308 66.5149 255.523 66.2483 254.575 66.1001C253.626 65.9223 252.367 65.8334 250.797 65.8334H244.886V79.0779ZM241.597 82.0557V49.2112H260.841V52.189H244.886V62.8557H251.063C252.13 62.8557 253.078 62.9001 253.908 62.989C254.767 63.0483 255.537 63.1668 256.219 63.3446C256.9 63.4927 257.523 63.7001 258.086 63.9668C258.649 64.2038 259.182 64.5001 259.686 64.8557C260.723 65.5964 261.508 66.6038 262.041 67.8779C262.604 69.152 262.886 70.6186 262.886 72.2779C262.886 74.1446 262.56 75.7742 261.908 77.1668C261.256 78.5297 260.308 79.5816 259.063 80.3223C258.56 80.6186 258.012 80.8853 257.419 81.1223C256.856 81.3297 256.234 81.5075 255.552 81.6557C254.871 81.8038 254.115 81.9075 253.286 81.9668C252.456 82.026 251.537 82.0557 250.53 82.0557H241.597ZM265.684 82.0557V79.0779L277.195 67.9668C278.528 66.6927 279.595 65.626 280.395 64.7668C281.225 63.8779 281.862 63.0927 282.306 62.4112C282.751 61.7297 283.047 61.0927 283.195 60.5001C283.343 59.8779 283.417 59.1964 283.417 58.4557C283.417 57.4483 283.239 56.5297 282.884 55.7001C282.528 54.8705 282.039 54.1594 281.417 53.5668C280.795 52.9445 280.039 52.4705 279.151 52.1445C278.291 51.789 277.343 51.6112 276.306 51.6112C274.054 51.6112 272.306 52.3371 271.062 53.789C269.817 55.2112 269.195 57.226 269.195 59.8334H265.951C265.951 58.1149 266.188 56.5742 266.662 55.2112C267.165 53.8186 267.862 52.6334 268.751 51.6557C269.639 50.6779 270.721 49.9371 271.995 49.4334C273.299 48.9001 274.751 48.6334 276.351 48.6334C277.862 48.6334 279.239 48.8853 280.484 49.389C281.758 49.8927 282.854 50.589 283.773 51.4779C284.691 52.3371 285.402 53.389 285.906 54.6334C286.439 55.8483 286.706 57.1816 286.706 58.6334C286.706 59.5223 286.602 60.352 286.395 61.1223C286.217 61.8927 285.891 62.6779 285.417 63.4779C284.943 64.2779 284.321 65.1223 283.551 66.0112C282.78 66.9001 281.817 67.8927 280.662 68.989L270.128 79.0779H286.528V82.0557H265.684ZM290.293 82.0557V79.0779L301.804 67.9668C303.138 66.6927 304.204 65.626 305.004 64.7668C305.834 63.8779 306.471 63.0927 306.916 62.4112C307.36 61.7297 307.656 61.0927 307.804 60.5001C307.953 59.8779 308.027 59.1964 308.027 58.4557C308.027 57.4483 307.849 56.5297 307.493 55.7001C307.138 54.8705 306.649 54.1594 306.027 53.5668C305.404 52.9445 304.649 52.4705 303.76 52.1445C302.901 51.789 301.953 51.6112 300.916 51.6112C298.664 51.6112 296.916 52.3371 295.671 53.789C294.427 55.2112 293.804 57.226 293.804 59.8334H290.56C290.56 58.1149 290.797 56.5742 291.271 55.2112C291.775 53.8186 292.471 52.6334 293.36 51.6557C294.249 50.6779 295.33 49.9371 296.604 49.4334C297.908 48.9001 299.36 48.6334 300.96 48.6334C302.471 48.6334 303.849 48.8853 305.093 49.389C306.367 49.8927 307.464 50.589 308.382 51.4779C309.301 52.3371 310.012 53.389 310.516 54.6334C311.049 55.8483 311.316 57.1816 311.316 58.6334C311.316 59.5223 311.212 60.352 311.004 61.1223C310.827 61.8927 310.501 62.6779 310.027 63.4779C309.553 64.2779 308.93 65.1223 308.16 66.0112C307.39 66.9001 306.427 67.8927 305.271 68.989L294.738 79.0779H311.138V82.0557H290.293ZM314.236 88.1001V79.0779H317.614L330.414 49.2112H334.147L346.947 79.0779H350.325V88.1001H348.014L346.769 82.0557H317.792L316.547 88.1001H314.236ZM321.125 79.0779H343.436L332.28 52.9446L321.125 79.0779ZM351.91 72.589H355.421C355.421 73.5371 355.599 74.4408 355.954 75.3001C356.31 76.1297 356.799 76.8705 357.421 77.5223C358.043 78.1446 358.769 78.6334 359.599 78.989C360.428 79.3446 361.317 79.5223 362.265 79.5223C363.213 79.5223 364.102 79.3446 364.932 78.989C365.761 78.6334 366.487 78.1446 367.11 77.5223C367.732 76.8705 368.221 76.1297 368.576 75.3001C368.932 74.4408 369.11 73.5371 369.11 72.589C369.11 70.426 368.339 68.752 366.799 67.5668C365.287 66.352 363.139 65.7446 360.354 65.7446V62.7668C362.724 62.7668 364.532 62.3075 365.776 61.389C367.05 60.4408 367.687 59.0927 367.687 57.3445C367.687 56.5742 367.539 55.8483 367.243 55.1668C366.947 54.4853 366.547 53.8927 366.043 53.389C365.569 52.8557 364.991 52.4408 364.31 52.1445C363.658 51.8483 362.947 51.7001 362.176 51.7001C361.406 51.7001 360.68 51.8483 359.999 52.1445C359.347 52.4408 358.769 52.8557 358.265 53.389C357.791 53.8927 357.406 54.4853 357.11 55.1668C356.813 55.8483 356.665 56.5742 356.665 57.3445H353.243C353.243 56.1594 353.48 55.0483 353.954 54.0112C354.428 52.9445 355.065 52.0112 355.865 51.2112C356.695 50.4112 357.643 49.789 358.71 49.3445C359.806 48.8705 360.961 48.6334 362.176 48.6334C363.391 48.6334 364.547 48.8705 365.643 49.3445C366.739 49.789 367.687 50.3964 368.487 51.1668C369.287 51.9371 369.924 52.8557 370.399 53.9223C370.873 54.9594 371.11 56.0705 371.11 57.2557C371.11 58.8853 370.606 60.3371 369.599 61.6112C368.591 62.8557 367.287 63.6557 365.687 64.0112C366.636 64.189 367.524 64.5594 368.354 65.1223C369.213 65.6853 369.954 66.3668 370.576 67.1668C371.199 67.9371 371.687 68.7964 372.043 69.7446C372.428 70.6927 372.621 71.6705 372.621 72.6779C372.621 74.0408 372.339 75.3297 371.776 76.5446C371.243 77.7594 370.502 78.826 369.554 79.7446C368.636 80.6334 367.539 81.3446 366.265 81.8779C365.021 82.3816 363.687 82.6334 362.265 82.6334C360.843 82.6334 359.495 82.3668 358.221 81.8334C356.976 81.3001 355.88 80.589 354.932 79.7001C354.013 78.7816 353.273 77.7149 352.71 76.5001C352.176 75.2557 351.91 73.952 351.91 72.589ZM386.602 82.0557V52.189H381.002V49.2112H389.846V82.0557H386.602ZM400.056 70.1001V60.7668C400.056 58.8112 400.293 57.0779 400.767 55.5668C401.241 54.0557 401.937 52.7964 402.856 51.789C403.804 50.752 404.96 49.9668 406.322 49.4334C407.685 48.9001 409.256 48.6334 411.034 48.6334C412.811 48.6334 414.382 48.9001 415.745 49.4334C417.108 49.9668 418.248 50.752 419.167 51.789C420.115 52.826 420.826 54.1001 421.3 55.6112C421.804 57.0927 422.056 58.8112 422.056 60.7668V70.1001C422.056 74.2779 421.152 77.4186 419.345 79.5223C417.567 81.5964 414.885 82.6334 411.3 82.6334C407.597 82.6334 404.797 81.5816 402.9 79.4779C401.004 77.3446 400.056 74.2186 400.056 70.1001ZM403.3 69.5668C403.3 73.0038 403.937 75.552 405.211 77.2112C406.515 78.8408 408.5 79.6557 411.167 79.6557C413.834 79.6557 415.774 78.8557 416.989 77.2557C418.204 75.626 418.811 73.0631 418.811 69.5668V61.5223C418.811 58.1742 418.174 55.6853 416.9 54.0557C415.626 52.426 413.685 51.6112 411.078 51.6112C408.441 51.6112 406.485 52.426 405.211 54.0557C403.937 55.6853 403.3 58.1742 403.3 61.5223V69.5668ZM1.57799 131.056V128.078L13.0891 116.967C14.4224 115.693 15.4891 114.626 16.2891 113.767C17.1187 112.878 17.7558 112.093 18.2002 111.411C18.6447 110.73 18.941 110.093 19.0891 109.5C19.2373 108.878 19.3113 108.196 19.3113 107.456C19.3113 106.448 19.1336 105.53 18.778 104.7C18.4224 103.87 17.9336 103.159 17.3113 102.567C16.6891 101.945 15.9336 101.47 15.0447 101.145C14.1854 100.789 13.2373 100.611 12.2002 100.611C9.94837 100.611 8.20022 101.337 6.95577 102.789C5.71133 104.211 5.08911 106.226 5.08911 108.833H1.84466C1.84466 107.115 2.0817 105.574 2.55577 104.211C3.05948 102.819 3.75577 101.633 4.64466 100.656C5.53355 99.6779 6.61503 98.9371 7.88911 98.4334C9.19281 97.9001 10.6447 97.6334 12.2447 97.6334C13.7558 97.6334 15.1336 97.8853 16.378 98.389C17.6521 98.8927 18.7484 99.589 19.6669 100.478C20.5854 101.337 21.2965 102.389 21.8002 103.633C22.3336 104.848 22.6002 106.182 22.6002 107.633C22.6002 108.522 22.4965 109.352 22.2891 110.122C22.1113 110.893 21.7854 111.678 21.3113 112.478C20.8373 113.278 20.215 114.122 19.4447 115.011C18.6743 115.9 17.7113 116.893 16.5558 117.989L6.02244 128.078H22.4224V131.056H1.57799ZM26.054 119.1V109.767C26.054 107.811 26.2911 106.078 26.7651 104.567C27.2392 103.056 27.9355 101.796 28.854 100.789C29.8022 99.752 30.9577 98.9668 32.3207 98.4334C33.6837 97.9001 35.254 97.6334 37.0318 97.6334C38.8096 97.6334 40.38 97.9001 41.7429 98.4334C43.1059 98.9668 44.2466 99.752 45.1652 100.789C46.1133 101.826 46.8244 103.1 47.2985 104.611C47.8022 106.093 48.054 107.811 48.054 109.767V119.1C48.054 123.278 47.1503 126.419 45.3429 128.522C43.5652 130.596 40.8837 131.633 37.2985 131.633C33.5948 131.633 30.7948 130.582 28.8985 128.478C27.0022 126.345 26.054 123.219 26.054 119.1ZM29.2985 118.567C29.2985 122.004 29.9355 124.552 31.2096 126.211C32.5133 127.841 34.4985 128.656 37.1652 128.656C39.8318 128.656 41.7726 127.856 42.9874 126.256C44.2022 124.626 44.8096 122.063 44.8096 118.567V110.522C44.8096 107.174 44.1726 104.685 42.8985 103.056C41.6244 101.426 39.6837 100.611 37.0763 100.611C34.4392 100.611 32.4837 101.426 31.2096 103.056C29.9355 104.685 29.2985 107.174 29.2985 110.522V118.567ZM50.7967 131.056V128.078L62.3079 116.967C63.6412 115.693 64.7079 114.626 65.5079 113.767C66.3375 112.878 66.9745 112.093 67.419 111.411C67.8634 110.73 68.1597 110.093 68.3079 109.5C68.456 108.878 68.5301 108.196 68.5301 107.456C68.5301 106.448 68.3523 105.53 67.9968 104.7C67.6412 103.87 67.1523 103.159 66.5301 102.567C65.9079 101.945 65.1523 101.47 64.2634 101.145C63.4042 100.789 62.456 100.611 61.419 100.611C59.1671 100.611 57.419 101.337 56.1745 102.789C54.9301 104.211 54.3079 106.226 54.3079 108.833H51.0634C51.0634 107.115 51.3005 105.574 51.7745 104.211C52.2782 102.819 52.9745 101.633 53.8634 100.656C54.7523 99.6779 55.8338 98.9371 57.1079 98.4334C58.4116 97.9001 59.8634 97.6334 61.4634 97.6334C62.9745 97.6334 64.3523 97.8853 65.5968 98.389C66.8708 98.8927 67.9671 99.589 68.8856 100.478C69.8042 101.337 70.5153 102.389 71.019 103.633C71.5523 104.848 71.819 106.182 71.819 107.633C71.819 108.522 71.7153 109.352 71.5079 110.122C71.3301 110.893 71.0042 111.678 70.5301 112.478C70.056 113.278 69.4338 114.122 68.6634 115.011C67.893 115.9 66.9301 116.893 65.7745 117.989L55.2412 128.078H71.6412V131.056H50.7967ZM74.4728 125.056V122.078L90.4728 98.2112H94.3395V122.078H97.3617V125.056H94.3395V131.056H91.095V125.056H74.4728ZM78.2506 122.078H91.095V102.745L78.2506 122.078ZM103.038 131.056V125.456H106.327V131.056H103.038Z" fill="white"/>
</svg>
