<svg width="209" height="86" viewBox="0 0 209 86" fill="none" xmlns="http://www.w3.org/2000/svg">
<rect x="4.73633" width="204.25" height="72.625" rx="36.3125" transform="rotate(3.73934 4.73633 0)" fill="#F8EB66"/>
<path d="M34.5365 50.0134L37.2869 50.1932C38.1873 52.0679 39.1864 53.4119 40.2842 54.2253C41.4057 55.0659 42.8578 55.5444 44.6404 55.6609C47.1871 55.8274 49.1437 55.2392 50.5102 53.8963C51.9005 52.5805 52.6873 50.5219 52.8703 47.7206L52.9627 46.3072C52.0158 47.8822 50.868 49.0092 49.5193 49.6883C48.196 50.3691 46.5794 50.647 44.6694 50.5222C43.1414 50.4223 41.7336 50.049 40.4459 49.4022C39.1583 48.7554 38.0495 47.9157 37.1196 46.883C36.2151 45.852 35.526 44.6561 35.0523 43.2952C34.5786 41.9344 34.3916 40.4899 34.4915 38.9619C34.5947 37.383 34.9578 35.9362 35.5808 34.6214C36.2038 33.3066 37.0181 32.1962 38.0236 31.29C39.0562 30.3601 40.2402 29.6574 41.5756 29.182C42.9111 28.7067 44.3428 28.5189 45.8707 28.6188C47.6534 28.7353 49.1844 29.1806 50.4637 29.9547C51.7447 30.7034 52.8598 31.8377 53.8091 33.3575L54.0512 29.6521L56.878 29.8369L55.757 46.9886C55.4924 51.0377 54.4301 53.9862 52.5703 55.8339C50.7358 57.6834 48.0615 58.4932 44.5471 58.2635C41.8986 58.0904 39.7127 57.2954 37.9894 55.8784C36.29 54.4886 35.139 52.5336 34.5365 50.0134ZM44.8392 47.9246C45.9852 47.9995 47.0562 47.8521 48.0522 47.4824C49.0482 47.1128 49.9277 46.5692 50.6907 45.8518C51.4537 45.1344 52.073 44.267 52.5488 43.2495C53.0245 42.232 53.3023 41.1121 53.3821 39.8897C53.4587 38.7182 53.313 37.6217 52.945 36.6002C52.6024 35.5804 52.0852 34.6898 51.3932 33.9285C50.7285 33.1434 49.9 32.5138 48.908 32.0398C47.9414 31.5674 46.8597 31.2921 45.6628 31.2139C44.5677 31.1423 43.5349 31.2922 42.5644 31.6635C41.5955 32.0094 40.7304 32.5283 39.969 33.2202C39.2332 33.9138 38.629 34.7439 38.1567 35.7105C37.7098 36.6787 37.448 37.7485 37.3715 38.92C37.2916 40.1424 37.4212 41.289 37.7605 42.3597C38.1013 43.405 38.6034 44.3329 39.2665 45.1435C39.9313 45.9287 40.7334 46.5693 41.6728 47.0655C42.6377 47.5634 43.6932 47.8497 44.8392 47.9246ZM75.9054 52.065L76.1176 48.818C75.3196 50.0702 74.3659 50.9669 73.2564 51.5082C72.1485 52.024 70.7796 52.2287 69.1498 52.1222C66.2211 51.9308 64.0613 50.9328 62.6703 49.1284C61.3047 47.3256 60.731 44.7561 60.949 41.42L61.6855 30.1511L64.5123 30.3358L63.7758 41.6048C63.611 44.1259 63.9972 46.0438 64.9343 47.3582C65.8969 48.6743 67.4223 49.4006 69.5105 49.5371C71.6242 49.6752 73.2863 49.0933 74.4967 47.7913C75.7088 46.4639 76.3997 44.5014 76.5695 41.9038L77.271 31.1697L80.0978 31.3544L78.7322 52.2497L75.9054 52.065ZM83.5605 52.5653L84.9262 31.67L87.753 31.8548L86.3873 52.75L83.5605 52.5653ZM85.091 29.1488L85.4055 24.3357L88.2323 24.5204L87.9177 29.3336L85.091 29.1488ZM93.7673 53.2324L94.9657 34.8965L90.4581 34.6019L90.6254 32.0425L95.133 32.3371L95.6123 25.0027L98.4391 25.1875L97.9598 32.5218L102.658 32.8289L102.491 35.3883L97.7925 35.0812L96.5941 53.4171L93.7673 53.2324ZM104.029 43.4683C104.133 41.8894 104.508 40.4561 105.154 39.1685C105.803 37.8554 106.643 36.7466 107.674 35.8421C108.732 34.9138 109.954 34.2137 111.34 33.7416C112.727 33.2696 114.197 33.0843 115.75 33.1858C117.584 33.3057 119.128 33.7391 120.384 34.4861C121.665 35.2348 122.779 36.3818 123.727 37.9271L123.969 34.2217L126.796 34.4065L125.43 55.3017L122.603 55.117L122.843 51.4498C121.624 52.8791 120.383 53.8721 119.119 54.4289C117.855 54.9857 116.331 55.2058 114.549 55.0893C112.944 54.9844 111.472 54.6197 110.132 53.995C108.793 53.3448 107.646 52.5026 106.691 51.4683C105.761 50.4357 105.059 49.2389 104.585 47.878C104.113 46.4917 103.928 45.0218 104.029 43.4683ZM106.902 43.541C106.825 44.7125 106.97 45.8217 107.337 46.8686C107.703 47.9156 108.23 48.8452 108.919 49.6574C109.633 50.4714 110.473 51.1273 111.438 51.6251C112.428 52.1246 113.509 52.4126 114.68 52.4892C115.826 52.5641 116.897 52.4167 117.893 52.047C118.915 51.679 119.806 51.149 120.567 50.4571C121.356 49.7414 121.987 48.8875 122.461 47.8955C122.935 46.9034 123.211 45.809 123.29 44.612C123.368 43.4151 123.223 42.3059 122.855 41.2844C122.514 40.2391 121.998 39.3231 121.308 38.5363C120.618 37.7495 119.777 37.1191 118.785 36.645C117.82 36.1472 116.739 35.8592 115.542 35.7809C114.422 35.7077 113.351 35.8551 112.329 36.2231C111.333 36.5928 110.441 37.1355 109.652 37.8512C108.866 38.5415 108.222 39.3818 107.723 40.3722C107.25 41.3387 106.977 42.395 106.902 43.541ZM130.228 55.6153L131.594 34.7201L134.421 34.9048L134.226 37.8844C134.543 37.3424 134.893 36.8794 135.276 36.4952C135.686 36.0873 136.13 35.7582 136.606 35.508C137.109 35.2595 137.67 35.0788 138.291 34.966C138.913 34.8531 139.607 34.7962 140.374 34.7952L140.192 37.5838C138.192 37.6577 136.661 38.197 135.598 39.2017C134.562 40.1825 133.98 41.6534 133.852 43.6144L133.055 55.8001L130.228 55.6153ZM141.718 56.3663L143.084 35.471L145.911 35.6557L144.545 56.551L141.718 56.3663ZM143.249 32.9498L143.563 28.1366L146.39 28.3214L146.075 33.1346L143.249 32.9498ZM148.049 50.6036L150.837 50.7858C150.829 52.0896 151.132 53.1197 151.748 53.876C152.39 54.6085 153.31 55.0139 154.507 55.0921C155.526 55.1587 156.388 54.8826 157.093 54.2637C157.8 53.6194 158.189 52.7624 158.259 51.6929C158.29 51.209 158.254 50.7846 158.15 50.4198C158.073 50.0311 157.891 49.6867 157.604 49.3866C157.318 49.0611 156.917 48.7407 156.401 48.4257C155.91 48.1122 155.267 47.7761 154.472 47.4172C153.478 46.9687 152.65 46.5309 151.987 46.104C151.326 45.6516 150.793 45.1948 150.389 44.7335C150.011 44.2485 149.738 43.7319 149.569 43.1838C149.428 42.6119 149.379 41.9822 149.424 41.2946C149.481 40.4287 149.672 39.6484 149.999 38.9536C150.328 38.2334 150.763 37.6353 151.306 37.1592C151.875 36.6594 152.526 36.2927 153.257 36.0592C154.014 35.8273 154.838 35.7405 155.73 35.7988C156.57 35.8537 157.338 36.0445 158.032 36.3713C158.727 36.698 159.313 37.1327 159.789 37.6753C160.266 38.1924 160.635 38.8048 160.896 39.5124C161.157 40.2199 161.272 40.9948 161.243 41.8368L158.378 41.6496C158.366 40.6514 158.11 39.8801 157.608 39.3359C157.134 38.7678 156.438 38.4538 155.522 38.3939C154.63 38.3356 153.888 38.5428 153.294 39.0155C152.701 39.4883 152.378 40.1193 152.327 40.9088C152.297 41.3672 152.358 41.806 152.509 42.2251C152.688 42.6204 152.957 43.0088 153.315 43.3903C153.674 43.7718 154.124 44.1336 154.664 44.4759C155.23 44.8197 155.898 45.1575 156.669 45.4893C158.188 46.1256 159.334 46.9806 160.108 48.0541C160.881 49.1277 161.226 50.3139 161.141 51.6127C161.078 52.5804 160.868 53.449 160.51 54.2185C160.153 54.988 159.663 55.6465 159.039 56.1939C158.442 56.7176 157.739 57.1064 156.929 57.3604C156.144 57.6415 155.28 57.7513 154.337 57.6897C152.3 57.5566 150.709 56.8516 149.565 55.5748C148.446 54.2996 147.941 52.6426 148.049 50.6036ZM166.735 58.0013L167.933 39.6654L163.426 39.3708L163.593 36.8114L168.1 37.106L168.58 29.7717L171.407 29.9564L170.927 37.2908L175.626 37.5978L175.459 40.1572L170.76 39.8501L169.562 58.186L166.735 58.0013Z" fill="black"/>
</svg>
