<svg width="302" height="142" viewBox="0 0 302 142" fill="none" xmlns="http://www.w3.org/2000/svg">
<rect x="15.0227" width="289.651" height="98.3253" rx="49.1627" transform="rotate(8.78835 15.0227 0)" fill="#E1B4F9"/>
<path d="M74.0043 66.1343L78.2925 66.7973C76.1906 69.5737 73.9205 71.5226 71.4821 72.6441C69.0489 73.7315 66.3008 74.0384 63.2378 73.5648C61.0937 73.2334 59.1436 72.5486 57.3875 71.5104C55.6655 70.4776 54.2264 69.1923 53.0702 67.6545C51.9141 66.1167 51.0814 64.4025 50.5723 62.5117C50.0684 60.5869 49.9769 58.5865 50.2979 56.5105C50.6135 54.4685 51.2996 52.6231 52.356 50.9744C53.4123 49.3257 54.7041 47.9573 56.2314 46.8692C57.7979 45.7524 59.5409 44.959 61.4605 44.4891C63.414 44.0245 65.4288 43.9527 67.5049 44.2736C70.67 44.763 73.3685 46.0165 75.6004 48.0342C77.8322 50.0519 79.2914 52.5599 79.9778 55.5583L75.7406 54.9033C74.9357 52.8971 73.773 51.2886 72.2527 50.0779C70.7717 48.8384 68.9932 48.0581 66.9171 47.7372C65.3516 47.4951 63.8434 47.5582 62.3927 47.9263C60.9759 48.2996 59.6951 48.9205 58.5503 49.7889C57.4108 50.6233 56.4465 51.6765 55.6574 52.9484C54.8684 54.2203 54.3529 55.639 54.1108 57.2045C53.8688 58.77 53.9318 60.2782 54.2999 61.729C54.6733 63.1457 55.2916 64.4435 56.1547 65.6224C57.0231 66.7672 58.0933 67.7341 59.3652 68.5232C60.6371 69.3122 62.0558 69.8277 63.6213 70.0698C65.6293 70.3802 67.4111 70.2375 68.9668 69.6417C70.5565 69.0511 72.2357 67.882 74.0043 66.1343ZM76.9485 75.005L93.2624 48.9353L97.4995 49.5903L105.179 79.3695L101.197 78.7539L94.7435 53.555L80.9304 75.6206L76.9485 75.005ZM112.981 77.0736L119.72 78.1154C121.966 78.4626 123.714 78.3147 124.963 77.6715C126.213 77.0283 126.966 75.8729 127.224 74.2053C127.482 72.5377 127.113 71.2086 126.116 70.2182C125.119 69.2278 123.497 68.5589 121.251 68.2116L114.513 67.1699L112.981 77.0736ZM108.675 79.9099L112.992 51.9855L116.77 52.5695L115.041 63.7495L122.75 64.9412C124.179 65.1622 125.441 65.5664 126.535 66.1537C127.663 66.7462 128.595 67.4826 129.33 68.3629C130.07 69.2091 130.58 70.194 130.859 71.3174C131.178 72.4121 131.242 73.572 131.053 74.7972C130.864 76.0224 130.449 77.1257 129.809 78.1071C129.209 79.0597 128.426 79.8446 127.459 80.4618C126.498 81.045 125.39 81.4487 124.136 81.6729C122.915 81.9024 121.591 81.9067 120.161 81.6857L108.675 79.9099ZM133.128 83.6903L137.445 55.7659L141.223 56.3499L136.906 84.2744L133.128 83.6903ZM143.323 85.2665L147.64 57.3421L151.418 57.9261L147.63 82.4302L159.218 84.2218L163.006 59.7177L166.784 60.3017L162.996 84.8058L174.584 86.5974L178.373 62.0933L182.15 62.6773L177.833 90.6018L143.323 85.2665ZM184.253 91.5943L188.57 63.6699L192.348 64.2539L188.859 86.8181L209.348 66.882L213.125 67.4661L208.808 95.3905L205.03 94.8065L208.519 72.2423L188.031 92.1783L184.253 91.5943ZM215.262 96.3883L219.579 68.4638L225.45 69.3715L231.696 93.5452L244.951 72.3863L250.822 73.294L246.505 101.218L242.727 100.634L246.405 76.845L232.517 99.0559L229.25 98.5508L222.718 73.1829L219.04 96.9723L215.262 96.3883Z" fill="black"/>
</svg>
