<svg width="299" height="128" viewBox="0 0 299 128" fill="none" xmlns="http://www.w3.org/2000/svg">
<rect x="10.0398" width="289.651" height="98.3253" rx="49.1627" transform="rotate(5.86057 10.0398 0)" fill="#32E97B"/>
<path d="M72.3224 63.0351L76.6388 63.4781C74.6815 66.3583 72.5139 68.4206 70.1359 69.6651C67.7615 70.8754 65.0326 71.3223 61.9494 71.0058C59.7912 70.7843 57.8087 70.2 56.0019 69.2529C54.2293 68.3094 52.7264 67.0992 51.4933 65.6225C50.2601 64.1458 49.341 62.4763 48.7359 60.614C48.1343 58.7175 47.9408 56.7244 48.1553 54.6346C48.3663 52.5792 48.9572 50.7012 49.9279 49.0007C50.8987 47.3001 52.1189 45.8675 53.5886 44.7029C55.0961 43.5075 56.7963 42.6261 58.6893 42.0588C60.6166 41.495 62.6251 41.3204 64.7148 41.5349C67.9008 41.8619 70.6598 42.976 72.9918 44.877C75.3239 46.7781 76.9092 49.2084 77.7478 52.1678L73.4828 51.73C72.5764 49.7676 71.3331 48.2206 69.753 47.0891C68.2106 45.9268 66.3945 45.2384 64.3048 45.0239C62.7289 44.8622 61.2259 45.0022 59.7959 45.4439C58.4 45.8891 57.1526 46.5746 56.0537 47.5004C54.9582 48.3919 54.049 49.4929 53.3259 50.8034C52.6029 52.114 52.1605 53.5572 51.9987 55.133C51.837 56.7089 51.977 58.2118 52.4187 59.6419C52.8639 61.0378 53.5477 62.3023 54.4699 63.4355C55.3957 64.5345 56.5138 65.4455 57.8244 66.1685C59.1349 66.8916 60.5781 67.3339 62.154 67.4957C64.1752 67.7032 65.9474 67.4696 67.4706 66.7952C69.0281 66.1242 70.6453 64.8708 72.3224 63.0351ZM75.7158 71.7438L90.6768 44.8748L94.9419 45.3126L104.133 74.6606L100.124 74.2492L92.392 49.4128L79.7239 72.1552L75.7158 71.7438ZM111.807 71.9692L118.59 72.6655C120.851 72.8975 122.589 72.6605 123.804 71.9544C125.019 71.2482 125.713 70.0558 125.885 68.3772C126.057 66.6986 125.62 65.3901 124.574 64.4519C123.528 63.5137 121.875 62.9285 119.614 62.6964L112.831 62.0002L111.807 71.9692ZM107.651 75.0218L110.537 46.9133L114.339 47.3036L113.184 58.5573L120.943 59.3538C122.382 59.5014 123.663 59.8406 124.785 60.3713C125.942 60.9054 126.91 61.5933 127.689 62.4349C128.472 63.2422 129.031 64.1997 129.368 65.3074C129.742 66.3844 129.866 67.5395 129.739 68.7728C129.612 70.0061 129.255 71.1291 128.666 72.1418C128.115 73.1239 127.373 73.9478 126.439 74.6135C125.509 75.245 124.423 75.7048 123.182 75.9928C121.975 76.2843 120.652 76.3563 119.213 76.2086L107.651 75.0218ZM132.266 77.5483L135.151 49.4398L138.953 49.8301L136.068 77.9386L132.266 77.5483ZM142.528 78.6017L145.413 50.4932L149.216 50.8835L146.684 75.5491L158.349 76.7464L160.881 52.0808L164.683 52.4712L162.151 77.1367L173.816 78.3341L176.348 53.6685L180.151 54.0588L177.265 82.1673L142.528 78.6017ZM183.728 82.8306L186.613 54.7221L190.415 55.1124L188.084 77.8253L207.527 56.8689L211.33 57.2592L208.445 85.3677L204.642 84.9774L206.973 62.2645L187.53 83.2209L183.728 82.8306ZM214.941 86.0345L217.826 57.926L223.736 58.5326L231.209 82.3557L243.365 60.5475L249.275 61.154L246.39 89.2625L242.587 88.8722L245.045 64.926L232.31 87.8173L229.021 87.4797L221.202 62.4786L218.744 86.4248L214.941 86.0345Z" fill="black"/>
</svg>
