<svg width="92" height="92" viewBox="0 0 92 92" fill="none" xmlns="http://www.w3.org/2000/svg">
<path d="M85.3515 52.2362C81.8314 74.0453 61.2981 88.8715 39.4889 85.3515C17.6798 81.8315 2.85354 61.2981 6.37359 39.4889C9.89363 17.6798 30.427 2.85356 52.2361 6.3736C74.0453 9.89365 88.8715 30.427 85.3515 52.2362Z" fill="white"/>
<path fill-rule="evenodd" clip-rule="evenodd" d="M42.8413 27.6855C45.1571 29.1385 46.8857 31.2152 48.011 32.8658C49.5984 31.6539 51.8924 30.2277 54.5474 29.5783C56.6663 29.06 59.0917 29.0184 61.5453 30.0452C63.9945 31.0701 66.2256 33.0565 68.1439 36.1535C70.6234 40.1567 70.297 44.3362 68.5704 48.03C66.8941 51.6164 63.8704 54.8596 60.6485 57.5199C57.3969 60.2049 53.7633 62.4435 50.6372 63.975C49.0744 64.7406 47.595 65.3508 46.3176 65.751C45.1667 66.1117 43.7882 66.4336 42.6231 66.2456C41.4578 66.0575 40.2505 65.3179 39.2714 64.6133C38.1849 63.8314 36.9726 62.7864 35.7301 61.5677C33.2446 59.1299 30.5 55.8609 28.2583 52.2885C26.0371 48.7488 24.1875 44.7182 23.7247 40.7861C23.248 36.7363 24.253 32.6658 27.8661 29.6459C30.6615 27.3095 33.4044 26.1262 36.052 25.9245C38.7043 25.7225 40.9934 26.526 42.8413 27.6855ZM36.4095 30.9159C35.0142 31.0222 33.2176 31.6614 31.0207 33.4976C28.9912 35.1939 28.3231 37.4183 28.6481 40.18C28.987 43.0593 30.4138 46.3568 32.449 49.6001C34.4636 52.8106 36.9551 55.7793 39.1908 57.972C40.3087 59.0686 41.3283 59.9371 42.1579 60.5342C42.8944 61.0642 43.2949 61.2425 43.4 61.2892C43.4096 61.2935 43.4168 61.2967 43.4215 61.299C43.4267 61.2983 43.4344 61.2976 43.4449 61.2965C43.5592 61.2852 43.9956 61.2421 44.8618 60.9707C45.8371 60.6652 47.078 60.1617 48.4841 59.4728C51.296 58.0954 54.5948 56.062 57.5169 53.6492C60.4689 51.2117 62.8604 48.5313 64.0878 45.9055C65.2649 43.3871 65.3306 41.0659 63.9377 38.8171C62.4301 36.383 60.9257 35.2106 59.6345 34.6702C58.3477 34.1317 57.0276 34.1183 55.7005 34.443C52.9144 35.1245 50.4629 37.2072 49.504 38.1255C48.111 39.4595 45.8399 39.0928 44.9377 37.3879C44.3164 36.214 42.6448 33.4641 40.2147 31.9393C39.0571 31.213 37.8 30.81 36.4095 30.9159Z" fill="black"/>
</svg>
