<svg width="90" height="90" viewBox="0 0 90 90" fill="none" xmlns="http://www.w3.org/2000/svg">
<path d="M79.0401 34.8276C84.6925 53.6333 74.0297 73.4605 55.224 79.1129C36.4183 84.7653 16.5911 74.1025 10.9387 55.2968C5.28628 36.4911 15.9491 16.6639 34.7548 11.0115C53.5605 5.3591 73.3877 16.0219 79.0401 34.8276Z" fill="white"/>
<path fill-rule="evenodd" clip-rule="evenodd" d="M35.5167 31.7007C37.9325 31.9635 40.121 32.953 41.6616 33.836C42.4604 32.2506 43.7411 30.2196 45.612 28.6695C47.105 27.4325 49.0283 26.4576 51.3889 26.326C53.7453 26.1947 56.3005 26.9168 59.0367 28.6485C62.5736 30.887 63.9353 34.3557 63.9887 37.9797C64.0407 41.4982 62.882 45.2655 61.3385 48.6436C59.7808 52.053 57.7445 55.2537 55.8393 57.692C54.8869 58.9109 53.9409 59.9733 53.0749 60.7892C52.2945 61.5244 51.3172 62.317 50.3126 62.619C49.3078 62.921 48.0553 62.7983 46.9989 62.615C45.8265 62.4116 44.4514 62.0467 42.9847 61.5545C40.0508 60.5702 36.587 59.0218 33.4075 57.0355C30.2572 55.0675 27.2134 52.5626 25.3167 49.5981C23.3632 46.5448 22.5866 42.8998 24.3033 39.0823C25.6315 36.1288 27.3653 34.1176 29.4041 32.9285C31.4465 31.7372 33.5889 31.4911 35.5167 31.7007ZM31.6278 36.781C30.5534 37.4077 29.3649 38.6163 28.3211 40.9374C27.3568 43.0818 27.6862 45.1198 29.0183 47.2019C30.4071 49.3727 32.8283 51.4556 35.7148 53.2588C38.5721 55.0439 41.717 56.4504 44.3559 57.3358C45.6756 57.7786 46.8281 58.0773 47.7232 58.2326C48.5179 58.3705 48.9074 58.3576 49.0096 58.3542C49.019 58.3538 49.026 58.3536 49.0306 58.3536C49.0344 58.3511 49.0404 58.3474 49.0483 58.3425C49.1354 58.2891 49.4676 58.0852 50.0548 57.532C50.716 56.909 51.5129 56.0246 52.3698 54.9279C54.0834 52.7347 55.9318 49.8281 57.3316 46.7643C58.7458 43.6692 59.6175 40.5974 59.5795 38.0212C59.543 35.5505 58.6944 33.6689 56.7075 32.4114C54.5569 31.0504 52.8988 30.6969 51.6566 30.7662C50.4185 30.8352 49.3578 31.337 48.4226 32.1118C46.4594 33.7384 45.3077 36.3555 44.8975 37.4621C44.3015 39.0696 42.3431 39.6581 40.9598 38.6451C40.0073 37.9476 37.603 36.3977 35.0678 36.122C33.8602 35.9906 32.6986 36.1564 31.6278 36.781Z" fill="black"/>
</svg>
