<svg width="404" height="90" viewBox="0 0 404 90" fill="none" xmlns="http://www.w3.org/2000/svg">
<rect x="0.888672" y="0.444336" width="402.222" height="88.8889" rx="31.1111" fill="#A1BBEF"/>
<path d="M60.2389 49.3091H62.6282C61.718 50.9968 60.6466 52.2484 59.414 53.0638C58.1814 53.8602 56.7118 54.2584 55.0051 54.2584C53.8104 54.2584 52.6916 54.0499 51.6487 53.6327C50.6247 53.2155 49.7334 52.6371 48.9749 51.8976C48.2164 51.158 47.619 50.2952 47.1829 49.3091C46.7467 48.3041 46.5287 47.2232 46.5287 46.0664C46.5287 44.9287 46.7467 43.8667 47.1829 42.8807C47.619 41.8946 48.2069 41.0413 48.9464 40.3207C49.7049 39.5811 50.5867 39.0027 51.5918 38.5856C52.6158 38.1684 53.7061 37.9598 54.8629 37.9598C56.6264 37.9598 58.2004 38.4149 59.5847 39.3251C60.9689 40.2353 61.974 41.4774 62.5998 43.0513H60.2389C59.6321 42.0273 58.8641 41.2499 57.9349 40.7189C57.0247 40.169 55.9912 39.894 54.8344 39.894C53.9621 39.894 53.1467 40.0552 52.3882 40.3776C51.6487 40.6999 51.0039 41.1456 50.454 41.7144C49.9041 42.2644 49.4679 42.9186 49.1455 43.6771C48.8232 44.4356 48.662 45.251 48.662 46.1233C48.662 46.9956 48.8232 47.811 49.1455 48.5696C49.4679 49.3091 49.9135 49.9633 50.4824 50.5322C51.0513 51.0822 51.715 51.5183 52.4735 51.8407C53.2321 52.163 54.0475 52.3242 54.9198 52.3242C56.0386 52.3242 56.9962 52.0967 57.7927 51.6416C58.6081 51.1864 59.4235 50.409 60.2389 49.3091ZM62.5873 53.8887L69.2718 38.3296H71.6327L78.3171 53.8887H76.0984L70.4664 40.7189L64.806 53.8887H62.5873ZM80.922 59.35L83.4535 53.3767L77.4233 38.3296H79.7273L84.6482 50.7313L89.9104 38.3296H92.1575L83.1691 59.35H80.922ZM94.2093 53.8887V38.3296H96.3142V51.9829H102.771V38.3296H104.876V51.9829H111.333V38.3296H113.438V53.8887H94.2093ZM116.418 46.1518C116.418 44.9761 116.626 43.8952 117.043 42.9091C117.46 41.9041 118.029 41.0413 118.75 40.3207C119.49 39.5811 120.362 39.0027 121.367 38.5856C122.372 38.1684 123.453 37.9598 124.61 37.9598C125.975 37.9598 127.141 38.2063 128.108 38.6993C129.094 39.1924 129.976 39.9888 130.754 41.0887V38.3296H132.858V53.8887H130.754V51.158C129.919 52.2768 129.047 53.0733 128.137 53.5473C127.226 54.0214 126.108 54.2584 124.78 54.2584C123.586 54.2584 122.476 54.0593 121.452 53.6611C120.428 53.2439 119.537 52.675 118.778 51.9544C118.039 51.2339 117.46 50.3805 117.043 49.3944C116.626 48.3894 116.418 47.3085 116.418 46.1518ZM118.551 46.0664C118.551 46.9387 118.712 47.7542 119.034 48.5127C119.357 49.2712 119.793 49.9349 120.343 50.5038C120.912 51.0727 121.566 51.5183 122.306 51.8407C123.064 52.163 123.879 52.3242 124.752 52.3242C125.605 52.3242 126.392 52.163 127.113 51.8407C127.852 51.5183 128.487 51.0822 129.018 50.5322C129.568 49.9633 129.995 49.2996 130.298 48.5411C130.602 47.7826 130.754 46.9577 130.754 46.0664C130.754 45.1752 130.592 44.3598 130.27 43.6202C129.967 42.8617 129.54 42.2075 128.99 41.6576C128.44 41.1076 127.786 40.681 127.027 40.3776C126.288 40.0552 125.472 39.894 124.581 39.894C123.747 39.894 122.96 40.0552 122.22 40.3776C121.5 40.6999 120.864 41.1456 120.314 41.7144C119.764 42.2644 119.328 42.9186 119.006 43.6771C118.703 44.4167 118.551 45.2131 118.551 46.0664ZM139.077 53.8887V40.2353H134.981V38.3296H145.221V40.2353H141.182V53.8887H139.077ZM149.453 51.9829H153.492C154.744 51.9829 155.682 51.7553 156.308 51.3002C156.934 50.8451 157.247 50.153 157.247 49.2238C157.247 48.2946 156.934 47.6024 156.308 47.1473C155.682 46.6922 154.744 46.4647 153.492 46.4647H149.453V51.9829ZM147.348 53.8887V38.3296H149.453V44.5589H154.033C154.829 44.5589 155.55 44.6727 156.194 44.9002C156.858 45.1278 157.427 45.4502 157.901 45.8673C158.375 46.2656 158.735 46.7586 158.982 47.3464C159.247 47.9153 159.38 48.5411 159.38 49.2238C159.38 49.9064 159.247 50.5417 158.982 51.1296C158.735 51.6984 158.375 52.1915 157.901 52.6087C157.427 53.0069 156.858 53.3198 156.194 53.5473C155.55 53.7749 154.829 53.8887 154.033 53.8887H147.348ZM169.709 53.8887V38.3296H175.939C177.626 38.3296 178.944 38.6899 179.892 39.4104C180.841 40.131 181.315 41.1361 181.315 42.4256C181.315 43.0513 181.116 43.6582 180.717 44.246C180.319 44.8339 179.817 45.2605 179.21 45.526C180.177 45.8863 180.897 46.3793 181.372 47.0051C181.865 47.6309 182.111 48.3799 182.111 49.2522C182.111 49.9349 181.969 50.5607 181.684 51.1296C181.4 51.6795 181.002 52.163 180.49 52.5802C179.978 52.9974 179.371 53.3198 178.669 53.5473C177.968 53.7749 177.2 53.8887 176.365 53.8887H169.709ZM171.814 44.758H175.597C176.792 44.758 177.702 44.5589 178.328 44.1607C178.973 43.7624 179.295 43.1841 179.295 42.4256C179.295 41.705 178.982 41.1645 178.356 40.8042C177.75 40.425 176.83 40.2353 175.597 40.2353H171.814V44.758ZM171.814 51.9829H175.825C177.171 51.9829 178.195 51.7553 178.897 51.3002C179.617 50.8262 179.978 50.1435 179.978 49.2522C179.978 48.3799 179.627 47.7352 178.925 47.318C178.243 46.8819 177.209 46.6638 175.825 46.6638H171.814V51.9829ZM205.933 49.3091H208.323C207.412 50.9968 206.341 52.2484 205.108 53.0638C203.876 53.8602 202.406 54.2584 200.7 54.2584C199.505 54.2584 198.386 54.0499 197.343 53.6327C196.319 53.2155 195.428 52.6371 194.669 51.8976C193.911 51.158 193.313 50.2952 192.877 49.3091C192.441 48.3041 192.223 47.2232 192.223 46.0664C192.223 44.9287 192.441 43.8667 192.877 42.8807C193.313 41.8946 193.901 41.0413 194.641 40.3207C195.399 39.5811 196.281 39.0027 197.286 38.5856C198.31 38.1684 199.401 37.9598 200.557 37.9598C202.321 37.9598 203.895 38.4149 205.279 39.3251C206.663 40.2353 207.668 41.4774 208.294 43.0513H205.933C205.327 42.0273 204.559 41.2499 203.629 40.7189C202.719 40.169 201.686 39.894 200.529 39.894C199.657 39.894 198.841 40.0552 198.083 40.3776C197.343 40.6999 196.698 41.1456 196.148 41.7144C195.599 42.2644 195.162 42.9186 194.84 43.6771C194.518 44.4356 194.356 45.251 194.356 46.1233C194.356 46.9956 194.518 47.811 194.84 48.5696C195.162 49.3091 195.608 49.9633 196.177 50.5322C196.746 51.0822 197.409 51.5183 198.168 51.8407C198.927 52.163 199.742 52.3242 200.614 52.3242C201.733 52.3242 202.691 52.0967 203.487 51.6416C204.303 51.1864 205.118 50.409 205.933 49.3091ZM208.282 53.8887L214.966 38.3296H217.327L224.012 53.8887H221.793L216.161 40.7189L210.5 53.8887H208.282ZM228.064 51.9829H231.819C233.07 51.9829 234.009 51.7553 234.635 51.3002C235.261 50.8451 235.574 50.153 235.574 49.2238C235.574 48.2946 235.261 47.6024 234.635 47.1473C234.009 46.6922 233.07 46.4647 231.819 46.4647H228.064V51.9829ZM225.959 53.8887V38.3296H228.064V44.5589H232.359C233.156 44.5589 233.876 44.6727 234.521 44.9002C235.185 45.1278 235.754 45.4502 236.228 45.8673C236.702 46.2656 237.062 46.7586 237.309 47.3464C237.574 47.9153 237.707 48.5411 237.707 49.2238C237.707 49.9064 237.574 50.5417 237.309 51.1296C237.062 51.6984 236.702 52.1915 236.228 52.6087C235.754 53.0069 235.185 53.3198 234.521 53.5473C233.876 53.7749 233.156 53.8887 232.359 53.8887H225.959ZM239.584 53.8887V38.3296H241.689V53.8887H239.584ZM245.265 53.8887V38.3296H247.37V51.9829H253.827V38.3296H255.932V51.9829H262.388V38.3296H264.493V53.8887H245.265ZM268.07 53.8887V38.3296H270.175V50.902L279.647 38.3296H281.752V53.8887H279.647V41.3162L270.175 53.8887H268.07ZM285.348 53.8887V38.3296H288.619L294.052 50.9589L299.485 38.3296H302.756V53.8887H300.651V40.6336L294.962 53.8887H293.142L287.453 40.6336V53.8887H285.348Z" fill="black"/>
<path d="M358.667 44.8892C358.667 57.1622 348.718 67.1114 336.445 67.1114C324.172 67.1114 314.223 57.1622 314.223 44.8892C314.223 32.6162 324.172 22.667 336.445 22.667C348.718 22.667 358.667 32.6162 358.667 44.8892Z" fill="white"/>
<path d="M327.745 51.4138C327.224 51.9345 327.224 52.7787 327.745 53.2994C328.265 53.8201 329.11 53.8201 329.63 53.2994L327.745 51.4138ZM345.247 37.1309C345.247 36.3945 344.65 35.7975 343.913 35.7975H331.913C331.177 35.7975 330.58 36.3945 330.58 37.1309C330.58 37.8672 331.177 38.4642 331.913 38.4642H342.58V49.1309C342.58 49.8672 343.177 50.4642 343.913 50.4642C344.65 50.4642 345.247 49.8672 345.247 49.1309V37.1309ZM329.63 53.2994L344.856 38.0737L342.97 36.1881L327.745 51.4138L329.63 53.2994Z" fill="black"/>
</svg>
