<svg width="268" height="99" viewBox="0 0 268 99" fill="none" xmlns="http://www.w3.org/2000/svg">
<rect y="26.3594" width="261.25" height="72.625" rx="36.3125" transform="rotate(-5.79085 0 26.3594)" fill="#32E97B"/>
<path d="M54.5776 62.1848L57.7768 61.8604C56.7872 64.2438 55.5226 66.065 53.9829 67.3242C52.4407 68.558 50.527 69.2907 48.2418 69.5225C46.6422 69.6847 45.1159 69.5573 43.6627 69.1404C42.235 68.7208 40.9631 68.0674 39.847 67.1802C38.731 66.293 37.814 65.2188 37.0961 63.9577C36.3757 62.6712 35.9369 61.2536 35.7798 59.7048C35.6253 58.1813 35.7731 56.7298 36.2232 55.3503C36.6733 53.9708 37.3445 52.7484 38.2369 51.6831C39.1521 50.5899 40.2543 49.6957 41.5433 49.0006C42.8577 48.303 44.2894 47.8756 45.8382 47.7186C48.1995 47.4791 50.3688 47.8748 52.3459 48.9055C54.323 49.9363 55.8373 51.4629 56.889 53.4854L53.7278 53.8059C52.7763 52.5172 51.6424 51.5805 50.3261 50.9958C49.0327 50.383 47.6116 50.1552 46.0628 50.3123C44.8948 50.4307 43.8249 50.7573 42.853 51.2919C41.9066 51.824 41.1038 52.5082 40.4447 53.3446C39.7831 54.1556 39.2879 55.0908 38.9593 56.1502C38.6307 57.2096 38.5256 58.3233 38.644 59.4912C38.7625 60.6592 39.089 61.7291 39.6236 62.701C40.1557 63.6474 40.8412 64.4629 41.6802 65.1474C42.5166 65.8064 43.4645 66.3003 44.5239 66.6289C45.5833 66.9576 46.697 67.0627 47.8649 66.9442C49.363 66.7923 50.6143 66.3576 51.6189 65.6401C52.6489 64.92 53.6351 63.7682 54.5776 62.1848ZM58.3439 67.9978L65.1813 46.2571L68.3424 45.9365L79.4054 65.8618L76.4347 66.1631L67.1054 49.2941L61.3146 67.6965L58.3439 67.9978ZM83.6348 72.8206L86.2133 64.4788L76.0959 45.1502L79.1808 44.8373L87.4537 60.7746L92.8156 43.4546L95.8244 43.1494L86.6436 72.5155L83.6348 72.8206ZM100.684 63.7038L98.5716 42.8708L101.39 42.585L103.244 60.8662L111.889 59.9895L110.035 41.7082L112.854 41.4224L114.708 59.7036L123.353 58.8268L121.499 40.5456L124.318 40.2598L126.43 61.0928L100.684 63.7038ZM129.37 50.3288C129.21 48.7546 129.343 47.279 129.767 45.902C130.189 44.4997 130.834 43.2672 131.701 42.2045C132.591 41.1138 133.68 40.2209 134.969 39.5259C136.258 38.8308 137.677 38.4047 139.226 38.2477C141.054 38.0623 142.649 38.234 144.011 38.7628C145.398 39.2891 146.687 40.2357 147.877 41.6028L147.503 37.9085L150.321 37.6227L152.434 58.4556L149.616 58.7415L149.245 55.0852C148.279 56.6966 147.22 57.8814 146.065 58.6398C144.911 59.3981 143.445 59.8675 141.668 60.0477C140.068 60.2099 138.556 60.094 137.131 59.6998C135.703 59.2803 134.432 58.6396 133.319 57.7777C132.231 56.9133 131.34 55.8493 130.648 54.5856C129.953 53.2966 129.527 51.8776 129.37 50.3288ZM132.215 49.9248C132.333 51.0928 132.66 52.1627 133.194 53.1346C133.729 54.1064 134.403 54.9359 135.216 55.6229C136.055 56.3074 136.992 56.8152 138.026 57.1464C139.085 57.4751 140.199 57.5802 141.367 57.4617C142.51 57.3459 143.541 57.0232 144.462 56.4937C145.409 55.9616 146.2 55.2914 146.837 54.4829C147.496 53.6466 147.977 52.6999 148.28 51.6431C148.583 50.5863 148.674 49.4612 148.553 48.2678C148.432 47.0745 148.106 46.0046 147.574 45.0581C147.064 44.0837 146.404 43.2657 145.593 42.604C144.782 41.9424 143.848 41.4599 142.792 41.1567C141.758 40.8254 140.644 40.7203 139.451 40.8414C138.333 40.9547 137.302 41.2773 136.355 41.8094C135.434 42.3389 134.644 43.0218 133.985 43.8582C133.323 44.6692 132.828 45.6044 132.499 46.6638C132.194 47.6953 132.099 48.7823 132.215 49.9248ZM160.76 57.6112L158.906 39.33L153.422 39.8862L153.163 37.3345L166.874 35.944L167.133 38.4957L161.725 39.0442L163.578 57.3254L160.76 57.6112ZM188.545 47.8675L191.478 47.5701C191.208 48.7005 190.776 49.7575 190.183 50.7411C189.588 51.6993 188.879 52.5535 188.058 53.3038C187.259 54.0261 186.344 54.6191 185.314 55.0827C184.309 55.5437 183.235 55.8322 182.092 55.948C180.544 56.1051 179.068 55.9726 177.666 55.5505C176.286 55.1004 175.051 54.4304 173.96 53.5406C172.87 52.6508 171.965 51.5754 171.247 50.3143C170.552 49.0252 170.126 47.6063 169.969 46.0575C169.815 44.534 169.951 43.0965 170.378 41.745C170.803 40.368 171.449 39.1482 172.316 38.0855C173.18 36.9974 174.244 36.1071 175.508 35.4146C176.772 34.7221 178.153 34.2999 179.651 34.148C181.149 33.9961 182.587 34.1452 183.967 34.5952C185.369 35.0174 186.615 35.6606 187.703 36.5251C188.816 37.3869 189.731 38.4357 190.446 39.6714C191.161 40.9071 191.592 42.2485 191.739 43.6958C191.76 43.8989 191.767 44.1033 191.763 44.309C191.755 44.4893 191.737 44.6836 191.706 44.8919L172.892 46.8C173.048 47.8358 173.4 48.7749 173.947 49.6173C174.494 50.4596 175.158 51.1875 175.939 51.8009C176.742 52.3864 177.645 52.8206 178.649 53.1036C179.652 53.3867 180.687 53.4741 181.754 53.3659C183.353 53.2037 184.769 52.624 186.002 51.6268C187.258 50.6017 188.105 49.3486 188.545 47.8675ZM172.709 44.2405L188.667 42.6221C187.974 40.589 186.843 39.0492 185.274 38.0026C183.732 36.9534 181.945 36.5318 179.913 36.7378C178.923 36.8383 178 37.0986 177.145 37.5188C176.313 37.911 175.585 38.4466 174.961 39.1255C174.335 39.779 173.823 40.5492 173.425 41.436C173.051 42.2948 172.812 43.2297 172.709 44.2405ZM192.649 54.3773L199.486 32.6366L202.647 32.316L213.71 52.2413L210.74 52.5426L201.41 35.6736L195.619 54.076L192.649 54.3773ZM218.878 49.1392L224.286 48.5908C225.962 48.4208 227.188 47.9887 227.964 47.2943C228.74 46.6 229.065 45.6307 228.939 44.3866C228.813 43.1425 228.3 42.2582 227.4 41.7338C226.5 41.2094 225.212 41.0322 223.537 41.2021L218.128 41.7506L218.878 49.1392ZM216.318 51.9768L214.205 31.1438L217.024 30.858L217.87 39.1988L224.002 38.577C225.068 38.4688 226.048 38.5233 226.942 38.7404C227.862 38.955 228.667 39.3094 229.359 39.8036C230.048 40.2724 230.597 40.8837 231.007 41.6373C231.44 42.363 231.702 43.1828 231.795 44.0969C231.888 45.011 231.796 45.8796 231.521 46.7027C231.268 47.4979 230.852 48.207 230.274 48.83C229.694 49.4276 228.974 49.9238 228.117 50.3186C227.284 50.7108 226.335 50.961 225.268 51.0691L216.318 51.9768Z" fill="black"/>
</svg>
