<svg width="232" height="66" viewBox="0 0 232 66" fill="none" xmlns="http://www.w3.org/2000/svg">
<rect x="0.371094" y="0.777344" width="231.444" height="65.2222" rx="32.6111" fill="#32E97B"/>
<path d="M45.4243 37.9102H48.2826C47.1938 39.9292 45.912 41.4264 44.4375 42.4019C42.963 43.3546 41.2049 43.831 39.1632 43.831C37.734 43.831 36.3956 43.5815 35.1479 43.0824C33.9229 42.5833 32.8567 41.8914 31.9493 41.0067C31.0419 40.122 30.3273 39.0898 29.8056 37.9102C29.2838 36.7079 29.0229 35.4148 29.0229 34.031C29.0229 32.6699 29.2838 31.3996 29.8056 30.2199C30.3273 29.0403 31.0306 28.0195 31.9153 27.1574C32.8227 26.2727 33.8775 25.5808 35.0799 25.0817C36.3049 24.5827 37.6093 24.3331 38.9931 24.3331C41.1028 24.3331 42.9856 24.8776 44.6417 25.9664C46.2977 27.0553 47.5 28.5412 48.2486 30.4241H45.4243C44.6984 29.1991 43.7796 28.269 42.6681 27.6338C41.5792 26.9759 40.3428 26.647 38.959 26.647C37.9155 26.647 36.94 26.8398 36.0326 27.2255C35.1479 27.6111 34.3766 28.1442 33.7188 28.8248C33.0609 29.4827 32.5391 30.2653 32.1535 31.1727C31.7678 32.0801 31.575 33.0556 31.575 34.0991C31.575 35.1426 31.7678 36.1181 32.1535 37.0255C32.5391 37.9102 33.0722 38.6928 33.7528 39.3734C34.4333 40.0313 35.2273 40.553 36.1347 40.9387C37.0421 41.3243 38.0176 41.5171 39.0611 41.5171C40.3995 41.5171 41.5451 41.2449 42.4979 40.7005C43.4734 40.156 44.4488 39.2259 45.4243 37.9102ZM48.2337 43.3887L56.2303 24.7755H59.0546L67.0511 43.3887H64.3969L57.6594 27.6338L50.8879 43.3887H48.2337ZM70.1673 49.922L73.1958 42.7762L65.9819 24.7755H68.7381L74.6249 39.6116L80.9201 24.7755H83.6083L72.8555 49.922H70.1673ZM86.0628 43.3887V24.7755H88.5808V41.1088H96.3051V24.7755H98.8232V41.1088H106.548V24.7755H109.066V43.3887H86.0628ZM112.63 34.1331C112.63 32.7266 112.88 31.4336 113.379 30.2539C113.878 29.0516 114.558 28.0195 115.421 27.1574C116.305 26.2727 117.349 25.5808 118.551 25.0817C119.753 24.5827 121.046 24.3331 122.43 24.3331C124.064 24.3331 125.459 24.628 126.616 25.2178C127.795 25.8077 128.85 26.7604 129.78 28.0762V24.7755H132.298V43.3887H129.78V40.122C128.782 41.4604 127.739 42.4132 126.65 42.9803C125.561 43.5475 124.222 43.831 122.634 43.831C121.205 43.831 119.878 43.5928 118.653 43.1164C117.428 42.6174 116.362 41.9368 115.455 41.0748C114.57 40.2127 113.878 39.1919 113.379 38.0123C112.88 36.81 112.63 35.5169 112.63 34.1331ZM115.182 34.031C115.182 35.0746 115.375 36.05 115.761 36.9574C116.146 37.8648 116.668 38.6588 117.326 39.3394C118.007 40.0199 118.789 40.553 119.674 40.9387C120.581 41.3243 121.557 41.5171 122.6 41.5171C123.621 41.5171 124.563 41.3243 125.425 40.9387C126.309 40.553 127.069 40.0313 127.705 39.3734C128.362 38.6928 128.873 37.8989 129.236 36.9914C129.599 36.084 129.78 35.0972 129.78 34.031C129.78 32.9648 129.587 31.9894 129.202 31.1046C128.839 30.1972 128.328 29.4146 127.671 28.7567C127.013 28.0989 126.23 27.5884 125.323 27.2255C124.438 26.8398 123.462 26.647 122.396 26.647C121.398 26.647 120.457 26.8398 119.572 27.2255C118.71 27.6111 117.95 28.1442 117.292 28.8248C116.634 29.4827 116.112 30.2653 115.727 31.1727C115.364 32.0574 115.182 33.0102 115.182 34.031ZM139.737 43.3887V27.0553H134.837V24.7755H147.087V27.0553H142.255V43.3887H139.737ZM165.183 37.2637H167.803C167.463 38.2391 166.986 39.1352 166.374 39.9519C165.761 40.7458 165.058 41.4377 164.264 42.0276C163.493 42.5947 162.631 43.0371 161.678 43.3546C160.748 43.6722 159.773 43.831 158.752 43.831C157.368 43.831 156.075 43.5815 154.873 43.0824C153.693 42.5607 152.661 41.8574 151.776 40.9727C150.891 40.088 150.188 39.0558 149.666 37.8762C149.167 36.6739 148.918 35.3808 148.918 33.997C148.918 32.6359 149.167 31.3769 149.666 30.2199C150.165 29.0403 150.846 28.0195 151.708 27.1574C152.57 26.2727 153.591 25.5808 154.77 25.0817C155.95 24.5827 157.209 24.3331 158.548 24.3331C159.886 24.3331 161.145 24.594 162.325 25.1158C163.527 25.6148 164.57 26.2954 165.455 27.1574C166.363 28.0195 167.077 29.0289 167.599 30.1859C168.121 31.3428 168.382 32.5678 168.382 33.8609C168.382 34.0424 168.37 34.2239 168.348 34.4053C168.325 34.5641 168.291 34.7343 168.245 34.9158H151.436C151.481 35.8458 151.708 36.7079 152.116 37.5019C152.525 38.2958 153.046 38.9991 153.682 39.6116C154.339 40.2014 155.099 40.6664 155.961 41.0067C156.823 41.347 157.731 41.5171 158.684 41.5171C160.113 41.5171 161.417 41.1315 162.597 40.3602C163.799 39.5662 164.661 38.534 165.183 37.2637ZM151.504 32.6359H165.761C165.33 30.7757 164.468 29.3125 163.175 28.2463C161.905 27.1801 160.362 26.647 158.548 26.647C157.663 26.647 156.823 26.7945 156.029 27.0894C155.258 27.3616 154.566 27.7699 153.954 28.3144C153.341 28.8361 152.82 29.4713 152.389 30.2199C151.98 30.9458 151.685 31.7512 151.504 32.6359ZM168.228 43.3887L176.225 24.7755H179.049L187.046 43.3887H184.391L177.654 27.6338L170.882 43.3887H168.228ZM191.894 41.1088H196.726C198.223 41.1088 199.346 40.8366 200.094 40.2921C200.843 39.7477 201.217 38.9197 201.217 37.8081C201.217 36.6965 200.843 35.8685 200.094 35.3241C199.346 34.7796 198.223 34.5074 196.726 34.5074H191.894V41.1088ZM189.376 43.3887V24.7755H191.894V32.2276H197.372C198.325 32.2276 199.187 32.3637 199.958 32.6359C200.752 32.9081 201.433 33.2938 202 33.7928C202.567 34.2692 202.998 34.859 203.293 35.5623C203.611 36.2428 203.769 36.9914 203.769 37.8081C203.769 38.6248 203.611 39.3847 203.293 40.088C202.998 40.7685 202.567 41.3583 202 41.8574C201.433 42.3338 200.752 42.7081 199.958 42.9803C199.187 43.2526 198.325 43.3887 197.372 43.3887H189.376Z" fill="black"/>
</svg>
