<svg width="266" height="115" viewBox="0 0 266 115" fill="none" xmlns="http://www.w3.org/2000/svg">
<rect x="9.77441" y="0.888672" width="257.467" height="87.7336" rx="43.8668" transform="rotate(5.86057 9.77441 0.888672)" fill="#32E97B"/>
<path d="M65.1478 56.8091L68.9847 57.2029C67.2448 59.7631 65.318 61.5962 63.2043 62.7025C61.0937 63.7783 58.6681 64.1755 55.9275 63.8942C54.009 63.6973 52.2468 63.1779 50.6407 62.3361C49.0651 61.4974 47.7292 60.4217 46.6331 59.1091C45.5369 57.7964 44.7199 56.3124 44.1821 54.6571C43.6474 52.9713 43.4753 51.1996 43.666 49.3421C43.8535 47.515 44.3788 45.8456 45.2417 44.3341C46.1046 42.8225 47.1892 41.5491 48.4956 40.5138C49.8356 39.4512 51.3469 38.6678 53.0296 38.1636C54.7427 37.6624 56.528 37.5072 58.3856 37.6978C61.2175 37.9885 63.67 38.9788 65.7429 40.6686C67.8158 42.3585 69.225 44.5187 69.9705 47.1493L66.1793 46.7601C65.3736 45.0158 64.2685 43.6407 62.8639 42.6349C61.4929 41.6017 59.8786 40.9898 58.0211 40.7992C56.6203 40.6554 55.2843 40.7798 54.0132 41.1725C52.7724 41.5683 51.6636 42.1776 50.6868 43.0005C49.713 43.7929 48.9048 44.7716 48.2621 45.9365C47.6194 47.1014 47.2262 48.3843 47.0824 49.785C46.9386 51.1858 47.063 52.5218 47.4557 53.793C47.8515 55.0337 48.4592 56.1577 49.279 57.165C50.1019 58.1419 51.0958 58.9517 52.2607 59.5944C53.4256 60.2371 54.7085 60.6303 56.1092 60.7741C57.9059 60.9585 59.4812 60.7509 60.8351 60.1514C62.2196 59.555 63.6571 58.4409 65.1478 56.8091ZM68.1642 64.5502L81.4629 40.6667L85.2541 41.0558L93.4236 67.1429L89.8608 66.7772L82.9875 44.7004L71.727 64.9159L68.1642 64.5502ZM100.246 64.7506L106.275 65.3694C108.285 65.5757 109.83 65.365 110.91 64.7373C111.989 64.1097 112.606 63.0498 112.759 61.5576C112.912 60.0655 112.524 58.9025 111.594 58.0685C110.664 57.2345 109.194 56.7144 107.185 56.5081L101.155 55.8892L100.246 64.7506ZM96.5514 67.464L99.116 42.4786L102.496 42.8256L101.469 52.8289L108.367 53.5368C109.645 53.6681 110.784 53.9696 111.782 54.4413C112.81 54.9161 113.67 55.5275 114.363 56.2756C115.059 56.9932 115.556 57.8443 115.855 58.829C116.187 59.7863 116.297 60.813 116.185 61.9093C116.072 63.0055 115.754 64.0038 115.231 64.904C114.742 65.7769 114.082 66.5093 113.252 67.101C112.425 67.6624 111.46 68.0711 110.356 68.3271C109.284 68.5862 108.108 68.6502 106.829 68.5189L96.5514 67.464ZM118.431 69.7098L120.995 44.7244L124.375 45.0714L121.811 70.0567L118.431 69.7098ZM127.553 70.6461L130.117 45.6608L133.498 46.0077L131.247 67.9327L141.616 68.997L143.866 47.072L147.246 47.419L144.996 69.3439L155.365 70.4082L157.615 48.4832L160.995 48.8302L158.431 73.8155L127.553 70.6461ZM164.175 74.4051L166.739 49.4198L170.119 49.7668L168.047 69.956L185.33 51.328L188.71 51.675L186.145 76.6603L182.765 76.3133L184.838 56.1241L167.555 74.7521L164.175 74.4051ZM191.92 77.253L194.485 52.2677L199.737 52.8069L206.38 73.983L217.186 54.5979L222.439 55.1371L219.874 80.1224L216.494 79.7754L218.679 58.4899L207.359 78.8377L204.435 78.5377L197.485 56.3145L195.3 77.6L191.92 77.253Z" fill="black"/>
</svg>
