<svg width="262" height="73" viewBox="0 0 262 73" fill="none" xmlns="http://www.w3.org/2000/svg">
<rect width="261.25" height="72.625" rx="36.3125" fill="#32E97B"/>
<path d="M50.6844 41.1492H53.9C52.675 43.4206 51.2331 45.1049 49.5742 46.2023C47.9154 47.2742 45.9375 47.8102 43.6406 47.8102C42.0328 47.8102 40.5271 47.5294 39.1234 46.968C37.7453 46.4065 36.5458 45.6281 35.525 44.6328C34.5042 43.6375 33.7003 42.4763 33.1133 41.1492C32.5263 39.7966 32.2328 38.3419 32.2328 36.7852C32.2328 35.2539 32.5263 33.8247 33.1133 32.4977C33.7003 31.1706 34.4914 30.0221 35.4867 29.0523C36.5076 28.057 37.6943 27.2786 39.0469 26.7172C40.425 26.1557 41.8924 25.875 43.4492 25.875C45.8227 25.875 47.9409 26.4875 49.8039 27.7125C51.6669 28.9375 53.0195 30.6091 53.8617 32.7273H50.6844C49.8677 31.3492 48.8341 30.3029 47.5836 29.5883C46.3586 28.8482 44.9677 28.4781 43.4109 28.4781C42.237 28.4781 41.1396 28.6951 40.1188 29.1289C39.1234 29.5628 38.2557 30.1625 37.5156 30.9281C36.7755 31.6682 36.1885 32.5487 35.7547 33.5695C35.3208 34.5904 35.1039 35.6878 35.1039 36.8617C35.1039 38.0357 35.3208 39.1331 35.7547 40.1539C36.1885 41.1492 36.7883 42.0297 37.5539 42.7953C38.3195 43.5354 39.2128 44.1224 40.2336 44.5562C41.2544 44.9901 42.3518 45.207 43.5258 45.207C45.0315 45.207 46.3203 44.9008 47.3922 44.2883C48.4896 43.6758 49.587 42.6294 50.6844 41.1492ZM53.845 47.3125L62.8411 26.3727H66.0184L75.0145 47.3125H72.0286L64.4489 29.5883L56.8309 47.3125H53.845ZM78.5202 54.6625L81.9273 46.6234L73.8116 26.3727H76.9124L83.5351 43.0633L90.6171 26.3727H93.6413L81.5444 54.6625H78.5202ZM96.4027 47.3125V26.3727H99.2355V44.7477H107.925V26.3727H110.758V44.7477H119.448V26.3727H122.281V47.3125H96.4027ZM126.291 36.9C126.291 35.3177 126.572 33.863 127.133 32.5359C127.695 31.1833 128.46 30.0221 129.43 29.0523C130.425 28.057 131.599 27.2786 132.952 26.7172C134.305 26.1557 135.759 25.875 137.316 25.875C139.154 25.875 140.723 26.2068 142.025 26.8703C143.352 27.5339 144.538 28.6057 145.585 30.0859V26.3727H148.418V47.3125H145.585V43.6375C144.462 45.1432 143.288 46.2151 142.063 46.8531C140.838 47.4911 139.332 47.8102 137.546 47.8102C135.938 47.8102 134.445 47.5422 133.067 47.0062C131.689 46.4448 130.489 45.6792 129.468 44.7094C128.473 43.7396 127.695 42.5911 127.133 41.2641C126.572 39.9115 126.291 38.4568 126.291 36.9ZM129.162 36.7852C129.162 37.9591 129.379 39.0565 129.813 40.0773C130.247 41.0982 130.834 41.9914 131.574 42.757C132.339 43.5227 133.22 44.1224 134.215 44.5562C135.236 44.9901 136.333 45.207 137.507 45.207C138.656 45.207 139.715 44.9901 140.685 44.5562C141.68 44.1224 142.535 43.5354 143.25 42.7953C143.99 42.0297 144.564 41.1365 144.972 40.1156C145.381 39.0948 145.585 37.9846 145.585 36.7852C145.585 35.5857 145.368 34.4883 144.934 33.493C144.526 32.4721 143.951 31.5917 143.211 30.8516C142.471 30.1115 141.591 29.5372 140.57 29.1289C139.575 28.6951 138.477 28.4781 137.278 28.4781C136.155 28.4781 135.096 28.6951 134.1 29.1289C133.131 29.5628 132.276 30.1625 131.536 30.9281C130.795 31.6682 130.208 32.5487 129.775 33.5695C129.366 34.5648 129.162 35.6367 129.162 36.7852ZM156.787 47.3125V28.9375H151.274V26.3727H165.055V28.9375H159.619V47.3125H156.787ZM185.413 40.4219H188.36C187.978 41.5193 187.442 42.5273 186.753 43.4461C186.064 44.3393 185.272 45.1177 184.379 45.7812C183.512 46.4193 182.542 46.9169 181.47 47.2742C180.424 47.6315 179.326 47.8102 178.178 47.8102C176.621 47.8102 175.166 47.5294 173.814 46.968C172.487 46.381 171.325 45.5898 170.33 44.5945C169.335 43.5992 168.544 42.438 167.957 41.1109C167.395 39.7583 167.114 38.3036 167.114 36.7469C167.114 35.2156 167.395 33.7992 167.957 32.4977C168.518 31.1706 169.284 30.0221 170.253 29.0523C171.223 28.057 172.372 27.2786 173.699 26.7172C175.026 26.1557 176.442 25.875 177.948 25.875C179.454 25.875 180.87 26.1685 182.197 26.7555C183.55 27.3169 184.724 28.0826 185.719 29.0523C186.74 30.0221 187.544 31.1578 188.131 32.4594C188.718 33.7609 189.011 35.1391 189.011 36.5937C189.011 36.7979 188.999 37.0021 188.973 37.2063C188.947 37.3849 188.909 37.5763 188.858 37.7805H169.947C169.998 38.8268 170.253 39.7966 170.713 40.6898C171.172 41.5831 171.759 42.3742 172.474 43.0633C173.214 43.7268 174.069 44.25 175.039 44.6328C176.008 45.0156 177.029 45.207 178.101 45.207C179.709 45.207 181.176 44.7732 182.503 43.9055C183.856 43.0122 184.826 41.851 185.413 40.4219ZM170.024 35.2156H186.064C185.579 33.1229 184.609 31.4768 183.154 30.2773C181.725 29.0779 179.99 28.4781 177.948 28.4781C176.953 28.4781 176.008 28.644 175.115 28.9758C174.247 29.282 173.469 29.7414 172.78 30.3539C172.091 30.9409 171.504 31.6555 171.019 32.4977C170.56 33.3143 170.228 34.2203 170.024 35.2156ZM188.839 47.3125L197.835 26.3727H201.012L210.008 47.3125H207.022L199.443 29.5883L191.825 47.3125H188.839ZM215.462 44.7477H220.898C222.583 44.7477 223.846 44.4414 224.688 43.8289C225.53 43.2164 225.951 42.2849 225.951 41.0344C225.951 39.7839 225.53 38.8523 224.688 38.2398C223.846 37.6273 222.583 37.3211 220.898 37.3211H215.462V44.7477ZM212.63 47.3125V26.3727H215.462V34.7562H221.626C222.698 34.7562 223.667 34.9094 224.535 35.2156C225.428 35.5219 226.194 35.9557 226.832 36.5172C227.47 37.0531 227.955 37.7167 228.287 38.5078C228.644 39.2734 228.823 40.1156 228.823 41.0344C228.823 41.9531 228.644 42.8081 228.287 43.5992C227.955 44.3648 227.47 45.0284 226.832 45.5898C226.194 46.1258 225.428 46.5469 224.535 46.8531C223.667 47.1594 222.698 47.3125 221.626 47.3125H212.63Z" fill="black"/>
</svg>
