<svg width="269" height="127" viewBox="0 0 269 127" fill="none" xmlns="http://www.w3.org/2000/svg">
<rect x="14.1592" y="0.326172" width="257.467" height="87.7336" rx="43.8668" transform="rotate(8.78835 14.1592 0.326172)" fill="#E1B4F9"/>
<path d="M66.6042 59.0022L70.4159 59.5915C68.5476 62.0594 66.5297 63.7918 64.3622 64.7886C62.1994 65.7552 59.7566 66.028 57.034 65.6071C55.1281 65.3125 53.3947 64.7038 51.8337 63.781C50.303 62.8629 49.0238 61.7204 47.9961 60.3535C46.9684 58.9866 46.2283 57.4628 45.7757 55.7821C45.3278 54.0712 45.2465 52.2931 45.5318 50.4477C45.8124 48.6326 46.4222 46.9922 47.3612 45.5267C48.3002 44.0612 49.4485 42.8448 50.806 41.8777C52.1985 40.8849 53.7479 40.1797 55.4541 39.762C57.1906 39.3491 58.9815 39.2852 60.8269 39.5705C63.6403 40.0055 66.039 41.1197 68.0229 42.9132C70.0068 44.7067 71.3038 46.9361 71.9139 49.6013L68.1476 49.0191C67.4321 47.2358 66.3986 45.806 65.0472 44.7298C63.7308 43.628 62.1498 42.9345 60.3045 42.6492C58.9129 42.434 57.5723 42.4901 56.2827 42.8173C55.0234 43.1492 53.8849 43.7011 52.8673 44.473C51.8544 45.2147 50.9972 46.1508 50.2958 47.2814C49.5945 48.4119 49.1362 49.673 48.9211 51.0646C48.7059 52.4562 48.762 53.7968 49.0892 55.0864C49.4211 56.3457 49.9706 57.4993 50.7379 58.5472C51.5098 59.5648 52.4611 60.4243 53.5916 61.1256C54.7222 61.827 55.9833 62.2852 57.3749 62.5004C59.1597 62.7763 60.7436 62.6495 62.1264 62.1199C63.5395 61.5949 65.0321 60.5557 66.6042 59.0022ZM69.2212 66.8873L83.7224 43.7142L87.4888 44.2964L94.3152 70.7668L90.7757 70.2196L85.039 47.8206L72.7607 67.4345L69.2212 66.8873ZM101.251 68.726L107.24 69.652C109.237 69.9607 110.791 69.8292 111.901 69.2575C113.012 68.6858 113.682 67.6588 113.911 66.1764C114.14 64.6941 113.811 63.5127 112.925 62.6323C112.039 61.7519 110.598 61.1574 108.601 60.8487L102.611 59.9227L101.251 68.726ZM97.4225 71.2472L101.26 46.4255L104.618 46.9446L103.082 56.8824L109.934 57.9417C111.204 58.1381 112.326 58.4974 113.298 59.0194C114.301 59.5461 115.129 60.2007 115.782 60.9832C116.44 61.7354 116.894 62.6108 117.142 63.6094C117.425 64.5824 117.482 65.6135 117.314 66.7026C117.146 67.7916 116.777 68.7723 116.209 69.6447C115.675 70.4914 114.979 71.1891 114.12 71.7377C113.265 72.2561 112.28 72.615 111.165 72.8143C110.081 73.0183 108.903 73.0221 107.633 72.8256L97.4225 71.2472ZM119.159 74.6076L122.996 49.7858L126.354 50.305L122.516 75.1267L119.159 74.6076ZM128.221 76.0086L132.058 51.1869L135.416 51.706L132.049 73.4874L142.35 75.0799L145.717 53.2985L149.075 53.8177L145.708 75.5991L156.009 77.1916L159.376 55.4102L162.734 55.9293L158.896 80.751L128.221 76.0086ZM164.603 81.6333L168.441 56.8116L171.798 57.3307L168.698 77.3878L186.909 59.6668L190.267 60.186L186.43 85.0077L183.072 84.4886L186.173 64.4315L167.961 82.1524L164.603 81.6333ZM192.167 85.8946L196.004 61.0729L201.223 61.8797L206.775 83.3674L218.557 64.5596L223.775 65.3663L219.938 90.1881L216.58 89.6689L219.849 68.5228L207.504 88.2658L204.6 87.8168L198.794 65.2676L195.525 86.4138L192.167 85.8946Z" fill="black"/>
</svg>
