<svg width="228" height="108" viewBox="0 0 228 108" fill="none" xmlns="http://www.w3.org/2000/svg">
<rect y="33.5596" width="218.361" height="75" rx="37.5" transform="rotate(-8.84084 0 33.5596)" fill="#F8EB66"/>
<path d="M50.2887 78.3625L46.1188 51.5533L49.7457 50.9892L50.2259 54.0769C51.0907 52.5369 52.0354 51.4028 53.0599 50.6745C54.1171 49.9412 55.4953 49.4424 57.1943 49.1781C59.2528 48.8579 61.0317 48.9995 62.5311 49.603C64.0254 50.1737 65.4376 51.2926 66.7678 52.9598C67.5992 50.9899 68.6865 49.4822 70.0298 48.4366C71.4058 47.386 73.1393 46.698 75.2305 46.3728C78.5959 45.8493 81.3511 46.4582 83.4959 48.1994C85.6684 49.9029 87.0392 52.5843 87.6084 56.2439L90.0859 72.1726L86.4591 72.7367L84.0425 57.2001C83.6055 54.3901 82.6707 52.3603 81.2381 51.1106C79.8005 49.8283 77.9217 49.3676 75.6018 49.7284C73.2166 50.0994 71.5012 51.1192 70.4556 52.7877C69.4427 54.4512 69.1522 56.6716 69.5842 59.4489L72.0007 74.9855L68.3739 75.5496L65.9421 59.915C65.5203 57.203 64.5579 55.211 63.0549 53.9388C61.5846 52.6616 59.6895 52.2034 57.3696 52.5642C55.0824 52.92 53.4186 53.9485 52.378 55.6497C51.3651 57.3131 51.067 59.4845 51.4837 62.1638L53.9155 77.7984L50.2887 78.3625ZM116.281 68.0982L115.633 63.9322C114.978 65.7409 114.025 67.144 112.774 68.1417C111.519 69.1066 109.846 69.7517 107.754 70.077C103.997 70.6614 100.984 70.009 98.7157 68.1196C96.4801 66.2252 95.0294 63.1379 94.3637 58.8575L92.1148 44.3992L95.7417 43.8351L97.9905 58.2934C98.4936 61.5282 99.5232 63.8444 101.079 65.2422C102.668 66.6349 104.802 67.1228 107.481 66.7061C110.193 66.2843 112.131 65.0794 113.294 63.0913C114.452 61.0706 114.772 58.3939 114.254 55.0611L112.111 41.2889L115.738 40.7248L119.908 67.534L116.281 68.0982ZM122.67 59.0227L126.248 58.4662C126.605 60.1174 127.28 61.3343 128.272 62.117C129.291 62.862 130.569 63.1151 132.104 62.8762C133.411 62.673 134.423 62.0805 135.141 61.0988C135.853 60.0845 136.103 58.8911 135.889 57.5188C135.793 56.898 135.627 56.3716 135.393 55.9396C135.186 55.4698 134.858 55.0857 134.41 54.7872C133.957 54.4561 133.36 54.1642 132.617 53.9115C131.908 53.6538 131 53.4102 129.894 53.1807C128.51 52.8939 127.34 52.574 126.381 52.2211C125.418 51.8355 124.615 51.4082 123.973 50.9391C123.359 50.4323 122.868 49.8562 122.499 49.2107C122.159 48.5274 121.92 47.7447 121.783 46.8625C121.61 45.7515 121.632 44.7107 121.849 43.7399C122.061 42.7364 122.443 41.8572 122.995 41.102C123.575 40.3091 124.294 39.6618 125.153 39.1601C126.044 38.6533 127.062 38.311 128.206 38.1331C129.284 37.9654 130.308 37.9901 131.279 38.2072C132.25 38.4244 133.113 38.8088 133.868 39.3607C134.618 39.8798 135.258 40.55 135.787 41.3713C136.316 42.1925 136.681 43.1397 136.882 44.2128L133.206 44.7846C132.91 43.5255 132.368 42.6226 131.58 42.0759C130.82 41.4913 129.851 41.2906 128.675 41.4735C127.531 41.6514 126.651 42.123 126.034 42.8883C125.417 43.6536 125.187 44.5427 125.344 45.5556C125.436 46.1437 125.637 46.6814 125.947 47.1686C126.284 47.618 126.734 48.0334 127.295 48.4146C127.856 48.7958 128.527 49.1265 129.307 49.4068C130.119 49.682 131.06 49.9206 132.129 50.1224C134.228 50.4986 135.919 51.2563 137.201 52.3955C138.482 53.5348 139.252 54.9376 139.512 56.604C139.705 57.8456 139.684 59.0034 139.45 60.0773C139.215 61.1512 138.78 62.1223 138.146 62.9907C137.539 63.8213 136.759 64.5115 135.807 65.0611C134.893 65.6383 133.832 66.021 132.623 66.209C130.009 66.6156 127.798 66.173 125.991 64.8812C124.216 63.5844 123.11 61.6316 122.67 59.0227ZM145.105 63.615L140.935 36.8058L144.562 36.2417L148.731 63.0509L145.105 63.615ZM140.432 33.5711L139.471 27.3956L143.098 26.8315L144.058 33.007L140.432 33.5711ZM176.283 50.6838L180.4 50.0435C179.284 53.1954 177.774 55.6391 175.868 57.3744C173.958 59.0771 171.532 60.1571 168.592 60.6145C166.533 60.9346 164.55 60.8751 162.641 60.4357C160.764 59.9913 159.074 59.2336 157.569 58.1626C156.063 57.0916 154.803 55.765 153.787 54.1828C152.766 52.568 152.101 50.764 151.791 48.7709C151.486 46.8104 151.577 44.9222 152.064 43.1063C152.552 41.2903 153.336 39.6624 154.417 38.2226C155.526 36.745 156.89 35.5122 158.51 34.524C160.163 33.5307 161.985 32.8791 163.979 32.5691C167.017 32.0964 169.851 32.4588 172.48 33.6562C175.11 34.8535 177.174 36.7244 178.674 39.2686L174.606 39.9013C173.286 38.2995 171.755 37.1657 170.011 36.4999C168.296 35.7963 166.441 35.5995 164.448 35.9095C162.945 36.1432 161.583 36.6395 160.363 37.3982C159.175 38.1519 158.183 39.0925 157.388 40.2202C156.588 41.3151 156.012 42.5592 155.66 43.9526C155.307 45.346 155.248 46.7942 155.482 48.2972C155.716 49.8002 156.212 51.162 156.971 52.3826C157.724 53.5705 158.668 54.5783 159.8 55.4061C160.928 56.2011 162.188 56.7748 163.582 57.127C164.975 57.4791 166.423 57.5383 167.926 57.3046C169.854 57.0047 171.443 56.356 172.693 55.3583C173.977 54.3556 175.173 52.7975 176.283 50.6838Z" fill="black"/>
</svg>
