<svg width="253" height="102" viewBox="0 0 253 102" fill="none" xmlns="http://www.w3.org/2000/svg">
<rect y="29.2129" width="245.25" height="72.625" rx="36.3125" transform="rotate(-6.8411 0 29.2129)" fill="#A1BBEF"/>
<path d="M39.1896 79.4888L35.8198 51.4004L39.2406 50.99L39.6236 54.1827C40.3392 52.8631 41.3193 51.8201 42.564 51.0539C43.8057 50.2624 45.2627 49.7663 46.9351 49.5656C48.4807 49.3802 49.9458 49.4872 51.3304 49.8865C52.7118 50.2606 53.9433 50.884 55.0247 51.7567C56.1031 52.604 56.989 53.6673 57.6822 54.9464C58.3977 56.1972 58.8497 57.6081 59.0382 59.1791C59.2267 60.7501 59.1228 62.2406 58.7264 63.6504C58.327 65.0349 57.6925 66.2806 56.8228 67.3874C55.9755 68.4658 54.9264 69.3627 53.6757 70.0783C52.4249 70.7938 51.0267 71.2443 49.481 71.4297C47.8846 71.6213 46.4307 71.5001 45.1191 71.0663C43.8076 70.6324 42.6116 69.8763 41.5312 68.7978L42.7624 79.0601L39.1896 79.4888ZM48.8988 68.1838C49.9377 68.0592 50.8905 67.7521 51.7571 67.2626C52.6206 66.7477 53.3423 66.1213 53.9221 65.3835C54.5242 64.6172 54.9605 63.7552 55.2312 62.7974C55.4988 61.8143 55.5672 60.7779 55.4365 59.6883C55.3028 58.5734 54.9896 57.57 54.497 56.678C54.0014 55.7607 53.3705 55.001 52.6043 54.399C51.8634 53.7938 51.0014 53.3575 50.0182 53.0899C49.0604 52.8192 48.024 52.7508 46.9091 52.8845C45.8702 53.0092 44.919 53.3289 44.0554 53.8438C43.2141 54.3303 42.494 54.9693 41.8949 55.7609C41.3182 56.5241 40.896 57.3972 40.6284 58.3804C40.3608 59.3635 40.2908 60.3872 40.4185 61.4515C40.5492 62.5411 40.8609 63.5318 41.3534 64.4238C41.843 65.2904 42.4724 66.0374 43.2416 66.6648C44.0079 67.2669 44.8699 67.7033 45.8277 67.9739C46.7855 68.2445 47.8092 68.3145 48.8988 68.1838ZM79.7454 60.5504L83.5083 60.099C83.2812 61.2058 82.8788 62.2437 82.301 63.2126C81.7456 64.1532 81.0624 64.9934 80.2515 65.7333C79.466 66.4701 78.5624 67.0798 77.5407 67.5622C76.516 68.0193 75.4335 68.3162 74.2932 68.453C72.7222 68.6415 71.2318 68.5376 69.8219 68.1412C68.409 67.7195 67.1365 67.0754 66.0044 66.2087C64.8976 65.3391 63.9738 64.2804 63.2329 63.0327C62.489 61.7596 62.0243 60.3502 61.8389 58.8045C61.6565 57.2842 61.765 55.8318 62.1644 54.4473C62.5891 53.0597 63.2236 51.8141 64.0679 50.7103C64.9376 49.6035 65.9978 48.6924 67.2486 47.9768C68.5247 47.2582 69.9102 46.8093 71.4052 46.6299C72.9256 46.4475 74.3795 46.5687 75.7671 46.9934C77.1769 47.3898 78.4353 48.0228 79.542 48.8924C80.6458 49.7368 81.5554 50.7843 82.271 52.0351C83.0118 53.2828 83.4735 54.6668 83.6559 56.1872C83.6863 56.4405 83.7025 56.6828 83.7045 56.9139C83.7035 57.1196 83.6928 57.3522 83.6726 57.6117L65.7324 59.764C65.9179 60.6671 66.2589 61.4744 66.7556 62.1859C67.2775 62.8944 67.8902 63.5021 68.5936 64.0089C69.3193 64.4873 70.1327 64.8395 71.0337 65.0656C71.9317 65.2663 72.8622 65.3089 73.8251 65.1934C75.2187 65.0262 76.432 64.5336 77.4648 63.7157C78.523 62.8948 79.2832 61.8397 79.7454 60.5504ZM65.354 56.6093L79.8353 54.8719C79.1826 53.0739 78.1493 51.7456 76.7354 50.887C75.3438 50.0001 73.7105 49.6692 71.8354 49.8941C70.9232 50.0036 70.091 50.2448 69.339 50.6177C68.5839 50.9654 67.9215 51.4432 67.3518 52.0513C66.8045 52.6311 66.3595 53.3142 66.0169 54.1007C65.6713 54.8619 65.4503 55.6981 65.354 56.6093ZM88.4694 66.2511L85.966 45.3843L89.3868 44.9739L89.706 47.6345C89.9432 47.0406 90.2037 46.5338 90.4875 46.1142C90.7966 45.6915 91.1514 45.3277 91.5518 45.0226C91.9775 44.7145 92.4615 44.4637 93.0037 44.2701C93.546 44.0765 94.183 43.923 94.9148 43.8095L95.3298 47.2683C93.5205 47.6138 92.2191 48.3355 91.4254 49.4331C90.6541 50.5024 90.3809 51.9746 90.6059 53.8497L92.0422 65.8224L88.4694 66.2511ZM101.413 64.6982L99.2974 47.0622L96.5227 47.395L96.1488 44.2783L98.9234 43.9454C98.7107 41.5291 99.1126 39.6302 100.129 38.2488C101.143 36.842 102.739 36.0078 104.918 35.7464C105.096 35.7251 105.273 35.7039 105.451 35.6826C105.653 35.6583 105.872 35.6578 106.106 35.6811L106.498 38.9498L106.08 39C104.585 39.1793 103.57 39.6096 103.035 40.2907C102.496 40.9464 102.317 42.0218 102.496 43.5168L106.867 42.9924L107.241 46.1091L102.87 46.6335L104.986 64.2696L101.413 64.6982ZM109.804 53.1272C109.616 51.5562 109.72 50.0658 110.116 48.6559C110.512 47.2461 111.147 46.0004 112.02 44.919C112.915 43.8091 114.002 42.9076 115.281 42.2144C116.582 41.4928 118.031 41.0362 119.628 40.8447C121.148 40.6623 122.6 40.7708 123.985 41.1701C125.369 41.5695 126.602 42.2056 127.684 43.0783C128.765 43.951 129.665 45.0254 130.384 46.3015C131.099 47.5522 131.551 48.9631 131.74 50.5342C131.925 52.0799 131.818 53.545 131.419 54.9295C131.045 56.3109 130.436 57.5535 129.591 58.6573C128.744 59.7357 127.695 60.6327 126.444 61.3482C125.193 62.0637 123.795 62.5142 122.25 62.6997C120.679 62.8881 119.175 62.7857 117.74 62.3924C116.33 61.9961 115.061 61.3773 113.932 60.536C112.825 59.6663 111.901 58.6076 111.16 57.3599C110.442 56.0838 109.99 54.6729 109.804 53.1272ZM121.819 59.4355C122.858 59.3108 123.798 59.0053 124.64 58.5188C125.481 58.0323 126.179 57.4217 126.733 56.6868C127.31 55.9237 127.719 55.052 127.962 54.0719C128.229 53.0887 128.298 52.0524 128.167 50.9628C128.033 49.8479 127.72 48.8444 127.228 47.9525C126.757 47.0322 126.139 46.271 125.373 45.6689C124.632 45.0638 123.783 44.6259 122.825 44.3552C121.867 44.0846 120.856 44.0131 119.792 44.1408C118.753 44.2654 117.814 44.5836 116.976 45.0955C116.135 45.582 115.426 46.2068 114.849 46.97C114.298 47.7301 113.89 48.6145 113.625 49.623C113.357 50.6061 113.287 51.6298 113.415 52.694C113.546 53.7836 113.857 54.7744 114.35 55.6663C114.84 56.5329 115.455 57.2688 116.196 57.8739C116.962 58.476 117.825 58.925 118.786 59.221C119.744 59.4917 120.755 59.5632 121.819 59.4355ZM136.723 60.4621L134.219 39.5953L137.64 39.1849L137.959 41.8455C138.196 41.2516 138.457 40.7448 138.741 40.3252C139.05 39.9026 139.405 39.5387 139.805 39.2336C140.231 38.9255 140.715 38.6747 141.257 38.4811C141.799 38.2875 142.436 38.134 143.168 38.0205L143.583 41.4793C141.774 41.8249 140.472 42.5465 139.679 43.6442C138.907 44.7134 138.634 46.1856 138.859 48.0607L140.295 60.0335L136.723 60.4621ZM148.526 59.046L146.023 38.1793L149.444 37.7689L149.713 40.0114C150.402 38.9005 151.153 38.0907 151.966 37.5819C152.779 37.0731 153.831 36.7412 155.124 36.5862C156.669 36.4008 157.984 36.5386 159.067 36.9998C160.176 37.458 161.202 38.2988 162.146 39.5222C162.852 38.1265 163.728 37.0704 164.773 36.3539C165.84 35.6089 167.16 35.1422 168.731 34.9537C171.417 34.6315 173.563 35.1708 175.171 36.5716C176.801 37.944 177.792 40.0999 178.144 43.0392L179.617 55.316L176.082 55.7401L174.655 43.8434C174.409 41.7909 173.793 40.2969 172.807 39.3613C171.846 38.4228 170.542 38.0523 168.895 38.2499C167.172 38.4566 165.934 39.1706 165.181 40.3919C164.45 41.5849 164.217 43.2836 164.481 45.4881L165.858 56.9667L162.285 57.3953L160.853 45.4606C160.61 43.4335 159.996 41.9521 159.009 41.0166C158.023 40.081 156.694 39.7136 155.022 39.9142C153.349 40.1149 152.149 40.8243 151.421 42.0426C150.691 43.2355 150.454 44.9089 150.713 47.0628L152.099 58.6174L148.526 59.046ZM199.97 46.127L203.733 45.6756C203.506 46.7824 203.104 47.8203 202.526 48.7892C201.97 49.7298 201.287 50.57 200.476 51.3099C199.691 52.0467 198.787 52.6563 197.766 53.1388C196.741 53.5958 195.658 53.8928 194.518 54.0296C192.947 54.2181 191.457 54.1141 190.047 53.7178C188.634 53.2961 187.361 52.6519 186.229 51.7853C185.122 50.9157 184.199 49.857 183.458 48.6092C182.714 47.3362 182.249 45.9268 182.064 44.3811C181.881 42.8608 181.99 41.4084 182.389 40.0238C182.814 38.6363 183.448 37.3906 184.293 36.2869C185.162 35.1801 186.223 34.2689 187.473 33.5534C188.749 32.8348 190.135 32.3859 191.63 32.2065C193.15 32.0241 194.604 32.1453 195.992 32.57C197.402 32.9663 198.66 33.5993 199.767 34.469C200.871 35.3133 201.78 36.3609 202.496 37.6116C203.237 38.8594 203.698 40.2434 203.881 41.7637C203.911 42.0171 203.927 42.2594 203.929 42.4905C203.928 42.6962 203.918 42.9288 203.897 43.1883L185.957 45.3406C186.143 46.2437 186.484 47.051 186.98 47.7625C187.502 48.471 188.115 49.0787 188.818 49.5855C189.544 50.0639 190.357 50.4161 191.259 50.6422C192.157 50.8429 193.087 50.8855 194.05 50.77C195.444 50.6028 196.657 50.1102 197.69 49.2923C198.748 48.4713 199.508 47.4162 199.97 46.127ZM185.579 42.1859L200.06 40.4485C199.407 38.6505 198.374 37.3221 196.96 36.4636C195.569 35.5767 193.935 35.2457 192.06 35.4707C191.148 35.5801 190.316 35.8213 189.564 36.1943C188.809 36.5419 188.146 37.0198 187.577 37.6279C187.029 38.2077 186.584 38.8908 186.242 39.6773C185.896 40.4385 185.675 41.2747 185.579 42.1859ZM208.694 51.8276L206.191 30.9609L209.612 30.5505L209.931 33.2111C210.168 32.6171 210.428 32.1104 210.712 31.6908C211.021 31.2681 211.376 30.9043 211.777 30.5992C212.202 30.2911 212.686 30.0402 213.228 29.8467C213.771 29.6531 214.408 29.4995 215.14 29.3861L215.555 32.8448C213.745 33.1904 212.444 33.912 211.65 35.0097C210.879 36.079 210.606 37.5512 210.831 39.4263L212.267 51.399L208.694 51.8276Z" fill="black"/>
</svg>
