<svg width="254" height="112" viewBox="0 0 254 112" fill="none" xmlns="http://www.w3.org/2000/svg">
<rect x="11.8093" width="245.25" height="72.625" rx="36.3125" transform="rotate(9.3583 11.8093 0)" fill="#A1BBEF"/>
<path d="M35.4169 59.2131L40.0171 31.2998L43.4165 31.86L42.8937 35.0328C43.949 33.9652 45.1812 33.2372 46.5902 32.8486C48.0034 32.4349 49.541 32.3649 51.2029 32.6388C52.739 32.892 54.116 33.4034 55.3342 34.1732C56.5564 34.9178 57.5651 35.86 58.3601 36.9998C59.1593 38.1143 59.7134 39.3825 60.0222 40.8043C60.3604 42.205 60.4009 43.6859 60.1436 45.2472C59.8863 46.8084 59.3707 48.2107 58.5967 49.454C57.8269 50.6721 56.8701 51.6913 55.7262 52.5115C54.6116 53.3107 53.354 53.8794 51.9532 54.2176C50.5525 54.5558 49.0841 54.5983 47.5481 54.3451C45.9617 54.0837 44.5993 53.5617 43.4608 52.7792C42.3224 51.9967 41.3848 50.9369 40.6482 49.5999L38.9675 59.7982L35.4169 59.2131ZM47.8946 51.0656C48.927 51.2358 49.9276 51.2067 50.8964 50.9784C51.8693 50.7249 52.737 50.3247 53.4997 49.7779C54.2916 49.2101 54.9511 48.504 55.4782 47.6597C56.0095 46.7903 56.3644 45.8142 56.5428 44.7314C56.7254 43.6234 56.7046 42.5724 56.4804 41.5785C56.2604 40.5593 55.8665 39.6538 55.2986 38.8619C54.756 38.0741 54.0499 37.4146 53.1805 36.8833C52.3362 36.3562 51.3601 36.0013 50.2521 35.8187C49.2197 35.6486 48.217 35.6903 47.2441 35.9438C46.3005 36.1762 45.4306 36.589 44.6345 37.182C43.8678 37.754 43.2188 38.4747 42.6875 39.3442C42.1563 40.2136 41.8035 41.1772 41.6292 42.2348C41.4507 43.3176 41.4736 44.3559 41.6978 45.3499C41.9261 46.3187 42.3221 47.2116 42.8858 48.0287C43.4536 48.8207 44.1597 49.4802 45.004 50.0073C45.8482 50.5344 46.8118 50.8872 47.8946 51.0656ZM79.646 52.341L83.3855 52.9572C82.8586 53.9567 82.1826 54.8411 81.3575 55.6104C80.5617 56.3587 79.6712 56.975 78.6862 57.4593C77.7262 57.9477 76.6884 58.281 75.5727 58.4593C74.4612 58.6123 73.3388 58.5955 72.2057 58.4087C70.6444 58.1515 69.2422 57.6358 67.9989 56.8619C66.7597 56.0628 65.7174 55.0892 64.872 53.9412C64.0518 52.7972 63.46 51.5229 63.0966 50.118C62.7374 48.6879 62.6844 47.2049 62.9375 45.6688C63.1865 44.158 63.6959 42.7935 64.4657 41.5753C65.2606 40.3614 66.2175 39.3422 67.3362 38.5178C68.4801 37.6976 69.7524 37.1184 71.1532 36.7802C72.5791 36.4462 74.0349 36.4016 75.5205 36.6464C77.0314 36.8954 78.3938 37.4174 79.6078 38.2123C80.8511 38.9863 81.8829 39.9452 82.7031 41.0891C83.5275 42.2078 84.1087 43.4676 84.4469 44.8683C84.8103 46.2731 84.8675 47.731 84.6185 49.2419C84.577 49.4937 84.525 49.7308 84.4625 49.9533C84.4041 50.1506 84.329 50.371 84.2371 50.6145L66.4088 47.6764C66.335 48.5954 66.4373 49.4658 66.7157 50.2876C67.0192 51.1136 67.4381 51.8681 67.9722 52.551C68.5356 53.2129 69.2184 53.778 70.0206 54.2465C70.827 54.6897 71.7086 54.9902 72.6655 55.1479C74.0504 55.3762 75.3529 55.2416 76.5729 54.7443C77.8181 54.2512 78.8425 53.4501 79.646 52.341ZM66.9255 44.5414L81.3165 46.913C81.1914 45.0043 80.5697 43.4404 79.4515 42.2215C78.3625 40.9816 76.8864 40.2081 75.023 39.901C74.1165 39.7516 73.2501 39.7511 72.4238 39.8994C71.6017 40.0226 70.8323 40.2967 70.1156 40.7218C69.4283 41.1258 68.8104 41.6577 68.262 42.3174C67.7177 42.9519 67.2722 43.6932 66.9255 44.5414ZM86.4333 60.2491L89.8507 39.5124L93.2502 40.0726L92.8144 42.7167C93.2079 42.2125 93.5995 41.7985 93.9891 41.4747C94.4038 41.1551 94.846 40.9047 95.3156 40.7234C95.8104 40.5463 96.3451 40.4404 96.9198 40.4058C97.4946 40.3712 98.1492 40.4015 98.8836 40.4967L98.3171 43.9339C96.4833 43.761 95.0322 44.0909 93.9639 44.9236C92.9248 45.7352 92.2518 47.0727 91.9447 48.9361L89.9838 60.8342L86.4333 60.2491ZM99.2963 62.369L102.185 44.8429L99.4273 44.3884L99.9378 41.2912L102.695 41.7456C103.165 39.3658 104.081 37.6544 105.442 36.6115C106.808 35.5433 108.574 35.1877 110.739 35.5445C110.916 35.5736 111.092 35.6026 111.268 35.6317C111.47 35.6649 111.68 35.7253 111.898 35.8131L111.363 39.0614L110.947 38.993C109.461 38.7481 108.367 38.8781 107.663 39.3828C106.963 39.8624 106.49 40.845 106.246 42.3307L110.589 43.0466L110.079 46.1438L105.735 45.428L102.847 62.9541L99.2963 62.369ZM110.582 53.5984C110.84 52.0371 111.355 50.6349 112.129 49.3916C112.903 48.1482 113.86 47.1291 115 46.334C116.169 45.518 117.464 44.9555 118.886 44.6466C120.337 44.3168 121.856 44.2825 123.442 44.544C124.953 44.793 126.318 45.3023 127.536 46.0721C128.754 46.8419 129.76 47.7967 130.556 48.9364C131.351 50.0762 131.915 51.359 132.249 52.7849C132.587 54.1857 132.628 55.6666 132.37 57.2279C132.117 58.7639 131.606 60.141 130.836 61.3591C130.091 62.5814 129.16 63.6047 128.041 64.4291C126.927 65.2283 125.669 65.797 124.268 66.1352C122.867 66.4733 121.399 66.5159 119.863 66.2627C118.302 66.0054 116.887 65.4878 115.618 64.7097C114.375 63.9357 113.329 62.9873 112.479 61.8645C111.659 60.7205 111.067 59.4462 110.704 58.0413C110.37 56.6154 110.329 55.1344 110.582 53.5984ZM120.361 63.0081C121.393 63.1783 122.381 63.1471 123.325 62.9146C124.268 62.6822 125.109 62.2905 125.846 61.7395C126.613 61.1675 127.249 60.4447 127.755 59.5711C128.287 58.7016 128.641 57.7255 128.82 56.6427C129.003 55.5348 128.982 54.4838 128.758 53.4898C128.563 52.4749 128.181 51.5714 127.614 50.7795C127.071 49.9917 126.377 49.3342 125.533 48.8071C124.689 48.28 123.738 47.9293 122.68 47.755C121.648 47.5848 120.658 47.6286 119.71 47.8863C118.766 48.1187 117.911 48.521 117.145 49.093C116.403 49.6691 115.764 50.4045 115.229 51.2991C114.698 52.1686 114.345 53.1321 114.171 54.1897C113.992 55.2725 114.015 56.3109 114.239 57.3048C114.468 58.2736 114.853 59.1519 115.396 59.9397C115.964 60.7316 116.668 61.4037 117.508 61.956C118.352 62.4831 119.303 62.8338 120.361 63.0081ZM134.386 68.1517L137.803 47.415L141.203 47.9753L140.767 50.6193C141.16 50.1151 141.552 49.7011 141.941 49.3774C142.356 49.0577 142.798 48.8073 143.268 48.626C143.763 48.4489 144.298 48.3431 144.872 48.3084C145.447 48.2738 146.102 48.3041 146.836 48.3993L146.27 51.8365C144.436 51.6636 142.985 51.9935 141.916 52.8262C140.877 53.6378 140.204 54.9753 139.897 56.8388L137.936 68.7369L134.386 68.1517ZM146.116 70.0848L149.533 49.3481L152.933 49.9084L152.565 52.1369C153.537 51.2624 154.484 50.6943 155.407 50.4325C156.329 50.1707 157.433 50.1456 158.717 50.3573C160.253 50.6104 161.477 51.1096 162.389 51.8547C163.326 52.6041 164.077 53.6977 164.641 55.1358C165.709 53.9927 166.845 53.2228 168.048 52.8262C169.281 52.4086 170.678 52.3285 172.239 52.5858C174.908 53.0257 176.819 54.1424 177.972 55.936C179.155 57.7086 179.505 60.0554 179.024 62.9765L177.013 75.1767L173.5 74.5978L175.449 62.7753C175.785 60.7356 175.61 59.129 174.924 57.9555C174.263 56.7861 173.114 56.0665 171.477 55.7968C169.765 55.5146 168.377 55.8549 167.313 56.8176C166.278 57.7593 165.58 59.3255 165.219 61.5163L163.34 72.9233L159.789 72.3382L161.744 60.4779C162.076 58.4634 161.899 56.8694 161.213 55.6959C160.527 54.5223 159.353 53.7986 157.691 53.5247C156.029 53.2508 154.678 53.5973 153.64 54.5642C152.605 55.5059 151.911 57.0469 151.559 59.1873L149.666 70.67L146.116 70.0848ZM199.121 72.0307L202.861 72.6469C202.334 73.6464 201.658 74.5308 200.833 75.3001C200.037 76.0484 199.147 76.6647 198.161 77.1489C197.202 77.6374 196.164 77.9707 195.048 78.1489C193.936 78.302 192.814 78.2852 191.681 78.0984C190.12 77.8411 188.717 77.3255 187.474 76.5516C186.235 75.7525 185.193 74.7789 184.347 73.6308C183.527 72.4869 182.935 71.2125 182.572 69.8077C182.213 68.3776 182.16 66.8946 182.413 65.3585C182.662 63.8476 183.171 62.4831 183.941 61.265C184.736 60.051 185.693 59.0319 186.812 58.2075C187.955 57.3873 189.228 56.8081 190.628 56.4699C192.054 56.1358 193.51 56.0912 194.996 56.3361C196.507 56.5851 197.869 57.1071 199.083 57.902C200.326 58.6759 201.358 59.6349 202.178 60.7788C203.003 61.8975 203.584 63.1572 203.922 64.558C204.286 65.9628 204.343 67.4207 204.094 68.9316C204.052 69.1834 204 69.4205 203.938 69.643C203.879 69.8403 203.804 70.0607 203.712 70.3042L185.884 67.3661C185.81 68.2851 185.913 69.1555 186.191 69.9773C186.495 70.8033 186.913 71.5577 187.447 72.2406C188.011 72.9025 188.694 73.4677 189.496 73.9362C190.302 74.3794 191.184 74.6799 192.141 74.8376C193.526 75.0658 194.828 74.9313 196.048 74.434C197.293 73.9409 198.318 73.1398 199.121 72.0307ZM186.401 64.231L200.792 66.6027C200.667 64.6939 200.045 63.1301 198.927 61.9112C197.838 60.6713 196.362 59.8978 194.498 59.5907C193.592 59.4413 192.725 59.4408 191.899 59.5891C191.077 59.7123 190.308 59.9864 189.591 60.4114C188.904 60.8155 188.286 61.3473 187.737 62.007C187.193 62.6416 186.747 63.3829 186.401 64.231ZM205.909 79.9388L209.326 59.2021L212.725 59.7623L212.29 62.4063C212.683 61.9022 213.075 61.4882 213.464 61.1644C213.879 60.8448 214.321 60.5943 214.791 60.4131C215.286 60.236 215.82 60.1301 216.395 60.0955C216.97 60.0609 217.624 60.0912 218.359 60.1863L217.792 63.6236C215.959 63.4507 214.508 63.7806 213.439 64.6132C212.4 65.4249 211.727 66.7624 211.42 68.6258L209.459 80.5239L205.909 79.9388Z" fill="black"/>
</svg>
