<svg width="122" height="121" viewBox="0 0 122 121" fill="none" xmlns="http://www.w3.org/2000/svg">
<path d="M112.054 69.4885C106.968 97.6938 79.9801 116.436 51.7748 111.349C23.5695 106.263 4.82775 79.2754 9.91385 51.0701C14.9999 22.8649 41.9879 4.1231 70.1932 9.2092C98.3985 14.2953 117.14 41.2833 112.054 69.4885Z" fill="white"/>
<path d="M61.0974 30.0403C60.1821 29.8746 59.2389 30.0809 58.475 30.614C57.7112 31.147 57.1893 31.9631 57.0241 32.8828L52.9876 55.377L30.6029 51.3208C29.6877 51.1551 28.7445 51.3614 27.9806 51.8945C27.2168 52.4275 26.6949 53.2436 26.5297 54.1633C26.3648 55.083 26.5702 56.0308 27.1006 56.7984C27.6311 57.566 28.4432 58.0904 29.3584 58.2564L51.7431 62.3127L47.7065 84.807C47.5416 85.7267 47.747 86.6746 48.2775 87.4421C48.8079 88.2097 49.62 88.7342 50.5352 88.9001C51.4504 89.0658 52.3937 88.8595 53.1575 88.3264C53.9213 87.7934 54.4432 86.9773 54.6084 86.0576L58.6449 63.5634L81.0296 67.6196C81.9449 67.7853 82.8881 67.579 83.6519 67.0459C84.4158 66.5129 84.9377 65.6968 85.1028 64.7771C85.2677 63.8574 85.0624 62.9096 84.5319 62.142C84.0015 61.3744 83.1894 60.85 82.2742 60.684L59.8895 56.6277L63.926 34.1334C64.0909 33.2137 63.8855 32.2659 63.3551 31.4983C62.8246 30.7307 62.0125 30.2062 61.0974 30.0403Z" fill="black"/>
</svg>
