<svg width="68" height="68" viewBox="0 0 68 68" fill="none" xmlns="http://www.w3.org/2000/svg">
<path d="M68 34C68 52.7777 52.7777 68 34 68C15.2223 68 0 52.7777 0 34C0 15.2223 15.2223 0 34 0C52.7777 0 68 15.2223 68 34Z" fill="white"/>
<path d="M32.7911 13.5364C32.1818 13.5365 31.5974 13.7798 31.1666 14.2127C30.7357 14.6457 30.4936 15.2329 30.4935 15.8452L30.4935 30.8211L15.5905 30.8211C14.9812 30.8212 14.3969 31.0645 13.966 31.4974C13.5352 31.9304 13.2931 32.5176 13.293 33.1299C13.2931 33.7422 13.5352 34.3294 13.966 34.7623C14.3969 35.1953 14.9812 35.4386 15.5905 35.4387L30.4935 35.4386L30.4935 50.4146C30.4936 51.0269 30.7357 51.6141 31.1666 52.0471C31.5974 52.48 32.1818 52.7233 32.7911 52.7234C33.4004 52.7233 33.9847 52.48 34.4156 52.0471C34.8464 51.6141 35.0885 51.0269 35.0886 50.4146L35.0886 35.4387H49.9916C50.6009 35.4386 51.1852 35.1953 51.6161 34.7623C52.0469 34.3294 52.289 33.7422 52.2891 33.1299C52.289 32.5176 52.0469 31.9304 51.6161 31.4974C51.1852 31.0645 50.6009 30.8212 49.9916 30.8211H35.0886L35.0886 15.8452C35.0885 15.2329 34.8464 14.6457 34.4156 14.2127C33.9847 13.7798 33.4004 13.5365 32.7911 13.5364Z" fill="black"/>
</svg>
