<svg width="233" height="86" viewBox="0 0 233 86" fill="none" xmlns="http://www.w3.org/2000/svg">
<rect x="5.89453" y="0.22168" width="227.444" height="65.2222" rx="32.6111" transform="rotate(5.05382 5.89453 0.22168)" fill="#A1BBEF"/>
<path d="M30.8168 51.7618L33.032 26.713L35.5402 26.9348L35.2584 30.121C36.1553 28.9933 37.2408 28.1783 38.515 27.6761C39.8117 27.1759 41.2623 26.9968 42.8667 27.1387C44.2451 27.2606 45.5112 27.623 46.6649 28.2261C47.8185 28.8291 48.7857 29.6093 49.5665 30.5665C50.3718 31.5031 50.9701 32.5922 51.3613 33.8338C51.7546 35.0528 51.8902 36.3515 51.7683 37.73C51.6464 39.1084 51.2736 40.3621 50.65 41.4912C50.049 42.6223 49.2688 43.5895 48.3096 44.3928C47.3524 45.1736 46.253 45.7596 45.0114 46.1508C43.7698 46.542 42.4597 46.6767 41.0813 46.5548C39.5221 46.4169 38.1594 45.9889 36.9931 45.2709C35.8268 44.5529 34.8899 43.5591 34.1823 42.2895L33.325 51.9836L30.8168 51.7618ZM41.2513 44.2469C42.2907 44.3388 43.2671 44.243 44.1803 43.9594C45.1182 43.6551 45.9438 43.2044 46.657 42.607C47.3703 42.0096 47.9467 41.2863 48.3862 40.437C48.8502 39.5671 49.1282 38.6124 49.2202 37.5729C49.3161 36.4883 49.2119 35.477 48.9077 34.5392C48.6281 33.5807 48.1896 32.7449 47.5923 32.0316C46.9969 31.2957 46.2633 30.7071 45.3914 30.2656C44.5214 29.8015 43.5442 29.5215 42.4595 29.4256C41.4426 29.3356 40.4766 29.4438 39.5613 29.75C38.6461 30.0562 37.8308 30.5193 37.1156 31.1392C36.4023 31.7366 35.8136 32.4702 35.3495 33.3401C34.908 34.2121 34.6413 35.1677 34.5494 36.2072C34.4575 37.2467 34.5523 38.2343 34.8339 39.1702C35.1382 40.108 35.5879 40.9449 36.1833 41.6807C36.8033 42.396 37.5369 42.9847 38.3842 43.4468C39.2561 43.8883 40.2118 44.155 41.2513 44.2469ZM54.6034 37.9807C54.7273 36.5797 55.0794 35.3013 55.6599 34.1456C56.2629 32.992 57.0431 32.0248 58.0003 31.244C58.9575 30.4633 60.0559 29.8886 61.2955 29.5199C62.5371 29.1287 63.8697 28.9961 65.2934 29.122C66.6492 29.2419 67.8813 29.6013 68.9898 30.2004C70.1209 30.8014 71.0655 31.5796 71.8237 32.5348C72.6064 33.4694 73.1821 34.5565 73.5507 35.7961C73.9439 37.0152 74.0786 38.3252 73.9547 39.7262C73.8308 41.1272 73.4796 42.3942 72.9012 43.5273C72.3227 44.6604 71.5775 45.6193 70.6654 46.4041C69.7534 47.1888 68.6879 47.7778 67.4689 48.171C66.2745 48.5436 64.9994 48.67 63.6435 48.5501C62.2199 48.4242 60.919 48.07 59.7407 47.4876C58.587 46.8845 57.6075 46.1147 56.8022 45.1781C55.9988 44.2188 55.4006 43.1297 55.0073 41.9107C54.6161 40.6691 54.4815 39.3591 54.6034 37.9807ZM63.7796 46.2392C64.7964 46.3291 65.7502 46.2313 66.6409 45.9457C67.5315 45.66 68.3099 45.2279 68.976 44.6491C69.644 44.0477 70.1875 43.3101 70.6064 42.4362C71.0479 41.5643 71.3156 40.5973 71.4095 39.5353C71.5055 38.4506 71.4136 37.429 71.134 36.4706C70.877 35.5141 70.4498 34.6793 69.8524 33.966C69.2776 33.2548 68.5656 32.6794 67.7163 32.2399C66.869 31.7778 65.9256 31.5008 64.8861 31.4089C63.8693 31.3189 62.9145 31.4281 62.0219 31.7363C61.1312 32.0219 60.3395 32.4757 59.6469 33.0977C58.9562 33.697 58.3891 34.4439 57.9456 35.3384C57.5042 36.2103 57.2364 37.1773 57.1425 38.2394C57.0486 39.3014 57.1424 40.3004 57.4241 41.2363C57.7077 42.1495 58.1482 42.9628 58.7455 43.676C59.3429 44.3893 60.0652 44.977 60.9125 45.4391C61.7844 45.8806 62.7401 46.1473 63.7796 46.2392ZM76.1321 55.7692L78.3473 30.7205L80.8556 30.9423L80.5738 34.1285C81.4706 33.0008 82.5561 32.1858 83.8303 31.6836C85.1271 31.1834 86.5777 31.0042 88.1821 31.1461C89.5605 31.268 90.8265 31.6305 91.9802 32.2336C93.1339 32.8366 94.1011 33.6167 94.8819 34.574C95.6872 35.5106 96.2855 36.5997 96.6767 37.8413C97.0699 39.0603 97.2056 40.359 97.0837 41.7374C96.9618 43.1159 96.589 44.3696 95.9654 45.4987C95.3643 46.6298 94.5842 47.597 93.625 48.4003C92.6677 49.1811 91.5683 49.7671 90.3267 50.1583C89.0851 50.5495 87.7751 50.6842 86.3967 50.5623C84.8375 50.4244 83.4748 49.9964 82.3085 49.2784C81.1422 48.5603 80.2053 47.5665 79.4977 46.297L78.6404 55.9911L76.1321 55.7692ZM86.5666 48.2544C87.6061 48.3463 88.5824 48.2504 89.4957 47.9668C90.4336 47.6626 91.2591 47.2118 91.9724 46.6145C92.6856 46.0171 93.262 45.2938 93.7015 44.4445C94.1656 43.5746 94.4436 42.6199 94.5355 41.5804C94.6314 40.4958 94.5273 39.4845 94.2231 38.5466C93.9435 37.5882 93.505 36.7523 92.9076 36.0391C92.3123 35.3032 91.5786 34.7145 90.7067 34.273C89.8368 33.809 88.8595 33.529 87.7749 33.433C86.758 33.3431 85.7919 33.4513 84.8767 33.7575C83.9614 34.0637 83.1462 34.5268 82.4309 35.1467C81.7176 35.7441 81.129 36.4777 80.6649 37.3476C80.2234 38.2195 79.9567 39.1752 79.8648 40.2147C79.7728 41.2541 79.8677 42.2418 80.1493 43.1777C80.4535 44.1155 80.9033 44.9524 81.4987 45.6882C82.1186 46.4035 82.8523 46.9922 83.6996 47.4542C84.5715 47.8957 85.5272 48.1624 86.5666 48.2544ZM109.213 52.1359L110.853 33.5951L113.361 33.8169L113.172 35.9523C114.002 35.0692 114.818 34.4695 115.62 34.1533C116.445 33.8391 117.445 33.734 118.62 33.8379C120.043 33.9638 121.205 34.3512 122.104 35C123.005 35.6263 123.761 36.6041 124.372 37.9335C125.25 36.7586 126.223 35.9336 127.29 35.4586C128.379 34.9856 129.647 34.8131 131.093 34.941C133.421 35.1468 135.155 36.0062 136.297 37.5191C137.463 39.0114 137.934 41.023 137.71 43.5539L136.736 54.5699L134.228 54.3481L135.178 43.6033C135.35 41.6599 135.062 40.1541 134.314 39.0859C133.567 37.9951 132.392 37.3788 130.788 37.2369C129.138 37.091 127.828 37.4875 126.857 38.4265C125.908 39.3674 125.349 40.7982 125.179 42.719L124.229 53.4638L121.72 53.242L122.677 42.4294C122.842 40.5538 122.53 39.0686 121.738 37.9738C120.97 36.881 119.783 36.2637 118.179 36.1218C116.597 35.9819 115.319 36.3927 114.346 37.3543C113.397 38.2952 112.841 39.6921 112.677 41.5451L111.721 52.3577L109.213 52.1359ZM154.852 56.1721L155.107 53.2909C154.373 54.3874 153.507 55.1649 152.51 55.6233C151.515 56.0591 150.294 56.213 148.848 56.0851C146.249 55.8553 144.35 54.9245 143.151 53.2926C141.974 51.6627 141.517 49.3676 141.778 46.4074L142.663 36.4082L145.171 36.63L144.287 46.6292C144.089 48.8663 144.393 50.5785 145.199 51.7657C146.027 52.9548 147.368 53.6314 149.221 53.7952C151.097 53.9611 152.586 53.4779 153.688 52.3456C154.792 51.1907 155.446 49.4608 155.65 47.1559L156.492 37.6312L159 37.853L157.361 56.3939L154.852 56.1721ZM160.602 51.1807L163.077 51.3995C163.043 52.558 163.291 53.4795 163.823 54.1642C164.379 54.8283 165.188 55.2073 166.25 55.3012C167.154 55.3811 167.926 55.1533 168.565 54.6178C169.207 54.0596 169.569 53.306 169.653 52.3569C169.691 51.9276 169.668 51.5497 169.583 51.2234C169.522 50.8764 169.368 50.5667 169.118 50.2941C168.871 49.999 168.521 49.7061 168.069 49.4156C167.639 49.1271 167.074 48.8152 166.375 48.4801C165.501 48.0612 164.774 47.6553 164.194 47.2624C163.616 46.8469 163.152 46.4301 162.802 46.012C162.476 45.5733 162.244 45.1086 162.105 44.6181C161.991 44.107 161.961 43.5464 162.015 42.9363C162.083 42.168 162.269 41.4784 162.573 40.8677C162.88 40.2344 163.279 39.7117 163.771 39.2998C164.287 38.8672 164.873 38.5546 165.528 38.362C166.205 38.1714 166.939 38.111 167.73 38.181C168.476 38.2469 169.154 38.4322 169.765 38.7367C170.375 39.0412 170.887 39.4394 171.299 39.9313C171.713 40.4006 172.028 40.9523 172.246 41.5864C172.463 42.2205 172.55 42.9114 172.506 43.6591L169.964 43.4343C169.974 42.547 169.762 41.8564 169.328 41.3625C168.918 40.848 168.306 40.5548 167.492 40.4829C166.701 40.4129 166.037 40.5819 165.5 40.9899C164.963 41.3979 164.664 41.9521 164.602 42.6526C164.566 43.0594 164.611 43.4505 164.737 43.8261C164.888 44.181 165.119 44.5317 165.43 44.878C165.741 45.2243 166.133 45.5551 166.606 45.8702C167.102 46.1873 167.689 46.5011 168.367 46.8116C169.704 47.4081 170.705 48.1912 171.371 49.161C172.036 50.1309 172.318 51.192 172.216 52.3444C172.141 53.2031 171.936 53.9707 171.603 54.6473C171.27 55.3238 170.82 55.8989 170.255 56.3727C169.714 56.8259 169.081 57.1571 168.356 57.3663C167.652 57.6001 166.882 57.68 166.046 57.6061C164.239 57.4462 162.839 56.7873 161.849 55.6293C160.88 54.4733 160.465 52.9905 160.602 51.1807ZM174.786 57.9349L176.426 39.3941L178.934 39.6159L177.294 58.1567L174.786 57.9349ZM176.624 37.157L177.001 32.8861L179.51 33.108L179.132 37.3788L176.624 37.157ZM197.68 54.4597L200.527 54.7115C199.265 56.6267 197.856 58.0052 196.302 58.847C194.749 59.6662 192.956 59.9858 190.922 59.806C189.498 59.6801 188.187 59.3136 186.988 58.7066C185.812 58.1015 184.811 57.3184 183.985 56.3572C183.159 55.3959 182.538 54.3048 182.122 53.0838C181.708 51.8402 181.562 50.5292 181.684 49.1508C181.804 47.795 182.176 46.5525 182.8 45.4234C183.423 44.2944 184.214 43.3394 185.171 42.5587C186.153 41.7573 187.265 41.1611 188.506 40.7698C189.77 40.3806 191.092 40.247 192.47 40.3689C194.572 40.5547 196.399 41.2629 197.953 42.4934C199.506 43.724 200.573 45.31 201.153 47.2515L198.34 47.0027C197.725 45.7185 196.891 44.7111 195.84 43.9805C194.813 43.2292 193.611 42.7927 192.232 42.6708C191.193 42.5788 190.204 42.685 189.266 42.9892C188.351 43.2954 187.536 43.7585 186.821 44.3784C186.107 44.9758 185.519 45.7094 185.055 46.5793C184.59 47.4493 184.312 48.4039 184.221 49.4434C184.129 50.4829 184.235 51.4715 184.539 52.4094C184.845 53.3246 185.307 54.1512 185.925 54.889C186.545 55.6043 187.29 56.194 188.16 56.6581C189.03 57.1222 189.985 57.4002 191.024 57.4921C192.357 57.61 193.522 57.4397 194.519 56.9813C195.539 56.5249 196.593 55.6844 197.68 54.4597Z" fill="black"/>
</svg>
