<svg width="424" height="152" viewBox="0 0 424 152" fill="none" xmlns="http://www.w3.org/2000/svg">
<rect x="13.4812" width="414.747" height="91.3735" rx="45.6867" transform="rotate(8.48439 13.4812 0)" fill="#E1B4F9"/>
<path d="M45.259 65.5934L49.1655 39.4054L72.7441 42.9227L68.8376 69.1106L63.4767 68.3109L66.6543 47.0095L53.7975 45.0916L50.6199 66.3931L45.259 65.5934ZM72.9382 78.7914L78.1681 43.7318L83.1969 44.482L82.6661 48.0401C83.9127 46.8358 85.3628 46.0013 87.0164 45.5367C88.6747 45.0404 90.4843 44.9386 92.4452 45.2311C94.3429 45.5142 96.0463 46.1239 97.5556 47.0604C99.0964 48.0015 100.36 49.1761 101.346 50.5842C102.369 51.9653 103.087 53.5436 103.501 55.3189C103.92 57.0627 103.983 58.915 103.691 60.8759C103.398 62.8369 102.779 64.6036 101.833 66.1761C100.919 67.7533 99.7689 69.069 98.383 70.1232C97.0288 71.1821 95.4775 71.9368 93.729 72.3873C92.0122 72.8425 90.2049 72.9285 88.3073 72.6455C86.5045 72.3765 84.9363 71.8354 83.6026 71.0222C82.2737 70.1773 81.1027 69.0327 80.0896 67.5883L78.2991 79.5911L72.9382 78.7914ZM88.5214 67.6336C89.7233 67.8129 90.8633 67.7567 91.9414 67.4648C93.0512 67.1778 94.0264 66.7089 94.8671 66.0584C95.7441 65.3809 96.4842 64.5375 97.0874 63.5282C97.6906 62.5189 98.0819 61.4133 98.2612 60.2115C98.4546 58.9147 98.4101 57.6957 98.1278 56.5543C97.877 55.4176 97.4153 54.3949 96.7425 53.4863C96.1014 52.5823 95.292 51.8311 94.3143 51.2326C93.3367 50.6341 92.2311 50.2429 90.9976 50.0589C89.7957 49.8796 88.6534 49.9517 87.5705 50.2751C86.4923 50.567 85.5148 51.0516 84.6377 51.7291C83.7607 52.4065 83.0182 53.2657 82.4103 54.3066C81.8071 55.3159 81.4135 56.4373 81.2295 57.6708C81.0502 58.8727 81.1018 60.0443 81.3842 61.1857C81.6665 62.3271 82.1283 63.3498 82.7694 64.2537C83.4469 65.1307 84.2744 65.8685 85.2521 66.467C86.2298 67.0655 87.3195 67.4544 88.5214 67.6336ZM106.805 61.4375C107.093 59.5082 107.71 57.7573 108.656 56.1848C109.633 54.6171 110.847 53.3108 112.296 52.266C113.745 51.2213 115.359 50.476 117.139 50.0302C118.956 49.5576 120.845 49.4675 122.805 49.76C124.703 50.0431 126.436 50.6734 128.004 51.6509C129.571 52.6284 130.88 53.8259 131.93 55.2434C132.979 56.6609 133.727 58.2596 134.172 60.0397C134.65 61.8245 134.747 63.6657 134.464 65.5634C134.176 67.4927 133.543 69.2413 132.566 70.809C131.625 72.3499 130.445 73.6451 129.028 74.6946C127.615 75.7124 126.016 76.46 124.232 76.9374C122.451 77.3832 120.613 77.4645 118.715 77.1814C116.754 76.8889 114.971 76.2674 113.367 75.3168C111.795 74.3709 110.468 73.1869 109.387 71.7647C108.311 70.3108 107.531 68.7073 107.049 66.9542C106.603 65.1741 106.522 63.3352 106.805 61.4375ZM119.356 72.2333C120.526 72.4079 121.65 72.3493 122.729 72.0575C123.838 71.7704 124.816 71.2857 125.661 70.6035C126.538 69.9261 127.26 69.0961 127.827 68.1137C128.426 67.1361 128.817 66.0305 129.001 64.797C129.19 63.5319 129.143 62.3286 128.86 61.1872C128.61 60.0505 128.164 59.0302 127.523 58.1263C126.882 57.2224 126.072 56.4712 125.094 55.8727C124.122 55.2426 123.034 54.8379 121.832 54.6586C120.694 54.4887 119.583 54.5655 118.5 54.889C117.422 55.1808 116.442 55.6812 115.56 56.3903C114.683 57.0678 113.943 57.9112 113.34 58.9205C112.773 59.9029 112.398 61.0108 112.214 62.2443C112.03 63.4778 112.063 64.6629 112.314 65.7996C112.601 66.9093 113.065 67.9162 113.706 68.8201C114.379 69.7288 115.188 70.48 116.134 71.0737C117.112 71.6722 118.186 72.0588 119.356 72.2333ZM132.965 84.9813L134.614 73.9273L138.456 74.5006L150.695 54.5509L155.724 55.301L161.608 77.9542L165.451 78.5274L163.802 89.5814L159.959 89.0081L159.598 82.6496L139.056 79.5853L136.807 85.5546L132.965 84.9813ZM144.054 75.3357L156.01 77.1191L152.148 62.0422L144.054 75.3357ZM167.987 83.901L171.894 57.7131L182.568 59.3054C185.604 59.7583 187.859 60.7898 189.333 62.3999C190.806 64.01 191.363 66.0168 191.005 68.4206C190.859 69.401 190.419 70.2892 189.686 71.0852C188.953 71.8811 188.081 72.4139 187.071 72.6835C188.356 73.3924 189.289 74.2914 189.87 75.3804C190.487 76.4425 190.704 77.5902 190.52 78.8237C190.341 80.0256 189.938 81.0972 189.313 82.0385C188.692 82.9482 187.914 83.7212 186.979 84.3576C186.048 84.9624 184.982 85.3855 183.782 85.6268C182.582 85.8681 181.318 85.8897 179.99 85.6915L167.987 83.901ZM175.684 69.0449L180.76 69.8021C182.278 70.0286 183.468 69.9636 184.329 69.6071C185.227 69.2238 185.744 68.5735 185.881 67.6563C186.018 66.739 185.726 65.9843 185.007 65.3919C184.287 64.7995 183.152 64.3877 181.602 64.1566L176.526 63.3993L175.684 69.0449ZM174.077 79.8142L180.15 80.7201C181.541 80.9277 182.661 80.7876 183.51 80.2999C184.39 79.8169 184.908 79.0536 185.064 78.0099C185.215 76.9978 184.938 76.1481 184.232 75.4608C183.563 74.7467 182.532 74.2858 181.14 74.0782L175.068 73.1723L174.077 79.8142ZM193.561 87.716L197.468 61.528L202.829 62.3278L200.055 80.925L215.923 64.281L221.379 65.0949L217.472 91.2828L212.111 90.4831L214.878 71.9333L199.017 88.5299L193.561 87.716ZM220.326 91.7086L232.698 79.9747L224.612 65.5773L230.97 66.5256L238.084 79.9538L239.889 67.8561L245.297 68.6629L243.492 80.7605L254.216 69.9933L260.573 70.9417L248.638 82.3526L257.046 97.1862L250.452 96.2025L243.224 82.5633L241.391 94.8508L235.982 94.044L237.815 81.7566L226.921 92.6923L220.326 91.7086ZM280.743 92.525L286.578 93.3955C285.947 94.5945 285.14 95.6704 284.157 96.6231C283.179 97.5441 282.08 98.3016 280.859 98.8956C279.639 99.4895 278.332 99.9088 276.938 100.153C275.579 100.371 274.173 100.372 272.718 100.154C270.757 99.862 268.959 99.238 267.323 98.2827C265.719 97.3322 264.376 96.1458 263.295 94.7235C262.214 93.3013 261.433 91.7136 260.95 89.9605C260.505 88.1804 260.426 86.3257 260.713 84.3964C261.001 82.4671 261.618 80.7162 262.564 79.1437C263.51 77.5712 264.692 76.2602 266.109 75.2108C267.527 74.1613 269.125 73.4136 270.905 72.9679C272.69 72.4905 274.547 72.3957 276.477 72.6835C278.406 72.9713 280.139 73.6016 281.675 74.5744C283.247 75.5202 284.542 76.6996 285.56 78.1123C286.61 79.5298 287.355 81.1444 287.796 82.9561C288.237 84.7678 288.314 86.6383 288.026 88.5677C287.96 89.0104 287.887 89.3876 287.809 89.6992C287.734 89.9791 287.622 90.3018 287.47 90.6672L266.074 87.4754C266.09 88.4478 266.275 89.3806 266.626 90.2737C266.983 91.1352 267.482 91.9048 268.125 92.5826C268.767 93.2604 269.524 93.8259 270.394 94.279C271.295 94.7368 272.268 95.0436 273.312 95.1993C274.862 95.4305 276.237 95.3123 277.438 94.8449C278.671 94.3822 279.773 93.6089 280.743 92.525ZM266.694 82.6696L283.061 85.1112C282.884 83.0479 282.164 81.3724 280.901 80.0847C279.643 78.7654 277.939 77.9454 275.788 77.6245C274.744 77.4688 273.758 77.4673 272.83 77.6198C271.902 77.7724 271.05 78.0656 270.274 78.4995C269.498 78.9333 268.798 79.5079 268.174 80.2231C267.587 80.9114 267.093 81.7269 266.694 82.6696ZM290.206 102.133L294.112 75.9447L299.473 76.7444L297.909 87.2291L310.813 89.1541L312.377 78.6694L317.786 79.4762L313.879 105.664L308.471 104.857L310.084 94.0406L297.18 92.1156L295.567 102.932L290.206 102.133ZM319.301 106.473L323.207 80.2849L328.568 81.0846L325.794 99.6819L341.662 83.0379L347.118 83.8518L343.212 110.04L337.851 109.24L340.618 90.6902L324.757 107.287L319.301 106.473ZM369.465 105.76L375.3 106.63C374.669 107.829 373.862 108.905 372.879 109.858C371.901 110.779 370.802 111.537 369.581 112.13C368.361 112.724 367.054 113.144 365.66 113.388C364.301 113.606 362.895 113.606 361.44 113.389C359.479 113.097 357.681 112.473 356.045 111.518C354.441 110.567 353.098 109.381 352.017 107.958C350.936 106.536 350.154 104.949 349.672 103.195C349.227 101.415 349.148 99.5606 349.435 97.6313C349.723 95.702 350.34 93.9511 351.286 92.3786C352.232 90.8061 353.413 89.4951 354.831 88.4456C356.248 87.3961 357.847 86.6485 359.627 86.2028C361.412 85.7254 363.269 85.6306 365.198 85.9184C367.128 86.2062 368.861 86.8365 370.397 87.8092C371.969 88.7551 373.264 89.9344 374.282 91.3472C375.332 92.7647 376.077 94.3793 376.518 96.191C376.959 98.0027 377.036 99.8732 376.748 101.803C376.682 102.245 376.609 102.622 376.531 102.934C376.456 103.214 376.344 103.537 376.192 103.902L354.796 100.71C354.812 101.683 354.997 102.615 355.348 103.509C355.705 104.37 356.204 105.14 356.847 105.818C357.489 106.495 358.246 107.061 359.116 107.514C360.017 107.972 360.99 108.278 362.034 108.434C363.584 108.665 364.959 108.547 366.16 108.08C367.393 107.617 368.495 106.844 369.465 105.76ZM355.416 95.9045L371.783 98.3461C371.606 96.2827 370.886 94.6072 369.623 93.3196C368.365 92.0003 366.661 91.1802 364.51 90.8594C363.466 90.7037 362.48 90.7021 361.552 90.8547C360.624 91.0072 359.772 91.3005 358.996 91.7343C358.22 92.1682 357.52 92.7428 356.896 93.458C356.308 94.1463 355.815 94.9618 355.416 95.9045Z" fill="black"/>
</svg>
