<svg width="377" height="134" viewBox="0 0 377 134" fill="none" xmlns="http://www.w3.org/2000/svg">
<rect x="0.926758" y="53.6875" width="368.22" height="81.1098" rx="40.5549" transform="rotate(-8.25448 0.926758 53.6875)" fill="#E1B4F9"/>
<path d="M44.7055 100.947L41.3265 77.6552L62.2976 74.6128L65.6767 97.9047L60.9086 98.5964L58.1601 79.6507L46.7251 81.3096L49.4736 100.255L44.7055 100.947ZM71.6455 105.095L67.1218 73.913L71.5945 73.2641L72.0536 76.4287C72.8064 75.0845 73.8271 74.0029 75.1157 73.1841C76.4003 72.3371 77.9146 71.7871 79.6586 71.5341C81.3465 71.2892 82.9526 71.3722 84.477 71.7829C86.0296 72.1896 87.4059 72.866 88.6058 73.812C89.8299 74.7259 90.8454 75.8855 91.6524 77.2907C92.4554 78.6678 92.9833 80.2283 93.2364 81.9724C93.4894 83.7165 93.4146 85.3789 93.012 86.9596C92.6376 88.5362 91.9955 89.9506 91.0857 91.2027C90.204 92.4508 89.0767 93.4904 87.7037 94.3214C86.3588 95.1484 84.8425 95.6844 83.1546 95.9292C81.5512 96.1618 80.0778 96.1027 78.7344 95.7519C77.3869 95.3729 76.0971 94.6984 74.8649 93.7282L76.4136 104.404L71.6455 105.095ZM82.0539 91.6082C83.1228 91.4532 84.0788 91.1134 84.9218 90.589C85.793 90.0605 86.5031 89.4118 87.0522 88.6428C87.6253 87.8416 88.0394 86.9342 88.2944 85.9206C88.5495 84.9071 88.5995 83.8658 88.4444 82.7968C88.2771 81.6435 87.9272 80.6172 87.3946 79.7179C86.8901 78.8145 86.2353 78.0622 85.43 77.461C84.6528 76.8556 83.7716 76.4234 82.7861 76.1643C81.8007 75.9051 80.7594 75.8551 79.6623 76.0143C78.5934 76.1693 77.6394 76.5231 76.8005 77.0757C75.9574 77.6001 75.2494 78.2629 74.6763 79.0641C74.1032 79.8653 73.6911 80.7868 73.4401 81.8285C73.1851 82.842 73.1371 83.8973 73.2963 84.9944C73.4513 86.0634 73.7952 87.0475 74.3277 87.9468C74.8603 88.8461 75.5152 89.5984 76.2923 90.2037C77.0935 90.7768 77.9868 91.193 78.9723 91.4521C79.9577 91.7113 80.9849 91.7633 82.0539 91.6082ZM96.0312 81.6531C95.7823 79.9372 95.8591 78.2889 96.2617 76.7082C96.6924 75.1234 97.3907 73.7008 98.3568 72.4405C99.3229 71.1802 100.506 70.1325 101.908 69.2973C103.333 68.4299 104.917 67.8697 106.661 67.6167C108.349 67.3719 109.986 67.4648 111.57 67.8955C113.155 68.3262 114.576 69.0105 115.832 69.9485C117.088 70.8864 118.134 72.0559 118.969 73.457C119.832 74.8541 120.386 76.3965 120.631 78.0843C120.88 79.8003 120.789 81.4506 120.359 83.0354C119.952 84.588 119.28 85.9924 118.342 87.2486C117.4 88.4767 116.23 89.5224 114.833 90.3857C113.432 91.2209 111.887 91.7609 110.2 92.0057C108.456 92.2587 106.779 92.186 105.17 91.7875C103.59 91.3849 102.157 90.7167 100.873 89.7829C99.5843 88.8209 98.5104 87.6555 97.6512 86.2865C96.8161 84.8854 96.2761 83.3409 96.0312 81.6531ZM109.479 87.6296C110.519 87.4786 111.461 87.1409 112.304 86.6165C113.176 86.088 113.884 85.4252 114.429 84.6281C115.002 83.8269 115.404 82.9356 115.635 81.9543C115.894 80.9688 115.944 79.9276 115.785 78.8305C115.622 77.7053 115.274 76.693 114.741 75.7937C114.237 74.8903 113.596 74.136 112.819 73.5307C112.042 72.9254 111.16 72.4931 110.175 72.234C109.185 71.9467 108.156 71.8806 107.087 72.0357C106.074 72.1826 105.149 72.5323 104.31 73.0849C103.467 73.6093 102.761 74.2861 102.192 75.1155C101.618 75.9167 101.204 76.8241 100.949 77.8376C100.718 78.819 100.682 79.8582 100.841 80.9553C101.001 82.0524 101.332 83.0526 101.837 83.956C102.365 84.8271 103.018 85.5654 103.795 86.1707C104.601 86.7719 105.482 87.2042 106.439 87.4674C107.425 87.7266 108.438 87.7806 109.479 87.6296ZM124.326 94.9971L122.9 85.1656L126.318 84.6697L131.628 64.5548L136.101 63.9059L146.909 81.6825L150.327 81.1867L151.753 91.0182L148.335 91.514L146.4 86.1939L128.13 88.8445L127.744 94.5013L124.326 94.9971ZM131.297 83.9474L141.93 82.4048L134.783 70.5597L131.297 83.9474ZM153.862 85.1115L150.483 61.8195L159.977 60.4422C162.677 60.0505 164.861 60.3512 166.527 61.3445C168.193 62.3379 169.182 63.9035 169.492 66.0414C169.618 66.9134 169.471 67.782 169.051 68.6472C168.631 69.5124 168.025 70.1891 167.235 70.6772C168.51 70.9518 169.534 71.4782 170.307 72.2564C171.105 73.0023 171.583 73.9238 171.742 75.0209C171.897 76.0899 171.829 77.1051 171.538 78.0664C171.242 78.9997 170.778 79.8569 170.145 80.6382C169.507 81.3913 168.708 82.0241 167.749 82.5367C166.789 83.0493 165.719 83.3913 164.537 83.5627L153.862 85.1115ZM156.61 70.4952L161.125 69.8402C162.475 69.6444 163.471 69.2844 164.113 68.7604C164.779 68.2043 165.053 67.5183 164.935 66.7025C164.816 65.8867 164.375 65.3189 163.61 64.9989C162.846 64.679 161.775 64.619 160.396 64.819L155.881 65.474L156.61 70.4952ZM157.999 80.0736L163.4 79.2901C164.638 79.1105 165.556 78.7045 166.153 78.0721C166.779 77.4356 167.024 76.6532 166.89 75.7249C166.759 74.8247 166.306 74.1725 165.529 73.7682C164.776 73.3316 163.781 73.2031 162.543 73.3827L157.142 74.1662L157.999 80.0736ZM176.608 81.8116L173.229 58.5197L177.997 57.828L180.396 74.3686L189.643 56.1385L194.495 55.4345L197.874 78.7264L193.106 79.4182L190.713 62.9197L181.46 81.1077L176.608 81.8116ZM200.413 78.3582L207.94 65.2028L197.371 55.0173L203.026 54.197L212.519 63.806L210.958 53.0462L215.769 52.3483L217.33 63.1082L223.701 51.1975L229.356 50.3772L222.117 63.146L233.072 73.6202L227.207 74.471L217.562 64.7116L219.148 75.6402L214.337 76.3381L212.752 65.4094L206.278 77.5073L200.413 78.3582ZM252.05 63.5859L257.24 62.833C257.009 64.0153 256.598 65.1378 256.005 66.2003C255.408 67.2347 254.667 68.1609 253.78 68.9788C252.893 69.7968 251.888 70.4884 250.764 71.0536C249.663 71.5866 248.466 71.947 247.172 72.1347C245.428 72.3877 243.738 72.317 242.101 71.9226C240.492 71.5241 239.045 70.858 237.761 69.9241C236.476 68.9903 235.405 67.8389 234.545 66.47C233.71 65.0688 233.168 63.5103 232.919 61.7944C232.67 60.0784 232.747 58.4301 233.15 56.8494C233.552 55.2687 234.223 53.8502 235.161 52.594C236.098 51.3378 237.268 50.2921 238.669 49.4569C240.066 48.5936 241.623 48.0375 243.339 47.7886C245.055 47.5396 246.691 47.6326 248.248 48.0673C249.828 48.4699 251.233 49.1422 252.461 50.0842C253.717 51.0221 254.765 52.2057 255.604 53.635C256.443 55.0643 256.987 56.6369 257.236 58.3528C257.293 58.7466 257.328 59.0862 257.341 59.3716C257.35 59.6289 257.336 59.9324 257.301 60.2822L238.271 63.043C238.534 63.8665 238.929 64.6133 239.457 65.2835C239.981 65.9255 240.603 66.4528 241.324 66.8653C242.044 67.2778 242.833 67.5655 243.689 67.7284C244.574 67.8873 245.481 67.8994 246.409 67.7648C247.787 67.5648 248.928 67.1121 249.831 66.4066C250.762 65.6971 251.502 64.7569 252.05 63.5859ZM237.568 58.7935L252.125 56.6816C251.446 54.9706 250.404 53.7287 249 52.9559C247.591 52.155 245.93 51.8933 244.017 52.1708C243.089 52.3055 242.25 52.5565 241.499 52.9239C240.748 53.2914 240.098 53.7591 239.548 54.3271C238.999 54.8951 238.55 55.5634 238.202 56.3319C237.878 57.0683 237.666 57.8888 237.568 58.7935ZM262.565 69.3416L259.185 46.0497L263.954 45.358L265.306 54.6832L276.784 53.0182L275.431 43.693L280.241 42.9951L283.62 66.287L278.81 66.9849L277.414 57.3643L265.937 59.0293L267.333 68.6499L262.565 69.3416ZM288.442 65.5875L285.063 42.2956L289.831 41.6038L292.231 58.1445L301.477 39.9143L306.33 39.2104L309.709 62.5023L304.941 63.194L302.547 46.6956L293.295 64.8835L288.442 65.5875ZM330.96 52.1381L336.15 51.3852C335.92 52.5675 335.508 53.69 334.916 54.7525C334.319 55.7869 333.577 56.7131 332.691 57.5311C331.804 58.349 330.798 59.0406 329.674 59.6058C328.574 60.1388 327.377 60.4992 326.083 60.6869C324.339 60.94 322.648 60.8693 321.011 60.4748C319.402 60.0764 317.956 59.4102 316.671 58.4763C315.387 57.5425 314.315 56.3911 313.456 55.0222C312.621 53.6211 312.079 52.0625 311.83 50.3466C311.581 48.6306 311.658 46.9823 312.06 45.4016C312.463 43.8209 313.133 42.4025 314.071 41.1462C315.009 39.89 316.179 38.8443 317.58 38.0091C318.977 37.1458 320.533 36.5897 322.249 36.3408C323.965 36.0919 325.601 36.1848 327.158 36.6196C328.739 37.0221 330.143 37.6944 331.371 38.6364C332.627 39.5744 333.675 40.758 334.514 42.1872C335.354 43.6165 335.898 45.1891 336.147 46.905C336.204 47.2989 336.239 47.6385 336.251 47.9238C336.26 48.1811 336.247 48.4846 336.211 48.8344L317.181 51.5952C317.444 52.4187 317.84 53.1655 318.368 53.8357C318.892 54.4778 319.514 55.005 320.234 55.4175C320.955 55.83 321.743 56.1177 322.6 56.2807C323.485 56.4395 324.391 56.4516 325.32 56.317C326.698 56.117 327.839 55.6643 328.742 54.9589C329.673 54.2493 330.412 53.3091 330.96 52.1381ZM316.478 47.3457L331.036 45.2338C330.357 43.5228 329.315 42.2809 327.91 41.5081C326.502 40.7072 324.841 40.4455 322.928 40.723C322 40.8577 321.16 41.1087 320.409 41.4762C319.658 41.8436 319.008 42.3113 318.459 42.8793C317.909 43.4473 317.46 44.1156 317.112 44.8841C316.788 45.6205 316.577 46.441 316.478 47.3457Z" fill="black"/>
</svg>
