<svg width="377" height="136" viewBox="0 0 377 136" fill="none" xmlns="http://www.w3.org/2000/svg">
<rect x="12.6719" y="0.554688" width="368.22" height="81.1098" rx="40.5549" transform="rotate(8.48439 12.6719 0.554688)" fill="#E1B4F9"/>
<path d="M40.9849 58.4197L44.4573 35.1415L65.4161 38.268L61.9437 61.5461L57.1784 60.8353L60.0029 41.9007L48.5747 40.1959L45.7501 59.1305L40.9849 58.4197ZM65.5886 70.1512L70.2374 38.9872L74.7075 39.654L74.2357 42.8168C75.3438 41.7463 76.6327 41.0045 78.1026 40.5915C79.5766 40.1504 81.1851 40.0599 82.9282 40.3199C84.615 40.5715 86.1292 41.1135 87.4707 41.9459C88.8404 42.7825 89.9635 43.8266 90.8402 45.0782C91.7491 46.3059 92.3877 47.7087 92.7558 49.2868C93.1281 50.8368 93.1843 52.4833 92.9242 54.2264C92.6642 55.9695 92.1138 57.5399 91.2731 58.9376C90.4604 60.3396 89.4381 61.5091 88.2062 62.4462C87.0025 63.3874 85.6235 64.0583 84.0693 64.4587C82.5433 64.8633 80.9368 64.9398 79.25 64.6882C77.6475 64.4491 76.2536 63.9682 75.0681 63.2453C73.8869 62.4943 72.846 61.4768 71.9454 60.1929L70.3539 70.8621L65.5886 70.1512ZM79.4404 60.2332C80.5087 60.3926 81.522 60.3426 82.4804 60.0832C83.4668 59.828 84.3337 59.4113 85.081 58.833C85.8605 58.2308 86.5184 57.4811 87.0546 56.584C87.5908 55.6868 87.9386 54.7041 88.0979 53.6358C88.2699 52.4831 88.2303 51.3995 87.9793 50.3849C87.7564 49.3745 87.346 48.4655 86.748 47.6578C86.1781 46.8543 85.4587 46.1866 84.5896 45.6546C83.7206 45.1226 82.7378 44.7748 81.6414 44.6113C80.5731 44.4519 79.5576 44.516 78.5951 44.8035C77.6367 45.0629 76.7678 45.4936 75.9882 46.0958C75.2086 46.698 74.5487 47.4618 74.0083 48.387C73.4721 49.2842 73.1222 50.281 72.9587 51.3774C72.7993 52.4457 72.8451 53.4872 73.0961 54.5018C73.3471 55.5163 73.7576 56.4254 74.3275 57.2289C74.9297 58.0085 75.6653 58.6642 76.5343 59.1962C77.4034 59.7282 78.372 60.0739 79.4404 60.2332ZM95.6926 54.7256C95.9484 53.0106 96.4967 51.4543 97.3375 50.0565C98.2064 48.663 99.2849 47.5018 100.573 46.5731C101.861 45.6445 103.296 44.982 104.879 44.5858C106.493 44.1656 108.172 44.0856 109.915 44.3456C111.602 44.5972 113.142 45.1575 114.536 46.0263C115.929 46.8952 117.092 47.9597 118.025 49.2197C118.958 50.4797 119.623 51.9008 120.019 53.4831C120.443 55.0696 120.53 56.7062 120.278 58.3931C120.022 60.108 119.46 61.6622 118.591 63.0558C117.754 64.4255 116.706 65.5767 115.446 66.5096C114.19 67.4144 112.769 68.0789 111.183 68.5033C109.6 68.8995 107.966 68.9718 106.279 68.7202C104.536 68.4602 102.952 67.9077 101.526 67.0627C100.128 66.2219 98.9485 65.1695 97.9875 63.9053C97.0307 62.613 96.3381 61.1876 95.9095 59.6293C95.5133 58.047 95.441 56.4124 95.6926 54.7256ZM106.849 64.3219C107.889 64.477 108.888 64.4249 109.847 64.1655C110.833 63.9103 111.702 63.4795 112.454 62.8732C113.233 62.271 113.875 61.5332 114.379 60.66C114.911 59.791 115.259 58.8082 115.422 57.7118C115.59 56.5872 115.548 55.5177 115.297 54.5031C115.074 53.4927 114.678 52.5858 114.108 51.7823C113.538 50.9788 112.819 50.311 111.95 49.7791C111.085 49.219 110.118 48.8592 109.05 48.6999C108.038 48.5489 107.051 48.6171 106.088 48.9047C105.13 49.164 104.259 49.6089 103.475 50.2392C102.695 50.8414 102.037 51.5911 101.501 52.4882C100.997 53.3615 100.664 54.3463 100.5 55.4427C100.336 56.5392 100.366 57.5926 100.589 58.603C100.844 59.5894 101.257 60.4844 101.827 61.2879C102.425 62.0956 103.144 62.7633 103.985 63.2911C104.854 63.8231 105.809 64.1667 106.849 64.3219ZM118.945 75.6534L120.411 65.8277L123.827 66.3372L134.706 48.6041L139.176 49.2709L144.406 69.4071L147.822 69.9166L146.356 79.7424L142.94 79.2328L142.62 73.5808L124.36 70.8569L122.361 76.1629L118.945 75.6534ZM128.803 67.0795L139.43 68.6648L135.997 55.2631L128.803 67.0795ZM150.077 74.6932L153.549 51.415L163.037 52.8304C165.736 53.233 167.741 54.1499 169.05 55.581C170.36 57.0122 170.856 58.7961 170.537 60.9327C170.407 61.8043 170.016 62.5938 169.364 63.3013C168.713 64.0088 167.938 64.4824 167.04 64.722C168.182 65.3522 169.011 66.1513 169.528 67.1192C170.077 68.0633 170.269 69.0836 170.106 70.18C169.946 71.2483 169.589 72.2008 169.033 73.0376C168.481 73.8462 167.789 74.5333 166.958 75.099C166.13 75.6366 165.183 76.0127 164.117 76.2272C163.05 76.4417 161.927 76.4608 160.746 76.2847L150.077 74.6932ZM156.918 61.4877L161.43 62.1608C162.78 62.3621 163.837 62.3043 164.603 61.9875C165.401 61.6467 165.861 61.0686 165.982 60.2533C166.104 59.438 165.845 58.7671 165.205 58.2406C164.565 57.714 163.556 57.348 162.179 57.1425L157.666 56.4694L156.918 61.4877ZM155.49 71.0604L160.888 71.8656C162.125 72.0502 163.12 71.9257 163.875 71.4922C164.657 71.0628 165.118 70.3843 165.256 69.4566C165.39 68.5569 165.144 67.8017 164.516 67.1908C163.921 66.5559 163.005 66.1463 161.768 65.9618L156.371 65.1565L155.49 71.0604ZM172.809 78.0842L176.282 54.8061L181.047 55.5169L178.581 72.0478L192.686 57.2531L197.536 57.9766L194.063 81.2547L189.298 80.5439L191.758 64.0552L177.659 78.8077L172.809 78.0842ZM196.6 81.6332L207.597 71.2031L200.41 58.4054L206.061 59.2483L212.385 71.1845L213.989 60.431L218.797 61.1481L217.192 71.9016L226.725 62.3308L232.375 63.1737L221.766 73.3168L229.24 86.5022L223.379 85.6278L216.953 73.5041L215.324 84.4263L210.517 83.7091L212.146 72.787L202.462 82.5076L196.6 81.6332ZM250.304 82.3589L255.491 83.1326C254.93 84.1985 254.212 85.1548 253.339 86.0016C252.469 86.8204 251.492 87.4937 250.408 88.0216C249.323 88.5496 248.161 88.9223 246.921 89.1397C245.714 89.3333 244.464 89.3336 243.171 89.1407C241.428 88.8806 239.829 88.3261 238.375 87.4769C236.949 86.6319 235.756 85.5773 234.795 84.3132C233.834 83.049 233.139 81.6377 232.711 80.0793C232.314 78.497 232.244 76.8484 232.5 75.1335C232.756 73.4185 233.304 71.8622 234.145 70.4644C234.986 69.0667 236.036 67.9013 237.296 66.9685C238.556 66.0356 239.977 65.371 241.559 64.9748C243.146 64.5505 244.797 64.4662 246.512 64.722C248.227 64.9778 249.767 65.5381 251.132 66.4028C252.53 67.2436 253.681 68.2918 254.586 69.5476C255.519 70.8076 256.181 72.2428 256.573 73.8532C256.965 75.4636 257.033 77.1263 256.778 78.8413C256.719 79.2349 256.655 79.5701 256.585 79.8471C256.519 80.0959 256.418 80.3827 256.284 80.7075L237.265 77.8704C237.28 78.7348 237.443 79.5639 237.756 80.3577C238.073 81.1235 238.517 81.8076 239.088 82.4101C239.659 83.0126 240.331 83.5153 241.105 83.918C241.906 84.325 242.771 84.5976 243.698 84.736C245.076 84.9415 246.299 84.8365 247.367 84.421C248.463 84.0097 249.442 83.3224 250.304 82.3589ZM237.816 73.5986L252.365 75.7689C252.207 73.9348 251.567 72.4455 250.445 71.3009C249.326 70.1282 247.811 69.3992 245.9 69.114C244.972 68.9757 244.095 68.9743 243.27 69.1098C242.446 69.2454 241.688 69.5061 240.998 69.8917C240.309 70.2774 239.686 70.7881 239.132 71.4239C238.609 72.0357 238.171 72.7606 237.816 73.5986ZM258.715 90.8991L262.188 67.6209L266.953 68.3317L265.563 77.6514L277.033 79.3625L278.423 70.0428L283.231 70.7599L279.758 94.0381L274.951 93.321L276.385 83.7061L264.915 81.995L263.481 91.6099L258.715 90.8991ZM284.578 94.757L288.05 71.4788L292.815 72.1897L290.35 88.7206L304.455 73.9259L309.304 74.6494L305.832 97.9275L301.066 97.2167L303.526 80.728L289.427 95.4805L284.578 94.757ZM329.168 94.1232L334.355 94.897C333.793 95.9628 333.076 96.9191 332.202 97.766C331.333 98.5847 330.356 99.258 329.272 99.786C328.187 100.314 327.025 100.687 325.785 100.904C324.578 101.098 323.328 101.098 322.035 100.905C320.292 100.645 318.693 100.09 317.239 99.2412C315.813 98.3963 314.62 97.3417 313.659 96.0775C312.698 94.8133 312.003 93.402 311.575 91.8437C311.178 90.2614 311.108 88.6127 311.364 86.8978C311.62 85.1829 312.168 83.6265 313.009 82.2288C313.85 80.831 314.9 79.6657 316.16 78.7328C317.42 77.7999 318.841 77.1354 320.423 76.7391C322.01 76.3148 323.661 76.2305 325.376 76.4863C327.09 76.7422 328.631 77.3024 329.996 78.1671C331.394 79.0079 332.545 80.0562 333.45 81.312C334.383 82.572 335.045 84.0072 335.437 85.6176C335.829 87.228 335.897 88.8907 335.642 90.6056C335.583 90.9992 335.519 91.3345 335.448 91.6114C335.383 91.8602 335.282 92.147 335.148 92.4718L316.129 89.6347C316.143 90.4991 316.307 91.3282 316.62 92.1221C316.937 92.8878 317.381 93.572 317.952 94.1745C318.523 94.777 319.195 95.2796 319.969 95.6824C320.77 96.0893 321.635 96.362 322.562 96.5004C323.94 96.7059 325.163 96.6009 326.231 96.1854C327.327 95.7741 328.306 95.0867 329.168 94.1232ZM316.68 85.3629L331.229 87.5332C331.071 85.6991 330.431 84.2098 329.309 83.0652C328.19 81.8925 326.675 81.1636 324.763 80.8784C323.836 80.74 322.959 80.7386 322.134 80.8742C321.31 81.0098 320.552 81.2704 319.862 81.6561C319.173 82.0418 318.55 82.5525 317.996 83.1882C317.473 83.8 317.035 84.5249 316.68 85.3629Z" fill="black"/>
</svg>
