<svg width="160" height="96" viewBox="0 0 160 96" fill="none" xmlns="http://www.w3.org/2000/svg">
<rect x="9.92969" y="0.957031" width="150.824" height="77.4118" rx="38.7059" transform="rotate(6.80597 9.92969 0.957031)" fill="#A1BBEF"/>
<path d="M38.5791 55.9455L41.2054 33.9401L44.1824 34.2954L43.8079 37.4332C44.1733 36.8784 44.5693 36.4089 44.996 36.0246C45.4527 35.6166 45.9401 35.294 46.458 35.0566C47.0028 34.8224 47.6066 34.6632 48.2695 34.5791C48.9324 34.495 49.6693 34.4742 50.4803 34.5166L50.1298 37.4533C48.0123 37.4182 46.3633 37.9014 45.1829 38.903C44.0325 39.881 43.3341 41.4025 43.0877 43.4676L41.556 56.3008L38.5791 55.9455ZM51.1452 46.3062C51.3437 44.6434 51.8093 43.1349 52.5422 41.7807C53.3019 40.4296 54.2655 39.307 55.4331 38.4127C56.6007 37.5184 57.9288 36.8744 59.4175 36.4809C60.9093 36.0605 62.5001 35.9511 64.1897 36.1528C65.7989 36.3448 67.2522 36.8175 68.5495 37.5708C69.8737 38.3272 70.9696 39.2877 71.8371 40.4521C72.7346 41.5928 73.3801 42.9076 73.7737 44.3962C74.1973 45.8612 74.3098 47.4252 74.1114 49.088C73.9129 50.7508 73.4489 52.2459 72.7192 53.5733C71.9896 54.9007 71.0677 56.0147 69.9538 56.9155C68.8398 57.8162 67.5503 58.4783 66.0853 58.9019C64.6503 59.3019 63.1282 59.4058 61.519 59.2138C59.8294 59.0121 58.2941 58.5433 56.913 57.8072C55.562 57.0475 54.4243 56.0957 53.5 54.9517C52.5789 53.7809 51.9065 52.463 51.4829 50.998C51.0625 49.5061 50.95 47.9422 51.1452 46.3062ZM61.7651 56.4686C62.9719 56.6126 64.1105 56.5309 65.1809 56.2234C66.2513 55.9159 67.1933 55.4299 68.0071 54.7654C68.824 54.0741 69.4977 53.216 70.028 52.1912C70.5851 51.1697 70.9389 50.0286 71.0894 48.7681C71.243 47.4808 71.1709 46.2617 70.873 45.1109C70.602 43.9633 70.124 42.9542 69.439 42.0836C68.7809 41.2162 67.9545 40.5055 66.9597 39.9516C65.9682 39.3708 64.8555 39.0068 63.6218 38.8596C62.415 38.7155 61.2747 38.8106 60.2012 39.1449C59.1308 39.4524 58.1722 39.9636 57.3252 40.6786C56.4814 41.3667 55.7794 42.235 55.219 43.2834C54.6619 44.305 54.3081 45.446 54.1576 46.7065C54.0072 47.9671 54.0825 49.1593 54.3836 50.2833C54.6879 51.3805 55.1825 52.3644 55.8674 53.235C56.5524 54.1055 57.3906 54.8312 58.3822 55.412C59.4037 55.9691 60.5314 56.3213 61.7651 56.4686ZM96.3592 56.2723L99.7385 56.6756C98.1663 58.9089 96.4397 60.4981 94.5588 61.4433C92.6811 62.3617 90.5354 62.6768 88.1216 62.3887C86.432 62.1871 84.8848 61.7032 83.4802 60.9371C82.1023 60.1743 80.9394 59.2058 79.9915 58.0318C79.0435 56.8578 78.3444 55.5367 77.894 54.0685C77.4468 52.5734 77.3208 51.0079 77.516 49.3719C77.7081 47.7627 78.1958 46.2977 78.9791 44.9767C79.7624 43.6557 80.7378 42.548 81.9054 41.6537C83.103 40.7358 84.4477 40.0666 85.9396 39.6462C87.4583 39.2291 89.0356 39.1181 90.6716 39.3133C93.1658 39.611 95.315 40.5204 97.1192 42.0414C98.9234 43.5624 100.135 45.4887 100.755 47.8203L97.4155 47.4218C96.7301 45.8712 95.7752 44.6419 94.5506 43.7341C93.3561 42.8027 91.9409 42.2394 90.3049 42.0441C89.0712 41.8969 87.8907 41.9872 86.7635 42.3151C85.6632 42.6462 84.6761 43.1676 83.8023 43.8794C82.9317 44.5644 82.2044 45.416 81.6204 46.4344C81.0365 47.4527 80.6709 48.5788 80.5236 49.8125C80.3764 51.0462 80.4667 52.2266 80.7946 53.3538C81.1257 54.4542 81.6455 55.4547 82.3541 56.3553C83.0659 57.2291 83.9309 57.958 84.9493 58.5419C85.9677 59.1259 87.0937 59.4915 88.3274 59.6387C89.9098 59.8276 91.3026 59.6674 92.5058 59.1582C93.7359 58.6521 95.0203 57.6902 96.3592 56.2723ZM103.087 63.6445L106.636 33.915L109.613 34.2703L107.097 55.3505L118.949 43.2187L122.61 43.6556L112.721 53.696L120.547 65.7282L116.846 65.2865L110.576 55.6025L106.607 59.4538L106.064 63.9998L103.087 63.6445Z" fill="black"/>
</svg>
