<svg width="163" height="104" viewBox="0 0 163 104" fill="none" xmlns="http://www.w3.org/2000/svg">
<rect x="0.259766" y="27.7559" width="150.824" height="77.4118" rx="38.7059" transform="rotate(-10.4758 0.259766 27.7559)" fill="#A1BBEF"/>
<path d="M43.9517 71.7514L39.9223 49.9591L42.8704 49.414L43.445 52.5215C43.6291 51.8832 43.8678 51.3172 44.1611 50.8234C44.476 50.2983 44.8455 49.8454 45.2695 49.4648C45.7201 49.0794 46.2494 48.748 46.8574 48.4708C47.4653 48.1936 48.1628 47.9548 48.9498 47.7543L49.4875 50.6626C47.4552 51.2581 46.0242 52.2094 45.1946 53.5164C44.3867 54.792 44.1718 56.4523 44.55 58.4974L46.8999 71.2062L43.9517 71.7514ZM53.087 58.8142C52.7826 57.1675 52.7791 55.5887 53.0765 54.0779C53.4006 52.5622 53.9872 51.204 54.8364 50.0032C55.6856 48.8024 56.7625 47.793 58.067 46.9749C59.3666 46.1304 60.8531 45.5534 62.5263 45.244C64.1199 44.9493 65.648 44.9689 67.1106 45.3028C68.5997 45.6317 69.9314 46.2232 71.1057 47.0774C72.3015 47.9 73.3085 48.9636 74.1265 50.2681C74.9662 51.5412 75.5383 53.0011 75.8428 54.6478C76.1473 56.2945 76.1483 57.8599 75.8459 59.3442C75.5435 60.8284 74.9943 62.166 74.1982 63.357C73.4021 64.548 72.3675 65.5633 71.0945 66.403C69.8431 67.2112 68.4206 67.7626 66.827 68.0573C65.1537 68.3667 63.5484 68.3751 62.0111 68.0825C60.4954 67.7585 59.1263 67.1876 57.9038 66.3699C56.6765 65.5256 55.643 64.4669 54.8033 63.1938C53.9587 61.8942 53.3866 60.4343 53.087 58.8142ZM66.2464 65.3629C67.4416 65.1419 68.5045 64.7256 69.4352 64.1141C70.3659 63.5025 71.121 62.7586 71.7006 61.8823C72.2753 60.9795 72.6637 59.9601 72.8656 58.824C73.0941 57.683 73.093 56.4884 72.8622 55.2401C72.6265 53.9652 72.1954 52.8226 71.5691 51.8123C70.9694 50.797 70.2132 49.9754 69.3005 49.3476C68.4145 48.7149 67.4142 48.2818 66.2998 48.0484C65.1805 47.7884 64.01 47.7714 62.7882 47.9973C61.593 48.2183 60.5326 48.6478 59.6068 49.2859C58.6761 49.8975 57.9126 50.6704 57.3162 51.6047C56.715 52.5125 56.3025 53.5501 56.0789 54.7176C55.8504 55.8586 55.8516 57.0532 56.0824 58.3015C56.3132 59.5498 56.7393 60.6659 57.3607 61.6497C57.9772 62.607 58.7417 63.3995 59.6544 64.0273C60.567 64.6551 61.583 65.099 62.7023 65.359C63.8433 65.5875 65.0246 65.5888 66.2464 65.3629ZM99.2205 54.8986L102.567 54.2798C101.729 56.8793 100.553 58.9097 99.0375 60.371C97.5174 61.8057 95.5622 62.7441 93.1718 63.186C91.4985 63.4954 89.8775 63.493 88.3087 63.1788C86.7664 62.8597 85.3683 62.2804 84.1144 61.4411C82.8605 60.6017 81.8004 59.5479 80.9342 58.2797C80.063 56.985 79.4777 55.5276 79.1781 53.9075C78.8834 52.3139 78.9138 50.7701 79.2694 49.276C79.6249 47.782 80.2272 46.4345 81.0764 45.2337C81.9473 44.0015 83.0325 42.963 84.3321 42.1185C85.6583 41.269 87.1315 40.6944 88.7516 40.3948C91.2217 39.9381 93.544 40.1679 95.7186 41.0843C97.8932 42.0007 99.6225 43.4801 100.907 45.5224L97.5999 46.1339C96.4848 44.8568 95.2078 43.9667 93.7688 43.4637C92.3516 42.9292 90.8328 42.8117 89.2127 43.1113C87.991 43.3372 86.8906 43.7741 85.9117 44.4221C84.9594 45.0651 84.1718 45.8562 83.5489 46.7955C82.9211 47.7081 82.4796 48.7374 82.2245 49.8832C81.9695 51.0291 81.9549 52.2129 82.1808 53.4347C82.4067 54.6564 82.8436 55.7567 83.4916 56.7356C84.1346 57.688 84.9282 58.4889 85.8723 59.1383C86.8115 59.7612 87.8541 60.2002 88.9999 60.4553C90.1458 60.7104 91.3296 60.725 92.5514 60.4991C94.1184 60.2093 95.4007 59.6426 96.3983 58.7989C97.4226 57.9503 98.3633 56.6502 99.2205 54.8986ZM107.835 59.9392L102.391 30.4978L105.339 29.9526L109.199 50.8285L116.913 35.7234L120.538 35.053L114.078 47.578L125.125 56.7421L121.46 57.4198L112.596 50.0357L109.951 54.8922L110.783 59.394L107.835 59.9392Z" fill="black"/>
</svg>
