<svg width="296" height="98" viewBox="0 0 296 98" fill="none" xmlns="http://www.w3.org/2000/svg">
<rect x="0.259766" y="21.6416" width="290.441" height="75.7206" rx="37.8603" transform="rotate(-4.20744 0.259766 21.6416)" fill="#32E97B"/>
<path d="M38.0444 68.8569L36.4531 47.2264L55.0782 45.8563L56.6695 67.4868L53.7433 67.702L52.3469 48.721L39.5742 49.6606L40.9706 68.6417L38.0444 68.8569ZM60.0148 56.3868C59.8945 54.7523 60.0598 53.2161 60.5106 51.7781C60.9878 50.3382 61.7036 49.0796 62.6581 48.0022C63.6125 46.9248 64.768 46.0579 66.1245 45.4015C67.479 44.7187 68.9867 44.3162 70.6476 44.194C72.2293 44.0777 73.7138 44.26 75.1009 44.7411C76.5145 45.2202 77.7467 45.938 78.7978 46.8944C79.8733 47.8225 80.7392 48.9647 81.3956 50.3212C82.0764 51.6494 82.477 53.1307 82.5972 54.7652C82.7175 56.3997 82.5512 57.9227 82.0984 59.3343C81.6457 60.7459 80.9684 61.9884 80.0667 63.062C79.165 64.1355 78.05 65.0127 76.7218 65.6935C75.4181 66.346 73.9753 66.7305 72.3936 66.8469C70.7327 66.969 69.1702 66.8057 67.7058 66.3568C66.266 65.8796 64.9951 65.1779 63.8933 64.2518C62.7895 63.2993 61.8972 62.1589 61.2164 60.8308C60.5336 59.4762 60.1331 57.9949 60.0148 56.3868ZM72.1167 64.1637C73.303 64.0764 74.3815 63.785 75.3523 63.2895C76.323 62.794 77.1371 62.151 77.7946 61.3605C78.4502 60.5436 78.9369 59.5934 79.2547 58.5098C79.5989 57.4243 79.7255 56.262 79.6343 55.0229C79.5412 53.7575 79.244 52.5999 78.7427 51.5501C78.2678 50.4983 77.6199 49.6183 76.7992 48.91C76.0048 48.1998 75.078 47.6716 74.0188 47.3255C72.9577 46.9529 71.8208 46.8113 70.6081 46.9005C69.4218 46.9878 68.3443 47.2923 67.3754 47.8142C66.4047 48.3097 65.5793 48.98 64.8994 49.8252C64.2175 50.644 63.7054 51.6094 63.3631 52.7213C63.0189 53.8068 62.8923 54.9691 62.9835 56.2081C63.0746 57.4472 63.3699 58.5784 63.8693 59.6019C64.3667 60.599 65.0258 61.4517 65.8465 62.16C66.6673 62.8682 67.6082 63.4086 68.6693 63.7812C69.7549 64.1254 70.904 64.2529 72.1167 64.1637ZM84.2839 70.4648L83.7225 62.8328L86.5301 62.6263L93.2402 43.0488L96.5619 42.8045L106.065 61.1892L108.872 60.9826L109.434 68.6146L107.417 68.763L105.983 63.859L87.0018 65.2553L86.3007 70.3164L84.2839 70.4648ZM89.6145 62.3993L102.98 61.4161L95.1454 46.2484L89.6145 62.3993ZM110.775 68.5159L110.214 60.8839L113.021 60.6774L119.731 41.1L123.053 40.8556L132.556 59.2403L135.364 59.0338L135.925 66.6657L133.908 66.8141L132.474 61.9101L113.493 63.3065L112.792 68.3675L110.775 68.5159ZM116.106 60.4505L129.472 59.4672L121.637 44.2995L116.106 60.4505ZM154.452 53.1369L157.497 52.9129C157.185 54.0756 156.708 55.1576 156.066 56.159C155.422 57.1341 154.664 57.9983 153.791 58.7516C152.944 59.4766 151.98 60.0643 150.9 60.5149C149.846 60.9635 148.726 61.2314 147.54 61.3187C145.931 61.437 144.407 61.2575 142.968 60.7803C141.552 60.2748 140.292 59.5458 139.189 58.5933C138.085 57.6408 137.179 56.5015 136.472 55.1752C135.789 53.8207 135.389 52.3393 135.271 50.7312C135.154 49.1495 135.337 47.665 135.818 46.2779C136.297 44.8643 137 43.6198 137.929 42.5444C138.855 41.4425 139.982 40.5512 141.31 39.8704C142.638 39.1895 144.08 38.7919 145.635 38.6775C147.191 38.5631 148.676 38.7586 150.092 39.2641C151.532 39.7413 152.802 40.443 153.904 41.3691C155.032 42.2933 155.949 43.4053 156.654 44.7052C157.36 46.0051 157.768 47.4064 157.878 48.909C157.894 49.1199 157.896 49.3318 157.885 49.5447C157.872 49.7311 157.847 49.9318 157.81 50.1465L138.275 51.5836C138.408 52.6606 138.745 53.643 139.287 54.5308C139.83 55.4186 140.496 56.1912 141.287 56.8487C142.102 57.4779 143.025 57.9533 144.055 58.2751C145.086 58.5968 146.155 58.717 147.263 58.6355C148.923 58.5133 150.406 57.9536 151.711 56.9565C153.041 55.931 153.954 54.6578 154.452 53.1369ZM138.16 48.9284L154.728 47.7095C154.069 45.5846 152.942 43.9579 151.348 42.8294C149.78 41.699 147.942 41.2113 145.833 41.3665C144.805 41.4421 143.842 41.6852 142.945 42.0958C142.072 42.4781 141.303 43.0118 140.637 43.6969C139.97 44.3556 139.418 45.1383 138.981 46.0451C138.569 46.9236 138.295 47.8847 138.16 48.9284ZM163.181 67.2846L161.032 38.0617L163.958 37.8464L164.231 41.5636C165.051 40.0985 166.147 38.9577 167.518 38.1411C168.916 37.3227 170.55 36.8446 172.422 36.7069C174.03 36.5886 175.554 36.7681 176.994 37.2452C178.434 37.7224 179.693 38.4382 180.77 39.3927C181.872 40.3188 182.764 41.4592 183.447 42.8137C184.128 44.1419 184.527 45.6101 184.646 47.2182C184.764 48.8263 184.57 50.3381 184.065 51.7535C183.586 53.1671 182.87 54.4257 181.917 55.5295C180.963 56.6069 179.808 57.487 178.454 58.1698C177.099 58.8525 175.618 59.2531 174.01 59.3714C172.191 59.5052 170.543 59.2685 169.067 58.6615C167.591 58.0544 166.328 57.0872 165.276 55.7598L166.108 67.0693L163.181 67.2846ZM173.772 56.6853C174.985 56.5961 176.09 56.3027 177.087 55.8053C178.109 55.2796 178.974 54.6063 179.682 53.7856C180.39 52.9648 180.917 52.0248 181.264 50.9657C181.634 49.8782 181.775 48.7281 181.686 47.5154C181.592 46.25 181.283 45.1066 180.757 44.085C180.256 43.0352 179.595 42.1562 178.774 41.4479C177.952 40.7132 176.997 40.1738 175.912 39.8296C174.824 39.459 173.648 39.3203 172.383 39.4133C171.196 39.5006 170.105 39.8062 169.11 40.33C168.115 40.8538 167.264 41.5392 166.558 42.3863C165.85 43.2071 165.31 44.1612 164.94 45.2487C164.596 46.3342 164.468 47.4833 164.557 48.696C164.646 49.9087 164.941 51.0267 165.44 52.0502C165.966 53.0718 166.64 53.9498 167.463 54.6845C168.31 55.3908 169.264 55.9302 170.325 56.3028C171.411 56.647 172.56 56.7745 173.772 56.6853ZM187.284 57.878L195.72 46.0854L185.693 36.2475L189.37 35.9769L198.633 45.1555L197.912 35.3486L200.838 35.1333L201.56 44.9402L209.38 34.5049L213.057 34.2344L204.578 45.4338L214.648 55.8649L210.971 56.1354L201.667 46.4033L202.429 56.7638L199.503 56.9791L198.741 46.6186L190.962 57.6074L187.284 57.878ZM217.343 55.6666L215.752 34.0361L218.678 33.8209L219.388 43.4696L228.564 33.0936L232.36 32.8143L222.336 44.0876L233.952 54.4448L230.116 54.727L219.519 45.2491L220.269 55.4514L217.343 55.6666ZM235.03 43.5513C234.91 41.9169 235.089 40.3929 235.568 38.9794C236.046 37.5395 236.748 36.2818 237.676 35.2063C238.629 34.1025 239.782 33.2093 241.137 32.5265C242.491 31.8437 243.973 31.4432 245.581 31.3249C247.479 31.1853 249.125 31.4087 250.52 31.9952C251.942 32.5798 253.249 33.5969 254.442 35.0464L254.16 31.2106L257.086 30.9953L258.678 52.6258L255.751 52.8411L255.472 49.0449C254.427 50.6856 253.295 51.8821 252.078 52.6342C250.862 53.3864 249.33 53.8303 247.485 53.9661C245.824 54.0883 244.262 53.9249 242.797 53.476C241.331 53.0008 240.034 52.301 238.906 51.3768C237.804 50.4507 236.912 49.3235 236.232 47.9953C235.549 46.6408 235.148 45.1595 235.03 43.5513ZM237.987 43.2145C238.076 44.4272 238.384 45.5443 238.91 46.5659C239.435 47.5874 240.11 48.4655 240.932 49.2001C241.781 49.9328 242.736 50.4854 243.797 50.8579C244.885 51.2285 246.035 51.3692 247.248 51.28C248.434 51.1927 249.512 50.8882 250.48 50.3663C251.476 49.8425 252.314 49.1712 252.996 48.3524C253.702 47.5053 254.228 46.5389 254.572 45.4534C254.916 44.3679 255.043 43.2056 254.951 41.9665C254.86 40.7275 254.553 39.6104 254.029 38.6152C253.53 37.5918 252.87 36.7259 252.049 36.0176C251.228 35.3093 250.275 34.7831 249.189 34.4389C248.128 34.0663 246.978 33.9256 245.739 34.0168C244.579 34.1021 243.502 34.4067 242.506 34.9305C241.538 35.4524 240.7 36.1368 239.994 36.984C239.285 37.8047 238.746 38.7588 238.375 39.8463C238.029 40.9055 237.9 42.0282 237.987 43.2145Z" fill="black"/>
</svg>
