<svg width="255" height="66" viewBox="0 0 255 66" fill="none" xmlns="http://www.w3.org/2000/svg">
<rect x="0.59375" width="253.444" height="65.2222" rx="32.6111" fill="#32E97B"/>
<path d="M29.9602 42.6113V23.9981H32.4782V39.0384L43.8095 23.9981H46.3275V42.6113H43.8095V27.571L32.4782 42.6113H29.9602ZM50.6294 42.6113V23.9981H53.1474V31.9947H64.3085V23.9981H66.8266V42.6113H64.3085V34.2745H53.1474V42.6113H50.6294ZM86.786 37.1329H89.6444C88.5555 39.1518 87.2737 40.6491 85.7992 41.6245C84.3247 42.5773 82.5666 43.0537 80.5249 43.0537C79.0957 43.0537 77.7573 42.8042 76.5096 42.3051C75.2846 41.806 74.2184 41.1141 73.311 40.2294C72.4036 39.3447 71.689 38.3125 71.1673 37.1329C70.6455 35.9305 70.3846 34.6375 70.3846 33.2537C70.3846 31.8926 70.6455 30.6222 71.1673 29.4426C71.689 28.2629 72.3923 27.2421 73.277 26.3801C74.1844 25.4954 75.2393 24.8035 76.4416 24.3044C77.6666 23.8053 78.971 23.5558 80.3548 23.5558C82.4645 23.5558 84.3474 24.1002 86.0034 25.1891C87.6594 26.278 88.8617 27.7639 89.6103 29.6467H86.786C86.0601 28.4217 85.1413 27.4917 84.0298 26.8565C82.9409 26.1986 81.7045 25.8697 80.3207 25.8697C79.2772 25.8697 78.3018 26.0625 77.3943 26.4481C76.5096 26.8338 75.7383 27.3669 75.0805 28.0474C74.4226 28.7053 73.9008 29.4879 73.5152 30.3954C73.1295 31.3028 72.9367 32.2782 72.9367 33.3217C72.9367 34.3653 73.1295 35.3407 73.5152 36.2481C73.9008 37.1329 74.4339 37.9155 75.1145 38.596C75.795 39.2539 76.589 39.7757 77.4964 40.1613C78.4038 40.547 79.3793 40.7398 80.4228 40.7398C81.7612 40.7398 82.9068 40.4676 83.8596 39.9231C84.8351 39.3787 85.8106 38.4486 86.786 37.1329ZM96.2954 42.6113V26.278H91.3954V23.9981H103.645V26.278H98.8135V42.6113H96.2954ZM106.19 49.1447V23.9981H108.708V27.1967C109.502 25.9944 110.512 25.087 111.737 24.4745C112.985 23.862 114.414 23.5558 116.024 23.5558C117.408 23.5558 118.701 23.8053 119.904 24.3044C121.106 24.8035 122.138 25.4954 123 26.3801C123.885 27.2421 124.577 28.2743 125.076 29.4766C125.575 30.6562 125.824 31.9379 125.824 33.3217C125.824 34.7055 125.564 35.9873 125.042 37.1669C124.543 38.3465 123.851 39.3787 122.966 40.2634C122.081 41.1254 121.038 41.806 119.835 42.3051C118.633 42.8042 117.34 43.0537 115.956 43.0537C114.391 43.0537 112.996 42.7474 111.771 42.1349C110.546 41.5224 109.525 40.615 108.708 39.4127V49.1447H106.19ZM115.922 40.7398C116.966 40.7398 117.93 40.5583 118.815 40.1954C119.722 39.8097 120.505 39.2879 121.163 38.6301C121.82 37.9722 122.331 37.2009 122.694 36.3162C123.079 35.4088 123.272 34.4333 123.272 33.3898C123.272 32.3009 123.079 31.3028 122.694 30.3954C122.331 29.4653 121.82 28.6713 121.163 28.0134C120.505 27.3329 119.722 26.8111 118.815 26.4481C117.907 26.0625 116.909 25.8697 115.82 25.8697C114.799 25.8697 113.847 26.0625 112.962 26.4481C112.077 26.8338 111.306 27.3669 110.648 28.0474C109.99 28.7053 109.468 29.4879 109.083 30.3954C108.72 31.3028 108.538 32.2782 108.538 33.3217C108.538 34.3653 108.72 35.3407 109.083 36.2481C109.468 37.1555 109.99 37.9495 110.648 38.6301C111.329 39.2879 112.111 39.8097 112.996 40.1954C113.903 40.5583 114.879 40.7398 115.922 40.7398ZM131.733 49.1447L134.761 41.9988L127.548 23.9981H130.304L136.191 38.8342L142.486 23.9981H145.174L134.421 49.1447H131.733ZM147.628 42.6113V23.9981H151.542L158.041 39.1065L164.54 23.9981H168.453V42.6113H165.935V26.7544L159.13 42.6113H156.952L150.147 26.7544V42.6113H147.628ZM188.301 36.4863H190.921C190.581 37.4618 190.105 38.3579 189.492 39.1745C188.88 39.9685 188.176 40.6604 187.382 41.2502C186.611 41.8173 185.749 42.2597 184.796 42.5773C183.866 42.8949 182.891 43.0537 181.87 43.0537C180.486 43.0537 179.193 42.8042 177.991 42.3051C176.811 41.7833 175.779 41.0801 174.894 40.1954C174.01 39.3106 173.306 38.2785 172.785 37.0988C172.286 35.8965 172.036 34.6035 172.036 33.2197C172.036 31.8585 172.286 30.5995 172.785 29.4426C173.284 28.2629 173.964 27.2421 174.826 26.3801C175.688 25.4954 176.709 24.8035 177.889 24.3044C179.068 23.8053 180.327 23.5558 181.666 23.5558C183.004 23.5558 184.263 23.8167 185.443 24.3384C186.645 24.8375 187.689 25.518 188.573 26.3801C189.481 27.2421 190.195 28.2516 190.717 29.4085C191.239 30.5655 191.5 31.7905 191.5 33.0836C191.5 33.265 191.489 33.4465 191.466 33.628C191.443 33.7868 191.409 33.9569 191.364 34.1384H174.554C174.599 35.0685 174.826 35.9305 175.235 36.7245C175.643 37.5185 176.165 38.2217 176.8 38.8342C177.458 39.4241 178.218 39.8891 179.08 40.2294C179.942 40.5697 180.849 40.7398 181.802 40.7398C183.231 40.7398 184.536 40.3542 185.715 39.5829C186.917 38.7889 187.779 37.7567 188.301 36.4863ZM174.622 31.8585H188.88C188.449 29.9984 187.587 28.5352 186.294 27.469C185.023 26.4028 183.481 25.8697 181.666 25.8697C180.781 25.8697 179.942 26.0171 179.148 26.312C178.376 26.5842 177.685 26.9926 177.072 27.537C176.46 28.0588 175.938 28.694 175.507 29.4426C175.098 30.1685 174.804 30.9738 174.622 31.8585ZM194.882 42.6113V23.9981H197.4V31.9947H208.561V23.9981H211.079V42.6113H208.561V34.2745H197.4V42.6113H194.882ZM218.516 42.6113V26.278H213.616V23.9981H225.866V26.278H221.034V42.6113H218.516Z" fill="black"/>
</svg>
