<svg width="250" height="267" viewBox="0 0 250 267" fill="none" xmlns="http://www.w3.org/2000/svg">
<rect x="0.666992" y="0.222656" width="248.889" height="248.889" rx="31.1111" fill="#E1B4F9"/>
<path d="M30.53 47.8896V34.151H33.3424V40.423L38.6189 34.151H42.0784L36.1549 40.9208L42.2776 47.8896H38.594L33.3424 41.5181V47.8896H30.53ZM43.1792 41.0452C43.1792 40.0331 43.3617 39.0873 43.7267 38.2079C44.1084 37.3285 44.631 36.5652 45.2947 35.9181C45.9584 35.271 46.73 34.7649 47.6094 34.3999C48.5054 34.0182 49.4678 33.8274 50.4965 33.8274C51.4921 33.8274 52.4296 34.0182 53.309 34.3999C54.1884 34.7815 54.9516 35.2959 55.5987 35.943C56.2459 36.5901 56.7519 37.3534 57.117 38.2328C57.4986 39.1122 57.6894 40.0496 57.6894 41.0452C57.6894 42.0574 57.4986 43.0031 57.117 43.8825C56.7519 44.7454 56.2459 45.5003 55.5987 46.1474C54.9516 46.7779 54.1884 47.284 53.309 47.6656C52.4296 48.0307 51.4921 48.2132 50.4965 48.2132C49.4678 48.2132 48.5054 48.0307 47.6094 47.6656C46.73 47.3006 45.9584 46.7945 45.2947 46.1474C44.631 45.4837 44.1084 44.7205 43.7267 43.8576C43.3617 42.9782 43.1792 42.0408 43.1792 41.0452ZM50.4467 45.6248C51.0607 45.6248 51.6331 45.5086 52.1641 45.2763C52.7116 45.044 53.1762 44.7205 53.5579 44.3056C53.9561 43.8908 54.263 43.4096 54.4787 42.8621C54.711 42.3145 54.8272 41.7172 54.8272 41.0701C54.8272 40.4064 54.711 39.7925 54.4787 39.2283C54.263 38.6642 53.9561 38.1747 53.5579 37.7599C53.1596 37.3451 52.6867 37.0215 52.1392 36.7892C51.5916 36.5403 51.0026 36.4159 50.3721 36.4159C49.7747 36.4159 49.2106 36.5403 48.6796 36.7892C48.1487 37.0215 47.6841 37.3534 47.2859 37.7848C46.8876 38.1996 46.5724 38.6891 46.3401 39.2532C46.1244 39.8008 46.0165 40.3981 46.0165 41.0452C46.0165 41.6923 46.1244 42.2979 46.3401 42.8621C46.5724 43.4096 46.8876 43.8908 47.2859 44.3056C47.7007 44.7205 48.1736 45.044 48.7045 45.2763C49.2521 45.5086 49.8328 45.6248 50.4467 45.6248ZM59.9154 47.8896V34.151H63.3999L67.7554 42.5634L72.111 34.151H75.5705V47.8896H72.7581V37.959L68.6514 45.9732H66.8345L62.7279 37.959V47.8896H59.9154ZM78.4119 47.8896V34.151H90.7817V47.8896H87.9693V36.7145H81.2244V47.8896H78.4119ZM93.0299 41.0452C93.0299 40.0331 93.2124 39.0873 93.5774 38.2079C93.9591 37.3285 94.4817 36.5652 95.1454 35.9181C95.8091 35.271 96.5807 34.7649 97.4601 34.3999C98.3561 34.0182 99.3185 33.8274 100.347 33.8274C101.343 33.8274 102.28 34.0182 103.16 34.3999C104.039 34.7815 104.802 35.2959 105.449 35.943C106.097 36.5901 106.603 37.3534 106.968 38.2328C107.349 39.1122 107.54 40.0496 107.54 41.0452C107.54 42.0574 107.349 43.0031 106.968 43.8825C106.603 44.7454 106.097 45.5003 105.449 46.1474C104.802 46.7779 104.039 47.284 103.16 47.6656C102.28 48.0307 101.343 48.2132 100.347 48.2132C99.3185 48.2132 98.3561 48.0307 97.4601 47.6656C96.5807 47.3006 95.8091 46.7945 95.1454 46.1474C94.4817 45.4837 93.9591 44.7205 93.5774 43.8576C93.2124 42.9782 93.0299 42.0408 93.0299 41.0452ZM100.297 45.6248C100.911 45.6248 101.484 45.5086 102.015 45.2763C102.562 45.044 103.027 44.7205 103.409 44.3056C103.807 43.8908 104.114 43.4096 104.329 42.8621C104.562 42.3145 104.678 41.7172 104.678 41.0701C104.678 40.4064 104.562 39.7925 104.329 39.2283C104.114 38.6642 103.807 38.1747 103.409 37.7599C103.01 37.3451 102.537 37.0215 101.99 36.7892C101.442 36.5403 100.853 36.4159 100.223 36.4159C99.6254 36.4159 99.0613 36.5403 98.5303 36.7892C97.9994 37.0215 97.5348 37.3534 97.1365 37.7848C96.7383 38.1996 96.4231 38.6891 96.1908 39.2532C95.9751 39.8008 95.8672 40.3981 95.8672 41.0452C95.8672 41.6923 95.9751 42.2979 96.1908 42.8621C96.4231 43.4096 96.7383 43.8908 97.1365 44.3056C97.5514 44.7205 98.0243 45.044 98.5552 45.2763C99.1028 45.5086 99.6835 45.6248 100.297 45.6248ZM109.044 43.6834H111.857C111.907 44.2476 112.147 44.7122 112.579 45.0772C113.027 45.4422 113.574 45.6248 114.221 45.6248C114.553 45.6248 114.86 45.575 115.142 45.4754C115.441 45.3759 115.69 45.2431 115.889 45.0772C116.104 44.8947 116.27 44.6873 116.387 44.455C116.519 44.2061 116.586 43.9489 116.586 43.6834C116.586 43.0031 116.32 42.5054 115.789 42.1901C115.258 41.8748 114.412 41.7172 113.251 41.7172V39.751C114.23 39.751 114.943 39.6099 115.391 39.3279C115.856 39.0292 116.088 38.5812 116.088 37.9839C116.088 37.5525 115.905 37.1791 115.54 36.8639C115.192 36.5486 114.752 36.391 114.221 36.391C113.707 36.391 113.267 36.5403 112.902 36.839C112.554 37.1211 112.338 37.5027 112.255 37.9839H109.567C109.617 37.3865 109.766 36.8307 110.015 36.3163C110.264 35.8019 110.596 35.3622 111.011 34.9972C111.425 34.6322 111.907 34.3501 112.454 34.151C113.002 33.9353 113.591 33.8274 114.221 33.8274C114.868 33.8274 115.474 33.9353 116.038 34.151C116.602 34.3501 117.092 34.6405 117.507 35.0221C117.921 35.4037 118.245 35.8517 118.477 36.3661C118.726 36.8639 118.851 37.4031 118.851 37.9839C118.851 38.5978 118.668 39.1454 118.303 39.6265C117.955 40.0911 117.482 40.4064 116.884 40.5723V40.647C117.648 40.8461 118.262 41.2277 118.726 41.7919C119.191 42.3394 119.423 42.9699 119.423 43.6834C119.423 44.3139 119.29 44.903 119.025 45.4505C118.759 45.9981 118.386 46.4793 117.905 46.8941C117.44 47.2923 116.893 47.6159 116.262 47.8648C115.632 48.0971 114.96 48.2132 114.246 48.2132C113.549 48.2132 112.894 48.0971 112.28 47.8648C111.666 47.6325 111.127 47.3172 110.662 46.919C110.198 46.5042 109.824 46.023 109.542 45.4754C109.26 44.9113 109.094 44.3139 109.044 43.6834ZM121.676 47.8896V34.151H124.488V43.9074L131.358 34.151H134.22V47.8896H131.407V38.1581L124.538 47.8896H121.676ZM137.061 47.8896V34.151H139.874V45.3261H146.171V34.151H149.008V45.3261H151.497V51.1252H149.481L148.784 47.8896H137.061ZM153.224 47.8896V34.151H156.037V43.9074L162.906 34.151H165.768V47.8896H162.956V38.1581L156.087 47.8896H153.224ZM175.653 40.2985V36.7145H173.165C172.468 36.7145 171.92 36.8722 171.522 37.1874C171.14 37.5027 170.949 37.9424 170.949 38.5065C170.949 39.0707 171.14 39.5104 171.522 39.8256C171.92 40.1409 172.468 40.2985 173.165 40.2985H175.653ZM167.54 47.8896L171.173 42.6132C170.244 42.3145 169.498 41.8002 168.933 41.0701C168.386 40.3234 168.112 39.4689 168.112 38.5065C168.112 37.876 168.228 37.2953 168.461 36.7643C168.693 36.2334 169.016 35.7771 169.431 35.3954C169.863 35.0138 170.369 34.7151 170.949 34.4994C171.53 34.2671 172.161 34.151 172.841 34.151H178.466V47.8896H175.653V42.8621H174.11L170.9 47.8896H167.54ZM193.102 47.8896V32.135H190.514V29.4968H195.915V47.8896H193.102Z" fill="black"/>
<path d="M142.889 224.668C142.889 247.986 123.985 266.89 100.667 266.89C77.3479 266.89 58.4443 247.986 58.4443 224.668C58.4443 201.349 77.3479 182.445 100.667 182.445C123.985 182.445 142.889 201.349 142.889 224.668Z" fill="white"/>
<path d="M84.127 237.057C83.133 238.051 83.133 239.662 84.127 240.656C85.121 241.65 86.7325 241.65 87.7265 240.656L84.127 237.057ZM117.401 209.928C117.401 208.522 116.261 207.383 114.856 207.383H91.9486C90.5429 207.383 89.4034 208.522 89.4034 209.928C89.4034 211.333 90.5429 212.473 91.9486 212.473H112.31V232.835C112.31 234.241 113.45 235.38 114.856 235.38C116.261 235.38 117.401 234.241 117.401 232.835V209.928ZM87.7265 240.656L116.655 211.727L113.056 208.128L84.127 237.057L87.7265 240.656Z" fill="black"/>
<path d="M237.111 224.668C237.111 247.986 218.208 266.89 194.889 266.89C171.571 266.89 152.667 247.986 152.667 224.668C152.667 201.349 171.571 182.445 194.889 182.445C218.208 182.445 237.111 201.349 237.111 224.668Z" fill="white"/>
<path d="M185.556 237.423V212.941C185.556 210.477 188.247 208.957 190.357 210.229L211.167 222.776C213.235 224.023 213.202 227.033 211.107 228.235L190.298 240.17C188.187 241.381 185.556 239.857 185.556 237.423Z" stroke="black" stroke-width="5.09333"/>
</svg>
