<svg width="249" height="267" viewBox="0 0 249 267" fill="none" xmlns="http://www.w3.org/2000/svg">
<rect y="0.222656" width="248.889" height="248.889" rx="31.1111" fill="#32E97B"/>
<path d="M29.863 47.8896V34.151H32.6754V40.423L37.9519 34.151H41.4114L35.4879 40.9208L41.6106 47.8896H37.927L32.6754 41.5181V47.8896H29.863ZM42.5122 41.0452C42.5122 40.0331 42.6947 39.0873 43.0598 38.2079C43.4414 37.3285 43.964 36.5652 44.6278 35.9181C45.2915 35.271 46.063 34.7649 46.9424 34.3999C47.8384 34.0182 48.8008 33.8274 49.8295 33.8274C50.8251 33.8274 51.7626 34.0182 52.642 34.3999C53.5214 34.7815 54.2846 35.2959 54.9318 35.943C55.5789 36.5901 56.0849 37.3534 56.45 38.2328C56.8316 39.1122 57.0224 40.0496 57.0224 41.0452C57.0224 42.0574 56.8316 43.0031 56.45 43.8825C56.0849 44.7454 55.5789 45.5003 54.9318 46.1474C54.2846 46.7779 53.5214 47.284 52.642 47.6656C51.7626 48.0307 50.8251 48.2132 49.8295 48.2132C48.8008 48.2132 47.8384 48.0307 46.9424 47.6656C46.063 47.3006 45.2915 46.7945 44.6278 46.1474C43.964 45.4837 43.4414 44.7205 43.0598 43.8576C42.6947 42.9782 42.5122 42.0408 42.5122 41.0452ZM49.7798 45.6248C50.3937 45.6248 50.9661 45.5086 51.4971 45.2763C52.0446 45.044 52.5092 44.7205 52.8909 44.3056C53.2891 43.8908 53.596 43.4096 53.8118 42.8621C54.044 42.3145 54.1602 41.7172 54.1602 41.0701C54.1602 40.4064 54.044 39.7925 53.8118 39.2283C53.596 38.6642 53.2891 38.1747 52.8909 37.7599C52.4926 37.3451 52.0198 37.0215 51.4722 36.7892C50.9246 36.5403 50.3356 36.4159 49.7051 36.4159C49.1078 36.4159 48.5436 36.5403 48.0126 36.7892C47.4817 37.0215 47.0171 37.3534 46.6189 37.7848C46.2206 38.1996 45.9054 38.6891 45.6731 39.2532C45.4574 39.8008 45.3495 40.3981 45.3495 41.0452C45.3495 41.6923 45.4574 42.2979 45.6731 42.8621C45.9054 43.4096 46.2206 43.8908 46.6189 44.3056C47.0337 44.7205 47.5066 45.044 48.0375 45.2763C48.5851 45.5086 49.1658 45.6248 49.7798 45.6248ZM59.2484 47.8896V34.151H62.7329L67.0884 42.5634L71.444 34.151H74.9035V47.8896H72.0911V37.959L67.9844 45.9732H66.1675L62.0609 37.959V47.8896H59.2484ZM77.7449 47.8896V34.151H90.1147V47.8896H87.3023V36.7145H80.5574V47.8896H77.7449ZM92.3629 41.0452C92.3629 40.0331 92.5454 39.0873 92.9104 38.2079C93.2921 37.3285 93.8147 36.5652 94.4784 35.9181C95.1422 35.271 95.9137 34.7649 96.7931 34.3999C97.6891 34.0182 98.6515 33.8274 99.6802 33.8274C100.676 33.8274 101.613 34.0182 102.493 34.3999C103.372 34.7815 104.135 35.2959 104.782 35.943C105.43 36.5901 105.936 37.3534 106.301 38.2328C106.682 39.1122 106.873 40.0496 106.873 41.0452C106.873 42.0574 106.682 43.0031 106.301 43.8825C105.936 44.7454 105.43 45.5003 104.782 46.1474C104.135 46.7779 103.372 47.284 102.493 47.6656C101.613 48.0307 100.676 48.2132 99.6802 48.2132C98.6515 48.2132 97.6891 48.0307 96.7931 47.6656C95.9137 47.3006 95.1422 46.7945 94.4784 46.1474C93.8147 45.4837 93.2921 44.7205 92.9104 43.8576C92.5454 42.9782 92.3629 42.0408 92.3629 41.0452ZM99.6304 45.6248C100.244 45.6248 100.817 45.5086 101.348 45.2763C101.895 45.044 102.36 44.7205 102.742 44.3056C103.14 43.8908 103.447 43.4096 103.662 42.8621C103.895 42.3145 104.011 41.7172 104.011 41.0701C104.011 40.4064 103.895 39.7925 103.662 39.2283C103.447 38.6642 103.14 38.1747 102.742 37.7599C102.343 37.3451 101.87 37.0215 101.323 36.7892C100.775 36.5403 100.186 36.4159 99.5558 36.4159C98.9584 36.4159 98.3943 36.5403 97.8633 36.7892C97.3324 37.0215 96.8678 37.3534 96.4696 37.7848C96.0713 38.1996 95.7561 38.6891 95.5238 39.2532C95.3081 39.8008 95.2002 40.3981 95.2002 41.0452C95.2002 41.6923 95.3081 42.2979 95.5238 42.8621C95.7561 43.4096 96.0713 43.8908 96.4696 44.3056C96.8844 44.7205 97.3573 45.044 97.8882 45.2763C98.4358 45.5086 99.0165 45.6248 99.6304 45.6248ZM108.377 43.6834H111.19C111.24 44.2476 111.48 44.7122 111.912 45.0772C112.36 45.4422 112.907 45.6248 113.554 45.6248C113.886 45.6248 114.193 45.575 114.475 45.4754C114.774 45.3759 115.023 45.2431 115.222 45.0772C115.437 44.8947 115.603 44.6873 115.72 44.455C115.852 44.2061 115.919 43.9489 115.919 43.6834C115.919 43.0031 115.653 42.5054 115.122 42.1901C114.591 41.8748 113.745 41.7172 112.584 41.7172V39.751C113.563 39.751 114.276 39.6099 114.724 39.3279C115.189 39.0292 115.421 38.5812 115.421 37.9839C115.421 37.5525 115.238 37.1791 114.873 36.8639C114.525 36.5486 114.085 36.391 113.554 36.391C113.04 36.391 112.6 36.5403 112.235 36.839C111.887 37.1211 111.671 37.5027 111.588 37.9839H108.9C108.95 37.3865 109.099 36.8307 109.348 36.3163C109.597 35.8019 109.929 35.3622 110.344 34.9972C110.758 34.6322 111.24 34.3501 111.787 34.151C112.335 33.9353 112.924 33.8274 113.554 33.8274C114.201 33.8274 114.807 33.9353 115.371 34.151C115.935 34.3501 116.425 34.6405 116.84 35.0221C117.254 35.4037 117.578 35.8517 117.81 36.3661C118.059 36.8639 118.184 37.4031 118.184 37.9839C118.184 38.5978 118.001 39.1454 117.636 39.6265C117.288 40.0911 116.815 40.4064 116.217 40.5723V40.647C116.981 40.8461 117.595 41.2277 118.059 41.7919C118.524 42.3394 118.756 42.9699 118.756 43.6834C118.756 44.3139 118.623 44.903 118.358 45.4505C118.092 45.9981 117.719 46.4793 117.238 46.8941C116.773 47.2923 116.226 47.6159 115.595 47.8648C114.965 48.0971 114.293 48.2132 113.579 48.2132C112.882 48.2132 112.227 48.0971 111.613 47.8648C110.999 47.6325 110.46 47.3172 109.995 46.919C109.531 46.5042 109.157 46.023 108.875 45.4754C108.593 44.9113 108.427 44.3139 108.377 43.6834ZM121.009 47.8896V34.151H123.821V43.9074L130.691 34.151H133.553V47.8896H130.74V38.1581L123.871 47.8896H121.009ZM136.394 47.8896V34.151H139.207V45.3261H145.504V34.151H148.341V45.3261H150.83V51.1252H148.814L148.117 47.8896H136.394ZM152.557 47.8896V34.151H155.37V43.9074L162.239 34.151H165.101V47.8896H162.289V38.1581L155.42 47.8896H152.557ZM174.986 40.2985V36.7145H172.498C171.801 36.7145 171.253 36.8722 170.855 37.1874C170.473 37.5027 170.282 37.9424 170.282 38.5065C170.282 39.0707 170.473 39.5104 170.855 39.8256C171.253 40.1409 171.801 40.2985 172.498 40.2985H174.986ZM166.873 47.8896L170.506 42.6132C169.577 42.3145 168.831 41.8002 168.266 41.0701C167.719 40.3234 167.445 39.4689 167.445 38.5065C167.445 37.876 167.561 37.2953 167.794 36.7643C168.026 36.2334 168.349 35.7771 168.764 35.3954C169.196 35.0138 169.702 34.7151 170.282 34.4994C170.863 34.2671 171.494 34.151 172.174 34.151H177.799V47.8896H174.986V42.8621H173.443L170.233 47.8896H166.873ZM186.437 44.9279V42.5883L195.048 29.4968H197.637V42.3892H199.504V44.9279H197.637V47.8896H194.824V44.9279H186.437ZM189.374 42.3892H194.824V34.0514L189.374 42.3892Z" fill="black"/>
<path d="M142.222 224.668C142.222 247.986 123.318 266.89 99.9996 266.89C76.6809 266.89 57.7773 247.986 57.7773 224.668C57.7773 201.349 76.6809 182.445 99.9996 182.445C123.318 182.445 142.222 201.349 142.222 224.668Z" fill="white"/>
<path d="M83.46 237.057C82.466 238.051 82.466 239.662 83.46 240.656C84.454 241.65 86.0655 241.65 87.0595 240.656L83.46 237.057ZM116.734 209.928C116.734 208.522 115.594 207.383 114.189 207.383H91.2816C89.876 207.383 88.7364 208.522 88.7364 209.928C88.7364 211.333 89.876 212.473 91.2816 212.473H111.643V232.835C111.643 234.241 112.783 235.38 114.189 235.38C115.594 235.38 116.734 234.241 116.734 232.835V209.928ZM87.0595 240.656L115.988 211.727L112.389 208.128L83.46 237.057L87.0595 240.656Z" fill="black"/>
<path d="M236.444 224.668C236.444 247.986 217.541 266.89 194.222 266.89C170.904 266.89 152 247.986 152 224.668C152 201.349 170.904 182.445 194.222 182.445C217.541 182.445 236.444 201.349 236.444 224.668Z" fill="white"/>
<path d="M184.889 237.423V212.941C184.889 210.477 187.58 208.957 189.69 210.229L210.5 222.776C212.568 224.023 212.535 227.033 210.44 228.235L189.631 240.17C187.52 241.381 184.889 239.857 184.889 237.423Z" stroke="black" stroke-width="5.09333"/>
</svg>
