<svg width="250" height="267" viewBox="0 0 250 267" fill="none" xmlns="http://www.w3.org/2000/svg">
<rect x="0.222656" y="0.222656" width="248.889" height="248.889" rx="31.1111" fill="#A1BBEF"/>
<path d="M30.0857 47.8896V34.151H32.8981V40.423L38.1745 34.151H41.6341L35.7105 40.9208L41.8332 47.8896H38.1497L32.8981 41.5181V47.8896H30.0857ZM42.7349 41.0452C42.7349 40.0331 42.9174 39.0873 43.2824 38.2079C43.664 37.3285 44.1867 36.5652 44.8504 35.9181C45.5141 35.271 46.2857 34.7649 47.1651 34.3999C48.0611 34.0182 49.0234 33.8274 50.0522 33.8274C51.0477 33.8274 51.9852 34.0182 52.8646 34.3999C53.744 34.7815 54.5073 35.2959 55.1544 35.943C55.8015 36.5901 56.3076 37.3534 56.6726 38.2328C57.0543 39.1122 57.2451 40.0496 57.2451 41.0452C57.2451 42.0574 57.0543 43.0031 56.6726 43.8825C56.3076 44.7454 55.8015 45.5003 55.1544 46.1474C54.5073 46.7779 53.744 47.284 52.8646 47.6656C51.9852 48.0307 51.0477 48.2132 50.0522 48.2132C49.0234 48.2132 48.0611 48.0307 47.1651 47.6656C46.2857 47.3006 45.5141 46.7945 44.8504 46.1474C44.1867 45.4837 43.664 44.7205 43.2824 43.8576C42.9174 42.9782 42.7349 42.0408 42.7349 41.0452ZM50.0024 45.6248C50.6163 45.6248 51.1888 45.5086 51.7197 45.2763C52.2673 45.044 52.7319 44.7205 53.1135 44.3056C53.5117 43.8908 53.8187 43.4096 54.0344 42.8621C54.2667 42.3145 54.3829 41.7172 54.3829 41.0701C54.3829 40.4064 54.2667 39.7925 54.0344 39.2283C53.8187 38.6642 53.5117 38.1747 53.1135 37.7599C52.7153 37.3451 52.2424 37.0215 51.6949 36.7892C51.1473 36.5403 50.5583 36.4159 49.9277 36.4159C49.3304 36.4159 48.7663 36.5403 48.2353 36.7892C47.7043 37.0215 47.2397 37.3534 46.8415 37.7848C46.4433 38.1996 46.128 38.6891 45.8957 39.2532C45.68 39.8008 45.5722 40.3981 45.5722 41.0452C45.5722 41.6923 45.68 42.2979 45.8957 42.8621C46.128 43.4096 46.4433 43.8908 46.8415 44.3056C47.2563 44.7205 47.7292 45.044 48.2602 45.2763C48.8077 45.5086 49.3885 45.6248 50.0024 45.6248ZM59.4711 47.8896V34.151H62.9555L67.3111 42.5634L71.6666 34.151H75.1262V47.8896H72.3137V37.959L68.2071 45.9732H66.3902L62.2835 37.959V47.8896H59.4711ZM77.9676 47.8896V34.151H90.3374V47.8896H87.5249V36.7145H80.78V47.8896H77.9676ZM92.5855 41.0452C92.5855 40.0331 92.7681 39.0873 93.1331 38.2079C93.5147 37.3285 94.0374 36.5652 94.7011 35.9181C95.3648 35.271 96.1364 34.7649 97.0158 34.3999C97.9118 34.0182 98.8741 33.8274 99.9029 33.8274C100.898 33.8274 101.836 34.0182 102.715 34.3999C103.595 34.7815 104.358 35.2959 105.005 35.943C105.652 36.5901 106.158 37.3534 106.523 38.2328C106.905 39.1122 107.096 40.0496 107.096 41.0452C107.096 42.0574 106.905 43.0031 106.523 43.8825C106.158 44.7454 105.652 45.5003 105.005 46.1474C104.358 46.7779 103.595 47.284 102.715 47.6656C101.836 48.0307 100.898 48.2132 99.9029 48.2132C98.8741 48.2132 97.9118 48.0307 97.0158 47.6656C96.1364 47.3006 95.3648 46.7945 94.7011 46.1474C94.0374 45.4837 93.5147 44.7205 93.1331 43.8576C92.7681 42.9782 92.5855 42.0408 92.5855 41.0452ZM99.8531 45.6248C100.467 45.6248 101.039 45.5086 101.57 45.2763C102.118 45.044 102.583 44.7205 102.964 44.3056C103.362 43.8908 103.669 43.4096 103.885 42.8621C104.117 42.3145 104.234 41.7172 104.234 41.0701C104.234 40.4064 104.117 39.7925 103.885 39.2283C103.669 38.6642 103.362 38.1747 102.964 37.7599C102.566 37.3451 102.093 37.0215 101.546 36.7892C100.998 36.5403 100.409 36.4159 99.7784 36.4159C99.1811 36.4159 98.617 36.5403 98.086 36.7892C97.555 37.0215 97.0904 37.3534 96.6922 37.7848C96.294 38.1996 95.9787 38.6891 95.7464 39.2532C95.5307 39.8008 95.4229 40.3981 95.4229 41.0452C95.4229 41.6923 95.5307 42.2979 95.7464 42.8621C95.9787 43.4096 96.294 43.8908 96.6922 44.3056C97.107 44.7205 97.5799 45.044 98.1109 45.2763C98.6584 45.5086 99.2392 45.6248 99.8531 45.6248ZM108.6 43.6834H111.412C111.462 44.2476 111.703 44.7122 112.134 45.0772C112.582 45.4422 113.13 45.6248 113.777 45.6248C114.109 45.6248 114.416 45.575 114.698 45.4754C114.996 45.3759 115.245 45.2431 115.444 45.0772C115.66 44.8947 115.826 44.6873 115.942 44.455C116.075 44.2061 116.141 43.9489 116.141 43.6834C116.141 43.0031 115.876 42.5054 115.345 42.1901C114.814 41.8748 113.968 41.7172 112.806 41.7172V39.751C113.785 39.751 114.499 39.6099 114.947 39.3279C115.411 39.0292 115.644 38.5812 115.644 37.9839C115.644 37.5525 115.461 37.1791 115.096 36.8639C114.748 36.5486 114.308 36.391 113.777 36.391C113.263 36.391 112.823 36.5403 112.458 36.839C112.109 37.1211 111.894 37.5027 111.811 37.9839H109.123C109.172 37.3865 109.322 36.8307 109.571 36.3163C109.82 35.8019 110.151 35.3622 110.566 34.9972C110.981 34.6322 111.462 34.3501 112.01 34.151C112.557 33.9353 113.146 33.8274 113.777 33.8274C114.424 33.8274 115.03 33.9353 115.594 34.151C116.158 34.3501 116.647 34.6405 117.062 35.0221C117.477 35.4037 117.801 35.8517 118.033 36.3661C118.282 36.8639 118.406 37.4031 118.406 37.9839C118.406 38.5978 118.224 39.1454 117.859 39.6265C117.51 40.0911 117.037 40.4064 116.44 40.5723V40.647C117.203 40.8461 117.817 41.2277 118.282 41.7919C118.746 42.3394 118.979 42.9699 118.979 43.6834C118.979 44.3139 118.846 44.903 118.58 45.4505C118.315 45.9981 117.942 46.4793 117.46 46.8941C116.996 47.2923 116.448 47.6159 115.818 47.8648C115.187 48.0971 114.515 48.2132 113.802 48.2132C113.105 48.2132 112.449 48.0971 111.836 47.8648C111.222 47.6325 110.682 47.3172 110.218 46.919C109.753 46.5042 109.38 46.023 109.098 45.4754C108.816 44.9113 108.65 44.3139 108.6 43.6834ZM121.231 47.8896V34.151H124.044V43.9074L130.913 34.151H133.775V47.8896H130.963V38.1581L124.094 47.8896H121.231ZM136.617 47.8896V34.151H139.429V45.3261H145.726V34.151H148.564V45.3261H151.052V51.1252H149.036L148.34 47.8896H136.617ZM152.78 47.8896V34.151H155.593V43.9074L162.462 34.151H165.324V47.8896H162.512V38.1581L155.642 47.8896H152.78ZM175.209 40.2985V36.7145H172.72C172.023 36.7145 171.476 36.8722 171.078 37.1874C170.696 37.5027 170.505 37.9424 170.505 38.5065C170.505 39.0707 170.696 39.5104 171.078 39.8256C171.476 40.1409 172.023 40.2985 172.72 40.2985H175.209ZM167.095 47.8896L170.729 42.6132C169.8 42.3145 169.053 41.8002 168.489 41.0701C167.942 40.3234 167.668 39.4689 167.668 38.5065C167.668 37.876 167.784 37.2953 168.016 36.7643C168.248 36.2334 168.572 35.7771 168.987 35.3954C169.418 35.0138 169.924 34.7151 170.505 34.4994C171.086 34.2671 171.716 34.151 172.397 34.151H178.022V47.8896H175.209V42.8621H173.666L170.455 47.8896H167.095ZM187.033 42.2648H189.845C189.961 43.3101 190.31 44.1314 190.891 44.7288C191.488 45.3261 192.26 45.6248 193.205 45.6248C193.67 45.6248 194.101 45.5418 194.5 45.3759C194.898 45.2099 195.238 44.9776 195.52 44.679C195.819 44.3637 196.051 43.9987 196.217 43.5839C196.383 43.1691 196.466 42.7128 196.466 42.215C196.466 41.1365 196.109 40.2902 195.396 39.6763C194.699 39.0624 193.72 38.7554 192.459 38.7554H191.936V36.0923H192.633C193.429 36.0923 194.052 35.8932 194.5 35.495C194.948 35.0968 195.172 34.5575 195.172 33.8772C195.172 33.2467 194.981 32.7406 194.599 32.359C194.234 31.9608 193.753 31.7616 193.156 31.7616C192.558 31.7616 192.094 31.9442 191.762 32.3092C191.446 32.6576 191.256 33.2052 191.189 33.9519H188.352C188.435 32.4751 188.908 31.3136 189.771 30.4674C190.633 29.6046 191.762 29.1732 193.156 29.1732C193.852 29.1732 194.5 29.2976 195.097 29.5465C195.694 29.7788 196.2 30.1107 196.615 30.5421C197.046 30.9735 197.378 31.4879 197.611 32.0852C197.86 32.6825 197.984 33.3296 197.984 34.0265C197.984 34.7566 197.851 35.3871 197.586 35.9181C197.32 36.4491 196.905 36.9136 196.341 37.3119C197.32 37.7765 198.05 38.407 198.532 39.2034C199.029 39.9999 199.278 40.9788 199.278 42.1403C199.278 43.0031 199.121 43.8079 198.805 44.5545C198.507 45.3012 198.092 45.9483 197.561 46.4959C197.03 47.0268 196.391 47.4499 195.644 47.7652C194.914 48.0639 194.118 48.2132 193.255 48.2132C192.376 48.2132 191.563 48.0722 190.816 47.7901C190.069 47.4914 189.422 47.0849 188.875 46.5705C188.344 46.0396 187.912 45.4091 187.58 44.679C187.249 43.9489 187.066 43.1442 187.033 42.2648Z" fill="black"/>
<path d="M142.444 224.668C142.444 247.986 123.541 266.89 100.222 266.89C76.9035 266.89 58 247.986 58 224.668C58 201.349 76.9035 182.445 100.222 182.445C123.541 182.445 142.444 201.349 142.444 224.668Z" fill="white"/>
<path d="M83.6827 237.057C82.6887 238.051 82.6887 239.662 83.6827 240.656C84.6766 241.65 86.2882 241.65 87.2822 240.656L83.6827 237.057ZM116.957 209.928C116.957 208.522 115.817 207.383 114.411 207.383H91.5043C90.0986 207.383 88.9591 208.522 88.9591 209.928C88.9591 211.333 90.0986 212.473 91.5043 212.473H111.866V232.835C111.866 234.241 113.006 235.38 114.411 235.38C115.817 235.38 116.957 234.241 116.957 232.835V209.928ZM87.2822 240.656L116.211 211.727L112.612 208.128L83.6827 237.057L87.2822 240.656Z" fill="black"/>
<path d="M236.667 224.668C236.667 247.986 217.764 266.89 194.445 266.89C171.126 266.89 152.223 247.986 152.223 224.668C152.223 201.349 171.126 182.445 194.445 182.445C217.764 182.445 236.667 201.349 236.667 224.668Z" fill="white"/>
<path d="M185.111 237.423V212.941C185.111 210.477 187.803 208.957 189.913 210.229L210.723 222.776C212.791 224.023 212.758 227.033 210.663 228.235L189.853 240.17C187.742 241.381 185.111 239.857 185.111 237.423Z" stroke="black" stroke-width="5.09333"/>
</svg>
