 <svg width="250" height="267" viewBox="0 0 250 267" fill="none" xmlns="http://www.w3.org/2000/svg">
<rect x="0.444336" y="0.222656" width="248.889" height="248.889" rx="31.1111" fill="#F8EB66"/>
<path d="M30.3073 47.8896V34.151H33.1198V40.423L38.3962 34.151H41.8558L35.9322 40.9208L42.0549 47.8896H38.3713L33.1198 41.5181V47.8896H30.3073ZM42.9565 41.0452C42.9565 40.0331 43.1391 39.0873 43.5041 38.2079C43.8857 37.3285 44.4084 36.5652 45.0721 35.9181C45.7358 35.271 46.5073 34.7649 47.3868 34.3999C48.2828 34.0182 49.2451 33.8274 50.2739 33.8274C51.2694 33.8274 52.2069 34.0182 53.0863 34.3999C53.9657 34.7815 54.729 35.2959 55.3761 35.943C56.0232 36.5901 56.5293 37.3534 56.8943 38.2328C57.2759 39.1122 57.4668 40.0496 57.4668 41.0452C57.4668 42.0574 57.2759 43.0031 56.8943 43.8825C56.5293 44.7454 56.0232 45.5003 55.3761 46.1474C54.729 46.7779 53.9657 47.284 53.0863 47.6656C52.2069 48.0307 51.2694 48.2132 50.2739 48.2132C49.2451 48.2132 48.2828 48.0307 47.3868 47.6656C46.5073 47.3006 45.7358 46.7945 45.0721 46.1474C44.4084 45.4837 43.8857 44.7205 43.5041 43.8576C43.1391 42.9782 42.9565 42.0408 42.9565 41.0452ZM50.2241 45.6248C50.838 45.6248 51.4105 45.5086 51.9414 45.2763C52.489 45.044 52.9536 44.7205 53.3352 44.3056C53.7334 43.8908 54.0404 43.4096 54.2561 42.8621C54.4884 42.3145 54.6045 41.7172 54.6045 41.0701C54.6045 40.4064 54.4884 39.7925 54.2561 39.2283C54.0404 38.6642 53.7334 38.1747 53.3352 37.7599C52.937 37.3451 52.4641 37.0215 51.9165 36.7892C51.369 36.5403 50.7799 36.4159 50.1494 36.4159C49.5521 36.4159 48.9879 36.5403 48.457 36.7892C47.926 37.0215 47.4614 37.3534 47.0632 37.7848C46.665 38.1996 46.3497 38.6891 46.1174 39.2532C45.9017 39.8008 45.7939 40.3981 45.7939 41.0452C45.7939 41.6923 45.9017 42.2979 46.1174 42.8621C46.3497 43.4096 46.665 43.8908 47.0632 44.3056C47.478 44.7205 47.9509 45.044 48.4819 45.2763C49.0294 45.5086 49.6102 45.6248 50.2241 45.6248ZM59.6928 47.8896V34.151H63.1772L67.5328 42.5634L71.8883 34.151H75.3479V47.8896H72.5354V37.959L68.4288 45.9732H66.6119L62.5052 37.959V47.8896H59.6928ZM78.1893 47.8896V34.151H90.5591V47.8896H87.7466V36.7145H81.0017V47.8896H78.1893ZM92.8072 41.0452C92.8072 40.0331 92.9897 39.0873 93.3548 38.2079C93.7364 37.3285 94.2591 36.5652 94.9228 35.9181C95.5865 35.271 96.358 34.7649 97.2374 34.3999C98.1334 34.0182 99.0958 33.8274 100.125 33.8274C101.12 33.8274 102.058 34.0182 102.937 34.3999C103.816 34.7815 104.58 35.2959 105.227 35.943C105.874 36.5901 106.38 37.3534 106.745 38.2328C107.127 39.1122 107.317 40.0496 107.317 41.0452C107.317 42.0574 107.127 43.0031 106.745 43.8825C106.38 44.7454 105.874 45.5003 105.227 46.1474C104.58 46.7779 103.816 47.284 102.937 47.6656C102.058 48.0307 101.12 48.2132 100.125 48.2132C99.0958 48.2132 98.1334 48.0307 97.2374 47.6656C96.358 47.3006 95.5865 46.7945 94.9228 46.1474C94.2591 45.4837 93.7364 44.7205 93.3548 43.8576C92.9897 42.9782 92.8072 42.0408 92.8072 41.0452ZM100.075 45.6248C100.689 45.6248 101.261 45.5086 101.792 45.2763C102.34 45.044 102.804 44.7205 103.186 44.3056C103.584 43.8908 103.891 43.4096 104.107 42.8621C104.339 42.3145 104.455 41.7172 104.455 41.0701C104.455 40.4064 104.339 39.7925 104.107 39.2283C103.891 38.6642 103.584 38.1747 103.186 37.7599C102.788 37.3451 102.315 37.0215 101.767 36.7892C101.22 36.5403 100.631 36.4159 100 36.4159C99.4028 36.4159 98.8386 36.5403 98.3077 36.7892C97.7767 37.0215 97.3121 37.3534 96.9139 37.7848C96.5157 38.1996 96.2004 38.6891 95.9681 39.2532C95.7524 39.8008 95.6446 40.3981 95.6446 41.0452C95.6446 41.6923 95.7524 42.2979 95.9681 42.8621C96.2004 43.4096 96.5157 43.8908 96.9139 44.3056C97.3287 44.7205 97.8016 45.044 98.3326 45.2763C98.8801 45.5086 99.4609 45.6248 100.075 45.6248ZM108.822 43.6834H111.634C111.684 44.2476 111.924 44.7122 112.356 45.0772C112.804 45.4422 113.351 45.6248 113.999 45.6248C114.33 45.6248 114.637 45.575 114.919 45.4754C115.218 45.3759 115.467 45.2431 115.666 45.0772C115.882 44.8947 116.048 44.6873 116.164 44.455C116.297 44.2061 116.363 43.9489 116.363 43.6834C116.363 43.0031 116.098 42.5054 115.567 42.1901C115.036 41.8748 114.189 41.7172 113.028 41.7172V39.751C114.007 39.751 114.72 39.6099 115.168 39.3279C115.633 39.0292 115.865 38.5812 115.865 37.9839C115.865 37.5525 115.683 37.1791 115.318 36.8639C114.969 36.5486 114.53 36.391 113.999 36.391C113.484 36.391 113.044 36.5403 112.679 36.839C112.331 37.1211 112.115 37.5027 112.032 37.9839H109.344C109.394 37.3865 109.543 36.8307 109.792 36.3163C110.041 35.8019 110.373 35.3622 110.788 34.9972C111.203 34.6322 111.684 34.3501 112.231 34.151C112.779 33.9353 113.368 33.8274 113.999 33.8274C114.646 33.8274 115.251 33.9353 115.815 34.151C116.38 34.3501 116.869 34.6405 117.284 35.0221C117.699 35.4037 118.022 35.8517 118.255 36.3661C118.503 36.8639 118.628 37.4031 118.628 37.9839C118.628 38.5978 118.445 39.1454 118.08 39.6265C117.732 40.0911 117.259 40.4064 116.662 40.5723V40.647C117.425 40.8461 118.039 41.2277 118.503 41.7919C118.968 42.3394 119.2 42.9699 119.2 43.6834C119.2 44.3139 119.068 44.903 118.802 45.4505C118.537 45.9981 118.163 46.4793 117.682 46.8941C117.218 47.2923 116.67 47.6159 116.039 47.8648C115.409 48.0971 114.737 48.2132 114.023 48.2132C113.327 48.2132 112.671 48.0971 112.057 47.8648C111.443 47.6325 110.904 47.3172 110.439 46.919C109.975 46.5042 109.602 46.023 109.319 45.4754C109.037 44.9113 108.871 44.3139 108.822 43.6834ZM121.453 47.8896V34.151H124.266V43.9074L131.135 34.151H133.997V47.8896H131.185V38.1581L124.315 47.8896H121.453ZM136.839 47.8896V34.151H139.651V45.3261H145.948V34.151H148.785V45.3261H151.274V51.1252H149.258L148.561 47.8896H136.839ZM153.002 47.8896V34.151H155.814V43.9074L162.684 34.151H165.546V47.8896H162.733V38.1581L155.864 47.8896H153.002ZM175.431 40.2985V36.7145H172.942C172.245 36.7145 171.697 36.8722 171.299 37.1874C170.918 37.5027 170.727 37.9424 170.727 38.5065C170.727 39.0707 170.918 39.5104 171.299 39.8256C171.697 40.1409 172.245 40.2985 172.942 40.2985H175.431ZM167.317 47.8896L170.951 42.6132C170.022 42.3145 169.275 41.8002 168.711 41.0701C168.163 40.3234 167.889 39.4689 167.889 38.5065C167.889 37.876 168.006 37.2953 168.238 36.7643C168.47 36.2334 168.794 35.7771 169.209 35.3954C169.64 35.0138 170.146 34.7151 170.727 34.4994C171.307 34.2671 171.938 34.151 172.618 34.151H178.243V47.8896H175.431V42.8621H173.888L170.677 47.8896H167.317ZM187.553 47.8896V45.4008L194.074 39.1785C194.572 38.7139 194.987 38.2908 195.319 37.9092C195.65 37.5276 195.908 37.1791 196.09 36.8639C196.289 36.5486 196.43 36.2416 196.513 35.943C196.596 35.6277 196.638 35.2959 196.638 34.9474C196.638 34.4828 196.563 34.0597 196.414 33.6781C196.264 33.2965 196.049 32.9646 195.767 32.6825C195.484 32.3839 195.153 32.1599 194.771 32.0105C194.406 31.8446 193.999 31.7616 193.551 31.7616C192.556 31.7616 191.768 32.1184 191.187 32.8319C190.606 33.5288 190.316 34.4911 190.316 35.719H187.528C187.528 34.7068 187.669 33.8025 187.951 33.0061C188.233 32.1931 188.632 31.5045 189.146 30.9403C189.66 30.3762 190.291 29.9448 191.038 29.6461C191.784 29.3308 192.614 29.1732 193.527 29.1732C194.389 29.1732 195.177 29.3225 195.891 29.6212C196.621 29.9033 197.243 30.3098 197.758 30.8408C198.289 31.3551 198.703 31.9774 199.002 32.7074C199.317 33.4209 199.475 34.1925 199.475 35.0221C199.475 35.5696 199.417 36.0757 199.301 36.5403C199.185 37.0049 198.985 37.4778 198.703 37.959C198.438 38.4236 198.081 38.9131 197.633 39.4274C197.185 39.9252 196.629 40.4811 195.966 41.095L191.486 45.2514H199.375V47.8896H187.553Z" fill="black"/>
<path d="M142.666 224.668C142.666 247.986 123.763 266.89 100.444 266.89C77.1252 266.89 58.2217 247.986 58.2217 224.668C58.2217 201.349 77.1252 182.445 100.444 182.445C123.763 182.445 142.666 201.349 142.666 224.668Z" fill="white"/>
<path d="M83.9044 237.057C82.9104 238.051 82.9104 239.662 83.9044 240.656C84.8983 241.65 86.5099 241.65 87.5039 240.656L83.9044 237.057ZM117.178 209.928C117.178 208.522 116.039 207.383 114.633 207.383H91.726C90.3203 207.383 89.1808 208.522 89.1808 209.928C89.1808 211.333 90.3203 212.473 91.726 212.473H112.088V232.835C112.088 234.241 113.227 235.38 114.633 235.38C116.039 235.38 117.178 234.241 117.178 232.835V209.928ZM87.5039 240.656L116.433 211.727L112.833 208.128L83.9044 237.057L87.5039 240.656Z" fill="black"/>
<path d="M236.889 224.668C236.889 247.986 217.985 266.89 194.667 266.89C171.348 266.89 152.444 247.986 152.444 224.668C152.444 201.349 171.348 182.445 194.667 182.445C217.985 182.445 236.889 201.349 236.889 224.668Z" fill="white"/>
<path d="M185.333 237.423V212.941C185.333 210.477 188.024 208.957 190.135 210.229L210.944 222.776C213.013 224.023 212.98 227.033 210.885 228.235L190.075 240.17C187.964 241.381 185.333 239.857 185.333 237.423Z" stroke="black" stroke-width="5.09333"/>
</svg>
