<svg width="83" height="30" viewBox="0 0 83 30" fill="none" xmlns="http://www.w3.org/2000/svg">
<path d="M56.7676 3.26637H52.4649V27.9438H56.7676V3.26637Z" fill="white"/>
<path d="M74.2559 10.1616H69.9532V21.1697H74.2559V10.1616Z" fill="white"/>
<path d="M65.5117 6.04839H61.2091V25.1613H65.5117V6.04839Z" fill="white"/>
<path d="M13.0468 10.1616H8.74415V21.1697H13.0468V10.1616Z" fill="white"/>
<path d="M83 14.3952H78.6974V16.8145H83V14.3952Z" fill="white"/>
<path d="M4.30264 15.6046H0V18.0239H4.30264V15.6046Z" fill="white"/>
<path d="M39.2793 7.74211H34.9766V25.1615H39.2793V7.74211Z" fill="white"/>
<path d="M48.0234 0H43.7208V30H48.0234V0Z" fill="white"/>
<path d="M21.7909 6.04839H17.4883V25.1613H21.7909V6.04839Z" fill="white"/>
<path d="M30.5351 2.17733H26.2325V29.9999H30.5351V2.17733Z" fill="white"/>
</svg>
